<?xml version="1.0" standalone="no"?>
<!DOCTYPE svg PUBLIC "-//W3C//DTD SVG 1.1//EN" "http://www.w3.org/Graphics/SVG/1.1/DTD/svg11.dtd">
<svg width="12mm" height="41mm" viewBox="-6 -17 12 41" xmlns="http://www.w3.org/2000/svg" version="1.1">
<title>OpenSCAD Model</title>
<path d="
M -5.08,21.4503 L -5.07961,21.4946 L -5.07845,21.5389 L -5.07652,21.5832 L -5.07381,21.6275 L -5.07033,21.6717
 L -5.06608,21.7158 L -5.06107,21.7598 L -5.05528,21.8038 L -5.04873,21.8476 L -5.04141,21.8914 L -5.03333,21.935
 L -5.02449,21.9784 L -5.0149,22.0217 L -5.00455,22.0648 L -4.99345,22.1077 L -4.9816,22.1504 L -4.96901,22.1929
 L -4.95568,22.2352 L -4.94162,22.2772 L -4.92682,22.319 L -4.91129,22.3606 L -4.89505,22.4018 L -4.87808,22.4428
 L -4.8604,22.4834 L -4.84202,22.5238 L -4.82294,22.5638 L -4.80316,22.6034 L -4.78269,22.6428 L -4.76153,22.6817
 L -4.7397,22.7203 L -4.7172,22.7585 L -4.69404,22.7963 L -4.67022,22.8337 L -4.64575,22.8706 L -4.62065,22.9072
 L -4.5949,22.9433 L -4.56853,22.9789 L -4.54155,23.0141 L -4.51395,23.0488 L -4.48575,23.083 L -4.45696,23.1167
 L -4.42759,23.1499 L -4.39764,23.1826 L -4.36712,23.2147 L -4.33605,23.2464 L -4.30443,23.2774 L -4.27227,23.3079
 L -4.23959,23.3379 L -4.20639,23.3673 L -4.17268,23.3961 L -4.13847,23.4243 L -4.10378,23.4518 L -4.06861,23.4788
 L -4.03297,23.5052 L -3.99688,23.5309 L -3.96035,23.5561 L -3.92338,23.5805 L -3.88599,23.6043 L -3.8482,23.6275
 L -3.81,23.65 L -3.77142,23.6718 L -3.73246,23.693 L -3.69314,23.7135 L -3.65346,23.7332 L -3.61345,23.7523
 L -3.57311,23.7707 L -3.53246,23.7884 L -3.4915,23.8053 L -3.45025,23.8216 L -3.40873,23.8371 L -3.36694,23.8519
 L -3.3249,23.866 L -3.28262,23.8793 L -3.24012,23.8919 L -3.1974,23.9038 L -3.15448,23.9149 L -3.11137,23.9252
 L -3.0681,23.9348 L -3.02465,23.9436 L -2.98107,23.9517 L -2.93734,23.959 L -2.8935,23.9656 L -2.84955,23.9714
 L -2.8055,23.9764 L -2.76138,23.9806 L -2.71718,23.9841 L -2.67293,23.9868 L -2.62864,23.9888 L -2.58433,23.9899
 L -2.54,23.9903 L 2.54,23.9903 L 2.58433,23.9899 L 2.62864,23.9888 L 2.67293,23.9868 L 2.71718,23.9841
 L 2.76138,23.9806 L 2.8055,23.9764 L 2.84955,23.9714 L 2.8935,23.9656 L 2.93734,23.959 L 2.98107,23.9517
 L 3.02465,23.9436 L 3.0681,23.9348 L 3.11137,23.9252 L 3.15448,23.9149 L 3.1974,23.9038 L 3.24012,23.8919
 L 3.28262,23.8793 L 3.3249,23.866 L 3.36694,23.8519 L 3.40873,23.8371 L 3.45025,23.8216 L 3.4915,23.8053
 L 3.53246,23.7884 L 3.57311,23.7707 L 3.61345,23.7523 L 3.65346,23.7332 L 3.69314,23.7135 L 3.73246,23.693
 L 3.77142,23.6718 L 3.81,23.65 L 3.8482,23.6275 L 3.88599,23.6043 L 3.92338,23.5805 L 3.96035,23.5561
 L 3.99688,23.5309 L 4.03297,23.5052 L 4.06861,23.4788 L 4.10378,23.4518 L 4.13847,23.4243 L 4.17268,23.3961
 L 4.20639,23.3673 L 4.23959,23.3379 L 4.27227,23.3079 L 4.30443,23.2774 L 4.33605,23.2464 L 4.36712,23.2147
 L 4.39764,23.1826 L 4.42759,23.1499 L 4.45696,23.1167 L 4.48575,23.083 L 4.51395,23.0488 L 4.54155,23.0141
 L 4.56853,22.9789 L 4.5949,22.9433 L 4.62065,22.9072 L 4.64575,22.8706 L 4.67022,22.8337 L 4.69404,22.7963
 L 4.7172,22.7585 L 4.7397,22.7203 L 4.76153,22.6817 L 4.78269,22.6428 L 4.80316,22.6034 L 4.82294,22.5638
 L 4.84202,22.5238 L 4.8604,22.4834 L 4.87808,22.4428 L 4.89505,22.4018 L 4.91129,22.3606 L 4.92682,22.319
 L 4.94162,22.2772 L 4.95568,22.2352 L 4.96901,22.1929 L 4.9816,22.1504 L 4.99345,22.1077 L 5.00455,22.0648
 L 5.0149,22.0217 L 5.02449,21.9784 L 5.03333,21.935 L 5.04141,21.8914 L 5.04873,21.8476 L 5.05528,21.8038
 L 5.06107,21.7598 L 5.06608,21.7158 L 5.07033,21.6717 L 5.07381,21.6275 L 5.07652,21.5832 L 5.07845,21.5389
 L 5.07961,21.4946 L 5.08,21.4503 L 5.08,-6.81383 L 0.507999,-7.62 L 0.949066,-10.1214 L 5.08,-9.39302
 L 5.08,-13.97 L 5.07961,-14.0143 L 5.07845,-14.0586 L 5.07652,-14.1029 L 5.07381,-14.1472 L 5.07033,-14.1914
 L 5.06608,-14.2355 L 5.06107,-14.2795 L 5.05528,-14.3235 L 5.04873,-14.3673 L 5.04141,-14.4111 L 5.03333,-14.4547
 L 5.02449,-14.4981 L 5.0149,-14.5414 L 5.00455,-14.5845 L 4.99345,-14.6274 L 4.9816,-14.6701 L 4.96901,-14.7126
 L 4.95568,-14.7549 L 4.94162,-14.7969 L 4.92682,-14.8387 L 4.91129,-14.8803 L 4.89505,-14.9215 L 4.87808,-14.9625
 L 4.8604,-15.0031 L 4.84202,-15.0435 L 4.82294,-15.0835 L 4.80316,-15.1231 L 4.78269,-15.1625 L 4.76153,-15.2014
 L 4.7397,-15.24 L 4.7172,-15.2782 L 4.69404,-15.316 L 4.67022,-15.3534 L 4.64575,-15.3903 L 4.62065,-15.4269
 L 4.5949,-15.463 L 4.56853,-15.4986 L 4.54155,-15.5338 L 4.51395,-15.5685 L 4.48575,-15.6027 L 4.45696,-15.6364
 L 4.42759,-15.6696 L 4.39764,-15.7023 L 4.36712,-15.7344 L 4.33605,-15.7661 L 4.30443,-15.7971 L 4.27227,-15.8276
 L 4.23959,-15.8576 L 4.20639,-15.887 L 4.17268,-15.9158 L 4.13847,-15.944 L 4.10378,-15.9715 L 4.06861,-15.9985
 L 4.03297,-16.0249 L 3.99688,-16.0506 L 3.96035,-16.0758 L 3.92338,-16.1002 L 3.88599,-16.124 L 3.8482,-16.1472
 L 3.81,-16.1697 L 3.77142,-16.1915 L 3.73246,-16.2127 L 3.69314,-16.2332 L 3.65346,-16.2529 L 3.61345,-16.272
 L 3.57311,-16.2904 L 3.53246,-16.3081 L 3.4915,-16.325 L 3.45025,-16.3413 L 3.40873,-16.3568 L 3.36694,-16.3716
 L 3.3249,-16.3857 L 3.28262,-16.399 L 3.24012,-16.4116 L 3.1974,-16.4235 L 3.15448,-16.4346 L 3.11137,-16.4449
 L 3.0681,-16.4545 L 3.02465,-16.4633 L 2.98107,-16.4714 L 2.93734,-16.4787 L 2.8935,-16.4853 L 2.84955,-16.4911
 L 2.8055,-16.4961 L 2.76138,-16.5003 L 2.71718,-16.5038 L 2.67293,-16.5065 L 2.62864,-16.5085 L 2.58433,-16.5096
 L 2.54,-16.51 L -2.54,-16.51 L -2.58433,-16.5096 L -2.62864,-16.5085 L -2.67293,-16.5065 L -2.71718,-16.5038
 L -2.76138,-16.5003 L -2.8055,-16.4961 L -2.84955,-16.4911 L -2.8935,-16.4853 L -2.93734,-16.4787 L -2.98107,-16.4714
 L -3.02465,-16.4633 L -3.0681,-16.4545 L -3.11137,-16.4449 L -3.15448,-16.4346 L -3.1974,-16.4235 L -3.24012,-16.4116
 L -3.28262,-16.399 L -3.3249,-16.3857 L -3.36694,-16.3716 L -3.40873,-16.3568 L -3.45025,-16.3413 L -3.4915,-16.325
 L -3.53246,-16.3081 L -3.57311,-16.2904 L -3.61345,-16.272 L -3.65346,-16.2529 L -3.69314,-16.2332 L -3.73246,-16.2127
 L -3.77142,-16.1915 L -3.81,-16.1697 L -3.8482,-16.1472 L -3.88599,-16.124 L -3.92338,-16.1002 L -3.96035,-16.0758
 L -3.99688,-16.0506 L -4.03297,-16.0249 L -4.06861,-15.9985 L -4.10378,-15.9715 L -4.13847,-15.944 L -4.17268,-15.9158
 L -4.20639,-15.887 L -4.23959,-15.8576 L -4.27227,-15.8276 L -4.30443,-15.7971 L -4.33605,-15.7661 L -4.36712,-15.7344
 L -4.39764,-15.7023 L -4.42759,-15.6696 L -4.45696,-15.6364 L -4.48575,-15.6027 L -4.51395,-15.5685 L -4.54155,-15.5338
 L -4.56853,-15.4986 L -4.5949,-15.463 L -4.62065,-15.4269 L -4.64575,-15.3903 L -4.67022,-15.3534 L -4.69404,-15.316
 L -4.7172,-15.2782 L -4.7397,-15.24 L -4.76153,-15.2014 L -4.78269,-15.1625 L -4.80316,-15.1231 L -4.82294,-15.0835
 L -4.84202,-15.0435 L -4.8604,-15.0031 L -4.87808,-14.9625 L -4.89505,-14.9215 L -4.91129,-14.8803 L -4.92682,-14.8387
 L -4.94162,-14.7969 L -4.95568,-14.7549 L -4.96901,-14.7126 L -4.9816,-14.6701 L -4.99345,-14.6274 L -5.00455,-14.5845
 L -5.0149,-14.5414 L -5.02449,-14.4981 L -5.03333,-14.4547 L -5.04141,-14.4111 L -5.04873,-14.3673 L -5.05528,-14.3235
 L -5.06107,-14.2795 L -5.06608,-14.2355 L -5.07033,-14.1914 L -5.07381,-14.1472 L -5.07652,-14.1029 L -5.07845,-14.0586
 L -5.07961,-14.0143 L -5.08,-13.97 z
M -2.0828,18.9103 L -2.08248,18.874 L -2.08153,18.8376 L -2.07995,18.8013 L -2.07773,18.765 L -2.07487,18.7288
 L -2.07139,18.6926 L -2.06728,18.6565 L -2.06253,18.6204 L -2.05716,18.5845 L -2.05116,18.5486 L -2.04453,18.5129
 L -2.03729,18.4773 L -2.02942,18.4418 L -2.02093,18.4064 L -2.01183,18.3712 L -2.00212,18.3362 L -1.99179,18.3013
 L -1.98086,18.2667 L -1.96933,18.2322 L -1.95719,18.1979 L -1.94446,18.1639 L -1.93114,18.1301 L -1.91723,18.0965
 L -1.90273,18.0631 L -1.88766,18.0301 L -1.87201,17.9973 L -1.85579,17.9647 L -1.839,17.9325 L -1.82166,17.9005
 L -1.80376,17.8689 L -1.78531,17.8376 L -1.76631,17.8066 L -1.74678,17.7759 L -1.72672,17.7456 L -1.70613,17.7157
 L -1.68502,17.6861 L -1.6634,17.6568 L -1.64127,17.628 L -1.61864,17.5996 L -1.59552,17.5715 L -1.57191,17.5439
 L -1.54782,17.5166 L -1.52326,17.4898 L -1.49824,17.4635 L -1.47276,17.4375 L -1.44683,17.4121 L -1.42047,17.387
 L -1.39366,17.3625 L -1.36644,17.3384 L -1.3388,17.3148 L -1.31075,17.2917 L -1.2823,17.269 L -1.25346,17.2469
 L -1.22424,17.2253 L -1.19464,17.2042 L -1.16469,17.1836 L -1.13437,17.1635 L -1.10371,17.144 L -1.07272,17.125
 L -1.0414,17.1065 L -1.00976,17.0886 L -0.977815,17.0713 L -0.945571,17.0545 L -0.913039,17.0383 L -0.880229,17.0226
 L -0.847151,17.0076 L -0.813814,16.9931 L -0.780231,16.9792 L -0.746408,16.9658 L -0.712359,16.9531 L -0.678093,16.941
 L -0.64362,16.9294 L -0.608952,16.9185 L -0.574097,16.9082 L -0.539068,16.8985 L -0.503875,16.8894 L -0.468528,16.8809
 L -0.433038,16.873 L -0.397416,16.8658 L -0.361674,16.8591 L -0.325821,16.8531 L -0.289869,16.8478 L -0.253829,16.843
 L -0.217711,16.8389 L -0.181527,16.8354 L -0.145288,16.8326 L -0.109005,16.8304 L -0.0726881,16.8288 L -0.0363493,16.8278
 L 0,16.8275 L 0.0363493,16.8278 L 0.0726881,16.8288 L 0.109005,16.8304 L 0.145288,16.8326 L 0.181527,16.8354
 L 0.217711,16.8389 L 0.253829,16.843 L 0.289869,16.8478 L 0.325821,16.8531 L 0.361674,16.8591 L 0.397416,16.8658
 L 0.433038,16.873 L 0.468528,16.8809 L 0.503875,16.8894 L 0.539068,16.8985 L 0.574097,16.9082 L 0.608952,16.9185
 L 0.64362,16.9294 L 0.678093,16.941 L 0.712359,16.9531 L 0.746408,16.9658 L 0.780231,16.9792 L 0.813814,16.9931
 L 0.847151,17.0076 L 0.880229,17.0226 L 0.913039,17.0383 L 0.945571,17.0545 L 0.977815,17.0713 L 1.00976,17.0886
 L 1.0414,17.1065 L 1.07272,17.125 L 1.10371,17.144 L 1.13437,17.1635 L 1.16469,17.1836 L 1.19464,17.2042
 L 1.22424,17.2253 L 1.25346,17.2469 L 1.2823,17.269 L 1.31075,17.2917 L 1.3388,17.3148 L 1.36644,17.3384
 L 1.39366,17.3625 L 1.42047,17.387 L 1.44683,17.4121 L 1.47276,17.4375 L 1.49824,17.4635 L 1.52326,17.4898
 L 1.54782,17.5166 L 1.57191,17.5439 L 1.59552,17.5715 L 1.61864,17.5996 L 1.64127,17.628 L 1.6634,17.6568
 L 1.68502,17.6861 L 1.70613,17.7157 L 1.72672,17.7456 L 1.74678,17.7759 L 1.76631,17.8066 L 1.78531,17.8376
 L 1.80376,17.8689 L 1.82166,17.9005 L 1.839,17.9325 L 1.85579,17.9647 L 1.87201,17.9973 L 1.88766,18.0301
 L 1.90273,18.0631 L 1.91723,18.0965 L 1.93114,18.1301 L 1.94446,18.1639 L 1.95719,18.1979 L 1.96933,18.2322
 L 1.98086,18.2667 L 1.99179,18.3013 L 2.00212,18.3362 L 2.01183,18.3712 L 2.02093,18.4064 L 2.02942,18.4418
 L 2.03729,18.4773 L 2.04453,18.5129 L 2.05116,18.5486 L 2.05716,18.5845 L 2.06253,18.6204 L 2.06728,18.6565
 L 2.07139,18.6926 L 2.07487,18.7288 L 2.07773,18.765 L 2.07995,18.8013 L 2.08153,18.8376 L 2.08248,18.874
 L 2.0828,18.9103 L 2.08248,18.9466 L 2.08153,18.983 L 2.07995,19.0193 L 2.07773,19.0556 L 2.07487,19.0918
 L 2.07139,19.128 L 2.06728,19.1641 L 2.06253,19.2002 L 2.05716,19.2361 L 2.05116,19.272 L 2.04453,19.3077
 L 2.03729,19.3433 L 2.02942,19.3788 L 2.02093,19.4142 L 2.01183,19.4494 L 2.00212,19.4844 L 1.99179,19.5193
 L 1.98086,19.5539 L 1.96933,19.5884 L 1.95719,19.6227 L 1.94446,19.6567 L 1.93114,19.6905 L 1.91723,19.7241
 L 1.90273,19.7575 L 1.88766,19.7905 L 1.87201,19.8233 L 1.85579,19.8559 L 1.839,19.8881 L 1.82166,19.9201
 L 1.80376,19.9517 L 1.78531,19.983 L 1.76631,20.014 L 1.74678,20.0447 L 1.72672,20.075 L 1.70613,20.1049
 L 1.68502,20.1345 L 1.6634,20.1638 L 1.64127,20.1926 L 1.61864,20.221 L 1.59552,20.2491 L 1.57191,20.2767
 L 1.54782,20.304 L 1.52326,20.3308 L 1.49824,20.3571 L 1.47276,20.3831 L 1.44683,20.4085 L 1.42047,20.4336
 L 1.39366,20.4581 L 1.36644,20.4822 L 1.3388,20.5058 L 1.31075,20.5289 L 1.2823,20.5516 L 1.25346,20.5737
 L 1.22424,20.5953 L 1.19464,20.6164 L 1.16469,20.637 L 1.13437,20.6571 L 1.10371,20.6766 L 1.07272,20.6956
 L 1.0414,20.7141 L 1.00976,20.732 L 0.977815,20.7493 L 0.945571,20.7661 L 0.913039,20.7823 L 0.880229,20.798
 L 0.847151,20.813 L 0.813814,20.8275 L 0.780231,20.8414 L 0.746408,20.8548 L 0.712359,20.8675 L 0.678093,20.8796
 L 0.64362,20.8912 L 0.608952,20.9021 L 0.574097,20.9124 L 0.539068,20.9221 L 0.503875,20.9312 L 0.468528,20.9397
 L 0.433038,20.9476 L 0.397416,20.9548 L 0.361674,20.9615 L 0.325821,20.9675 L 0.289869,20.9728 L 0.253829,20.9776
 L 0.217711,20.9817 L 0.181527,20.9852 L 0.145288,20.988 L 0.109005,20.9902 L 0.0726881,20.9918 L 0.0363493,20.9928
 L 0,20.9931 L -0.0363493,20.9928 L -0.0726881,20.9918 L -0.109005,20.9902 L -0.145288,20.988 L -0.181527,20.9852
 L -0.217711,20.9817 L -0.253829,20.9776 L -0.289869,20.9728 L -0.325821,20.9675 L -0.361674,20.9615 L -0.397416,20.9548
 L -0.433038,20.9476 L -0.468528,20.9397 L -0.503875,20.9312 L -0.539068,20.9221 L -0.574097,20.9124 L -0.608952,20.9021
 L -0.64362,20.8912 L -0.678093,20.8796 L -0.712359,20.8675 L -0.746408,20.8548 L -0.780231,20.8414 L -0.813814,20.8275
 L -0.847151,20.813 L -0.880229,20.798 L -0.913039,20.7823 L -0.945571,20.7661 L -0.977815,20.7493 L -1.00976,20.732
 L -1.0414,20.7141 L -1.07272,20.6956 L -1.10371,20.6766 L -1.13437,20.6571 L -1.16469,20.637 L -1.19464,20.6164
 L -1.22424,20.5953 L -1.25346,20.5737 L -1.2823,20.5516 L -1.31075,20.5289 L -1.3388,20.5058 L -1.36644,20.4822
 L -1.39366,20.4581 L -1.42047,20.4336 L -1.44683,20.4085 L -1.47276,20.3831 L -1.49824,20.3571 L -1.52326,20.3308
 L -1.54782,20.304 L -1.57191,20.2767 L -1.59552,20.2491 L -1.61864,20.221 L -1.64127,20.1926 L -1.6634,20.1638
 L -1.68502,20.1345 L -1.70613,20.1049 L -1.72672,20.075 L -1.74678,20.0447 L -1.76631,20.014 L -1.78531,19.983
 L -1.80376,19.9517 L -1.82166,19.9201 L -1.839,19.8881 L -1.85579,19.8559 L -1.87201,19.8233 L -1.88766,19.7905
 L -1.90273,19.7575 L -1.91723,19.7241 L -1.93114,19.6905 L -1.94446,19.6567 L -1.95719,19.6227 L -1.96933,19.5884
 L -1.98086,19.5539 L -1.99179,19.5193 L -2.00212,19.4844 L -2.01183,19.4494 L -2.02093,19.4142 L -2.02942,19.3788
 L -2.03729,19.3433 L -2.04453,19.3077 L -2.05116,19.272 L -2.05716,19.2361 L -2.06253,19.2002 L -2.06728,19.1641
 L -2.07139,19.128 L -2.07487,19.0918 L -2.07773,19.0556 L -2.07995,19.0193 L -2.08153,18.983 L -2.08248,18.9466
 z
M -2.0828,7.49046 L -2.08248,7.45411 L -2.08153,7.41777 L -2.07995,7.38145 L -2.07773,7.34517 L -2.07487,7.30893
 L -2.07139,7.27275 L -2.06728,7.23663 L -2.06253,7.20059 L -2.05716,7.16464 L -2.05116,7.12879 L -2.04453,7.09304
 L -2.03729,7.05742 L -2.02942,7.02193 L -2.02093,6.98658 L -2.01183,6.95139 L -2.00212,6.91636 L -1.99179,6.88151
 L -1.98086,6.84684 L -1.96933,6.81237 L -1.95719,6.7781 L -1.94446,6.74405 L -1.93114,6.71023 L -1.91723,6.67664
 L -1.90273,6.64331 L -1.88766,6.61023 L -1.87201,6.57742 L -1.85579,6.54489 L -1.839,6.51264 L -1.82166,6.4807
 L -1.80376,6.44906 L -1.78531,6.41774 L -1.76631,6.38674 L -1.74678,6.35609 L -1.72672,6.32577 L -1.70613,6.29581
 L -1.68502,6.26622 L -1.6634,6.237 L -1.64127,6.20816 L -1.61864,6.17971 L -1.59552,6.15166 L -1.57191,6.12402
 L -1.54782,6.09679 L -1.52326,6.06999 L -1.49824,6.04362 L -1.47276,6.0177 L -1.44683,5.99222 L -1.42047,5.9672
 L -1.39366,5.94264 L -1.36644,5.91855 L -1.3388,5.89494 L -1.31075,5.87182 L -1.2823,5.84919 L -1.25346,5.82706
 L -1.22424,5.80544 L -1.19464,5.78433 L -1.16469,5.76374 L -1.13437,5.74368 L -1.10371,5.72414 L -1.07272,5.70515
 L -1.0414,5.6867 L -1.00976,5.6688 L -0.977815,5.65146 L -0.945571,5.63467 L -0.913039,5.61845 L -0.880229,5.6028
 L -0.847151,5.58773 L -0.813814,5.57323 L -0.780231,5.55932 L -0.746408,5.546 L -0.712359,5.53327 L -0.678093,5.52113
 L -0.64362,5.5096 L -0.608952,5.49867 L -0.574097,5.48834 L -0.539068,5.47863 L -0.503875,5.46953 L -0.468528,5.46104
 L -0.433038,5.45317 L -0.397416,5.44593 L -0.361674,5.4393 L -0.325821,5.4333 L -0.289869,5.42793 L -0.253829,5.42318
 L -0.217711,5.41907 L -0.181527,5.41559 L -0.145288,5.41273 L -0.109005,5.41051 L -0.0726881,5.40893 L -0.0363493,5.40798
 L 0,5.40766 L 0.0363493,5.40798 L 0.0726881,5.40893 L 0.109005,5.41051 L 0.145288,5.41273 L 0.181527,5.41559
 L 0.217711,5.41907 L 0.253829,5.42318 L 0.289869,5.42793 L 0.325821,5.4333 L 0.361674,5.4393 L 0.397416,5.44593
 L 0.433038,5.45317 L 0.468528,5.46104 L 0.503875,5.46953 L 0.539068,5.47863 L 0.574097,5.48834 L 0.608952,5.49867
 L 0.64362,5.5096 L 0.678093,5.52113 L 0.712359,5.53327 L 0.746408,5.546 L 0.780231,5.55932 L 0.813814,5.57323
 L 0.847151,5.58773 L 0.880229,5.6028 L 0.913039,5.61845 L 0.945571,5.63467 L 0.977815,5.65146 L 1.00976,5.6688
 L 1.0414,5.6867 L 1.07272,5.70515 L 1.10371,5.72414 L 1.13437,5.74368 L 1.16469,5.76374 L 1.19464,5.78433
 L 1.22424,5.80544 L 1.25346,5.82706 L 1.2823,5.84919 L 1.31075,5.87182 L 1.3388,5.89494 L 1.36644,5.91855
 L 1.39366,5.94264 L 1.42047,5.9672 L 1.44683,5.99222 L 1.47276,6.0177 L 1.49824,6.04362 L 1.52326,6.06999
 L 1.54782,6.09679 L 1.57191,6.12402 L 1.59552,6.15166 L 1.61864,6.17971 L 1.64127,6.20816 L 1.6634,6.237
 L 1.68502,6.26622 L 1.70613,6.29581 L 1.72672,6.32577 L 1.74678,6.35609 L 1.76631,6.38674 L 1.78531,6.41774
 L 1.80376,6.44906 L 1.82166,6.4807 L 1.839,6.51264 L 1.85579,6.54489 L 1.87201,6.57742 L 1.88766,6.61023
 L 1.90273,6.64331 L 1.91723,6.67664 L 1.93114,6.71023 L 1.94446,6.74405 L 1.95719,6.7781 L 1.96933,6.81237
 L 1.98086,6.84684 L 1.99179,6.88151 L 2.00212,6.91636 L 2.01183,6.95139 L 2.02093,6.98658 L 2.02942,7.02193
 L 2.03729,7.05742 L 2.04453,7.09304 L 2.05116,7.12879 L 2.05716,7.16464 L 2.06253,7.20059 L 2.06728,7.23663
 L 2.07139,7.27275 L 2.07487,7.30893 L 2.07773,7.34517 L 2.07995,7.38145 L 2.08153,7.41777 L 2.08248,7.45411
 L 2.0828,7.49046 L 2.08248,7.52681 L 2.08153,7.56315 L 2.07995,7.59946 L 2.07773,7.63575 L 2.07487,7.67199
 L 2.07139,7.70817 L 2.06728,7.74429 L 2.06253,7.78033 L 2.05716,7.81628 L 2.05116,7.85213 L 2.04453,7.88788
 L 2.03729,7.9235 L 2.02942,7.95899 L 2.02093,7.99433 L 2.01183,8.02953 L 2.00212,8.06456 L 1.99179,8.09941
 L 1.98086,8.13408 L 1.96933,8.16855 L 1.95719,8.20282 L 1.94446,8.23687 L 1.93114,8.27069 L 1.91723,8.30427
 L 1.90273,8.33761 L 1.88766,8.37069 L 1.87201,8.4035 L 1.85579,8.43603 L 1.839,8.46828 L 1.82166,8.50022
 L 1.80376,8.53186 L 1.78531,8.56318 L 1.76631,8.59418 L 1.74678,8.62483 L 1.72672,8.65515 L 1.70613,8.6851
 L 1.68502,8.7147 L 1.6634,8.74392 L 1.64127,8.77276 L 1.61864,8.80121 L 1.59552,8.82926 L 1.57191,8.8569
 L 1.54782,8.88412 L 1.52326,8.91093 L 1.49824,8.93729 L 1.47276,8.96322 L 1.44683,8.9887 L 1.42047,9.01372
 L 1.39366,9.03828 L 1.36644,9.06237 L 1.3388,9.08598 L 1.31075,9.1091 L 1.2823,9.13173 L 1.25346,9.15386
 L 1.22424,9.17548 L 1.19464,9.19659 L 1.16469,9.21718 L 1.13437,9.23724 L 1.10371,9.25677 L 1.07272,9.27577
 L 1.0414,9.29422 L 1.00976,9.31212 L 0.977815,9.32946 L 0.945571,9.34625 L 0.913039,9.36247 L 0.880229,9.37812
 L 0.847151,9.39319 L 0.813814,9.40769 L 0.780231,9.4216 L 0.746408,9.43492 L 0.712359,9.44765 L 0.678093,9.45979
 L 0.64362,9.47132 L 0.608952,9.48225 L 0.574097,9.49258 L 0.539068,9.50229 L 0.503875,9.51139 L 0.468528,9.51988
 L 0.433038,9.52775 L 0.397416,9.53499 L 0.361674,9.54162 L 0.325821,9.54762 L 0.289869,9.55299 L 0.253829,9.55773
 L 0.217711,9.56185 L 0.181527,9.56533 L 0.145288,9.56819 L 0.109005,9.57041 L 0.0726881,9.57199 L 0.0363493,9.57294
 L 0,9.57326 L -0.0363493,9.57294 L -0.0726881,9.57199 L -0.109005,9.57041 L -0.145288,9.56819 L -0.181527,9.56533
 L -0.217711,9.56185 L -0.253829,9.55773 L -0.289869,9.55299 L -0.325821,9.54762 L -0.361674,9.54162 L -0.397416,9.53499
 L -0.433038,9.52775 L -0.468528,9.51988 L -0.503875,9.51139 L -0.539068,9.50229 L -0.574097,9.49258 L -0.608952,9.48225
 L -0.64362,9.47132 L -0.678093,9.45979 L -0.712359,9.44765 L -0.746408,9.43492 L -0.780231,9.4216 L -0.813814,9.40769
 L -0.847151,9.39319 L -0.880229,9.37812 L -0.913039,9.36247 L -0.945571,9.34625 L -0.977815,9.32946 L -1.00976,9.31212
 L -1.0414,9.29422 L -1.07272,9.27577 L -1.10371,9.25677 L -1.13437,9.23724 L -1.16469,9.21718 L -1.19464,9.19659
 L -1.22424,9.17548 L -1.25346,9.15386 L -1.2823,9.13173 L -1.31075,9.1091 L -1.3388,9.08598 L -1.36644,9.06237
 L -1.39366,9.03828 L -1.42047,9.01372 L -1.44683,8.9887 L -1.47276,8.96322 L -1.49824,8.93729 L -1.52326,8.91093
 L -1.54782,8.88412 L -1.57191,8.8569 L -1.59552,8.82926 L -1.61864,8.80121 L -1.64127,8.77276 L -1.6634,8.74392
 L -1.68502,8.7147 L -1.70613,8.6851 L -1.72672,8.65515 L -1.74678,8.62483 L -1.76631,8.59418 L -1.78531,8.56318
 L -1.80376,8.53186 L -1.82166,8.50022 L -1.839,8.46828 L -1.85579,8.43603 L -1.87201,8.4035 L -1.88766,8.37069
 L -1.90273,8.33761 L -1.91723,8.30427 L -1.93114,8.27069 L -1.94446,8.23687 L -1.95719,8.20282 L -1.96933,8.16855
 L -1.98086,8.13408 L -1.99179,8.09941 L -2.00212,8.06456 L -2.01183,8.02953 L -2.02093,7.99433 L -2.02942,7.95899
 L -2.03729,7.9235 L -2.04453,7.88788 L -2.05116,7.85213 L -2.05716,7.81628 L -2.06253,7.78033 L -2.06728,7.74429
 L -2.07139,7.70817 L -2.07487,7.67199 L -2.07773,7.63575 L -2.07995,7.59946 L -2.08153,7.56315 L -2.08248,7.52681
 z
" stroke="black" fill="lightgray" stroke-width="0.5"/>
</svg>
