  0
SECTION
  2
BLOCKS
  0
ENDSEC
  0
SECTION
  2
ENTITIES
  0
LINE
  8
0
 10
-5.08
 20
-21.4503
 11
-5.07961
 21
-21.4946
  0
LINE
  8
0
 10
-5.07961
 20
-21.4946
 11
-5.07845
 21
-21.5389
  0
LINE
  8
0
 10
-5.07845
 20
-21.5389
 11
-5.07652
 21
-21.5832
  0
LINE
  8
0
 10
-5.07652
 20
-21.5832
 11
-5.07381
 21
-21.6275
  0
LINE
  8
0
 10
-5.07381
 20
-21.6275
 11
-5.07033
 21
-21.6717
  0
LINE
  8
0
 10
-5.07033
 20
-21.6717
 11
-5.06608
 21
-21.7158
  0
LINE
  8
0
 10
-5.06608
 20
-21.7158
 11
-5.06107
 21
-21.7598
  0
LINE
  8
0
 10
-5.06107
 20
-21.7598
 11
-5.05528
 21
-21.8038
  0
LINE
  8
0
 10
-5.05528
 20
-21.8038
 11
-5.04873
 21
-21.8476
  0
LINE
  8
0
 10
-5.04873
 20
-21.8476
 11
-5.04141
 21
-21.8914
  0
LINE
  8
0
 10
-5.04141
 20
-21.8914
 11
-5.03333
 21
-21.935
  0
LINE
  8
0
 10
-5.03333
 20
-21.935
 11
-5.02449
 21
-21.9784
  0
LINE
  8
0
 10
-5.02449
 20
-21.9784
 11
-5.0149
 21
-22.0217
  0
LINE
  8
0
 10
-5.0149
 20
-22.0217
 11
-5.00455
 21
-22.0648
  0
LINE
  8
0
 10
-5.00455
 20
-22.0648
 11
-4.99345
 21
-22.1077
  0
LINE
  8
0
 10
-4.99345
 20
-22.1077
 11
-4.9816
 21
-22.1504
  0
LINE
  8
0
 10
-4.9816
 20
-22.1504
 11
-4.96901
 21
-22.1929
  0
LINE
  8
0
 10
-4.96901
 20
-22.1929
 11
-4.95568
 21
-22.2352
  0
LINE
  8
0
 10
-4.95568
 20
-22.2352
 11
-4.94162
 21
-22.2772
  0
LINE
  8
0
 10
-4.94162
 20
-22.2772
 11
-4.92682
 21
-22.319
  0
LINE
  8
0
 10
-4.92682
 20
-22.319
 11
-4.91129
 21
-22.3606
  0
LINE
  8
0
 10
-4.91129
 20
-22.3606
 11
-4.89505
 21
-22.4018
  0
LINE
  8
0
 10
-4.89505
 20
-22.4018
 11
-4.87808
 21
-22.4428
  0
LINE
  8
0
 10
-4.87808
 20
-22.4428
 11
-4.8604
 21
-22.4834
  0
LINE
  8
0
 10
-4.8604
 20
-22.4834
 11
-4.84202
 21
-22.5238
  0
LINE
  8
0
 10
-4.84202
 20
-22.5238
 11
-4.82294
 21
-22.5638
  0
LINE
  8
0
 10
-4.82294
 20
-22.5638
 11
-4.80316
 21
-22.6034
  0
LINE
  8
0
 10
-4.80316
 20
-22.6034
 11
-4.78269
 21
-22.6428
  0
LINE
  8
0
 10
-4.78269
 20
-22.6428
 11
-4.76153
 21
-22.6817
  0
LINE
  8
0
 10
-4.76153
 20
-22.6817
 11
-4.7397
 21
-22.7203
  0
LINE
  8
0
 10
-4.7397
 20
-22.7203
 11
-4.7172
 21
-22.7585
  0
LINE
  8
0
 10
-4.7172
 20
-22.7585
 11
-4.69404
 21
-22.7963
  0
LINE
  8
0
 10
-4.69404
 20
-22.7963
 11
-4.67022
 21
-22.8337
  0
LINE
  8
0
 10
-4.67022
 20
-22.8337
 11
-4.64575
 21
-22.8706
  0
LINE
  8
0
 10
-4.64575
 20
-22.8706
 11
-4.62065
 21
-22.9072
  0
LINE
  8
0
 10
-4.62065
 20
-22.9072
 11
-4.5949
 21
-22.9433
  0
LINE
  8
0
 10
-4.5949
 20
-22.9433
 11
-4.56853
 21
-22.9789
  0
LINE
  8
0
 10
-4.56853
 20
-22.9789
 11
-4.54155
 21
-23.0141
  0
LINE
  8
0
 10
-4.54155
 20
-23.0141
 11
-4.51395
 21
-23.0488
  0
LINE
  8
0
 10
-4.51395
 20
-23.0488
 11
-4.48575
 21
-23.083
  0
LINE
  8
0
 10
-4.48575
 20
-23.083
 11
-4.45696
 21
-23.1167
  0
LINE
  8
0
 10
-4.45696
 20
-23.1167
 11
-4.42759
 21
-23.1499
  0
LINE
  8
0
 10
-4.42759
 20
-23.1499
 11
-4.39764
 21
-23.1826
  0
LINE
  8
0
 10
-4.39764
 20
-23.1826
 11
-4.36712
 21
-23.2147
  0
LINE
  8
0
 10
-4.36712
 20
-23.2147
 11
-4.33605
 21
-23.2464
  0
LINE
  8
0
 10
-4.33605
 20
-23.2464
 11
-4.30443
 21
-23.2774
  0
LINE
  8
0
 10
-4.30443
 20
-23.2774
 11
-4.27227
 21
-23.3079
  0
LINE
  8
0
 10
-4.27227
 20
-23.3079
 11
-4.23959
 21
-23.3379
  0
LINE
  8
0
 10
-4.23959
 20
-23.3379
 11
-4.20639
 21
-23.3673
  0
LINE
  8
0
 10
-4.20639
 20
-23.3673
 11
-4.17268
 21
-23.3961
  0
LINE
  8
0
 10
-4.17268
 20
-23.3961
 11
-4.13847
 21
-23.4243
  0
LINE
  8
0
 10
-4.13847
 20
-23.4243
 11
-4.10378
 21
-23.4518
  0
LINE
  8
0
 10
-4.10378
 20
-23.4518
 11
-4.06861
 21
-23.4788
  0
LINE
  8
0
 10
-4.06861
 20
-23.4788
 11
-4.03297
 21
-23.5052
  0
LINE
  8
0
 10
-4.03297
 20
-23.5052
 11
-3.99688
 21
-23.5309
  0
LINE
  8
0
 10
-3.99688
 20
-23.5309
 11
-3.96035
 21
-23.5561
  0
LINE
  8
0
 10
-3.96035
 20
-23.5561
 11
-3.92338
 21
-23.5805
  0
LINE
  8
0
 10
-3.92338
 20
-23.5805
 11
-3.88599
 21
-23.6043
  0
LINE
  8
0
 10
-3.88599
 20
-23.6043
 11
-3.8482
 21
-23.6275
  0
LINE
  8
0
 10
-3.8482
 20
-23.6275
 11
-3.81
 21
-23.65
  0
LINE
  8
0
 10
-3.81
 20
-23.65
 11
-3.77142
 21
-23.6718
  0
LINE
  8
0
 10
-3.77142
 20
-23.6718
 11
-3.73246
 21
-23.693
  0
LINE
  8
0
 10
-3.73246
 20
-23.693
 11
-3.69314
 21
-23.7135
  0
LINE
  8
0
 10
-3.69314
 20
-23.7135
 11
-3.65346
 21
-23.7332
  0
LINE
  8
0
 10
-3.65346
 20
-23.7332
 11
-3.61345
 21
-23.7523
  0
LINE
  8
0
 10
-3.61345
 20
-23.7523
 11
-3.57311
 21
-23.7707
  0
LINE
  8
0
 10
-3.57311
 20
-23.7707
 11
-3.53246
 21
-23.7884
  0
LINE
  8
0
 10
-3.53246
 20
-23.7884
 11
-3.4915
 21
-23.8053
  0
LINE
  8
0
 10
-3.4915
 20
-23.8053
 11
-3.45025
 21
-23.8216
  0
LINE
  8
0
 10
-3.45025
 20
-23.8216
 11
-3.40873
 21
-23.8371
  0
LINE
  8
0
 10
-3.40873
 20
-23.8371
 11
-3.36694
 21
-23.8519
  0
LINE
  8
0
 10
-3.36694
 20
-23.8519
 11
-3.3249
 21
-23.866
  0
LINE
  8
0
 10
-3.3249
 20
-23.866
 11
-3.28262
 21
-23.8793
  0
LINE
  8
0
 10
-3.28262
 20
-23.8793
 11
-3.24012
 21
-23.8919
  0
LINE
  8
0
 10
-3.24012
 20
-23.8919
 11
-3.1974
 21
-23.9038
  0
LINE
  8
0
 10
-3.1974
 20
-23.9038
 11
-3.15448
 21
-23.9149
  0
LINE
  8
0
 10
-3.15448
 20
-23.9149
 11
-3.11137
 21
-23.9252
  0
LINE
  8
0
 10
-3.11137
 20
-23.9252
 11
-3.0681
 21
-23.9348
  0
LINE
  8
0
 10
-3.0681
 20
-23.9348
 11
-3.02465
 21
-23.9436
  0
LINE
  8
0
 10
-3.02465
 20
-23.9436
 11
-2.98107
 21
-23.9517
  0
LINE
  8
0
 10
-2.98107
 20
-23.9517
 11
-2.93734
 21
-23.959
  0
LINE
  8
0
 10
-2.93734
 20
-23.959
 11
-2.8935
 21
-23.9656
  0
LINE
  8
0
 10
-2.8935
 20
-23.9656
 11
-2.84955
 21
-23.9714
  0
LINE
  8
0
 10
-2.84955
 20
-23.9714
 11
-2.8055
 21
-23.9764
  0
LINE
  8
0
 10
-2.8055
 20
-23.9764
 11
-2.76138
 21
-23.9806
  0
LINE
  8
0
 10
-2.76138
 20
-23.9806
 11
-2.71718
 21
-23.9841
  0
LINE
  8
0
 10
-2.71718
 20
-23.9841
 11
-2.67293
 21
-23.9868
  0
LINE
  8
0
 10
-2.67293
 20
-23.9868
 11
-2.62864
 21
-23.9888
  0
LINE
  8
0
 10
-2.62864
 20
-23.9888
 11
-2.58433
 21
-23.9899
  0
LINE
  8
0
 10
-2.58433
 20
-23.9899
 11
-2.54
 21
-23.9903
  0
LINE
  8
0
 10
-2.54
 20
-23.9903
 11
2.54
 21
-23.9903
  0
LINE
  8
0
 10
2.54
 20
-23.9903
 11
2.58433
 21
-23.9899
  0
LINE
  8
0
 10
2.58433
 20
-23.9899
 11
2.62864
 21
-23.9888
  0
LINE
  8
0
 10
2.62864
 20
-23.9888
 11
2.67293
 21
-23.9868
  0
LINE
  8
0
 10
2.67293
 20
-23.9868
 11
2.71718
 21
-23.9841
  0
LINE
  8
0
 10
2.71718
 20
-23.9841
 11
2.76138
 21
-23.9806
  0
LINE
  8
0
 10
2.76138
 20
-23.9806
 11
2.8055
 21
-23.9764
  0
LINE
  8
0
 10
2.8055
 20
-23.9764
 11
2.84955
 21
-23.9714
  0
LINE
  8
0
 10
2.84955
 20
-23.9714
 11
2.8935
 21
-23.9656
  0
LINE
  8
0
 10
2.8935
 20
-23.9656
 11
2.93734
 21
-23.959
  0
LINE
  8
0
 10
2.93734
 20
-23.959
 11
2.98107
 21
-23.9517
  0
LINE
  8
0
 10
2.98107
 20
-23.9517
 11
3.02465
 21
-23.9436
  0
LINE
  8
0
 10
3.02465
 20
-23.9436
 11
3.0681
 21
-23.9348
  0
LINE
  8
0
 10
3.0681
 20
-23.9348
 11
3.11137
 21
-23.9252
  0
LINE
  8
0
 10
3.11137
 20
-23.9252
 11
3.15448
 21
-23.9149
  0
LINE
  8
0
 10
3.15448
 20
-23.9149
 11
3.1974
 21
-23.9038
  0
LINE
  8
0
 10
3.1974
 20
-23.9038
 11
3.24012
 21
-23.8919
  0
LINE
  8
0
 10
3.24012
 20
-23.8919
 11
3.28262
 21
-23.8793
  0
LINE
  8
0
 10
3.28262
 20
-23.8793
 11
3.3249
 21
-23.866
  0
LINE
  8
0
 10
3.3249
 20
-23.866
 11
3.36694
 21
-23.8519
  0
LINE
  8
0
 10
3.36694
 20
-23.8519
 11
3.40873
 21
-23.8371
  0
LINE
  8
0
 10
3.40873
 20
-23.8371
 11
3.45025
 21
-23.8216
  0
LINE
  8
0
 10
3.45025
 20
-23.8216
 11
3.4915
 21
-23.8053
  0
LINE
  8
0
 10
3.4915
 20
-23.8053
 11
3.53246
 21
-23.7884
  0
LINE
  8
0
 10
3.53246
 20
-23.7884
 11
3.57311
 21
-23.7707
  0
LINE
  8
0
 10
3.57311
 20
-23.7707
 11
3.61345
 21
-23.7523
  0
LINE
  8
0
 10
3.61345
 20
-23.7523
 11
3.65346
 21
-23.7332
  0
LINE
  8
0
 10
3.65346
 20
-23.7332
 11
3.69314
 21
-23.7135
  0
LINE
  8
0
 10
3.69314
 20
-23.7135
 11
3.73246
 21
-23.693
  0
LINE
  8
0
 10
3.73246
 20
-23.693
 11
3.77142
 21
-23.6718
  0
LINE
  8
0
 10
3.77142
 20
-23.6718
 11
3.81
 21
-23.65
  0
LINE
  8
0
 10
3.81
 20
-23.65
 11
3.8482
 21
-23.6275
  0
LINE
  8
0
 10
3.8482
 20
-23.6275
 11
3.88599
 21
-23.6043
  0
LINE
  8
0
 10
3.88599
 20
-23.6043
 11
3.92338
 21
-23.5805
  0
LINE
  8
0
 10
3.92338
 20
-23.5805
 11
3.96035
 21
-23.5561
  0
LINE
  8
0
 10
3.96035
 20
-23.5561
 11
3.99688
 21
-23.5309
  0
LINE
  8
0
 10
3.99688
 20
-23.5309
 11
4.03297
 21
-23.5052
  0
LINE
  8
0
 10
4.03297
 20
-23.5052
 11
4.06861
 21
-23.4788
  0
LINE
  8
0
 10
4.06861
 20
-23.4788
 11
4.10378
 21
-23.4518
  0
LINE
  8
0
 10
4.10378
 20
-23.4518
 11
4.13847
 21
-23.4243
  0
LINE
  8
0
 10
4.13847
 20
-23.4243
 11
4.17268
 21
-23.3961
  0
LINE
  8
0
 10
4.17268
 20
-23.3961
 11
4.20639
 21
-23.3673
  0
LINE
  8
0
 10
4.20639
 20
-23.3673
 11
4.23959
 21
-23.3379
  0
LINE
  8
0
 10
4.23959
 20
-23.3379
 11
4.27227
 21
-23.3079
  0
LINE
  8
0
 10
4.27227
 20
-23.3079
 11
4.30443
 21
-23.2774
  0
LINE
  8
0
 10
4.30443
 20
-23.2774
 11
4.33605
 21
-23.2464
  0
LINE
  8
0
 10
4.33605
 20
-23.2464
 11
4.36712
 21
-23.2147
  0
LINE
  8
0
 10
4.36712
 20
-23.2147
 11
4.39764
 21
-23.1826
  0
LINE
  8
0
 10
4.39764
 20
-23.1826
 11
4.42759
 21
-23.1499
  0
LINE
  8
0
 10
4.42759
 20
-23.1499
 11
4.45696
 21
-23.1167
  0
LINE
  8
0
 10
4.45696
 20
-23.1167
 11
4.48575
 21
-23.083
  0
LINE
  8
0
 10
4.48575
 20
-23.083
 11
4.51395
 21
-23.0488
  0
LINE
  8
0
 10
4.51395
 20
-23.0488
 11
4.54155
 21
-23.0141
  0
LINE
  8
0
 10
4.54155
 20
-23.0141
 11
4.56853
 21
-22.9789
  0
LINE
  8
0
 10
4.56853
 20
-22.9789
 11
4.5949
 21
-22.9433
  0
LINE
  8
0
 10
4.5949
 20
-22.9433
 11
4.62065
 21
-22.9072
  0
LINE
  8
0
 10
4.62065
 20
-22.9072
 11
4.64575
 21
-22.8706
  0
LINE
  8
0
 10
4.64575
 20
-22.8706
 11
4.67022
 21
-22.8337
  0
LINE
  8
0
 10
4.67022
 20
-22.8337
 11
4.69404
 21
-22.7963
  0
LINE
  8
0
 10
4.69404
 20
-22.7963
 11
4.7172
 21
-22.7585
  0
LINE
  8
0
 10
4.7172
 20
-22.7585
 11
4.7397
 21
-22.7203
  0
LINE
  8
0
 10
4.7397
 20
-22.7203
 11
4.76153
 21
-22.6817
  0
LINE
  8
0
 10
4.76153
 20
-22.6817
 11
4.78269
 21
-22.6428
  0
LINE
  8
0
 10
4.78269
 20
-22.6428
 11
4.80316
 21
-22.6034
  0
LINE
  8
0
 10
4.80316
 20
-22.6034
 11
4.82294
 21
-22.5638
  0
LINE
  8
0
 10
4.82294
 20
-22.5638
 11
4.84202
 21
-22.5238
  0
LINE
  8
0
 10
4.84202
 20
-22.5238
 11
4.8604
 21
-22.4834
  0
LINE
  8
0
 10
4.8604
 20
-22.4834
 11
4.87808
 21
-22.4428
  0
LINE
  8
0
 10
4.87808
 20
-22.4428
 11
4.89505
 21
-22.4018
  0
LINE
  8
0
 10
4.89505
 20
-22.4018
 11
4.91129
 21
-22.3606
  0
LINE
  8
0
 10
4.91129
 20
-22.3606
 11
4.92682
 21
-22.319
  0
LINE
  8
0
 10
4.92682
 20
-22.319
 11
4.94162
 21
-22.2772
  0
LINE
  8
0
 10
4.94162
 20
-22.2772
 11
4.95568
 21
-22.2352
  0
LINE
  8
0
 10
4.95568
 20
-22.2352
 11
4.96901
 21
-22.1929
  0
LINE
  8
0
 10
4.96901
 20
-22.1929
 11
4.9816
 21
-22.1504
  0
LINE
  8
0
 10
4.9816
 20
-22.1504
 11
4.99345
 21
-22.1077
  0
LINE
  8
0
 10
4.99345
 20
-22.1077
 11
5.00455
 21
-22.0648
  0
LINE
  8
0
 10
5.00455
 20
-22.0648
 11
5.0149
 21
-22.0217
  0
LINE
  8
0
 10
5.0149
 20
-22.0217
 11
5.02449
 21
-21.9784
  0
LINE
  8
0
 10
5.02449
 20
-21.9784
 11
5.03333
 21
-21.935
  0
LINE
  8
0
 10
5.03333
 20
-21.935
 11
5.04141
 21
-21.8914
  0
LINE
  8
0
 10
5.04141
 20
-21.8914
 11
5.04873
 21
-21.8476
  0
LINE
  8
0
 10
5.04873
 20
-21.8476
 11
5.05528
 21
-21.8038
  0
LINE
  8
0
 10
5.05528
 20
-21.8038
 11
5.06107
 21
-21.7598
  0
LINE
  8
0
 10
5.06107
 20
-21.7598
 11
5.06608
 21
-21.7158
  0
LINE
  8
0
 10
5.06608
 20
-21.7158
 11
5.07033
 21
-21.6717
  0
LINE
  8
0
 10
5.07033
 20
-21.6717
 11
5.07381
 21
-21.6275
  0
LINE
  8
0
 10
5.07381
 20
-21.6275
 11
5.07652
 21
-21.5832
  0
LINE
  8
0
 10
5.07652
 20
-21.5832
 11
5.07845
 21
-21.5389
  0
LINE
  8
0
 10
5.07845
 20
-21.5389
 11
5.07961
 21
-21.4946
  0
LINE
  8
0
 10
5.07961
 20
-21.4946
 11
5.08
 21
-21.4503
  0
LINE
  8
0
 10
5.08
 20
-21.4503
 11
5.08
 21
6.81383
  0
LINE
  8
0
 10
5.08
 20
6.81383
 11
0.507999
 21
7.62
  0
LINE
  8
0
 10
0.507999
 20
7.62
 11
0.949066
 21
10.1214
  0
LINE
  8
0
 10
0.949066
 20
10.1214
 11
5.08
 21
9.39302
  0
LINE
  8
0
 10
5.08
 20
9.39302
 11
5.08
 21
13.97
  0
LINE
  8
0
 10
5.08
 20
13.97
 11
5.07961
 21
14.0143
  0
LINE
  8
0
 10
5.07961
 20
14.0143
 11
5.07845
 21
14.0586
  0
LINE
  8
0
 10
5.07845
 20
14.0586
 11
5.07652
 21
14.1029
  0
LINE
  8
0
 10
5.07652
 20
14.1029
 11
5.07381
 21
14.1472
  0
LINE
  8
0
 10
5.07381
 20
14.1472
 11
5.07033
 21
14.1914
  0
LINE
  8
0
 10
5.07033
 20
14.1914
 11
5.06608
 21
14.2355
  0
LINE
  8
0
 10
5.06608
 20
14.2355
 11
5.06107
 21
14.2795
  0
LINE
  8
0
 10
5.06107
 20
14.2795
 11
5.05528
 21
14.3235
  0
LINE
  8
0
 10
5.05528
 20
14.3235
 11
5.04873
 21
14.3673
  0
LINE
  8
0
 10
5.04873
 20
14.3673
 11
5.04141
 21
14.4111
  0
LINE
  8
0
 10
5.04141
 20
14.4111
 11
5.03333
 21
14.4547
  0
LINE
  8
0
 10
5.03333
 20
14.4547
 11
5.02449
 21
14.4981
  0
LINE
  8
0
 10
5.02449
 20
14.4981
 11
5.0149
 21
14.5414
  0
LINE
  8
0
 10
5.0149
 20
14.5414
 11
5.00455
 21
14.5845
  0
LINE
  8
0
 10
5.00455
 20
14.5845
 11
4.99345
 21
14.6274
  0
LINE
  8
0
 10
4.99345
 20
14.6274
 11
4.9816
 21
14.6701
  0
LINE
  8
0
 10
4.9816
 20
14.6701
 11
4.96901
 21
14.7126
  0
LINE
  8
0
 10
4.96901
 20
14.7126
 11
4.95568
 21
14.7549
  0
LINE
  8
0
 10
4.95568
 20
14.7549
 11
4.94162
 21
14.7969
  0
LINE
  8
0
 10
4.94162
 20
14.7969
 11
4.92682
 21
14.8387
  0
LINE
  8
0
 10
4.92682
 20
14.8387
 11
4.91129
 21
14.8803
  0
LINE
  8
0
 10
4.91129
 20
14.8803
 11
4.89505
 21
14.9215
  0
LINE
  8
0
 10
4.89505
 20
14.9215
 11
4.87808
 21
14.9625
  0
LINE
  8
0
 10
4.87808
 20
14.9625
 11
4.8604
 21
15.0031
  0
LINE
  8
0
 10
4.8604
 20
15.0031
 11
4.84202
 21
15.0435
  0
LINE
  8
0
 10
4.84202
 20
15.0435
 11
4.82294
 21
15.0835
  0
LINE
  8
0
 10
4.82294
 20
15.0835
 11
4.80316
 21
15.1231
  0
LINE
  8
0
 10
4.80316
 20
15.1231
 11
4.78269
 21
15.1625
  0
LINE
  8
0
 10
4.78269
 20
15.1625
 11
4.76153
 21
15.2014
  0
LINE
  8
0
 10
4.76153
 20
15.2014
 11
4.7397
 21
15.24
  0
LINE
  8
0
 10
4.7397
 20
15.24
 11
4.7172
 21
15.2782
  0
LINE
  8
0
 10
4.7172
 20
15.2782
 11
4.69404
 21
15.316
  0
LINE
  8
0
 10
4.69404
 20
15.316
 11
4.67022
 21
15.3534
  0
LINE
  8
0
 10
4.67022
 20
15.3534
 11
4.64575
 21
15.3903
  0
LINE
  8
0
 10
4.64575
 20
15.3903
 11
4.62065
 21
15.4269
  0
LINE
  8
0
 10
4.62065
 20
15.4269
 11
4.5949
 21
15.463
  0
LINE
  8
0
 10
4.5949
 20
15.463
 11
4.56853
 21
15.4986
  0
LINE
  8
0
 10
4.56853
 20
15.4986
 11
4.54155
 21
15.5338
  0
LINE
  8
0
 10
4.54155
 20
15.5338
 11
4.51395
 21
15.5685
  0
LINE
  8
0
 10
4.51395
 20
15.5685
 11
4.48575
 21
15.6027
  0
LINE
  8
0
 10
4.48575
 20
15.6027
 11
4.45696
 21
15.6364
  0
LINE
  8
0
 10
4.45696
 20
15.6364
 11
4.42759
 21
15.6696
  0
LINE
  8
0
 10
4.42759
 20
15.6696
 11
4.39764
 21
15.7023
  0
LINE
  8
0
 10
4.39764
 20
15.7023
 11
4.36712
 21
15.7344
  0
LINE
  8
0
 10
4.36712
 20
15.7344
 11
4.33605
 21
15.7661
  0
LINE
  8
0
 10
4.33605
 20
15.7661
 11
4.30443
 21
15.7971
  0
LINE
  8
0
 10
4.30443
 20
15.7971
 11
4.27227
 21
15.8276
  0
LINE
  8
0
 10
4.27227
 20
15.8276
 11
4.23959
 21
15.8576
  0
LINE
  8
0
 10
4.23959
 20
15.8576
 11
4.20639
 21
15.887
  0
LINE
  8
0
 10
4.20639
 20
15.887
 11
4.17268
 21
15.9158
  0
LINE
  8
0
 10
4.17268
 20
15.9158
 11
4.13847
 21
15.944
  0
LINE
  8
0
 10
4.13847
 20
15.944
 11
4.10378
 21
15.9715
  0
LINE
  8
0
 10
4.10378
 20
15.9715
 11
4.06861
 21
15.9985
  0
LINE
  8
0
 10
4.06861
 20
15.9985
 11
4.03297
 21
16.0249
  0
LINE
  8
0
 10
4.03297
 20
16.0249
 11
3.99688
 21
16.0506
  0
LINE
  8
0
 10
3.99688
 20
16.0506
 11
3.96035
 21
16.0758
  0
LINE
  8
0
 10
3.96035
 20
16.0758
 11
3.92338
 21
16.1002
  0
LINE
  8
0
 10
3.92338
 20
16.1002
 11
3.88599
 21
16.124
  0
LINE
  8
0
 10
3.88599
 20
16.124
 11
3.8482
 21
16.1472
  0
LINE
  8
0
 10
3.8482
 20
16.1472
 11
3.81
 21
16.1697
  0
LINE
  8
0
 10
3.81
 20
16.1697
 11
3.77142
 21
16.1915
  0
LINE
  8
0
 10
3.77142
 20
16.1915
 11
3.73246
 21
16.2127
  0
LINE
  8
0
 10
3.73246
 20
16.2127
 11
3.69314
 21
16.2332
  0
LINE
  8
0
 10
3.69314
 20
16.2332
 11
3.65346
 21
16.2529
  0
LINE
  8
0
 10
3.65346
 20
16.2529
 11
3.61345
 21
16.272
  0
LINE
  8
0
 10
3.61345
 20
16.272
 11
3.57311
 21
16.2904
  0
LINE
  8
0
 10
3.57311
 20
16.2904
 11
3.53246
 21
16.3081
  0
LINE
  8
0
 10
3.53246
 20
16.3081
 11
3.4915
 21
16.325
  0
LINE
  8
0
 10
3.4915
 20
16.325
 11
3.45025
 21
16.3413
  0
LINE
  8
0
 10
3.45025
 20
16.3413
 11
3.40873
 21
16.3568
  0
LINE
  8
0
 10
3.40873
 20
16.3568
 11
3.36694
 21
16.3716
  0
LINE
  8
0
 10
3.36694
 20
16.3716
 11
3.3249
 21
16.3857
  0
LINE
  8
0
 10
3.3249
 20
16.3857
 11
3.28262
 21
16.399
  0
LINE
  8
0
 10
3.28262
 20
16.399
 11
3.24012
 21
16.4116
  0
LINE
  8
0
 10
3.24012
 20
16.4116
 11
3.1974
 21
16.4235
  0
LINE
  8
0
 10
3.1974
 20
16.4235
 11
3.15448
 21
16.4346
  0
LINE
  8
0
 10
3.15448
 20
16.4346
 11
3.11137
 21
16.4449
  0
LINE
  8
0
 10
3.11137
 20
16.4449
 11
3.0681
 21
16.4545
  0
LINE
  8
0
 10
3.0681
 20
16.4545
 11
3.02465
 21
16.4633
  0
LINE
  8
0
 10
3.02465
 20
16.4633
 11
2.98107
 21
16.4714
  0
LINE
  8
0
 10
2.98107
 20
16.4714
 11
2.93734
 21
16.4787
  0
LINE
  8
0
 10
2.93734
 20
16.4787
 11
2.8935
 21
16.4853
  0
LINE
  8
0
 10
2.8935
 20
16.4853
 11
2.84955
 21
16.4911
  0
LINE
  8
0
 10
2.84955
 20
16.4911
 11
2.8055
 21
16.4961
  0
LINE
  8
0
 10
2.8055
 20
16.4961
 11
2.76138
 21
16.5003
  0
LINE
  8
0
 10
2.76138
 20
16.5003
 11
2.71718
 21
16.5038
  0
LINE
  8
0
 10
2.71718
 20
16.5038
 11
2.67293
 21
16.5065
  0
LINE
  8
0
 10
2.67293
 20
16.5065
 11
2.62864
 21
16.5085
  0
LINE
  8
0
 10
2.62864
 20
16.5085
 11
2.58433
 21
16.5096
  0
LINE
  8
0
 10
2.58433
 20
16.5096
 11
2.54
 21
16.51
  0
LINE
  8
0
 10
2.54
 20
16.51
 11
-2.54
 21
16.51
  0
LINE
  8
0
 10
-2.54
 20
16.51
 11
-2.58433
 21
16.5096
  0
LINE
  8
0
 10
-2.58433
 20
16.5096
 11
-2.62864
 21
16.5085
  0
LINE
  8
0
 10
-2.62864
 20
16.5085
 11
-2.67293
 21
16.5065
  0
LINE
  8
0
 10
-2.67293
 20
16.5065
 11
-2.71718
 21
16.5038
  0
LINE
  8
0
 10
-2.71718
 20
16.5038
 11
-2.76138
 21
16.5003
  0
LINE
  8
0
 10
-2.76138
 20
16.5003
 11
-2.8055
 21
16.4961
  0
LINE
  8
0
 10
-2.8055
 20
16.4961
 11
-2.84955
 21
16.4911
  0
LINE
  8
0
 10
-2.84955
 20
16.4911
 11
-2.8935
 21
16.4853
  0
LINE
  8
0
 10
-2.8935
 20
16.4853
 11
-2.93734
 21
16.4787
  0
LINE
  8
0
 10
-2.93734
 20
16.4787
 11
-2.98107
 21
16.4714
  0
LINE
  8
0
 10
-2.98107
 20
16.4714
 11
-3.02465
 21
16.4633
  0
LINE
  8
0
 10
-3.02465
 20
16.4633
 11
-3.0681
 21
16.4545
  0
LINE
  8
0
 10
-3.0681
 20
16.4545
 11
-3.11137
 21
16.4449
  0
LINE
  8
0
 10
-3.11137
 20
16.4449
 11
-3.15448
 21
16.4346
  0
LINE
  8
0
 10
-3.15448
 20
16.4346
 11
-3.1974
 21
16.4235
  0
LINE
  8
0
 10
-3.1974
 20
16.4235
 11
-3.24012
 21
16.4116
  0
LINE
  8
0
 10
-3.24012
 20
16.4116
 11
-3.28262
 21
16.399
  0
LINE
  8
0
 10
-3.28262
 20
16.399
 11
-3.3249
 21
16.3857
  0
LINE
  8
0
 10
-3.3249
 20
16.3857
 11
-3.36694
 21
16.3716
  0
LINE
  8
0
 10
-3.36694
 20
16.3716
 11
-3.40873
 21
16.3568
  0
LINE
  8
0
 10
-3.40873
 20
16.3568
 11
-3.45025
 21
16.3413
  0
LINE
  8
0
 10
-3.45025
 20
16.3413
 11
-3.4915
 21
16.325
  0
LINE
  8
0
 10
-3.4915
 20
16.325
 11
-3.53246
 21
16.3081
  0
LINE
  8
0
 10
-3.53246
 20
16.3081
 11
-3.57311
 21
16.2904
  0
LINE
  8
0
 10
-3.57311
 20
16.2904
 11
-3.61345
 21
16.272
  0
LINE
  8
0
 10
-3.61345
 20
16.272
 11
-3.65346
 21
16.2529
  0
LINE
  8
0
 10
-3.65346
 20
16.2529
 11
-3.69314
 21
16.2332
  0
LINE
  8
0
 10
-3.69314
 20
16.2332
 11
-3.73246
 21
16.2127
  0
LINE
  8
0
 10
-3.73246
 20
16.2127
 11
-3.77142
 21
16.1915
  0
LINE
  8
0
 10
-3.77142
 20
16.1915
 11
-3.81
 21
16.1697
  0
LINE
  8
0
 10
-3.81
 20
16.1697
 11
-3.8482
 21
16.1472
  0
LINE
  8
0
 10
-3.8482
 20
16.1472
 11
-3.88599
 21
16.124
  0
LINE
  8
0
 10
-3.88599
 20
16.124
 11
-3.92338
 21
16.1002
  0
LINE
  8
0
 10
-3.92338
 20
16.1002
 11
-3.96035
 21
16.0758
  0
LINE
  8
0
 10
-3.96035
 20
16.0758
 11
-3.99688
 21
16.0506
  0
LINE
  8
0
 10
-3.99688
 20
16.0506
 11
-4.03297
 21
16.0249
  0
LINE
  8
0
 10
-4.03297
 20
16.0249
 11
-4.06861
 21
15.9985
  0
LINE
  8
0
 10
-4.06861
 20
15.9985
 11
-4.10378
 21
15.9715
  0
LINE
  8
0
 10
-4.10378
 20
15.9715
 11
-4.13847
 21
15.944
  0
LINE
  8
0
 10
-4.13847
 20
15.944
 11
-4.17268
 21
15.9158
  0
LINE
  8
0
 10
-4.17268
 20
15.9158
 11
-4.20639
 21
15.887
  0
LINE
  8
0
 10
-4.20639
 20
15.887
 11
-4.23959
 21
15.8576
  0
LINE
  8
0
 10
-4.23959
 20
15.8576
 11
-4.27227
 21
15.8276
  0
LINE
  8
0
 10
-4.27227
 20
15.8276
 11
-4.30443
 21
15.7971
  0
LINE
  8
0
 10
-4.30443
 20
15.7971
 11
-4.33605
 21
15.7661
  0
LINE
  8
0
 10
-4.33605
 20
15.7661
 11
-4.36712
 21
15.7344
  0
LINE
  8
0
 10
-4.36712
 20
15.7344
 11
-4.39764
 21
15.7023
  0
LINE
  8
0
 10
-4.39764
 20
15.7023
 11
-4.42759
 21
15.6696
  0
LINE
  8
0
 10
-4.42759
 20
15.6696
 11
-4.45696
 21
15.6364
  0
LINE
  8
0
 10
-4.45696
 20
15.6364
 11
-4.48575
 21
15.6027
  0
LINE
  8
0
 10
-4.48575
 20
15.6027
 11
-4.51395
 21
15.5685
  0
LINE
  8
0
 10
-4.51395
 20
15.5685
 11
-4.54155
 21
15.5338
  0
LINE
  8
0
 10
-4.54155
 20
15.5338
 11
-4.56853
 21
15.4986
  0
LINE
  8
0
 10
-4.56853
 20
15.4986
 11
-4.5949
 21
15.463
  0
LINE
  8
0
 10
-4.5949
 20
15.463
 11
-4.62065
 21
15.4269
  0
LINE
  8
0
 10
-4.62065
 20
15.4269
 11
-4.64575
 21
15.3903
  0
LINE
  8
0
 10
-4.64575
 20
15.3903
 11
-4.67022
 21
15.3534
  0
LINE
  8
0
 10
-4.67022
 20
15.3534
 11
-4.69404
 21
15.316
  0
LINE
  8
0
 10
-4.69404
 20
15.316
 11
-4.7172
 21
15.2782
  0
LINE
  8
0
 10
-4.7172
 20
15.2782
 11
-4.7397
 21
15.24
  0
LINE
  8
0
 10
-4.7397
 20
15.24
 11
-4.76153
 21
15.2014
  0
LINE
  8
0
 10
-4.76153
 20
15.2014
 11
-4.78269
 21
15.1625
  0
LINE
  8
0
 10
-4.78269
 20
15.1625
 11
-4.80316
 21
15.1231
  0
LINE
  8
0
 10
-4.80316
 20
15.1231
 11
-4.82294
 21
15.0835
  0
LINE
  8
0
 10
-4.82294
 20
15.0835
 11
-4.84202
 21
15.0435
  0
LINE
  8
0
 10
-4.84202
 20
15.0435
 11
-4.8604
 21
15.0031
  0
LINE
  8
0
 10
-4.8604
 20
15.0031
 11
-4.87808
 21
14.9625
  0
LINE
  8
0
 10
-4.87808
 20
14.9625
 11
-4.89505
 21
14.9215
  0
LINE
  8
0
 10
-4.89505
 20
14.9215
 11
-4.91129
 21
14.8803
  0
LINE
  8
0
 10
-4.91129
 20
14.8803
 11
-4.92682
 21
14.8387
  0
LINE
  8
0
 10
-4.92682
 20
14.8387
 11
-4.94162
 21
14.7969
  0
LINE
  8
0
 10
-4.94162
 20
14.7969
 11
-4.95568
 21
14.7549
  0
LINE
  8
0
 10
-4.95568
 20
14.7549
 11
-4.96901
 21
14.7126
  0
LINE
  8
0
 10
-4.96901
 20
14.7126
 11
-4.9816
 21
14.6701
  0
LINE
  8
0
 10
-4.9816
 20
14.6701
 11
-4.99345
 21
14.6274
  0
LINE
  8
0
 10
-4.99345
 20
14.6274
 11
-5.00455
 21
14.5845
  0
LINE
  8
0
 10
-5.00455
 20
14.5845
 11
-5.0149
 21
14.5414
  0
LINE
  8
0
 10
-5.0149
 20
14.5414
 11
-5.02449
 21
14.4981
  0
LINE
  8
0
 10
-5.02449
 20
14.4981
 11
-5.03333
 21
14.4547
  0
LINE
  8
0
 10
-5.03333
 20
14.4547
 11
-5.04141
 21
14.4111
  0
LINE
  8
0
 10
-5.04141
 20
14.4111
 11
-5.04873
 21
14.3673
  0
LINE
  8
0
 10
-5.04873
 20
14.3673
 11
-5.05528
 21
14.3235
  0
LINE
  8
0
 10
-5.05528
 20
14.3235
 11
-5.06107
 21
14.2795
  0
LINE
  8
0
 10
-5.06107
 20
14.2795
 11
-5.06608
 21
14.2355
  0
LINE
  8
0
 10
-5.06608
 20
14.2355
 11
-5.07033
 21
14.1914
  0
LINE
  8
0
 10
-5.07033
 20
14.1914
 11
-5.07381
 21
14.1472
  0
LINE
  8
0
 10
-5.07381
 20
14.1472
 11
-5.07652
 21
14.1029
  0
LINE
  8
0
 10
-5.07652
 20
14.1029
 11
-5.07845
 21
14.0586
  0
LINE
  8
0
 10
-5.07845
 20
14.0586
 11
-5.07961
 21
14.0143
  0
LINE
  8
0
 10
-5.07961
 20
14.0143
 11
-5.08
 21
13.97
  0
LINE
  8
0
 10
-5.08
 20
13.97
 11
-5.08
 21
-21.4503
  0
LINE
  8
0
 10
-2.0828
 20
-18.9103
 11
-2.08248
 21
-18.874
  0
LINE
  8
0
 10
-2.08248
 20
-18.874
 11
-2.08153
 21
-18.8376
  0
LINE
  8
0
 10
-2.08153
 20
-18.8376
 11
-2.07995
 21
-18.8013
  0
LINE
  8
0
 10
-2.07995
 20
-18.8013
 11
-2.07773
 21
-18.765
  0
LINE
  8
0
 10
-2.07773
 20
-18.765
 11
-2.07487
 21
-18.7288
  0
LINE
  8
0
 10
-2.07487
 20
-18.7288
 11
-2.07139
 21
-18.6926
  0
LINE
  8
0
 10
-2.07139
 20
-18.6926
 11
-2.06728
 21
-18.6565
  0
LINE
  8
0
 10
-2.06728
 20
-18.6565
 11
-2.06253
 21
-18.6204
  0
LINE
  8
0
 10
-2.06253
 20
-18.6204
 11
-2.05716
 21
-18.5845
  0
LINE
  8
0
 10
-2.05716
 20
-18.5845
 11
-2.05116
 21
-18.5486
  0
LINE
  8
0
 10
-2.05116
 20
-18.5486
 11
-2.04453
 21
-18.5129
  0
LINE
  8
0
 10
-2.04453
 20
-18.5129
 11
-2.03729
 21
-18.4773
  0
LINE
  8
0
 10
-2.03729
 20
-18.4773
 11
-2.02942
 21
-18.4418
  0
LINE
  8
0
 10
-2.02942
 20
-18.4418
 11
-2.02093
 21
-18.4064
  0
LINE
  8
0
 10
-2.02093
 20
-18.4064
 11
-2.01183
 21
-18.3712
  0
LINE
  8
0
 10
-2.01183
 20
-18.3712
 11
-2.00212
 21
-18.3362
  0
LINE
  8
0
 10
-2.00212
 20
-18.3362
 11
-1.99179
 21
-18.3013
  0
LINE
  8
0
 10
-1.99179
 20
-18.3013
 11
-1.98086
 21
-18.2667
  0
LINE
  8
0
 10
-1.98086
 20
-18.2667
 11
-1.96933
 21
-18.2322
  0
LINE
  8
0
 10
-1.96933
 20
-18.2322
 11
-1.95719
 21
-18.1979
  0
LINE
  8
0
 10
-1.95719
 20
-18.1979
 11
-1.94446
 21
-18.1639
  0
LINE
  8
0
 10
-1.94446
 20
-18.1639
 11
-1.93114
 21
-18.1301
  0
LINE
  8
0
 10
-1.93114
 20
-18.1301
 11
-1.91723
 21
-18.0965
  0
LINE
  8
0
 10
-1.91723
 20
-18.0965
 11
-1.90273
 21
-18.0631
  0
LINE
  8
0
 10
-1.90273
 20
-18.0631
 11
-1.88766
 21
-18.0301
  0
LINE
  8
0
 10
-1.88766
 20
-18.0301
 11
-1.87201
 21
-17.9973
  0
LINE
  8
0
 10
-1.87201
 20
-17.9973
 11
-1.85579
 21
-17.9647
  0
LINE
  8
0
 10
-1.85579
 20
-17.9647
 11
-1.839
 21
-17.9325
  0
LINE
  8
0
 10
-1.839
 20
-17.9325
 11
-1.82166
 21
-17.9005
  0
LINE
  8
0
 10
-1.82166
 20
-17.9005
 11
-1.80376
 21
-17.8689
  0
LINE
  8
0
 10
-1.80376
 20
-17.8689
 11
-1.78531
 21
-17.8376
  0
LINE
  8
0
 10
-1.78531
 20
-17.8376
 11
-1.76631
 21
-17.8066
  0
LINE
  8
0
 10
-1.76631
 20
-17.8066
 11
-1.74678
 21
-17.7759
  0
LINE
  8
0
 10
-1.74678
 20
-17.7759
 11
-1.72672
 21
-17.7456
  0
LINE
  8
0
 10
-1.72672
 20
-17.7456
 11
-1.70613
 21
-17.7157
  0
LINE
  8
0
 10
-1.70613
 20
-17.7157
 11
-1.68502
 21
-17.6861
  0
LINE
  8
0
 10
-1.68502
 20
-17.6861
 11
-1.6634
 21
-17.6568
  0
LINE
  8
0
 10
-1.6634
 20
-17.6568
 11
-1.64127
 21
-17.628
  0
LINE
  8
0
 10
-1.64127
 20
-17.628
 11
-1.61864
 21
-17.5996
  0
LINE
  8
0
 10
-1.61864
 20
-17.5996
 11
-1.59552
 21
-17.5715
  0
LINE
  8
0
 10
-1.59552
 20
-17.5715
 11
-1.57191
 21
-17.5439
  0
LINE
  8
0
 10
-1.57191
 20
-17.5439
 11
-1.54782
 21
-17.5166
  0
LINE
  8
0
 10
-1.54782
 20
-17.5166
 11
-1.52326
 21
-17.4898
  0
LINE
  8
0
 10
-1.52326
 20
-17.4898
 11
-1.49824
 21
-17.4635
  0
LINE
  8
0
 10
-1.49824
 20
-17.4635
 11
-1.47276
 21
-17.4375
  0
LINE
  8
0
 10
-1.47276
 20
-17.4375
 11
-1.44683
 21
-17.4121
  0
LINE
  8
0
 10
-1.44683
 20
-17.4121
 11
-1.42047
 21
-17.387
  0
LINE
  8
0
 10
-1.42047
 20
-17.387
 11
-1.39366
 21
-17.3625
  0
LINE
  8
0
 10
-1.39366
 20
-17.3625
 11
-1.36644
 21
-17.3384
  0
LINE
  8
0
 10
-1.36644
 20
-17.3384
 11
-1.3388
 21
-17.3148
  0
LINE
  8
0
 10
-1.3388
 20
-17.3148
 11
-1.31075
 21
-17.2917
  0
LINE
  8
0
 10
-1.31075
 20
-17.2917
 11
-1.2823
 21
-17.269
  0
LINE
  8
0
 10
-1.2823
 20
-17.269
 11
-1.25346
 21
-17.2469
  0
LINE
  8
0
 10
-1.25346
 20
-17.2469
 11
-1.22424
 21
-17.2253
  0
LINE
  8
0
 10
-1.22424
 20
-17.2253
 11
-1.19464
 21
-17.2042
  0
LINE
  8
0
 10
-1.19464
 20
-17.2042
 11
-1.16469
 21
-17.1836
  0
LINE
  8
0
 10
-1.16469
 20
-17.1836
 11
-1.13437
 21
-17.1635
  0
LINE
  8
0
 10
-1.13437
 20
-17.1635
 11
-1.10371
 21
-17.144
  0
LINE
  8
0
 10
-1.10371
 20
-17.144
 11
-1.07272
 21
-17.125
  0
LINE
  8
0
 10
-1.07272
 20
-17.125
 11
-1.0414
 21
-17.1065
  0
LINE
  8
0
 10
-1.0414
 20
-17.1065
 11
-1.00976
 21
-17.0886
  0
LINE
  8
0
 10
-1.00976
 20
-17.0886
 11
-0.977815
 21
-17.0713
  0
LINE
  8
0
 10
-0.977815
 20
-17.0713
 11
-0.945571
 21
-17.0545
  0
LINE
  8
0
 10
-0.945571
 20
-17.0545
 11
-0.913039
 21
-17.0383
  0
LINE
  8
0
 10
-0.913039
 20
-17.0383
 11
-0.880229
 21
-17.0226
  0
LINE
  8
0
 10
-0.880229
 20
-17.0226
 11
-0.847151
 21
-17.0076
  0
LINE
  8
0
 10
-0.847151
 20
-17.0076
 11
-0.813814
 21
-16.9931
  0
LINE
  8
0
 10
-0.813814
 20
-16.9931
 11
-0.780231
 21
-16.9792
  0
LINE
  8
0
 10
-0.780231
 20
-16.9792
 11
-0.746408
 21
-16.9658
  0
LINE
  8
0
 10
-0.746408
 20
-16.9658
 11
-0.712359
 21
-16.9531
  0
LINE
  8
0
 10
-0.712359
 20
-16.9531
 11
-0.678093
 21
-16.941
  0
LINE
  8
0
 10
-0.678093
 20
-16.941
 11
-0.64362
 21
-16.9294
  0
LINE
  8
0
 10
-0.64362
 20
-16.9294
 11
-0.608952
 21
-16.9185
  0
LINE
  8
0
 10
-0.608952
 20
-16.9185
 11
-0.574097
 21
-16.9082
  0
LINE
  8
0
 10
-0.574097
 20
-16.9082
 11
-0.539068
 21
-16.8985
  0
LINE
  8
0
 10
-0.539068
 20
-16.8985
 11
-0.503875
 21
-16.8894
  0
LINE
  8
0
 10
-0.503875
 20
-16.8894
 11
-0.468528
 21
-16.8809
  0
LINE
  8
0
 10
-0.468528
 20
-16.8809
 11
-0.433038
 21
-16.873
  0
LINE
  8
0
 10
-0.433038
 20
-16.873
 11
-0.397416
 21
-16.8658
  0
LINE
  8
0
 10
-0.397416
 20
-16.8658
 11
-0.361674
 21
-16.8591
  0
LINE
  8
0
 10
-0.361674
 20
-16.8591
 11
-0.325821
 21
-16.8531
  0
LINE
  8
0
 10
-0.325821
 20
-16.8531
 11
-0.289869
 21
-16.8478
  0
LINE
  8
0
 10
-0.289869
 20
-16.8478
 11
-0.253829
 21
-16.843
  0
LINE
  8
0
 10
-0.253829
 20
-16.843
 11
-0.217711
 21
-16.8389
  0
LINE
  8
0
 10
-0.217711
 20
-16.8389
 11
-0.181527
 21
-16.8354
  0
LINE
  8
0
 10
-0.181527
 20
-16.8354
 11
-0.145288
 21
-16.8326
  0
LINE
  8
0
 10
-0.145288
 20
-16.8326
 11
-0.109005
 21
-16.8304
  0
LINE
  8
0
 10
-0.109005
 20
-16.8304
 11
-0.0726881
 21
-16.8288
  0
LINE
  8
0
 10
-0.0726881
 20
-16.8288
 11
-0.0363493
 21
-16.8278
  0
LINE
  8
0
 10
-0.0363493
 20
-16.8278
 11
0
 21
-16.8275
  0
LINE
  8
0
 10
0
 20
-16.8275
 11
0.0363493
 21
-16.8278
  0
LINE
  8
0
 10
0.0363493
 20
-16.8278
 11
0.0726881
 21
-16.8288
  0
LINE
  8
0
 10
0.0726881
 20
-16.8288
 11
0.109005
 21
-16.8304
  0
LINE
  8
0
 10
0.109005
 20
-16.8304
 11
0.145288
 21
-16.8326
  0
LINE
  8
0
 10
0.145288
 20
-16.8326
 11
0.181527
 21
-16.8354
  0
LINE
  8
0
 10
0.181527
 20
-16.8354
 11
0.217711
 21
-16.8389
  0
LINE
  8
0
 10
0.217711
 20
-16.8389
 11
0.253829
 21
-16.843
  0
LINE
  8
0
 10
0.253829
 20
-16.843
 11
0.289869
 21
-16.8478
  0
LINE
  8
0
 10
0.289869
 20
-16.8478
 11
0.325821
 21
-16.8531
  0
LINE
  8
0
 10
0.325821
 20
-16.8531
 11
0.361674
 21
-16.8591
  0
LINE
  8
0
 10
0.361674
 20
-16.8591
 11
0.397416
 21
-16.8658
  0
LINE
  8
0
 10
0.397416
 20
-16.8658
 11
0.433038
 21
-16.873
  0
LINE
  8
0
 10
0.433038
 20
-16.873
 11
0.468528
 21
-16.8809
  0
LINE
  8
0
 10
0.468528
 20
-16.8809
 11
0.503875
 21
-16.8894
  0
LINE
  8
0
 10
0.503875
 20
-16.8894
 11
0.539068
 21
-16.8985
  0
LINE
  8
0
 10
0.539068
 20
-16.8985
 11
0.574097
 21
-16.9082
  0
LINE
  8
0
 10
0.574097
 20
-16.9082
 11
0.608952
 21
-16.9185
  0
LINE
  8
0
 10
0.608952
 20
-16.9185
 11
0.64362
 21
-16.9294
  0
LINE
  8
0
 10
0.64362
 20
-16.9294
 11
0.678093
 21
-16.941
  0
LINE
  8
0
 10
0.678093
 20
-16.941
 11
0.712359
 21
-16.9531
  0
LINE
  8
0
 10
0.712359
 20
-16.9531
 11
0.746408
 21
-16.9658
  0
LINE
  8
0
 10
0.746408
 20
-16.9658
 11
0.780231
 21
-16.9792
  0
LINE
  8
0
 10
0.780231
 20
-16.9792
 11
0.813814
 21
-16.9931
  0
LINE
  8
0
 10
0.813814
 20
-16.9931
 11
0.847151
 21
-17.0076
  0
LINE
  8
0
 10
0.847151
 20
-17.0076
 11
0.880229
 21
-17.0226
  0
LINE
  8
0
 10
0.880229
 20
-17.0226
 11
0.913039
 21
-17.0383
  0
LINE
  8
0
 10
0.913039
 20
-17.0383
 11
0.945571
 21
-17.0545
  0
LINE
  8
0
 10
0.945571
 20
-17.0545
 11
0.977815
 21
-17.0713
  0
LINE
  8
0
 10
0.977815
 20
-17.0713
 11
1.00976
 21
-17.0886
  0
LINE
  8
0
 10
1.00976
 20
-17.0886
 11
1.0414
 21
-17.1065
  0
LINE
  8
0
 10
1.0414
 20
-17.1065
 11
1.07272
 21
-17.125
  0
LINE
  8
0
 10
1.07272
 20
-17.125
 11
1.10371
 21
-17.144
  0
LINE
  8
0
 10
1.10371
 20
-17.144
 11
1.13437
 21
-17.1635
  0
LINE
  8
0
 10
1.13437
 20
-17.1635
 11
1.16469
 21
-17.1836
  0
LINE
  8
0
 10
1.16469
 20
-17.1836
 11
1.19464
 21
-17.2042
  0
LINE
  8
0
 10
1.19464
 20
-17.2042
 11
1.22424
 21
-17.2253
  0
LINE
  8
0
 10
1.22424
 20
-17.2253
 11
1.25346
 21
-17.2469
  0
LINE
  8
0
 10
1.25346
 20
-17.2469
 11
1.2823
 21
-17.269
  0
LINE
  8
0
 10
1.2823
 20
-17.269
 11
1.31075
 21
-17.2917
  0
LINE
  8
0
 10
1.31075
 20
-17.2917
 11
1.3388
 21
-17.3148
  0
LINE
  8
0
 10
1.3388
 20
-17.3148
 11
1.36644
 21
-17.3384
  0
LINE
  8
0
 10
1.36644
 20
-17.3384
 11
1.39366
 21
-17.3625
  0
LINE
  8
0
 10
1.39366
 20
-17.3625
 11
1.42047
 21
-17.387
  0
LINE
  8
0
 10
1.42047
 20
-17.387
 11
1.44683
 21
-17.4121
  0
LINE
  8
0
 10
1.44683
 20
-17.4121
 11
1.47276
 21
-17.4375
  0
LINE
  8
0
 10
1.47276
 20
-17.4375
 11
1.49824
 21
-17.4635
  0
LINE
  8
0
 10
1.49824
 20
-17.4635
 11
1.52326
 21
-17.4898
  0
LINE
  8
0
 10
1.52326
 20
-17.4898
 11
1.54782
 21
-17.5166
  0
LINE
  8
0
 10
1.54782
 20
-17.5166
 11
1.57191
 21
-17.5439
  0
LINE
  8
0
 10
1.57191
 20
-17.5439
 11
1.59552
 21
-17.5715
  0
LINE
  8
0
 10
1.59552
 20
-17.5715
 11
1.61864
 21
-17.5996
  0
LINE
  8
0
 10
1.61864
 20
-17.5996
 11
1.64127
 21
-17.628
  0
LINE
  8
0
 10
1.64127
 20
-17.628
 11
1.6634
 21
-17.6568
  0
LINE
  8
0
 10
1.6634
 20
-17.6568
 11
1.68502
 21
-17.6861
  0
LINE
  8
0
 10
1.68502
 20
-17.6861
 11
1.70613
 21
-17.7157
  0
LINE
  8
0
 10
1.70613
 20
-17.7157
 11
1.72672
 21
-17.7456
  0
LINE
  8
0
 10
1.72672
 20
-17.7456
 11
1.74678
 21
-17.7759
  0
LINE
  8
0
 10
1.74678
 20
-17.7759
 11
1.76631
 21
-17.8066
  0
LINE
  8
0
 10
1.76631
 20
-17.8066
 11
1.78531
 21
-17.8376
  0
LINE
  8
0
 10
1.78531
 20
-17.8376
 11
1.80376
 21
-17.8689
  0
LINE
  8
0
 10
1.80376
 20
-17.8689
 11
1.82166
 21
-17.9005
  0
LINE
  8
0
 10
1.82166
 20
-17.9005
 11
1.839
 21
-17.9325
  0
LINE
  8
0
 10
1.839
 20
-17.9325
 11
1.85579
 21
-17.9647
  0
LINE
  8
0
 10
1.85579
 20
-17.9647
 11
1.87201
 21
-17.9973
  0
LINE
  8
0
 10
1.87201
 20
-17.9973
 11
1.88766
 21
-18.0301
  0
LINE
  8
0
 10
1.88766
 20
-18.0301
 11
1.90273
 21
-18.0631
  0
LINE
  8
0
 10
1.90273
 20
-18.0631
 11
1.91723
 21
-18.0965
  0
LINE
  8
0
 10
1.91723
 20
-18.0965
 11
1.93114
 21
-18.1301
  0
LINE
  8
0
 10
1.93114
 20
-18.1301
 11
1.94446
 21
-18.1639
  0
LINE
  8
0
 10
1.94446
 20
-18.1639
 11
1.95719
 21
-18.1979
  0
LINE
  8
0
 10
1.95719
 20
-18.1979
 11
1.96933
 21
-18.2322
  0
LINE
  8
0
 10
1.96933
 20
-18.2322
 11
1.98086
 21
-18.2667
  0
LINE
  8
0
 10
1.98086
 20
-18.2667
 11
1.99179
 21
-18.3013
  0
LINE
  8
0
 10
1.99179
 20
-18.3013
 11
2.00212
 21
-18.3362
  0
LINE
  8
0
 10
2.00212
 20
-18.3362
 11
2.01183
 21
-18.3712
  0
LINE
  8
0
 10
2.01183
 20
-18.3712
 11
2.02093
 21
-18.4064
  0
LINE
  8
0
 10
2.02093
 20
-18.4064
 11
2.02942
 21
-18.4418
  0
LINE
  8
0
 10
2.02942
 20
-18.4418
 11
2.03729
 21
-18.4773
  0
LINE
  8
0
 10
2.03729
 20
-18.4773
 11
2.04453
 21
-18.5129
  0
LINE
  8
0
 10
2.04453
 20
-18.5129
 11
2.05116
 21
-18.5486
  0
LINE
  8
0
 10
2.05116
 20
-18.5486
 11
2.05716
 21
-18.5845
  0
LINE
  8
0
 10
2.05716
 20
-18.5845
 11
2.06253
 21
-18.6204
  0
LINE
  8
0
 10
2.06253
 20
-18.6204
 11
2.06728
 21
-18.6565
  0
LINE
  8
0
 10
2.06728
 20
-18.6565
 11
2.07139
 21
-18.6926
  0
LINE
  8
0
 10
2.07139
 20
-18.6926
 11
2.07487
 21
-18.7288
  0
LINE
  8
0
 10
2.07487
 20
-18.7288
 11
2.07773
 21
-18.765
  0
LINE
  8
0
 10
2.07773
 20
-18.765
 11
2.07995
 21
-18.8013
  0
LINE
  8
0
 10
2.07995
 20
-18.8013
 11
2.08153
 21
-18.8376
  0
LINE
  8
0
 10
2.08153
 20
-18.8376
 11
2.08248
 21
-18.874
  0
LINE
  8
0
 10
2.08248
 20
-18.874
 11
2.0828
 21
-18.9103
  0
LINE
  8
0
 10
2.0828
 20
-18.9103
 11
2.08248
 21
-18.9466
  0
LINE
  8
0
 10
2.08248
 20
-18.9466
 11
2.08153
 21
-18.983
  0
LINE
  8
0
 10
2.08153
 20
-18.983
 11
2.07995
 21
-19.0193
  0
LINE
  8
0
 10
2.07995
 20
-19.0193
 11
2.07773
 21
-19.0556
  0
LINE
  8
0
 10
2.07773
 20
-19.0556
 11
2.07487
 21
-19.0918
  0
LINE
  8
0
 10
2.07487
 20
-19.0918
 11
2.07139
 21
-19.128
  0
LINE
  8
0
 10
2.07139
 20
-19.128
 11
2.06728
 21
-19.1641
  0
LINE
  8
0
 10
2.06728
 20
-19.1641
 11
2.06253
 21
-19.2002
  0
LINE
  8
0
 10
2.06253
 20
-19.2002
 11
2.05716
 21
-19.2361
  0
LINE
  8
0
 10
2.05716
 20
-19.2361
 11
2.05116
 21
-19.272
  0
LINE
  8
0
 10
2.05116
 20
-19.272
 11
2.04453
 21
-19.3077
  0
LINE
  8
0
 10
2.04453
 20
-19.3077
 11
2.03729
 21
-19.3433
  0
LINE
  8
0
 10
2.03729
 20
-19.3433
 11
2.02942
 21
-19.3788
  0
LINE
  8
0
 10
2.02942
 20
-19.3788
 11
2.02093
 21
-19.4142
  0
LINE
  8
0
 10
2.02093
 20
-19.4142
 11
2.01183
 21
-19.4494
  0
LINE
  8
0
 10
2.01183
 20
-19.4494
 11
2.00212
 21
-19.4844
  0
LINE
  8
0
 10
2.00212
 20
-19.4844
 11
1.99179
 21
-19.5193
  0
LINE
  8
0
 10
1.99179
 20
-19.5193
 11
1.98086
 21
-19.5539
  0
LINE
  8
0
 10
1.98086
 20
-19.5539
 11
1.96933
 21
-19.5884
  0
LINE
  8
0
 10
1.96933
 20
-19.5884
 11
1.95719
 21
-19.6227
  0
LINE
  8
0
 10
1.95719
 20
-19.6227
 11
1.94446
 21
-19.6567
  0
LINE
  8
0
 10
1.94446
 20
-19.6567
 11
1.93114
 21
-19.6905
  0
LINE
  8
0
 10
1.93114
 20
-19.6905
 11
1.91723
 21
-19.7241
  0
LINE
  8
0
 10
1.91723
 20
-19.7241
 11
1.90273
 21
-19.7575
  0
LINE
  8
0
 10
1.90273
 20
-19.7575
 11
1.88766
 21
-19.7905
  0
LINE
  8
0
 10
1.88766
 20
-19.7905
 11
1.87201
 21
-19.8233
  0
LINE
  8
0
 10
1.87201
 20
-19.8233
 11
1.85579
 21
-19.8559
  0
LINE
  8
0
 10
1.85579
 20
-19.8559
 11
1.839
 21
-19.8881
  0
LINE
  8
0
 10
1.839
 20
-19.8881
 11
1.82166
 21
-19.9201
  0
LINE
  8
0
 10
1.82166
 20
-19.9201
 11
1.80376
 21
-19.9517
  0
LINE
  8
0
 10
1.80376
 20
-19.9517
 11
1.78531
 21
-19.983
  0
LINE
  8
0
 10
1.78531
 20
-19.983
 11
1.76631
 21
-20.014
  0
LINE
  8
0
 10
1.76631
 20
-20.014
 11
1.74678
 21
-20.0447
  0
LINE
  8
0
 10
1.74678
 20
-20.0447
 11
1.72672
 21
-20.075
  0
LINE
  8
0
 10
1.72672
 20
-20.075
 11
1.70613
 21
-20.1049
  0
LINE
  8
0
 10
1.70613
 20
-20.1049
 11
1.68502
 21
-20.1345
  0
LINE
  8
0
 10
1.68502
 20
-20.1345
 11
1.6634
 21
-20.1638
  0
LINE
  8
0
 10
1.6634
 20
-20.1638
 11
1.64127
 21
-20.1926
  0
LINE
  8
0
 10
1.64127
 20
-20.1926
 11
1.61864
 21
-20.221
  0
LINE
  8
0
 10
1.61864
 20
-20.221
 11
1.59552
 21
-20.2491
  0
LINE
  8
0
 10
1.59552
 20
-20.2491
 11
1.57191
 21
-20.2767
  0
LINE
  8
0
 10
1.57191
 20
-20.2767
 11
1.54782
 21
-20.304
  0
LINE
  8
0
 10
1.54782
 20
-20.304
 11
1.52326
 21
-20.3308
  0
LINE
  8
0
 10
1.52326
 20
-20.3308
 11
1.49824
 21
-20.3571
  0
LINE
  8
0
 10
1.49824
 20
-20.3571
 11
1.47276
 21
-20.3831
  0
LINE
  8
0
 10
1.47276
 20
-20.3831
 11
1.44683
 21
-20.4085
  0
LINE
  8
0
 10
1.44683
 20
-20.4085
 11
1.42047
 21
-20.4336
  0
LINE
  8
0
 10
1.42047
 20
-20.4336
 11
1.39366
 21
-20.4581
  0
LINE
  8
0
 10
1.39366
 20
-20.4581
 11
1.36644
 21
-20.4822
  0
LINE
  8
0
 10
1.36644
 20
-20.4822
 11
1.3388
 21
-20.5058
  0
LINE
  8
0
 10
1.3388
 20
-20.5058
 11
1.31075
 21
-20.5289
  0
LINE
  8
0
 10
1.31075
 20
-20.5289
 11
1.2823
 21
-20.5516
  0
LINE
  8
0
 10
1.2823
 20
-20.5516
 11
1.25346
 21
-20.5737
  0
LINE
  8
0
 10
1.25346
 20
-20.5737
 11
1.22424
 21
-20.5953
  0
LINE
  8
0
 10
1.22424
 20
-20.5953
 11
1.19464
 21
-20.6164
  0
LINE
  8
0
 10
1.19464
 20
-20.6164
 11
1.16469
 21
-20.637
  0
LINE
  8
0
 10
1.16469
 20
-20.637
 11
1.13437
 21
-20.6571
  0
LINE
  8
0
 10
1.13437
 20
-20.6571
 11
1.10371
 21
-20.6766
  0
LINE
  8
0
 10
1.10371
 20
-20.6766
 11
1.07272
 21
-20.6956
  0
LINE
  8
0
 10
1.07272
 20
-20.6956
 11
1.0414
 21
-20.7141
  0
LINE
  8
0
 10
1.0414
 20
-20.7141
 11
1.00976
 21
-20.732
  0
LINE
  8
0
 10
1.00976
 20
-20.732
 11
0.977815
 21
-20.7493
  0
LINE
  8
0
 10
0.977815
 20
-20.7493
 11
0.945571
 21
-20.7661
  0
LINE
  8
0
 10
0.945571
 20
-20.7661
 11
0.913039
 21
-20.7823
  0
LINE
  8
0
 10
0.913039
 20
-20.7823
 11
0.880229
 21
-20.798
  0
LINE
  8
0
 10
0.880229
 20
-20.798
 11
0.847151
 21
-20.813
  0
LINE
  8
0
 10
0.847151
 20
-20.813
 11
0.813814
 21
-20.8275
  0
LINE
  8
0
 10
0.813814
 20
-20.8275
 11
0.780231
 21
-20.8414
  0
LINE
  8
0
 10
0.780231
 20
-20.8414
 11
0.746408
 21
-20.8548
  0
LINE
  8
0
 10
0.746408
 20
-20.8548
 11
0.712359
 21
-20.8675
  0
LINE
  8
0
 10
0.712359
 20
-20.8675
 11
0.678093
 21
-20.8796
  0
LINE
  8
0
 10
0.678093
 20
-20.8796
 11
0.64362
 21
-20.8912
  0
LINE
  8
0
 10
0.64362
 20
-20.8912
 11
0.608952
 21
-20.9021
  0
LINE
  8
0
 10
0.608952
 20
-20.9021
 11
0.574097
 21
-20.9124
  0
LINE
  8
0
 10
0.574097
 20
-20.9124
 11
0.539068
 21
-20.9221
  0
LINE
  8
0
 10
0.539068
 20
-20.9221
 11
0.503875
 21
-20.9312
  0
LINE
  8
0
 10
0.503875
 20
-20.9312
 11
0.468528
 21
-20.9397
  0
LINE
  8
0
 10
0.468528
 20
-20.9397
 11
0.433038
 21
-20.9476
  0
LINE
  8
0
 10
0.433038
 20
-20.9476
 11
0.397416
 21
-20.9548
  0
LINE
  8
0
 10
0.397416
 20
-20.9548
 11
0.361674
 21
-20.9615
  0
LINE
  8
0
 10
0.361674
 20
-20.9615
 11
0.325821
 21
-20.9675
  0
LINE
  8
0
 10
0.325821
 20
-20.9675
 11
0.289869
 21
-20.9728
  0
LINE
  8
0
 10
0.289869
 20
-20.9728
 11
0.253829
 21
-20.9776
  0
LINE
  8
0
 10
0.253829
 20
-20.9776
 11
0.217711
 21
-20.9817
  0
LINE
  8
0
 10
0.217711
 20
-20.9817
 11
0.181527
 21
-20.9852
  0
LINE
  8
0
 10
0.181527
 20
-20.9852
 11
0.145288
 21
-20.988
  0
LINE
  8
0
 10
0.145288
 20
-20.988
 11
0.109005
 21
-20.9902
  0
LINE
  8
0
 10
0.109005
 20
-20.9902
 11
0.0726881
 21
-20.9918
  0
LINE
  8
0
 10
0.0726881
 20
-20.9918
 11
0.0363493
 21
-20.9928
  0
LINE
  8
0
 10
0.0363493
 20
-20.9928
 11
0
 21
-20.9931
  0
LINE
  8
0
 10
0
 20
-20.9931
 11
-0.0363493
 21
-20.9928
  0
LINE
  8
0
 10
-0.0363493
 20
-20.9928
 11
-0.0726881
 21
-20.9918
  0
LINE
  8
0
 10
-0.0726881
 20
-20.9918
 11
-0.109005
 21
-20.9902
  0
LINE
  8
0
 10
-0.109005
 20
-20.9902
 11
-0.145288
 21
-20.988
  0
LINE
  8
0
 10
-0.145288
 20
-20.988
 11
-0.181527
 21
-20.9852
  0
LINE
  8
0
 10
-0.181527
 20
-20.9852
 11
-0.217711
 21
-20.9817
  0
LINE
  8
0
 10
-0.217711
 20
-20.9817
 11
-0.253829
 21
-20.9776
  0
LINE
  8
0
 10
-0.253829
 20
-20.9776
 11
-0.289869
 21
-20.9728
  0
LINE
  8
0
 10
-0.289869
 20
-20.9728
 11
-0.325821
 21
-20.9675
  0
LINE
  8
0
 10
-0.325821
 20
-20.9675
 11
-0.361674
 21
-20.9615
  0
LINE
  8
0
 10
-0.361674
 20
-20.9615
 11
-0.397416
 21
-20.9548
  0
LINE
  8
0
 10
-0.397416
 20
-20.9548
 11
-0.433038
 21
-20.9476
  0
LINE
  8
0
 10
-0.433038
 20
-20.9476
 11
-0.468528
 21
-20.9397
  0
LINE
  8
0
 10
-0.468528
 20
-20.9397
 11
-0.503875
 21
-20.9312
  0
LINE
  8
0
 10
-0.503875
 20
-20.9312
 11
-0.539068
 21
-20.9221
  0
LINE
  8
0
 10
-0.539068
 20
-20.9221
 11
-0.574097
 21
-20.9124
  0
LINE
  8
0
 10
-0.574097
 20
-20.9124
 11
-0.608952
 21
-20.9021
  0
LINE
  8
0
 10
-0.608952
 20
-20.9021
 11
-0.64362
 21
-20.8912
  0
LINE
  8
0
 10
-0.64362
 20
-20.8912
 11
-0.678093
 21
-20.8796
  0
LINE
  8
0
 10
-0.678093
 20
-20.8796
 11
-0.712359
 21
-20.8675
  0
LINE
  8
0
 10
-0.712359
 20
-20.8675
 11
-0.746408
 21
-20.8548
  0
LINE
  8
0
 10
-0.746408
 20
-20.8548
 11
-0.780231
 21
-20.8414
  0
LINE
  8
0
 10
-0.780231
 20
-20.8414
 11
-0.813814
 21
-20.8275
  0
LINE
  8
0
 10
-0.813814
 20
-20.8275
 11
-0.847151
 21
-20.813
  0
LINE
  8
0
 10
-0.847151
 20
-20.813
 11
-0.880229
 21
-20.798
  0
LINE
  8
0
 10
-0.880229
 20
-20.798
 11
-0.913039
 21
-20.7823
  0
LINE
  8
0
 10
-0.913039
 20
-20.7823
 11
-0.945571
 21
-20.7661
  0
LINE
  8
0
 10
-0.945571
 20
-20.7661
 11
-0.977815
 21
-20.7493
  0
LINE
  8
0
 10
-0.977815
 20
-20.7493
 11
-1.00976
 21
-20.732
  0
LINE
  8
0
 10
-1.00976
 20
-20.732
 11
-1.0414
 21
-20.7141
  0
LINE
  8
0
 10
-1.0414
 20
-20.7141
 11
-1.07272
 21
-20.6956
  0
LINE
  8
0
 10
-1.07272
 20
-20.6956
 11
-1.10371
 21
-20.6766
  0
LINE
  8
0
 10
-1.10371
 20
-20.6766
 11
-1.13437
 21
-20.6571
  0
LINE
  8
0
 10
-1.13437
 20
-20.6571
 11
-1.16469
 21
-20.637
  0
LINE
  8
0
 10
-1.16469
 20
-20.637
 11
-1.19464
 21
-20.6164
  0
LINE
  8
0
 10
-1.19464
 20
-20.6164
 11
-1.22424
 21
-20.5953
  0
LINE
  8
0
 10
-1.22424
 20
-20.5953
 11
-1.25346
 21
-20.5737
  0
LINE
  8
0
 10
-1.25346
 20
-20.5737
 11
-1.2823
 21
-20.5516
  0
LINE
  8
0
 10
-1.2823
 20
-20.5516
 11
-1.31075
 21
-20.5289
  0
LINE
  8
0
 10
-1.31075
 20
-20.5289
 11
-1.3388
 21
-20.5058
  0
LINE
  8
0
 10
-1.3388
 20
-20.5058
 11
-1.36644
 21
-20.4822
  0
LINE
  8
0
 10
-1.36644
 20
-20.4822
 11
-1.39366
 21
-20.4581
  0
LINE
  8
0
 10
-1.39366
 20
-20.4581
 11
-1.42047
 21
-20.4336
  0
LINE
  8
0
 10
-1.42047
 20
-20.4336
 11
-1.44683
 21
-20.4085
  0
LINE
  8
0
 10
-1.44683
 20
-20.4085
 11
-1.47276
 21
-20.3831
  0
LINE
  8
0
 10
-1.47276
 20
-20.3831
 11
-1.49824
 21
-20.3571
  0
LINE
  8
0
 10
-1.49824
 20
-20.3571
 11
-1.52326
 21
-20.3308
  0
LINE
  8
0
 10
-1.52326
 20
-20.3308
 11
-1.54782
 21
-20.304
  0
LINE
  8
0
 10
-1.54782
 20
-20.304
 11
-1.57191
 21
-20.2767
  0
LINE
  8
0
 10
-1.57191
 20
-20.2767
 11
-1.59552
 21
-20.2491
  0
LINE
  8
0
 10
-1.59552
 20
-20.2491
 11
-1.61864
 21
-20.221
  0
LINE
  8
0
 10
-1.61864
 20
-20.221
 11
-1.64127
 21
-20.1926
  0
LINE
  8
0
 10
-1.64127
 20
-20.1926
 11
-1.6634
 21
-20.1638
  0
LINE
  8
0
 10
-1.6634
 20
-20.1638
 11
-1.68502
 21
-20.1345
  0
LINE
  8
0
 10
-1.68502
 20
-20.1345
 11
-1.70613
 21
-20.1049
  0
LINE
  8
0
 10
-1.70613
 20
-20.1049
 11
-1.72672
 21
-20.075
  0
LINE
  8
0
 10
-1.72672
 20
-20.075
 11
-1.74678
 21
-20.0447
  0
LINE
  8
0
 10
-1.74678
 20
-20.0447
 11
-1.76631
 21
-20.014
  0
LINE
  8
0
 10
-1.76631
 20
-20.014
 11
-1.78531
 21
-19.983
  0
LINE
  8
0
 10
-1.78531
 20
-19.983
 11
-1.80376
 21
-19.9517
  0
LINE
  8
0
 10
-1.80376
 20
-19.9517
 11
-1.82166
 21
-19.9201
  0
LINE
  8
0
 10
-1.82166
 20
-19.9201
 11
-1.839
 21
-19.8881
  0
LINE
  8
0
 10
-1.839
 20
-19.8881
 11
-1.85579
 21
-19.8559
  0
LINE
  8
0
 10
-1.85579
 20
-19.8559
 11
-1.87201
 21
-19.8233
  0
LINE
  8
0
 10
-1.87201
 20
-19.8233
 11
-1.88766
 21
-19.7905
  0
LINE
  8
0
 10
-1.88766
 20
-19.7905
 11
-1.90273
 21
-19.7575
  0
LINE
  8
0
 10
-1.90273
 20
-19.7575
 11
-1.91723
 21
-19.7241
  0
LINE
  8
0
 10
-1.91723
 20
-19.7241
 11
-1.93114
 21
-19.6905
  0
LINE
  8
0
 10
-1.93114
 20
-19.6905
 11
-1.94446
 21
-19.6567
  0
LINE
  8
0
 10
-1.94446
 20
-19.6567
 11
-1.95719
 21
-19.6227
  0
LINE
  8
0
 10
-1.95719
 20
-19.6227
 11
-1.96933
 21
-19.5884
  0
LINE
  8
0
 10
-1.96933
 20
-19.5884
 11
-1.98086
 21
-19.5539
  0
LINE
  8
0
 10
-1.98086
 20
-19.5539
 11
-1.99179
 21
-19.5193
  0
LINE
  8
0
 10
-1.99179
 20
-19.5193
 11
-2.00212
 21
-19.4844
  0
LINE
  8
0
 10
-2.00212
 20
-19.4844
 11
-2.01183
 21
-19.4494
  0
LINE
  8
0
 10
-2.01183
 20
-19.4494
 11
-2.02093
 21
-19.4142
  0
LINE
  8
0
 10
-2.02093
 20
-19.4142
 11
-2.02942
 21
-19.3788
  0
LINE
  8
0
 10
-2.02942
 20
-19.3788
 11
-2.03729
 21
-19.3433
  0
LINE
  8
0
 10
-2.03729
 20
-19.3433
 11
-2.04453
 21
-19.3077
  0
LINE
  8
0
 10
-2.04453
 20
-19.3077
 11
-2.05116
 21
-19.272
  0
LINE
  8
0
 10
-2.05116
 20
-19.272
 11
-2.05716
 21
-19.2361
  0
LINE
  8
0
 10
-2.05716
 20
-19.2361
 11
-2.06253
 21
-19.2002
  0
LINE
  8
0
 10
-2.06253
 20
-19.2002
 11
-2.06728
 21
-19.1641
  0
LINE
  8
0
 10
-2.06728
 20
-19.1641
 11
-2.07139
 21
-19.128
  0
LINE
  8
0
 10
-2.07139
 20
-19.128
 11
-2.07487
 21
-19.0918
  0
LINE
  8
0
 10
-2.07487
 20
-19.0918
 11
-2.07773
 21
-19.0556
  0
LINE
  8
0
 10
-2.07773
 20
-19.0556
 11
-2.07995
 21
-19.0193
  0
LINE
  8
0
 10
-2.07995
 20
-19.0193
 11
-2.08153
 21
-18.983
  0
LINE
  8
0
 10
-2.08153
 20
-18.983
 11
-2.08248
 21
-18.9466
  0
LINE
  8
0
 10
-2.08248
 20
-18.9466
 11
-2.0828
 21
-18.9103
  0
LINE
  8
0
 10
-2.0828
 20
-7.49046
 11
-2.08248
 21
-7.45411
  0
LINE
  8
0
 10
-2.08248
 20
-7.45411
 11
-2.08153
 21
-7.41777
  0
LINE
  8
0
 10
-2.08153
 20
-7.41777
 11
-2.07995
 21
-7.38145
  0
LINE
  8
0
 10
-2.07995
 20
-7.38145
 11
-2.07773
 21
-7.34517
  0
LINE
  8
0
 10
-2.07773
 20
-7.34517
 11
-2.07487
 21
-7.30893
  0
LINE
  8
0
 10
-2.07487
 20
-7.30893
 11
-2.07139
 21
-7.27275
  0
LINE
  8
0
 10
-2.07139
 20
-7.27275
 11
-2.06728
 21
-7.23663
  0
LINE
  8
0
 10
-2.06728
 20
-7.23663
 11
-2.06253
 21
-7.20059
  0
LINE
  8
0
 10
-2.06253
 20
-7.20059
 11
-2.05716
 21
-7.16464
  0
LINE
  8
0
 10
-2.05716
 20
-7.16464
 11
-2.05116
 21
-7.12879
  0
LINE
  8
0
 10
-2.05116
 20
-7.12879
 11
-2.04453
 21
-7.09304
  0
LINE
  8
0
 10
-2.04453
 20
-7.09304
 11
-2.03729
 21
-7.05742
  0
LINE
  8
0
 10
-2.03729
 20
-7.05742
 11
-2.02942
 21
-7.02193
  0
LINE
  8
0
 10
-2.02942
 20
-7.02193
 11
-2.02093
 21
-6.98658
  0
LINE
  8
0
 10
-2.02093
 20
-6.98658
 11
-2.01183
 21
-6.95139
  0
LINE
  8
0
 10
-2.01183
 20
-6.95139
 11
-2.00212
 21
-6.91636
  0
LINE
  8
0
 10
-2.00212
 20
-6.91636
 11
-1.99179
 21
-6.88151
  0
LINE
  8
0
 10
-1.99179
 20
-6.88151
 11
-1.98086
 21
-6.84684
  0
LINE
  8
0
 10
-1.98086
 20
-6.84684
 11
-1.96933
 21
-6.81237
  0
LINE
  8
0
 10
-1.96933
 20
-6.81237
 11
-1.95719
 21
-6.7781
  0
LINE
  8
0
 10
-1.95719
 20
-6.7781
 11
-1.94446
 21
-6.74405
  0
LINE
  8
0
 10
-1.94446
 20
-6.74405
 11
-1.93114
 21
-6.71023
  0
LINE
  8
0
 10
-1.93114
 20
-6.71023
 11
-1.91723
 21
-6.67664
  0
LINE
  8
0
 10
-1.91723
 20
-6.67664
 11
-1.90273
 21
-6.64331
  0
LINE
  8
0
 10
-1.90273
 20
-6.64331
 11
-1.88766
 21
-6.61023
  0
LINE
  8
0
 10
-1.88766
 20
-6.61023
 11
-1.87201
 21
-6.57742
  0
LINE
  8
0
 10
-1.87201
 20
-6.57742
 11
-1.85579
 21
-6.54489
  0
LINE
  8
0
 10
-1.85579
 20
-6.54489
 11
-1.839
 21
-6.51264
  0
LINE
  8
0
 10
-1.839
 20
-6.51264
 11
-1.82166
 21
-6.4807
  0
LINE
  8
0
 10
-1.82166
 20
-6.4807
 11
-1.80376
 21
-6.44906
  0
LINE
  8
0
 10
-1.80376
 20
-6.44906
 11
-1.78531
 21
-6.41774
  0
LINE
  8
0
 10
-1.78531
 20
-6.41774
 11
-1.76631
 21
-6.38674
  0
LINE
  8
0
 10
-1.76631
 20
-6.38674
 11
-1.74678
 21
-6.35609
  0
LINE
  8
0
 10
-1.74678
 20
-6.35609
 11
-1.72672
 21
-6.32577
  0
LINE
  8
0
 10
-1.72672
 20
-6.32577
 11
-1.70613
 21
-6.29581
  0
LINE
  8
0
 10
-1.70613
 20
-6.29581
 11
-1.68502
 21
-6.26622
  0
LINE
  8
0
 10
-1.68502
 20
-6.26622
 11
-1.6634
 21
-6.237
  0
LINE
  8
0
 10
-1.6634
 20
-6.237
 11
-1.64127
 21
-6.20816
  0
LINE
  8
0
 10
-1.64127
 20
-6.20816
 11
-1.61864
 21
-6.17971
  0
LINE
  8
0
 10
-1.61864
 20
-6.17971
 11
-1.59552
 21
-6.15166
  0
LINE
  8
0
 10
-1.59552
 20
-6.15166
 11
-1.57191
 21
-6.12402
  0
LINE
  8
0
 10
-1.57191
 20
-6.12402
 11
-1.54782
 21
-6.09679
  0
LINE
  8
0
 10
-1.54782
 20
-6.09679
 11
-1.52326
 21
-6.06999
  0
LINE
  8
0
 10
-1.52326
 20
-6.06999
 11
-1.49824
 21
-6.04362
  0
LINE
  8
0
 10
-1.49824
 20
-6.04362
 11
-1.47276
 21
-6.0177
  0
LINE
  8
0
 10
-1.47276
 20
-6.0177
 11
-1.44683
 21
-5.99222
  0
LINE
  8
0
 10
-1.44683
 20
-5.99222
 11
-1.42047
 21
-5.9672
  0
LINE
  8
0
 10
-1.42047
 20
-5.9672
 11
-1.39366
 21
-5.94264
  0
LINE
  8
0
 10
-1.39366
 20
-5.94264
 11
-1.36644
 21
-5.91855
  0
LINE
  8
0
 10
-1.36644
 20
-5.91855
 11
-1.3388
 21
-5.89494
  0
LINE
  8
0
 10
-1.3388
 20
-5.89494
 11
-1.31075
 21
-5.87182
  0
LINE
  8
0
 10
-1.31075
 20
-5.87182
 11
-1.2823
 21
-5.84919
  0
LINE
  8
0
 10
-1.2823
 20
-5.84919
 11
-1.25346
 21
-5.82706
  0
LINE
  8
0
 10
-1.25346
 20
-5.82706
 11
-1.22424
 21
-5.80544
  0
LINE
  8
0
 10
-1.22424
 20
-5.80544
 11
-1.19464
 21
-5.78433
  0
LINE
  8
0
 10
-1.19464
 20
-5.78433
 11
-1.16469
 21
-5.76374
  0
LINE
  8
0
 10
-1.16469
 20
-5.76374
 11
-1.13437
 21
-5.74368
  0
LINE
  8
0
 10
-1.13437
 20
-5.74368
 11
-1.10371
 21
-5.72414
  0
LINE
  8
0
 10
-1.10371
 20
-5.72414
 11
-1.07272
 21
-5.70515
  0
LINE
  8
0
 10
-1.07272
 20
-5.70515
 11
-1.0414
 21
-5.6867
  0
LINE
  8
0
 10
-1.0414
 20
-5.6867
 11
-1.00976
 21
-5.6688
  0
LINE
  8
0
 10
-1.00976
 20
-5.6688
 11
-0.977815
 21
-5.65146
  0
LINE
  8
0
 10
-0.977815
 20
-5.65146
 11
-0.945571
 21
-5.63467
  0
LINE
  8
0
 10
-0.945571
 20
-5.63467
 11
-0.913039
 21
-5.61845
  0
LINE
  8
0
 10
-0.913039
 20
-5.61845
 11
-0.880229
 21
-5.6028
  0
LINE
  8
0
 10
-0.880229
 20
-5.6028
 11
-0.847151
 21
-5.58773
  0
LINE
  8
0
 10
-0.847151
 20
-5.58773
 11
-0.813814
 21
-5.57323
  0
LINE
  8
0
 10
-0.813814
 20
-5.57323
 11
-0.780231
 21
-5.55932
  0
LINE
  8
0
 10
-0.780231
 20
-5.55932
 11
-0.746408
 21
-5.546
  0
LINE
  8
0
 10
-0.746408
 20
-5.546
 11
-0.712359
 21
-5.53327
  0
LINE
  8
0
 10
-0.712359
 20
-5.53327
 11
-0.678093
 21
-5.52113
  0
LINE
  8
0
 10
-0.678093
 20
-5.52113
 11
-0.64362
 21
-5.5096
  0
LINE
  8
0
 10
-0.64362
 20
-5.5096
 11
-0.608952
 21
-5.49867
  0
LINE
  8
0
 10
-0.608952
 20
-5.49867
 11
-0.574097
 21
-5.48834
  0
LINE
  8
0
 10
-0.574097
 20
-5.48834
 11
-0.539068
 21
-5.47863
  0
LINE
  8
0
 10
-0.539068
 20
-5.47863
 11
-0.503875
 21
-5.46953
  0
LINE
  8
0
 10
-0.503875
 20
-5.46953
 11
-0.468528
 21
-5.46104
  0
LINE
  8
0
 10
-0.468528
 20
-5.46104
 11
-0.433038
 21
-5.45317
  0
LINE
  8
0
 10
-0.433038
 20
-5.45317
 11
-0.397416
 21
-5.44593
  0
LINE
  8
0
 10
-0.397416
 20
-5.44593
 11
-0.361674
 21
-5.4393
  0
LINE
  8
0
 10
-0.361674
 20
-5.4393
 11
-0.325821
 21
-5.4333
  0
LINE
  8
0
 10
-0.325821
 20
-5.4333
 11
-0.289869
 21
-5.42793
  0
LINE
  8
0
 10
-0.289869
 20
-5.42793
 11
-0.253829
 21
-5.42318
  0
LINE
  8
0
 10
-0.253829
 20
-5.42318
 11
-0.217711
 21
-5.41907
  0
LINE
  8
0
 10
-0.217711
 20
-5.41907
 11
-0.181527
 21
-5.41559
  0
LINE
  8
0
 10
-0.181527
 20
-5.41559
 11
-0.145288
 21
-5.41273
  0
LINE
  8
0
 10
-0.145288
 20
-5.41273
 11
-0.109005
 21
-5.41051
  0
LINE
  8
0
 10
-0.109005
 20
-5.41051
 11
-0.0726881
 21
-5.40893
  0
LINE
  8
0
 10
-0.0726881
 20
-5.40893
 11
-0.0363493
 21
-5.40798
  0
LINE
  8
0
 10
-0.0363493
 20
-5.40798
 11
0
 21
-5.40766
  0
LINE
  8
0
 10
0
 20
-5.40766
 11
0.0363493
 21
-5.40798
  0
LINE
  8
0
 10
0.0363493
 20
-5.40798
 11
0.0726881
 21
-5.40893
  0
LINE
  8
0
 10
0.0726881
 20
-5.40893
 11
0.109005
 21
-5.41051
  0
LINE
  8
0
 10
0.109005
 20
-5.41051
 11
0.145288
 21
-5.41273
  0
LINE
  8
0
 10
0.145288
 20
-5.41273
 11
0.181527
 21
-5.41559
  0
LINE
  8
0
 10
0.181527
 20
-5.41559
 11
0.217711
 21
-5.41907
  0
LINE
  8
0
 10
0.217711
 20
-5.41907
 11
0.253829
 21
-5.42318
  0
LINE
  8
0
 10
0.253829
 20
-5.42318
 11
0.289869
 21
-5.42793
  0
LINE
  8
0
 10
0.289869
 20
-5.42793
 11
0.325821
 21
-5.4333
  0
LINE
  8
0
 10
0.325821
 20
-5.4333
 11
0.361674
 21
-5.4393
  0
LINE
  8
0
 10
0.361674
 20
-5.4393
 11
0.397416
 21
-5.44593
  0
LINE
  8
0
 10
0.397416
 20
-5.44593
 11
0.433038
 21
-5.45317
  0
LINE
  8
0
 10
0.433038
 20
-5.45317
 11
0.468528
 21
-5.46104
  0
LINE
  8
0
 10
0.468528
 20
-5.46104
 11
0.503875
 21
-5.46953
  0
LINE
  8
0
 10
0.503875
 20
-5.46953
 11
0.539068
 21
-5.47863
  0
LINE
  8
0
 10
0.539068
 20
-5.47863
 11
0.574097
 21
-5.48834
  0
LINE
  8
0
 10
0.574097
 20
-5.48834
 11
0.608952
 21
-5.49867
  0
LINE
  8
0
 10
0.608952
 20
-5.49867
 11
0.64362
 21
-5.5096
  0
LINE
  8
0
 10
0.64362
 20
-5.5096
 11
0.678093
 21
-5.52113
  0
LINE
  8
0
 10
0.678093
 20
-5.52113
 11
0.712359
 21
-5.53327
  0
LINE
  8
0
 10
0.712359
 20
-5.53327
 11
0.746408
 21
-5.546
  0
LINE
  8
0
 10
0.746408
 20
-5.546
 11
0.780231
 21
-5.55932
  0
LINE
  8
0
 10
0.780231
 20
-5.55932
 11
0.813814
 21
-5.57323
  0
LINE
  8
0
 10
0.813814
 20
-5.57323
 11
0.847151
 21
-5.58773
  0
LINE
  8
0
 10
0.847151
 20
-5.58773
 11
0.880229
 21
-5.6028
  0
LINE
  8
0
 10
0.880229
 20
-5.6028
 11
0.913039
 21
-5.61845
  0
LINE
  8
0
 10
0.913039
 20
-5.61845
 11
0.945571
 21
-5.63467
  0
LINE
  8
0
 10
0.945571
 20
-5.63467
 11
0.977815
 21
-5.65146
  0
LINE
  8
0
 10
0.977815
 20
-5.65146
 11
1.00976
 21
-5.6688
  0
LINE
  8
0
 10
1.00976
 20
-5.6688
 11
1.0414
 21
-5.6867
  0
LINE
  8
0
 10
1.0414
 20
-5.6867
 11
1.07272
 21
-5.70515
  0
LINE
  8
0
 10
1.07272
 20
-5.70515
 11
1.10371
 21
-5.72414
  0
LINE
  8
0
 10
1.10371
 20
-5.72414
 11
1.13437
 21
-5.74368
  0
LINE
  8
0
 10
1.13437
 20
-5.74368
 11
1.16469
 21
-5.76374
  0
LINE
  8
0
 10
1.16469
 20
-5.76374
 11
1.19464
 21
-5.78433
  0
LINE
  8
0
 10
1.19464
 20
-5.78433
 11
1.22424
 21
-5.80544
  0
LINE
  8
0
 10
1.22424
 20
-5.80544
 11
1.25346
 21
-5.82706
  0
LINE
  8
0
 10
1.25346
 20
-5.82706
 11
1.2823
 21
-5.84919
  0
LINE
  8
0
 10
1.2823
 20
-5.84919
 11
1.31075
 21
-5.87182
  0
LINE
  8
0
 10
1.31075
 20
-5.87182
 11
1.3388
 21
-5.89494
  0
LINE
  8
0
 10
1.3388
 20
-5.89494
 11
1.36644
 21
-5.91855
  0
LINE
  8
0
 10
1.36644
 20
-5.91855
 11
1.39366
 21
-5.94264
  0
LINE
  8
0
 10
1.39366
 20
-5.94264
 11
1.42047
 21
-5.9672
  0
LINE
  8
0
 10
1.42047
 20
-5.9672
 11
1.44683
 21
-5.99222
  0
LINE
  8
0
 10
1.44683
 20
-5.99222
 11
1.47276
 21
-6.0177
  0
LINE
  8
0
 10
1.47276
 20
-6.0177
 11
1.49824
 21
-6.04362
  0
LINE
  8
0
 10
1.49824
 20
-6.04362
 11
1.52326
 21
-6.06999
  0
LINE
  8
0
 10
1.52326
 20
-6.06999
 11
1.54782
 21
-6.09679
  0
LINE
  8
0
 10
1.54782
 20
-6.09679
 11
1.57191
 21
-6.12402
  0
LINE
  8
0
 10
1.57191
 20
-6.12402
 11
1.59552
 21
-6.15166
  0
LINE
  8
0
 10
1.59552
 20
-6.15166
 11
1.61864
 21
-6.17971
  0
LINE
  8
0
 10
1.61864
 20
-6.17971
 11
1.64127
 21
-6.20816
  0
LINE
  8
0
 10
1.64127
 20
-6.20816
 11
1.6634
 21
-6.237
  0
LINE
  8
0
 10
1.6634
 20
-6.237
 11
1.68502
 21
-6.26622
  0
LINE
  8
0
 10
1.68502
 20
-6.26622
 11
1.70613
 21
-6.29581
  0
LINE
  8
0
 10
1.70613
 20
-6.29581
 11
1.72672
 21
-6.32577
  0
LINE
  8
0
 10
1.72672
 20
-6.32577
 11
1.74678
 21
-6.35609
  0
LINE
  8
0
 10
1.74678
 20
-6.35609
 11
1.76631
 21
-6.38674
  0
LINE
  8
0
 10
1.76631
 20
-6.38674
 11
1.78531
 21
-6.41774
  0
LINE
  8
0
 10
1.78531
 20
-6.41774
 11
1.80376
 21
-6.44906
  0
LINE
  8
0
 10
1.80376
 20
-6.44906
 11
1.82166
 21
-6.4807
  0
LINE
  8
0
 10
1.82166
 20
-6.4807
 11
1.839
 21
-6.51264
  0
LINE
  8
0
 10
1.839
 20
-6.51264
 11
1.85579
 21
-6.54489
  0
LINE
  8
0
 10
1.85579
 20
-6.54489
 11
1.87201
 21
-6.57742
  0
LINE
  8
0
 10
1.87201
 20
-6.57742
 11
1.88766
 21
-6.61023
  0
LINE
  8
0
 10
1.88766
 20
-6.61023
 11
1.90273
 21
-6.64331
  0
LINE
  8
0
 10
1.90273
 20
-6.64331
 11
1.91723
 21
-6.67664
  0
LINE
  8
0
 10
1.91723
 20
-6.67664
 11
1.93114
 21
-6.71023
  0
LINE
  8
0
 10
1.93114
 20
-6.71023
 11
1.94446
 21
-6.74405
  0
LINE
  8
0
 10
1.94446
 20
-6.74405
 11
1.95719
 21
-6.7781
  0
LINE
  8
0
 10
1.95719
 20
-6.7781
 11
1.96933
 21
-6.81237
  0
LINE
  8
0
 10
1.96933
 20
-6.81237
 11
1.98086
 21
-6.84684
  0
LINE
  8
0
 10
1.98086
 20
-6.84684
 11
1.99179
 21
-6.88151
  0
LINE
  8
0
 10
1.99179
 20
-6.88151
 11
2.00212
 21
-6.91636
  0
LINE
  8
0
 10
2.00212
 20
-6.91636
 11
2.01183
 21
-6.95139
  0
LINE
  8
0
 10
2.01183
 20
-6.95139
 11
2.02093
 21
-6.98658
  0
LINE
  8
0
 10
2.02093
 20
-6.98658
 11
2.02942
 21
-7.02193
  0
LINE
  8
0
 10
2.02942
 20
-7.02193
 11
2.03729
 21
-7.05742
  0
LINE
  8
0
 10
2.03729
 20
-7.05742
 11
2.04453
 21
-7.09304
  0
LINE
  8
0
 10
2.04453
 20
-7.09304
 11
2.05116
 21
-7.12879
  0
LINE
  8
0
 10
2.05116
 20
-7.12879
 11
2.05716
 21
-7.16464
  0
LINE
  8
0
 10
2.05716
 20
-7.16464
 11
2.06253
 21
-7.20059
  0
LINE
  8
0
 10
2.06253
 20
-7.20059
 11
2.06728
 21
-7.23663
  0
LINE
  8
0
 10
2.06728
 20
-7.23663
 11
2.07139
 21
-7.27275
  0
LINE
  8
0
 10
2.07139
 20
-7.27275
 11
2.07487
 21
-7.30893
  0
LINE
  8
0
 10
2.07487
 20
-7.30893
 11
2.07773
 21
-7.34517
  0
LINE
  8
0
 10
2.07773
 20
-7.34517
 11
2.07995
 21
-7.38145
  0
LINE
  8
0
 10
2.07995
 20
-7.38145
 11
2.08153
 21
-7.41777
  0
LINE
  8
0
 10
2.08153
 20
-7.41777
 11
2.08248
 21
-7.45411
  0
LINE
  8
0
 10
2.08248
 20
-7.45411
 11
2.0828
 21
-7.49046
  0
LINE
  8
0
 10
2.0828
 20
-7.49046
 11
2.08248
 21
-7.52681
  0
LINE
  8
0
 10
2.08248
 20
-7.52681
 11
2.08153
 21
-7.56315
  0
LINE
  8
0
 10
2.08153
 20
-7.56315
 11
2.07995
 21
-7.59946
  0
LINE
  8
0
 10
2.07995
 20
-7.59946
 11
2.07773
 21
-7.63575
  0
LINE
  8
0
 10
2.07773
 20
-7.63575
 11
2.07487
 21
-7.67199
  0
LINE
  8
0
 10
2.07487
 20
-7.67199
 11
2.07139
 21
-7.70817
  0
LINE
  8
0
 10
2.07139
 20
-7.70817
 11
2.06728
 21
-7.74429
  0
LINE
  8
0
 10
2.06728
 20
-7.74429
 11
2.06253
 21
-7.78033
  0
LINE
  8
0
 10
2.06253
 20
-7.78033
 11
2.05716
 21
-7.81628
  0
LINE
  8
0
 10
2.05716
 20
-7.81628
 11
2.05116
 21
-7.85213
  0
LINE
  8
0
 10
2.05116
 20
-7.85213
 11
2.04453
 21
-7.88788
  0
LINE
  8
0
 10
2.04453
 20
-7.88788
 11
2.03729
 21
-7.9235
  0
LINE
  8
0
 10
2.03729
 20
-7.9235
 11
2.02942
 21
-7.95899
  0
LINE
  8
0
 10
2.02942
 20
-7.95899
 11
2.02093
 21
-7.99433
  0
LINE
  8
0
 10
2.02093
 20
-7.99433
 11
2.01183
 21
-8.02953
  0
LINE
  8
0
 10
2.01183
 20
-8.02953
 11
2.00212
 21
-8.06456
  0
LINE
  8
0
 10
2.00212
 20
-8.06456
 11
1.99179
 21
-8.09941
  0
LINE
  8
0
 10
1.99179
 20
-8.09941
 11
1.98086
 21
-8.13408
  0
LINE
  8
0
 10
1.98086
 20
-8.13408
 11
1.96933
 21
-8.16855
  0
LINE
  8
0
 10
1.96933
 20
-8.16855
 11
1.95719
 21
-8.20282
  0
LINE
  8
0
 10
1.95719
 20
-8.20282
 11
1.94446
 21
-8.23687
  0
LINE
  8
0
 10
1.94446
 20
-8.23687
 11
1.93114
 21
-8.27069
  0
LINE
  8
0
 10
1.93114
 20
-8.27069
 11
1.91723
 21
-8.30427
  0
LINE
  8
0
 10
1.91723
 20
-8.30427
 11
1.90273
 21
-8.33761
  0
LINE
  8
0
 10
1.90273
 20
-8.33761
 11
1.88766
 21
-8.37069
  0
LINE
  8
0
 10
1.88766
 20
-8.37069
 11
1.87201
 21
-8.4035
  0
LINE
  8
0
 10
1.87201
 20
-8.4035
 11
1.85579
 21
-8.43603
  0
LINE
  8
0
 10
1.85579
 20
-8.43603
 11
1.839
 21
-8.46828
  0
LINE
  8
0
 10
1.839
 20
-8.46828
 11
1.82166
 21
-8.50022
  0
LINE
  8
0
 10
1.82166
 20
-8.50022
 11
1.80376
 21
-8.53186
  0
LINE
  8
0
 10
1.80376
 20
-8.53186
 11
1.78531
 21
-8.56318
  0
LINE
  8
0
 10
1.78531
 20
-8.56318
 11
1.76631
 21
-8.59418
  0
LINE
  8
0
 10
1.76631
 20
-8.59418
 11
1.74678
 21
-8.62483
  0
LINE
  8
0
 10
1.74678
 20
-8.62483
 11
1.72672
 21
-8.65515
  0
LINE
  8
0
 10
1.72672
 20
-8.65515
 11
1.70613
 21
-8.6851
  0
LINE
  8
0
 10
1.70613
 20
-8.6851
 11
1.68502
 21
-8.7147
  0
LINE
  8
0
 10
1.68502
 20
-8.7147
 11
1.6634
 21
-8.74392
  0
LINE
  8
0
 10
1.6634
 20
-8.74392
 11
1.64127
 21
-8.77276
  0
LINE
  8
0
 10
1.64127
 20
-8.77276
 11
1.61864
 21
-8.80121
  0
LINE
  8
0
 10
1.61864
 20
-8.80121
 11
1.59552
 21
-8.82926
  0
LINE
  8
0
 10
1.59552
 20
-8.82926
 11
1.57191
 21
-8.8569
  0
LINE
  8
0
 10
1.57191
 20
-8.8569
 11
1.54782
 21
-8.88412
  0
LINE
  8
0
 10
1.54782
 20
-8.88412
 11
1.52326
 21
-8.91093
  0
LINE
  8
0
 10
1.52326
 20
-8.91093
 11
1.49824
 21
-8.93729
  0
LINE
  8
0
 10
1.49824
 20
-8.93729
 11
1.47276
 21
-8.96322
  0
LINE
  8
0
 10
1.47276
 20
-8.96322
 11
1.44683
 21
-8.9887
  0
LINE
  8
0
 10
1.44683
 20
-8.9887
 11
1.42047
 21
-9.01372
  0
LINE
  8
0
 10
1.42047
 20
-9.01372
 11
1.39366
 21
-9.03828
  0
LINE
  8
0
 10
1.39366
 20
-9.03828
 11
1.36644
 21
-9.06237
  0
LINE
  8
0
 10
1.36644
 20
-9.06237
 11
1.3388
 21
-9.08598
  0
LINE
  8
0
 10
1.3388
 20
-9.08598
 11
1.31075
 21
-9.1091
  0
LINE
  8
0
 10
1.31075
 20
-9.1091
 11
1.2823
 21
-9.13173
  0
LINE
  8
0
 10
1.2823
 20
-9.13173
 11
1.25346
 21
-9.15386
  0
LINE
  8
0
 10
1.25346
 20
-9.15386
 11
1.22424
 21
-9.17548
  0
LINE
  8
0
 10
1.22424
 20
-9.17548
 11
1.19464
 21
-9.19659
  0
LINE
  8
0
 10
1.19464
 20
-9.19659
 11
1.16469
 21
-9.21718
  0
LINE
  8
0
 10
1.16469
 20
-9.21718
 11
1.13437
 21
-9.23724
  0
LINE
  8
0
 10
1.13437
 20
-9.23724
 11
1.10371
 21
-9.25677
  0
LINE
  8
0
 10
1.10371
 20
-9.25677
 11
1.07272
 21
-9.27577
  0
LINE
  8
0
 10
1.07272
 20
-9.27577
 11
1.0414
 21
-9.29422
  0
LINE
  8
0
 10
1.0414
 20
-9.29422
 11
1.00976
 21
-9.31212
  0
LINE
  8
0
 10
1.00976
 20
-9.31212
 11
0.977815
 21
-9.32946
  0
LINE
  8
0
 10
0.977815
 20
-9.32946
 11
0.945571
 21
-9.34625
  0
LINE
  8
0
 10
0.945571
 20
-9.34625
 11
0.913039
 21
-9.36247
  0
LINE
  8
0
 10
0.913039
 20
-9.36247
 11
0.880229
 21
-9.37812
  0
LINE
  8
0
 10
0.880229
 20
-9.37812
 11
0.847151
 21
-9.39319
  0
LINE
  8
0
 10
0.847151
 20
-9.39319
 11
0.813814
 21
-9.40769
  0
LINE
  8
0
 10
0.813814
 20
-9.40769
 11
0.780231
 21
-9.4216
  0
LINE
  8
0
 10
0.780231
 20
-9.4216
 11
0.746408
 21
-9.43492
  0
LINE
  8
0
 10
0.746408
 20
-9.43492
 11
0.712359
 21
-9.44765
  0
LINE
  8
0
 10
0.712359
 20
-9.44765
 11
0.678093
 21
-9.45979
  0
LINE
  8
0
 10
0.678093
 20
-9.45979
 11
0.64362
 21
-9.47132
  0
LINE
  8
0
 10
0.64362
 20
-9.47132
 11
0.608952
 21
-9.48225
  0
LINE
  8
0
 10
0.608952
 20
-9.48225
 11
0.574097
 21
-9.49258
  0
LINE
  8
0
 10
0.574097
 20
-9.49258
 11
0.539068
 21
-9.50229
  0
LINE
  8
0
 10
0.539068
 20
-9.50229
 11
0.503875
 21
-9.51139
  0
LINE
  8
0
 10
0.503875
 20
-9.51139
 11
0.468528
 21
-9.51988
  0
LINE
  8
0
 10
0.468528
 20
-9.51988
 11
0.433038
 21
-9.52775
  0
LINE
  8
0
 10
0.433038
 20
-9.52775
 11
0.397416
 21
-9.53499
  0
LINE
  8
0
 10
0.397416
 20
-9.53499
 11
0.361674
 21
-9.54162
  0
LINE
  8
0
 10
0.361674
 20
-9.54162
 11
0.325821
 21
-9.54762
  0
LINE
  8
0
 10
0.325821
 20
-9.54762
 11
0.289869
 21
-9.55299
  0
LINE
  8
0
 10
0.289869
 20
-9.55299
 11
0.253829
 21
-9.55773
  0
LINE
  8
0
 10
0.253829
 20
-9.55773
 11
0.217711
 21
-9.56185
  0
LINE
  8
0
 10
0.217711
 20
-9.56185
 11
0.181527
 21
-9.56533
  0
LINE
  8
0
 10
0.181527
 20
-9.56533
 11
0.145288
 21
-9.56819
  0
LINE
  8
0
 10
0.145288
 20
-9.56819
 11
0.109005
 21
-9.57041
  0
LINE
  8
0
 10
0.109005
 20
-9.57041
 11
0.0726881
 21
-9.57199
  0
LINE
  8
0
 10
0.0726881
 20
-9.57199
 11
0.0363493
 21
-9.57294
  0
LINE
  8
0
 10
0.0363493
 20
-9.57294
 11
0
 21
-9.57326
  0
LINE
  8
0
 10
0
 20
-9.57326
 11
-0.0363493
 21
-9.57294
  0
LINE
  8
0
 10
-0.0363493
 20
-9.57294
 11
-0.0726881
 21
-9.57199
  0
LINE
  8
0
 10
-0.0726881
 20
-9.57199
 11
-0.109005
 21
-9.57041
  0
LINE
  8
0
 10
-0.109005
 20
-9.57041
 11
-0.145288
 21
-9.56819
  0
LINE
  8
0
 10
-0.145288
 20
-9.56819
 11
-0.181527
 21
-9.56533
  0
LINE
  8
0
 10
-0.181527
 20
-9.56533
 11
-0.217711
 21
-9.56185
  0
LINE
  8
0
 10
-0.217711
 20
-9.56185
 11
-0.253829
 21
-9.55773
  0
LINE
  8
0
 10
-0.253829
 20
-9.55773
 11
-0.289869
 21
-9.55299
  0
LINE
  8
0
 10
-0.289869
 20
-9.55299
 11
-0.325821
 21
-9.54762
  0
LINE
  8
0
 10
-0.325821
 20
-9.54762
 11
-0.361674
 21
-9.54162
  0
LINE
  8
0
 10
-0.361674
 20
-9.54162
 11
-0.397416
 21
-9.53499
  0
LINE
  8
0
 10
-0.397416
 20
-9.53499
 11
-0.433038
 21
-9.52775
  0
LINE
  8
0
 10
-0.433038
 20
-9.52775
 11
-0.468528
 21
-9.51988
  0
LINE
  8
0
 10
-0.468528
 20
-9.51988
 11
-0.503875
 21
-9.51139
  0
LINE
  8
0
 10
-0.503875
 20
-9.51139
 11
-0.539068
 21
-9.50229
  0
LINE
  8
0
 10
-0.539068
 20
-9.50229
 11
-0.574097
 21
-9.49258
  0
LINE
  8
0
 10
-0.574097
 20
-9.49258
 11
-0.608952
 21
-9.48225
  0
LINE
  8
0
 10
-0.608952
 20
-9.48225
 11
-0.64362
 21
-9.47132
  0
LINE
  8
0
 10
-0.64362
 20
-9.47132
 11
-0.678093
 21
-9.45979
  0
LINE
  8
0
 10
-0.678093
 20
-9.45979
 11
-0.712359
 21
-9.44765
  0
LINE
  8
0
 10
-0.712359
 20
-9.44765
 11
-0.746408
 21
-9.43492
  0
LINE
  8
0
 10
-0.746408
 20
-9.43492
 11
-0.780231
 21
-9.4216
  0
LINE
  8
0
 10
-0.780231
 20
-9.4216
 11
-0.813814
 21
-9.40769
  0
LINE
  8
0
 10
-0.813814
 20
-9.40769
 11
-0.847151
 21
-9.39319
  0
LINE
  8
0
 10
-0.847151
 20
-9.39319
 11
-0.880229
 21
-9.37812
  0
LINE
  8
0
 10
-0.880229
 20
-9.37812
 11
-0.913039
 21
-9.36247
  0
LINE
  8
0
 10
-0.913039
 20
-9.36247
 11
-0.945571
 21
-9.34625
  0
LINE
  8
0
 10
-0.945571
 20
-9.34625
 11
-0.977815
 21
-9.32946
  0
LINE
  8
0
 10
-0.977815
 20
-9.32946
 11
-1.00976
 21
-9.31212
  0
LINE
  8
0
 10
-1.00976
 20
-9.31212
 11
-1.0414
 21
-9.29422
  0
LINE
  8
0
 10
-1.0414
 20
-9.29422
 11
-1.07272
 21
-9.27577
  0
LINE
  8
0
 10
-1.07272
 20
-9.27577
 11
-1.10371
 21
-9.25677
  0
LINE
  8
0
 10
-1.10371
 20
-9.25677
 11
-1.13437
 21
-9.23724
  0
LINE
  8
0
 10
-1.13437
 20
-9.23724
 11
-1.16469
 21
-9.21718
  0
LINE
  8
0
 10
-1.16469
 20
-9.21718
 11
-1.19464
 21
-9.19659
  0
LINE
  8
0
 10
-1.19464
 20
-9.19659
 11
-1.22424
 21
-9.17548
  0
LINE
  8
0
 10
-1.22424
 20
-9.17548
 11
-1.25346
 21
-9.15386
  0
LINE
  8
0
 10
-1.25346
 20
-9.15386
 11
-1.2823
 21
-9.13173
  0
LINE
  8
0
 10
-1.2823
 20
-9.13173
 11
-1.31075
 21
-9.1091
  0
LINE
  8
0
 10
-1.31075
 20
-9.1091
 11
-1.3388
 21
-9.08598
  0
LINE
  8
0
 10
-1.3388
 20
-9.08598
 11
-1.36644
 21
-9.06237
  0
LINE
  8
0
 10
-1.36644
 20
-9.06237
 11
-1.39366
 21
-9.03828
  0
LINE
  8
0
 10
-1.39366
 20
-9.03828
 11
-1.42047
 21
-9.01372
  0
LINE
  8
0
 10
-1.42047
 20
-9.01372
 11
-1.44683
 21
-8.9887
  0
LINE
  8
0
 10
-1.44683
 20
-8.9887
 11
-1.47276
 21
-8.96322
  0
LINE
  8
0
 10
-1.47276
 20
-8.96322
 11
-1.49824
 21
-8.93729
  0
LINE
  8
0
 10
-1.49824
 20
-8.93729
 11
-1.52326
 21
-8.91093
  0
LINE
  8
0
 10
-1.52326
 20
-8.91093
 11
-1.54782
 21
-8.88412
  0
LINE
  8
0
 10
-1.54782
 20
-8.88412
 11
-1.57191
 21
-8.8569
  0
LINE
  8
0
 10
-1.57191
 20
-8.8569
 11
-1.59552
 21
-8.82926
  0
LINE
  8
0
 10
-1.59552
 20
-8.82926
 11
-1.61864
 21
-8.80121
  0
LINE
  8
0
 10
-1.61864
 20
-8.80121
 11
-1.64127
 21
-8.77276
  0
LINE
  8
0
 10
-1.64127
 20
-8.77276
 11
-1.6634
 21
-8.74392
  0
LINE
  8
0
 10
-1.6634
 20
-8.74392
 11
-1.68502
 21
-8.7147
  0
LINE
  8
0
 10
-1.68502
 20
-8.7147
 11
-1.70613
 21
-8.6851
  0
LINE
  8
0
 10
-1.70613
 20
-8.6851
 11
-1.72672
 21
-8.65515
  0
LINE
  8
0
 10
-1.72672
 20
-8.65515
 11
-1.74678
 21
-8.62483
  0
LINE
  8
0
 10
-1.74678
 20
-8.62483
 11
-1.76631
 21
-8.59418
  0
LINE
  8
0
 10
-1.76631
 20
-8.59418
 11
-1.78531
 21
-8.56318
  0
LINE
  8
0
 10
-1.78531
 20
-8.56318
 11
-1.80376
 21
-8.53186
  0
LINE
  8
0
 10
-1.80376
 20
-8.53186
 11
-1.82166
 21
-8.50022
  0
LINE
  8
0
 10
-1.82166
 20
-8.50022
 11
-1.839
 21
-8.46828
  0
LINE
  8
0
 10
-1.839
 20
-8.46828
 11
-1.85579
 21
-8.43603
  0
LINE
  8
0
 10
-1.85579
 20
-8.43603
 11
-1.87201
 21
-8.4035
  0
LINE
  8
0
 10
-1.87201
 20
-8.4035
 11
-1.88766
 21
-8.37069
  0
LINE
  8
0
 10
-1.88766
 20
-8.37069
 11
-1.90273
 21
-8.33761
  0
LINE
  8
0
 10
-1.90273
 20
-8.33761
 11
-1.91723
 21
-8.30427
  0
LINE
  8
0
 10
-1.91723
 20
-8.30427
 11
-1.93114
 21
-8.27069
  0
LINE
  8
0
 10
-1.93114
 20
-8.27069
 11
-1.94446
 21
-8.23687
  0
LINE
  8
0
 10
-1.94446
 20
-8.23687
 11
-1.95719
 21
-8.20282
  0
LINE
  8
0
 10
-1.95719
 20
-8.20282
 11
-1.96933
 21
-8.16855
  0
LINE
  8
0
 10
-1.96933
 20
-8.16855
 11
-1.98086
 21
-8.13408
  0
LINE
  8
0
 10
-1.98086
 20
-8.13408
 11
-1.99179
 21
-8.09941
  0
LINE
  8
0
 10
-1.99179
 20
-8.09941
 11
-2.00212
 21
-8.06456
  0
LINE
  8
0
 10
-2.00212
 20
-8.06456
 11
-2.01183
 21
-8.02953
  0
LINE
  8
0
 10
-2.01183
 20
-8.02953
 11
-2.02093
 21
-7.99433
  0
LINE
  8
0
 10
-2.02093
 20
-7.99433
 11
-2.02942
 21
-7.95899
  0
LINE
  8
0
 10
-2.02942
 20
-7.95899
 11
-2.03729
 21
-7.9235
  0
LINE
  8
0
 10
-2.03729
 20
-7.9235
 11
-2.04453
 21
-7.88788
  0
LINE
  8
0
 10
-2.04453
 20
-7.88788
 11
-2.05116
 21
-7.85213
  0
LINE
  8
0
 10
-2.05116
 20
-7.85213
 11
-2.05716
 21
-7.81628
  0
LINE
  8
0
 10
-2.05716
 20
-7.81628
 11
-2.06253
 21
-7.78033
  0
LINE
  8
0
 10
-2.06253
 20
-7.78033
 11
-2.06728
 21
-7.74429
  0
LINE
  8
0
 10
-2.06728
 20
-7.74429
 11
-2.07139
 21
-7.70817
  0
LINE
  8
0
 10
-2.07139
 20
-7.70817
 11
-2.07487
 21
-7.67199
  0
LINE
  8
0
 10
-2.07487
 20
-7.67199
 11
-2.07773
 21
-7.63575
  0
LINE
  8
0
 10
-2.07773
 20
-7.63575
 11
-2.07995
 21
-7.59946
  0
LINE
  8
0
 10
-2.07995
 20
-7.59946
 11
-2.08153
 21
-7.56315
  0
LINE
  8
0
 10
-2.08153
 20
-7.56315
 11
-2.08248
 21
-7.52681
  0
LINE
  8
0
 10
-2.08248
 20
-7.52681
 11
-2.0828
 21
-7.49046
  0
ENDSEC
  0
SECTION
  2
OBJECTS
  0
DICTIONARY
  0
ENDSEC
  0
EOF
