<?xml version="1.0" encoding="UTF-8" standalone="no"?>
<!-- Created with Inkscape (http://www.inkscape.org/) -->

<svg
   width="100.73191mm"
   height="47.762363mm"
   viewBox="0 0 100.73191 47.762363"
   version="1.1"
   id="svg5"
   inkscape:version="1.2.1 (9c6d41e410, 2022-07-14)"
   sodipodi:docname="bandsaw_cut_example.svg"
   xmlns:inkscape="http://www.inkscape.org/namespaces/inkscape"
   xmlns:sodipodi="http://sodipodi.sourceforge.net/DTD/sodipodi-0.dtd"
   xmlns="http://www.w3.org/2000/svg"
   xmlns:svg="http://www.w3.org/2000/svg">
  <sodipodi:namedview
     id="namedview7"
     pagecolor="#ffffff"
     bordercolor="#666666"
     borderopacity="1.0"
     inkscape:showpageshadow="2"
     inkscape:pageopacity="0.0"
     inkscape:pagecheckerboard="0"
     inkscape:deskcolor="#d1d1d1"
     inkscape:document-units="mm"
     showgrid="false"
     inkscape:zoom="0.66190376"
     inkscape:cx="191.1154"
     inkscape:cy="546.15191"
     inkscape:window-width="1920"
     inkscape:window-height="1012"
     inkscape:window-x="0"
     inkscape:window-y="0"
     inkscape:window-maximized="1"
     inkscape:current-layer="layer1" />
  <defs
     id="defs2">
    <marker
       style="overflow:visible"
       id="Arrow2"
       refX="0"
       refY="0"
       orient="auto-start-reverse"
       inkscape:stockid="Arrow2"
       markerWidth="7.6999998"
       markerHeight="5.5999999"
       viewBox="0 0 7.7 5.6"
       inkscape:isstock="true"
       inkscape:collect="always"
       preserveAspectRatio="xMidYMid">
      <path
         transform="scale(0.7)"
         d="M -2,-4 9,0 -2,4 c 2,-2.33 2,-5.66 0,-8 z"
         style="fill:context-stroke;fill-rule:evenodd;stroke:none"
         id="arrow2L" />
    </marker>
  </defs>
  <g
     inkscape:label="Layer 1"
     inkscape:groupmode="layer"
     id="layer1"
     transform="translate(-54.634044,-4.3549599)">
    <g
       aria-label="THIS is how the 4x6 bandsaw should cut."
       transform="matrix(0.26458333,0,0,0.26458333,44.502741,0)"
       id="text790"
       style="font-size:39.9999px;line-height:125%;letter-spacing:0px;word-spacing:0px;baseline-shift:baseline;opacity:1;vector-effect:none;stroke-width:0.999999px;stop-color:#000000;stop-opacity:1">
      <path
         d="M 57.971517,46.859615 H 54.371526 V 21.459678 h -8.919978 v -3.159992 h 21.399947 v 3.159992 h -8.879978 z"
         style="text-align:center;text-anchor:middle"
         id="path1356" />
      <path
         d="M 93.01142,46.859615 H 89.411429 V 33.539648 H 74.771465 V 46.859615 H 71.171474 V 18.299686 h 3.599991 v 12.07997 h 14.639964 v -12.07997 h 3.599991 z"
         style="text-align:center;text-anchor:middle"
         id="path1358" />
      <path
         d="M 108.85135,46.859615 H 98.531374 V 44.77962 l 3.359996,-0.759998 V 21.179679 l -3.359996,-0.799998 v -2.079995 h 10.319976 v 2.079995 l -3.35999,0.799998 v 22.839943 l 3.35999,0.759998 z"
         style="text-align:center;text-anchor:middle"
         id="path1360" />
      <path
         d="m 130.57133,39.219634 q 0,3.799991 -2.76,5.919986 -2.75999,2.119994 -7.43998,2.119994 -2.39999,0 -4.43999,-0.359999 -2.03999,-0.359999 -3.39999,-0.999997 v -3.439992 q 1.44,0.639999 3.55999,1.159997 2.16,0.519999 4.43999,0.519999 3.19999,0 4.79999,-1.239997 1.63999,-1.239997 1.63999,-3.359992 0,-1.399996 -0.59999,-2.359994 -0.6,-0.959997 -2.08,-1.759995 -1.44,-0.839998 -4.03999,-1.759996 -3.63999,-1.319997 -5.51998,-3.239992 -1.84,-1.919995 -1.84,-5.239987 0,-2.279994 1.16,-3.87999 1.15999,-1.639996 3.19999,-2.519994 2.07999,-0.879998 4.75999,-0.879998 2.35999,0 4.31999,0.439999 1.95999,0.439999 3.55999,1.159997 l -1.12,3.079993 q -1.48,-0.639999 -3.23999,-1.079998 -1.72,-0.439999 -3.59999,-0.439999 -2.68,0 -4.03999,1.159997 -1.36,1.119998 -1.36,2.999993 0,1.439996 0.6,2.399994 0.6,0.959998 1.95999,1.719996 1.36,0.759998 3.68,1.639996 2.51999,0.919997 4.23998,1.999995 1.76,1.039997 2.64,2.519993 0.92,1.479997 0.92,3.719991 z"
         style="text-align:center;text-anchor:middle"
         id="path1362" />
      <path
         d="m 148.05128,17.379688 q 0.8,0 1.4,0.559999 0.63999,0.519999 0.63999,1.679996 0,1.119997 -0.63999,1.679996 -0.6,0.559998 -1.4,0.559998 -0.88,0 -1.48,-0.559998 -0.6,-0.559999 -0.6,-1.679996 0,-1.159997 0.6,-1.679996 0.6,-0.559999 1.48,-0.559999 z m 1.72,8.03998 v 21.439947 h -3.52 V 25.419668 Z"
         style="text-align:center;text-anchor:middle"
         id="path1364" />
      <path
         d="m 170.5312,40.93963 q 0,3.119992 -2.31999,4.719988 -2.32,1.599996 -6.23999,1.599996 -2.23999,0 -3.87999,-0.359999 -1.59999,-0.359999 -2.83999,-0.999997 v -3.199992 q 1.28,0.639998 3.07999,1.199997 1.84,0.519998 3.71999,0.519998 2.68,0 3.87999,-0.839998 1.2,-0.879997 1.2,-2.319994 0,-0.799998 -0.44,-1.439996 -0.44,-0.639999 -1.59999,-1.279997 -1.12,-0.639998 -3.24,-1.439996 -2.07999,-0.799998 -3.55999,-1.599997 -1.47999,-0.799998 -2.27999,-1.919995 -0.8,-1.119997 -0.8,-2.879993 0,-2.719993 2.2,-4.199989 2.23999,-1.479997 5.83998,-1.479997 1.96,0 3.63999,0.399999 1.72,0.36 3.19999,1.039998 l -1.19999,2.799993 q -1.36,-0.559999 -2.84,-0.959998 -1.47999,-0.399999 -3.03999,-0.399999 -2.15999,0 -3.31999,0.719999 -1.12,0.679998 -1.12,1.879995 0,0.879998 0.52,1.519996 0.52,0.599999 1.72,1.199997 1.23999,0.559999 3.27999,1.359997 2.03999,0.759998 3.47999,1.559996 1.44,0.799998 2.2,1.959995 0.75999,1.119997 0.75999,2.839993 z"
         style="text-align:center;text-anchor:middle"
         id="path1366" />
      <path
         d="m 189.65116,25.379669 q 0,1.599996 -0.2,2.999992 h 0.24 q 1.04,-1.639996 2.79999,-2.479994 1.8,-0.839998 3.87999,-0.839998 3.91999,0 5.87999,1.879996 1.95999,1.839995 1.95999,5.959985 v 13.959965 h -3.47999 V 33.139649 q 0,-5.159987 -4.79999,-5.159987 -3.59999,0 -4.95999,2.039995 -1.31999,1.999995 -1.31999,5.759986 v 11.079972 h -3.51999 V 16.459691 h 3.51999 z"
         style="text-align:center;text-anchor:middle"
         id="path1368" />
      <path
         d="m 229.49106,36.099642 q 0,5.319987 -2.71999,8.23998 -2.68,2.919992 -7.27998,2.919992 -2.84,0 -5.07999,-1.279996 -2.2,-1.319997 -3.47999,-3.799991 -1.28,-2.519994 -1.28,-6.079985 0,-5.319987 2.67999,-8.19998 2.68,-2.879993 7.27999,-2.879993 2.91999,0 5.11998,1.319997 2.24,1.279997 3.47999,3.759991 1.28,2.439994 1.28,5.999985 z m -16.19996,0 q 0,3.799991 1.48,6.039985 1.51999,2.199995 4.79999,2.199995 3.23999,0 4.75998,-2.199995 1.52,-2.239994 1.52,-6.039985 0,-3.799991 -1.52,-5.959985 -1.51999,-2.159995 -4.79998,-2.159995 -3.28,0 -4.75999,2.159995 -1.48,2.159994 -1.48,5.959985 z"
         style="text-align:center;text-anchor:middle"
         id="path1370" />
      <path
         d="m 248.09099,34.739645 q -0.52,-1.639996 -0.92,-3.199992 -0.36,-1.599996 -0.56,-2.479994 h -0.16 q -0.16,0.879998 -0.51999,2.479994 -0.36,1.559996 -0.92,3.239992 l -3.83999,12.03997 h -3.99999 l -5.87999,-21.439946 h 3.63999 l 2.96,11.439971 q 0.43999,1.719996 0.83999,3.479992 0.4,1.759995 0.56,2.919992 h 0.16 q 0.16,-0.679998 0.36,-1.679995 0.24,-0.999998 0.52,-2.079995 0.28,-1.119998 0.56,-1.999995 l 3.79999,-12.07997 h 3.83999 l 3.67999,12.07997 q 0.44,1.359996 0.84,2.959992 0.44,1.599996 0.6,2.759993 h 0.16 q 0.12,-0.999997 0.51999,-2.759993 0.44,-1.759995 0.92,-3.599991 l 2.99999,-11.439971 h 3.6 l -5.95999,21.439946 h -4.11999 z"
         style="text-align:center;text-anchor:middle"
         id="path1372" />
      <path
         d="m 283.25088,44.379621 q 0.8,0 1.64,-0.119999 0.83999,-0.16 1.35999,-0.319999 v 2.679993 q -0.56,0.279999 -1.59999,0.439999 -1.04,0.199999 -2,0.199999 -1.67999,0 -3.11999,-0.559998 -1.4,-0.599999 -2.27999,-2.039995 -0.88,-1.439997 -0.88,-4.03999 V 28.139662 h -3.03999 v -1.679996 l 3.07999,-1.399997 1.39999,-4.559988 h 2.08 v 4.919987 h 6.19998 v 2.719994 h -6.19998 v 12.399969 q 0,1.959995 0.92,2.919993 0.95999,0.919997 2.43999,0.919997 z"
         style="text-align:center;text-anchor:middle"
         id="path1374" />
      <path
         d="m 294.05086,25.379669 q 0,1.599996 -0.2,2.999992 h 0.24 q 1.04,-1.639996 2.79999,-2.479994 1.8,-0.839998 3.88,-0.839998 3.91999,0 5.87998,1.879996 1.96,1.839995 1.96,5.959985 v 13.959965 h -3.48 V 33.139649 q 0,-5.159987 -4.79998,-5.159987 -3.59999,0 -4.95999,2.039995 -1.32,1.999995 -1.32,5.759986 v 11.079972 h -3.51999 V 16.459691 h 3.51999 z"
         style="text-align:center;text-anchor:middle"
         id="path1376" />
      <path
         d="m 323.53078,25.019669 q 2.75999,0 4.71998,1.199998 2,1.199997 3.04,3.399991 1.07999,2.159995 1.07999,5.079987 v 2.119995 h -14.67996 q 0.08,3.639991 1.83999,5.559986 1.8,1.879996 4.99999,1.879996 2.04,0 3.59999,-0.359999 1.6,-0.399999 3.28,-1.119998 v 3.079993 q -1.64,0.719998 -3.24,1.039997 -1.59999,0.359999 -3.79999,0.359999 -3.03999,0 -5.39998,-1.239997 -2.32,-1.239997 -3.63999,-3.67999 -1.28,-2.479994 -1.28,-6.039985 0,-3.519992 1.16,-6.039986 1.19999,-2.519993 3.31999,-3.87999 2.15999,-1.359997 4.99999,-1.359997 z m -0.04,2.879993 q -2.52,0 -3.99999,1.639996 -1.44,1.599996 -1.72,4.479989 h 10.91997 q -0.04,-2.719993 -1.27999,-4.399989 -1.24,-1.719996 -3.91999,-1.719996 z"
         style="text-align:center;text-anchor:middle"
         id="path1378" />
      <path
         d="m 366.89065,40.379631 h -4.15999 v 6.479984 h -3.39999 V 40.379631 H 345.6507 v -2.999992 l 13.43997,-19.239952 h 3.63999 v 19.079952 h 4.15999 z m -7.55998,-12.159969 q 0,-2.079995 0.08,-3.519992 0.08,-1.479996 0.12,-2.799993 h -0.16 q -0.32,0.759998 -0.8,1.639996 -0.48,0.879998 -0.92,1.479996 l -8.55998,12.19997 h 10.23998 z"
         style="text-align:center;text-anchor:middle"
         id="path1380" />
      <path
         d="m 376.17066,35.899643 -7.39998,-10.479975 h 3.99999 l 5.51998,8.07998 5.47999,-8.07998 h 3.95999 l -7.39998,10.479975 7.79998,10.959972 h -3.99999 l -5.83999,-8.559978 -5.91998,8.559978 h -3.95999 z"
         style="text-align:center;text-anchor:middle"
         id="path1382" />
      <path
         d="m 391.05058,34.659646 q 0,-3.079993 0.52,-6.039985 0.56,-2.999993 1.96,-5.399987 1.44,-2.439994 3.99999,-3.87999 2.55999,-1.439997 6.59998,-1.439997 0.84,0 1.84,0.08 1.04,0.08 1.67999,0.279999 v 2.999993 q -0.71999,-0.24 -1.63999,-0.359999 -0.88,-0.12 -1.8,-0.12 -2.75999,0 -4.59999,0.919998 -1.83999,0.919997 -2.91999,2.519993 -1.04,1.599996 -1.52,3.679991 -0.47999,2.079995 -0.59999,4.439989 h 0.24 q 0.91999,-1.399996 2.55999,-2.359994 1.64,-0.999997 4.19999,-0.999997 3.71999,0 5.99998,2.279994 2.28,2.239994 2.28,6.399984 0,4.479989 -2.48,7.039983 -2.43999,2.559993 -6.59998,2.559993 -2.71999,0 -4.91999,-1.359996 -2.19999,-1.359997 -3.51999,-4.15999 -1.28,-2.799993 -1.28,-7.079982 z m 9.67998,9.639976 q 2.51999,0 4.07999,-1.599996 1.56,-1.639996 1.56,-5.039988 0,-2.719993 -1.4,-4.319989 -1.36,-1.599996 -4.11999,-1.599996 -1.87999,0 -3.27999,0.799998 -1.4,0.759998 -2.2,1.959995 -0.75999,1.199997 -0.75999,2.479994 0,1.719996 0.67999,3.439991 0.68,1.679996 2.04,2.799993 1.36,1.079998 3.39999,1.079998 z"
         style="text-align:center;text-anchor:middle"
         id="path1384" />
      <path
         d="m 41.81153,73.859548 q 0,1.359997 -0.08,2.559994 -0.04,1.159997 -0.119999,1.839995 h 0.199999 q 0.919998,-1.359996 2.519994,-2.279994 1.599996,-0.919998 4.11999,-0.919998 3.99999,0 6.399984,2.799993 2.439994,2.759994 2.439994,8.27998 0,5.519986 -2.439994,8.319979 -2.439994,2.799993 -6.399984,2.799993 -2.519994,0 -4.11999,-0.919997 -1.599996,-0.919998 -2.519994,-2.199995 h -0.279999 l -0.719998,2.719993 H 38.291539 V 66.459567 h 3.519991 z m 6.039985,4.11999 q -3.399991,0 -4.719988,1.959995 -1.319997,1.959995 -1.319997,6.079985 v 0.16 q 0,3.95999 1.279997,6.079985 1.319997,2.079995 4.839988,2.079995 2.879993,0 4.279989,-2.119995 1.439997,-2.119995 1.439997,-6.119985 0,-8.11998 -5.799986,-8.11998 z"
         style="text-align:center;text-anchor:middle"
         id="path1386" />
      <path
         d="m 71.011449,75.059545 q 3.91999,0 5.799985,1.719996 1.879996,1.719996 1.879996,5.479987 v 14.599963 h -2.559994 l -0.679998,-3.039992 h -0.16 q -1.399997,1.759996 -2.959993,2.599993 -1.519996,0.839998 -4.239989,0.839998 -2.919993,0 -4.839988,-1.519996 -1.919995,-1.559996 -1.919995,-4.839988 0,-3.199992 2.519993,-4.919988 2.519994,-1.759995 7.759981,-1.919995 l 3.639991,-0.12 v -1.279996 q 0,-2.679994 -1.159997,-3.719991 -1.159997,-1.039998 -3.279992,-1.039998 -1.679996,0 -3.199992,0.519999 -1.519996,0.479999 -2.839993,1.119997 l -1.079997,-2.639993 q 1.399996,-0.759998 3.319991,-1.279997 1.919996,-0.559999 3.999991,-0.559999 z m 1.039997,11.439972 q -3.99999,0.16 -5.559986,1.279997 -1.519996,1.119997 -1.519996,3.159992 0,1.799996 1.079997,2.639993 1.119997,0.839998 2.839993,0.839998 2.719993,0 4.519989,-1.479996 1.799995,-1.519996 1.799995,-4.639988 v -1.919996 z"
         style="text-align:center;text-anchor:middle"
         id="path1388" />
      <path
         d="m 95.651423,75.019546 q 3.83999,0 5.799987,1.879995 1.95999,1.839995 1.95999,5.999985 V 96.859491 H 99.931412 V 83.139525 q 0,-5.159987 -4.799988,-5.159987 -3.559991,0 -4.919988,1.999995 -1.359996,1.999995 -1.359996,5.759986 V 96.859491 H 85.331448 V 75.419545 h 2.839993 l 0.519999,2.919992 h 0.199999 q 1.039998,-1.679996 2.879993,-2.479994 1.839996,-0.839997 3.879991,-0.839997 z"
         style="text-align:center;text-anchor:middle"
         id="path1390" />
      <path
         d="m 117.65137,97.25949 q -3.99999,0 -6.39998,-2.759993 -2.4,-2.799993 -2.4,-8.319979 0,-5.519986 2.4,-8.31998 2.43999,-2.839992 6.43998,-2.839992 2.47999,0 4.03999,0.919997 1.6,0.919998 2.59999,2.239995 h 0.24 q -0.04,-0.519999 -0.16,-1.519997 -0.08,-1.039997 -0.08,-1.639995 v -8.559979 h 3.51999 v 30.399924 h -2.83999 l -0.52,-2.879993 h -0.16 q -0.95999,1.359997 -2.55999,2.319995 -1.6,0.959997 -4.11999,0.959997 z m 0.56,-2.919992 q 3.39999,0 4.75999,-1.839996 1.39999,-1.879995 1.39999,-5.639986 v -0.639998 q 0,-3.99999 -1.31999,-6.119985 -1.32,-2.159995 -4.87999,-2.159995 -2.83999,0 -4.27999,2.279995 -1.4,2.239994 -1.4,6.039985 0,3.83999 1.4,5.959985 1.44,2.119995 4.31999,2.119995 z"
         style="text-align:center;text-anchor:middle"
         id="path1392" />
      <path
         d="m 148.61128,90.939506 q 0,3.119992 -2.31999,4.719988 -2.31999,1.599996 -6.23999,1.599996 -2.23999,0 -3.87999,-0.359999 -1.59999,-0.359999 -2.83999,-0.999997 v -3.199992 q 1.28,0.639998 3.07999,1.199997 1.84,0.519998 3.71999,0.519998 2.68,0 3.88,-0.839998 1.19999,-0.879997 1.19999,-2.319994 0,-0.799998 -0.44,-1.439996 -0.44,-0.639999 -1.59999,-1.279997 -1.12,-0.639998 -3.23999,-1.439996 -2.08,-0.799998 -3.56,-1.599996 -1.47999,-0.799999 -2.27999,-1.919996 -0.8,-1.119997 -0.8,-2.879993 0,-2.719993 2.2,-4.199989 2.23999,-1.479996 5.83998,-1.479996 1.96,0 3.63999,0.399999 1.72,0.359999 3.19999,1.039997 l -1.19999,2.799993 q -1.36,-0.559999 -2.84,-0.959998 -1.47999,-0.399999 -3.03999,-0.399999 -2.15999,0 -3.31999,0.719999 -1.12,0.679998 -1.12,1.879995 0,0.879998 0.52,1.519996 0.52,0.599999 1.72,1.199997 1.23999,0.559999 3.27999,1.359997 2.03999,0.759998 3.47999,1.559996 1.44,0.799998 2.2,1.959995 0.75999,1.119997 0.75999,2.839993 z"
         style="text-align:center;text-anchor:middle"
         id="path1394" />
      <path
         d="m 161.93125,75.059545 q 3.91999,0 5.79998,1.719996 1.88,1.719996 1.88,5.479987 v 14.599963 h -2.55999 l -0.68,-3.039992 h -0.16 q -1.4,1.759996 -2.95999,2.599993 -1.52,0.839998 -4.23999,0.839998 -2.92,0 -4.83999,-1.519996 -1.92,-1.559996 -1.92,-4.839988 0,-3.199992 2.52,-4.919988 2.51999,-1.759995 7.75998,-1.919995 l 3.63999,-0.12 v -1.279996 q 0,-2.679994 -1.16,-3.719991 -1.16,-1.039998 -3.27999,-1.039998 -1.68,0 -3.19999,0.519999 -1.52,0.479999 -2.84,1.119997 l -1.07999,-2.639993 q 1.39999,-0.759998 3.31999,-1.279997 1.91999,-0.559999 3.99999,-0.559999 z m 1.04,11.439972 q -3.99999,0.16 -5.55999,1.279997 -1.52,1.119997 -1.52,3.159992 0,1.799996 1.08,2.639993 1.12,0.839998 2.83999,0.839998 2.72,0 4.51999,-1.479996 1.8,-1.519996 1.8,-4.639988 v -1.919996 z"
         style="text-align:center;text-anchor:middle"
         id="path1396" />
      <path
         d="m 190.09122,84.739521 q -0.52,-1.639996 -0.92,-3.199992 -0.36,-1.599996 -0.55999,-2.479994 h -0.16 q -0.16,0.879998 -0.52,2.479994 -0.36,1.559996 -0.92,3.239992 l -3.83999,12.03997 h -3.99999 l -5.87999,-21.439946 h 3.63999 l 2.96,11.439971 q 0.44,1.719996 0.83999,3.479992 0.4,1.759995 0.56,2.919992 h 0.16 q 0.16,-0.679998 0.36,-1.679995 0.24,-0.999998 0.52,-2.079995 0.28,-1.119998 0.56,-1.999995 l 3.79999,-12.07997 h 3.83999 l 3.67999,12.07997 q 0.44,1.359996 0.84,2.959992 0.44,1.599996 0.6,2.759993 h 0.16 q 0.12,-0.999997 0.52,-2.759993 0.43999,-1.759995 0.91999,-3.599991 l 3,-11.439971 h 3.59999 l -5.95999,21.439946 h -4.11999 z"
         style="text-align:center;text-anchor:middle"
         id="path1398" />
      <path
         d="m 232.0511,90.939506 q 0,3.119992 -2.32,4.719988 -2.31999,1.599996 -6.23998,1.599996 -2.24,0 -3.87999,-0.359999 -1.6,-0.359999 -2.84,-0.999997 v -3.199992 q 1.28,0.639998 3.08,1.199997 1.83999,0.519998 3.71999,0.519998 2.67999,0 3.87999,-0.839998 1.19999,-0.879997 1.19999,-2.319994 0,-0.799998 -0.44,-1.439996 -0.43999,-0.639999 -1.59999,-1.279997 -1.12,-0.639998 -3.23999,-1.439996 -2.08,-0.799998 -3.55999,-1.599996 -1.48,-0.799999 -2.28,-1.919996 -0.8,-1.119997 -0.8,-2.879993 0,-2.719993 2.2,-4.199989 2.23999,-1.479996 5.83998,-1.479996 1.96,0 3.63999,0.399999 1.72,0.359999 3.2,1.039997 l -1.2,2.799993 q -1.36,-0.559999 -2.83999,-0.959998 -1.48,-0.399999 -3.04,-0.399999 -2.15999,0 -3.31999,0.719999 -1.12,0.679998 -1.12,1.879995 0,0.879998 0.52,1.519996 0.52,0.599999 1.72,1.199997 1.24,0.559999 3.27999,1.359997 2.04,0.759998 3.47999,1.559996 1.44,0.799998 2.2,1.959995 0.76,1.119997 0.76,2.839993 z"
         style="text-align:center;text-anchor:middle"
         id="path1400" />
      <path
         d="m 240.77108,75.379545 q 0,1.599996 -0.2,2.999992 h 0.24 q 1.04,-1.639996 2.79999,-2.479994 1.8,-0.839998 3.87999,-0.839998 3.91999,0 5.87999,1.879996 1.95999,1.839995 1.95999,5.959985 v 13.959965 h -3.47999 V 83.139525 q 0,-5.159987 -4.79999,-5.159987 -3.59999,0 -4.95998,2.039995 -1.32,1.999995 -1.32,5.759986 v 11.079972 h -3.51999 V 66.459567 h 3.51999 z"
         style="text-align:center;text-anchor:middle"
         id="path1402" />
      <path
         d="m 280.61098,86.099518 q 0,5.319987 -2.71999,8.23998 -2.67999,2.919992 -7.27998,2.919992 -2.84,0 -5.07999,-1.279996 -2.2,-1.319997 -3.47999,-3.799991 -1.28,-2.519994 -1.28,-6.079985 0,-5.319987 2.67999,-8.19998 2.68,-2.879992 7.27999,-2.879992 2.91999,0 5.11998,1.319996 2.24,1.279997 3.47999,3.759991 1.28,2.439994 1.28,5.999985 z m -16.19996,0 q 0,3.799991 1.48,6.039985 1.51999,2.199995 4.79999,2.199995 3.23999,0 4.75998,-2.199995 1.52,-2.239994 1.52,-6.039985 0,-3.799991 -1.52,-5.959985 -1.51999,-2.159995 -4.79998,-2.159995 -3.28,0 -4.75999,2.159995 -1.48,2.159994 -1.48,5.959985 z"
         style="text-align:center;text-anchor:middle"
         id="path1404" />
      <path
         d="m 304.0909,75.419545 v 21.439946 h -2.87999 l -0.52,-2.839993 h -0.16 q -1.03999,1.679996 -2.87999,2.479994 -1.84,0.759998 -3.91999,0.759998 -3.87999,0 -5.83999,-1.839995 -1.95999,-1.879995 -1.95999,-5.959985 V 75.419545 h 3.55999 V 89.21951 q 0,5.119988 4.75999,5.119988 3.55999,0 4.91999,-1.999995 1.39999,-1.999995 1.39999,-5.759986 V 75.419545 Z"
         style="text-align:center;text-anchor:middle"
         id="path1406" />
      <path
         d="m 314.41086,96.859491 h -3.51999 V 66.459567 h 3.51999 z"
         style="text-align:center;text-anchor:middle"
         id="path1408" />
      <path
         d="m 328.81083,97.25949 q -3.99999,0 -6.39998,-2.759993 -2.4,-2.799993 -2.4,-8.319979 0,-5.519986 2.4,-8.31998 2.43999,-2.839992 6.43998,-2.839992 2.48,0 4.03999,0.919997 1.6,0.919998 2.59999,2.239995 h 0.24 q -0.04,-0.519999 -0.16,-1.519997 -0.08,-1.039997 -0.08,-1.639995 v -8.559979 h 3.52 v 30.399924 h -2.84 l -0.52,-2.879993 h -0.16 q -0.95999,1.359997 -2.55999,2.319995 -1.59999,0.959997 -4.11999,0.959997 z m 0.56,-2.919992 q 3.39999,0 4.75999,-1.839996 1.39999,-1.879995 1.39999,-5.639986 v -0.639998 q 0,-3.99999 -1.31999,-6.119985 -1.32,-2.159995 -4.87999,-2.159995 -2.83999,0 -4.27999,2.279995 -1.4,2.239994 -1.4,6.039985 0,3.83999 1.4,5.959985 1.44,2.119995 4.31999,2.119995 z"
         style="text-align:center;text-anchor:middle"
         id="path1410" />
      <path
         d="m 364.81074,97.25949 q -2.84,0 -5.07999,-1.159997 -2.19999,-1.159997 -3.47999,-3.599991 -1.24,-2.439994 -1.24,-6.239984 0,-3.959991 1.32,-6.439984 1.32,-2.479994 3.55999,-3.639991 2.27999,-1.159997 5.15999,-1.159997 1.63999,0 3.15999,0.359999 1.52,0.319999 2.47999,0.799998 l -1.07999,2.919992 q -0.96,-0.359999 -2.24,-0.679998 -1.28,-0.319999 -2.39999,-0.319999 -6.31999,0 -6.31999,8.11998 0,3.87999 1.52,5.959985 1.56,2.039995 4.59999,2.039995 1.75999,0 3.07999,-0.359999 1.36,-0.359999 2.47999,-0.879998 v 3.119992 q -1.07999,0.559999 -2.39999,0.839998 -1.28,0.319999 -3.11999,0.319999 z"
         style="text-align:center;text-anchor:middle"
         id="path1412" />
      <path
         d="m 393.33064,75.419545 v 21.439946 h -2.88 l -0.52,-2.839993 h -0.16 q -1.03999,1.679996 -2.87999,2.479994 -1.83999,0.759998 -3.91999,0.759998 -3.87999,0 -5.83998,-1.839995 -1.96,-1.879995 -1.96,-5.959985 V 75.419545 h 3.55999 V 89.21951 q 0,5.119988 4.75999,5.119988 3.55999,0 4.91999,-1.999995 1.39999,-1.999995 1.39999,-5.759986 V 75.419545 Z"
         style="text-align:center;text-anchor:middle"
         id="path1414" />
      <path
         d="m 407.2906,94.379497 q 0.8,0 1.64,-0.119999 0.84,-0.16 1.35999,-0.319999 v 2.679993 q -0.55999,0.279999 -1.59999,0.439999 -1.04,0.199999 -2,0.199999 -1.67999,0 -3.11999,-0.559998 -1.4,-0.599999 -2.27999,-2.039995 -0.88,-1.439997 -0.88,-4.03999 V 78.139538 h -3.03999 v -1.679996 l 3.07999,-1.399997 1.4,-4.559988 h 2.07999 v 4.919988 h 6.19998 v 2.719993 h -6.19998 v 12.399969 q 0,1.959995 0.92,2.919993 0.96,0.919997 2.43999,0.919997 z"
         style="text-align:center;text-anchor:middle"
         id="path1416" />
      <path
         d="m 414.05059,94.699497 q 0,-1.479997 0.72,-2.079995 0.72,-0.599999 1.72,-0.599999 1.03999,0 1.75999,0.599999 0.76,0.599998 0.76,2.079995 0,1.439996 -0.76,2.079995 -0.72,0.639998 -1.75999,0.639998 -1,0 -1.72,-0.639998 -0.72,-0.639999 -0.72,-2.079995 z"
         style="text-align:center;text-anchor:middle"
         id="path1418" />
    </g>
    <path
       style="fill:none;fill-rule:evenodd;stroke:#000000;stroke-width:2.169;stroke-linecap:butt;stroke-linejoin:miter;stroke-dasharray:none;stroke-opacity:1;marker-end:url(#Arrow2)"
       d="m 105.18051,28.811946 -0.2634,9.645768"
       id="path846" />
  </g>
</svg>
