<?xml version="1.0" encoding="UTF-8" standalone="no"?>
<!-- Created with Inkscape (http://www.inkscape.org/) -->

<svg
   width="21.403553mm"
   height="21.403553mm"
   viewBox="0 0 21.403553 21.403553"
   version="1.1"
   id="svg1480"
   inkscape:version="1.2.1 (9c6d41e410, 2022-07-14)"
   sodipodi:docname="makers_mark_pathed.svg"
   xmlns:inkscape="http://www.inkscape.org/namespaces/inkscape"
   xmlns:sodipodi="http://sodipodi.sourceforge.net/DTD/sodipodi-0.dtd"
   xmlns="http://www.w3.org/2000/svg"
   xmlns:svg="http://www.w3.org/2000/svg">
  <sodipodi:namedview
     id="namedview1482"
     pagecolor="#ffffff"
     bordercolor="#666666"
     borderopacity="1.0"
     inkscape:showpageshadow="2"
     inkscape:pageopacity="0.0"
     inkscape:pagecheckerboard="0"
     inkscape:deskcolor="#d1d1d1"
     inkscape:document-units="mm"
     showgrid="false"
     inkscape:zoom="2"
     inkscape:cx="-40.75"
     inkscape:cy="75.75"
     inkscape:window-width="1920"
     inkscape:window-height="1012"
     inkscape:window-x="0"
     inkscape:window-y="0"
     inkscape:window-maximized="1"
     inkscape:current-layer="layer1" />
  <defs
     id="defs1477" />
  <g
     inkscape:label="Layer 1"
     inkscape:groupmode="layer"
     id="layer1"
     transform="translate(-93.769072,-33.427874)">
    <g
       aria-label="JS
A"
       id="text1486"
       style="font-size:10.5833px;line-height:56%;text-align:center;letter-spacing:-1.05833px;word-spacing:0px;baseline-shift:baseline;text-anchor:middle;opacity:1;stroke-width:0.264583px;stop-color:#000000;stop-opacity:1">
      <path
         d="m 102.00742,45.109492 q -0.40307,0 -0.77514,-0.113688 -0.3669,-0.10852 -0.6873,-0.315225 -0.31522,-0.211873 -0.578769,-0.511596 -0.258382,-0.304889 -0.444416,-0.692461 l 1.250565,-0.578775 q 0.20671,0.397908 0.5116,0.614948 0.31005,0.21704 0.72346,0.21704 0.21704,0 0.41858,-0.05684 0.20154,-0.06201 0.35657,-0.222208 0.15503,-0.160196 0.24804,-0.439248 0.093,-0.284219 0.093,-0.728635 v -4.712876 h 1.42627 v 4.836899 q 0,0.527098 -0.10852,0.93534 -0.10852,0.408243 -0.29456,0.707965 -0.18603,0.299722 -0.43408,0.506428 -0.24805,0.201537 -0.53227,0.32556 -0.28421,0.118855 -0.58394,0.170532 -0.29972,0.05684 -0.58911,0.05684 z"
         style="font-weight:bold;font-family:Overpass;-inkscape-font-specification:'Overpass, Bold'"
         id="path2805" />
      <path
         d="m 108.8969,39.585299 q -0.0672,-0.165365 -0.18086,-0.310058 -0.11369,-0.144694 -0.27389,-0.248046 -0.15503,-0.10852 -0.36173,-0.165364 -0.20154,-0.06201 -0.44959,-0.06201 -0.46508,0 -0.72863,0.186035 -0.25838,0.186034 -0.25838,0.52193 0,0.222208 0.16536,0.372069 0.16537,0.149861 0.43408,0.273884 0.26872,0.118856 0.60978,0.227376 0.34623,0.10852 0.70797,0.242879 0.36173,0.12919 0.70279,0.310057 0.34624,0.175699 0.61495,0.439248 0.26872,0.258382 0.43408,0.620116 0.16537,0.356566 0.16537,0.857826 0,0.5426 -0.20671,0.961178 -0.2067,0.418578 -0.56844,0.707965 -0.35656,0.289387 -0.84749,0.439248 -0.49092,0.149862 -1.05936,0.149862 -0.52193,0 -0.97668,-0.139526 -0.45475,-0.144694 -0.82682,-0.408243 -0.3669,-0.263549 -0.64079,-0.640786 -0.27388,-0.377236 -0.43408,-0.84749 l 1.30224,-0.485757 q 0.11886,0.258381 0.28422,0.475421 0.17053,0.211873 0.37724,0.366902 0.2067,0.149861 0.44441,0.237711 0.24288,0.08268 0.51677,0.08268 0.26871,0 0.48575,-0.05684 0.22221,-0.05684 0.37724,-0.170532 0.1602,-0.113688 0.24288,-0.279052 0.0878,-0.170531 0.0878,-0.392739 0,-0.268717 -0.16536,-0.449584 -0.16537,-0.186034 -0.43409,-0.320393 -0.26871,-0.139526 -0.61494,-0.248046 -0.34107,-0.113688 -0.7028,-0.237711 -0.35657,-0.124023 -0.7028,-0.289387 -0.34106,-0.165364 -0.60978,-0.408242 -0.26871,-0.242879 -0.43408,-0.583942 -0.16536,-0.341063 -0.16536,-0.82682 0,-0.418578 0.16536,-0.78548 0.17053,-0.372069 0.49093,-0.651121 0.32039,-0.279051 0.78548,-0.439248 0.46508,-0.165364 1.06453,-0.165364 0.50126,0 0.90433,0.129191 0.40824,0.12919 0.7183,0.361734 0.31006,0.227375 0.52193,0.5426 0.21187,0.310058 0.32039,0.682127 z"
         style="font-weight:bold;font-family:Overpass;-inkscape-font-specification:'Overpass, Bold'"
         id="path2807" />
      <path
         d="m 106.65415,51.276043 -0.5736,-1.534785 h -2.8577 l -0.56844,1.534785 h -1.53479 l 2.83703,-7.410377 h 1.39526 l 2.83703,7.410377 z m -1.76733,-4.764552 q -0.0568,-0.134358 -0.12402,-0.320393 -0.062,-0.186034 -0.10852,-0.34623 -0.0413,0.160196 -0.10852,0.34623 -0.0672,0.186035 -0.12402,0.320393 l -0.7338,1.927525 h 1.92752 z"
         style="font-weight:bold;font-family:Overpass;-inkscape-font-specification:'Overpass, Bold'"
         id="path2809" />
    </g>
    <path
       id="path1654"
       style="opacity:0.999;fill-opacity:0.00819511;fill-rule:evenodd;stroke:#000000;stroke-width:2.35838"
       transform="rotate(1.5364066)"
       d="m 115.13904,41.312698 a 9.5225391,9.5225391 0 0 1 -9.52254,9.52254 9.5225391,9.5225391 0 0 1 -9.522538,-9.52254 9.5225391,9.5225391 0 0 1 9.522538,-9.522539 9.5225391,9.5225391 0 0 1 9.52254,9.522539 z" />
  </g>
</svg>
