<?xml version="1.0" encoding="UTF-8" standalone="no"?>
<!-- Created with Inkscape (http://www.inkscape.org/) -->

<svg
   width="86mm"
   height="54mm"
   viewBox="0 0 86 54"
   version="1.1"
   id="svg5"
   inkscape:version="1.1.1 (3bf5ae0d25, 2021-09-20)"
   sodipodi:docname="NameTag-Pathed.svg"
   xmlns:inkscape="http://www.inkscape.org/namespaces/inkscape"
   xmlns:sodipodi="http://sodipodi.sourceforge.net/DTD/sodipodi-0.dtd"
   xmlns="http://www.w3.org/2000/svg"
   xmlns:svg="http://www.w3.org/2000/svg">
  <sodipodi:namedview
     id="namedview7"
     pagecolor="#ffffff"
     bordercolor="#666666"
     borderopacity="1.0"
     inkscape:pageshadow="2"
     inkscape:pageopacity="0.0"
     inkscape:pagecheckerboard="0"
     inkscape:document-units="mm"
     showgrid="false"
     width="86mm"
     showguides="true"
     inkscape:guide-bbox="true"
     inkscape:zoom="2.8132592"
     inkscape:cx="163.68915"
     inkscape:cy="97.751391"
     inkscape:window-width="1920"
     inkscape:window-height="1012"
     inkscape:window-x="0"
     inkscape:window-y="0"
     inkscape:window-maximized="1"
     inkscape:current-layer="text7592" />
  <defs
     id="defs2">
    <rect
       x="33.07358"
       y="39.100322"
       width="254.4257"
       height="52.481345"
       id="rect2658" />
  </defs>
  <g
     inkscape:label="Layer 1"
     inkscape:groupmode="layer"
     id="layer1">
    <g
       aria-label="Jason"
       transform="matrix(0.74849974,0,0,0.98855111,-77.25115,-39.353398)"
       id="text2656"
       style="font-size:29.5283px;line-height:125%;text-align:center;letter-spacing:0px;word-spacing:0px;baseline-shift:baseline;white-space:pre;shape-inside:url(#rect2658);opacity:1;vector-effect:none;stroke-width:0.999999px;stop-color:#000000;stop-opacity:1">
      <path
         d="m 129.75496,50.106744 h 2.68708 c 0.62009,0 0.9449,-0.265754 0.9449,-0.767735 0,-0.501982 -0.32481,-0.738208 -0.9449,-0.738208 h -8.74038 c -0.64962,0 -0.97443,0.236226 -0.97443,0.738208 0,0.501981 0.35433,0.767735 0.97443,0.767735 h 4.51783 v 10.157735 c 0,2.185094 -1.83076,3.927264 -4.16349,3.927264 -1.41736,0 -2.74613,-0.590566 -4.19302,-1.889811 v -3.691037 c 0,-0.620095 -0.26575,-0.944906 -0.76774,-0.944906 -0.50198,0 -0.76773,0.324811 -0.76773,0.944906 v 4.399716 c 2.30321,2.007924 3.75009,2.687075 5.69896,2.687075 3.13,0 5.72849,-2.450848 5.72849,-5.433207 z"
         style="font-family:'Nimbus Mono PS';-inkscape-font-specification:'Nimbus Mono PS'"
         id="path1162" />
      <path
         d="m 145.93642,65.225234 h 2.98236 c 0.6201,0 0.94491,-0.265755 0.94491,-0.767736 0,-0.472453 -0.32481,-0.738208 -0.94491,-0.738208 h -1.44689 v -7.559244 c 0,-2.155566 -2.0965,-3.720566 -4.93122,-3.720566 -1.12208,0 -3.04142,0.383868 -4.66547,0.944906 -0.4134,0.147641 -0.6201,0.383867 -0.6201,0.738207 0,0.413396 0.32481,0.738208 0.70868,0.738208 0.14764,0 0.23623,-0.02953 0.6201,-0.147642 1.68311,-0.531509 2.9233,-0.767736 3.8682,-0.767736 2.06698,0 3.48434,0.885849 3.48434,2.214623 V 57.9908 c -1.77169,-0.442924 -2.5099,-0.531509 -3.83868,-0.531509 -3.83867,0 -6.40764,1.771698 -6.40764,4.399716 0,2.27368 1.91934,3.838679 4.75406,3.838679 2.03745,0 3.66151,-0.649622 5.49226,-2.214622 z m 0,-3.48434 c -1.91934,1.771698 -3.45481,2.450849 -5.49226,2.450849 -1.9784,0 -3.21859,-0.915377 -3.21859,-2.332736 0,-1.712641 2.06699,-2.893773 5.01982,-2.893773 1.29924,0 2.7166,0.147642 3.69103,0.383868 z"
         style="font-family:'Nimbus Mono PS';-inkscape-font-specification:'Nimbus Mono PS'"
         id="path1164" />
      <path
         d="m 155.85789,61.740894 c 0,-0.472453 -0.32481,-0.797264 -0.76774,-0.797264 -0.50198,0 -0.76774,0.324811 -0.76774,0.944906 v 2.391792 c 0,0.620094 0.26576,0.944906 0.76774,0.944906 0.47245,0 0.73821,-0.324812 0.73821,-0.915378 1.12207,0.915378 2.68707,1.38783 4.4883,1.38783 3.48434,0 5.96472,-1.653584 5.96472,-3.98632 0,-1.063019 -0.59057,-2.096509 -1.53548,-2.716604 -0.97443,-0.649622 -2.06698,-0.974433 -3.89773,-1.151603 -2.59849,-0.295283 -2.74613,-0.324812 -3.39576,-0.708679 -0.5315,-0.324812 -0.85632,-0.767736 -0.85632,-1.181132 0,-1.151604 1.565,-2.007925 3.69104,-2.007925 2.15557,0 3.63198,0.797264 3.77962,2.007925 0.0591,0.531509 0.29529,0.797264 0.73821,0.797264 0.50198,0 0.76774,-0.324812 0.76774,-0.944906 v -2.007924 c 0,-0.620095 -0.26576,-0.944906 -0.73821,-0.944906 -0.4134,0 -0.70868,0.295283 -0.76774,0.738208 -1.00396,-0.767736 -2.33273,-1.151604 -3.92726,-1.151604 -2.98236,0 -5.19698,1.446887 -5.19698,3.425283 0,0.974434 0.53151,1.889811 1.41736,2.42132 0.85632,0.53151 1.71264,0.738208 3.89773,0.944906 1.62406,0.17717 2.3918,0.354339 3.15953,0.797264 0.73821,0.383868 1.21066,1.03349 1.21066,1.653585 0,1.446886 -1.86028,2.509905 -4.37019,2.509905 -2.42132,0 -4.39971,-1.003962 -4.39971,-2.244151 z"
         style="font-family:'Nimbus Mono PS';-inkscape-font-specification:'Nimbus Mono PS'"
         id="path1166" />
      <path
         d="m 178.12218,52.43948 c -3.95679,0 -6.99821,2.893773 -6.99821,6.643867 0,3.661509 3.07094,6.614339 6.90962,6.614339 3.83868,0 6.8801,-2.923301 6.8801,-6.643867 0,-3.631981 -3.04142,-6.614339 -6.79151,-6.614339 z m -0.17717,1.505943 c 3.07094,0 5.43321,2.214623 5.43321,5.137924 0,2.834717 -2.36227,5.108396 -5.34463,5.108396 -2.98235,0 -5.37415,-2.273679 -5.37415,-5.137924 0,-2.805188 2.36227,-5.108396 5.28557,-5.108396 z"
         style="font-family:'Nimbus Mono PS';-inkscape-font-specification:'Nimbus Mono PS'"
         id="path1168" />
      <path
         d="m 191.97091,52.852876 h -2.3918 c -0.64962,0 -0.9449,0.236227 -0.9449,0.738208 0,0.501981 0.32481,0.767735 0.9449,0.767735 h 0.85632 v 9.360471 h -1.18113 c -0.64962,0 -0.97443,0.265755 -0.97443,0.738208 0,0.501981 0.35434,0.767736 0.97443,0.767736 h 3.89774 c 0.62009,0 0.9449,-0.265755 0.9449,-0.767736 0,-0.472453 -0.32481,-0.738208 -0.9449,-0.738208 h -1.18113 v -7.11632 c 1.80122,-2.214622 2.53943,-2.657547 4.34066,-2.657547 1.06301,0 1.62405,0.17717 2.27367,0.708679 0.70868,0.590566 1.06302,1.269717 1.06302,2.066981 v 6.998207 h -0.82679 c -0.64962,0 -0.97443,0.265755 -0.97443,0.738208 0,0.501981 0.35434,0.767736 0.97443,0.767736 h 3.21859 c 0.59056,0 0.9449,-0.265755 0.9449,-0.767736 0,-0.472453 -0.32481,-0.738208 -0.9449,-0.738208 h -0.85632 v -7.204905 c 0,-2.303207 -2.06699,-4.074905 -4.78359,-4.074905 -1.80123,0 -2.86424,0.531509 -4.42924,2.185094 z"
         style="font-family:'Nimbus Mono PS';-inkscape-font-specification:'Nimbus Mono PS'"
         id="path1170" />
    </g>
    <g
       aria-label="Antman"
       transform="matrix(0.26458333,0,0,0.26458333,13.780781,9.5250003)"
       id="text7592"
       style="font-size:64px;line-height:125%;text-align:center;letter-spacing:0px;word-spacing:0px;baseline-shift:baseline;text-anchor:middle;opacity:1;vector-effect:none;stroke-width:0.999999px;stop-color:#000000;stop-opacity:1">
      <path
         d="m 24.035091,116.56105 3.264,8.512 h -4.352 c -1.344,0 -2.048,0.576 -2.048,1.6 0,1.088 0.704,1.664 2.048,1.664 h 9.984 c 1.344,0 2.112,-0.576 2.112,-1.664 0,-1.024 -0.704,-1.6 -2.112,-1.6 h -2.112 l -12.608,-32.767999 H 4.9630906 c -1.408,0 -2.112,0.512 -2.112,1.6 0,1.088 0.768,1.664 2.112,1.664 H 12.067091 L 0.93109064,125.07305 h -1.792 c -1.34400004,0 -2.04800004,0.576 -2.04800004,1.6 0,1.088 0.768,1.664 2.04800004,1.664 H 8.8030906 c 1.3440004,0 2.1120004,-0.576 2.1120004,-1.664 0,-1.024 -0.704,-1.6 -2.1120004,-1.6 h -4.544 l 3.2,-8.512 z m -1.28,-3.264 H 8.7390906 L 15.395091,95.569051 h 0.512 z"
         style="font-family:'Nimbus Mono PS';-inkscape-font-specification:'Nimbus Mono PS'"
         id="path2565" />
      <path
         d="m 46.306993,101.52105 h -5.184 c -1.408,0 -2.048,0.512 -2.048,1.6 0,1.088 0.704,1.664 2.048,1.664 h 1.856 v 20.288 h -2.56 c -1.408,0 -2.112,0.576 -2.112,1.6 0,1.088 0.768,1.664 2.112,1.664 h 8.448 c 1.344,0 2.048,-0.576 2.048,-1.664 0,-1.024 -0.704,-1.6 -2.048,-1.6 h -2.56 v -15.424 c 3.904,-4.8 5.504,-5.76 9.408,-5.76 2.304,0 3.52,0.384 4.928,1.536 1.536,1.28 2.304,2.752 2.304,4.48 v 15.168 h -1.792 c -1.408,0 -2.112,0.576 -2.112,1.6 0,1.088 0.768,1.664 2.112,1.664 h 6.976 c 1.28,0 2.048,-0.576 2.048,-1.664 0,-1.024 -0.704,-1.6 -2.048,-1.6 h -1.856 v -15.616 c 0,-4.992 -4.48,-8.832 -10.368,-8.832 -3.904,0 -6.208,1.152 -9.6,4.736 z"
         style="font-family:'Nimbus Mono PS';-inkscape-font-specification:'Nimbus Mono PS'"
         id="path2567" />
      <path
         d="m 85.922895,101.52105 v -7.167999 c 0,-1.344 -0.576,-1.984 -1.664,-1.984 -1.088,0 -1.664,0.704 -1.664,1.984 v 7.167999 h -4.416 c -1.408,0 -2.112,0.512 -2.112,1.6 0,1.088 0.704,1.664 2.112,1.664 h 4.416 v 16.512 c 0,4.864 4.032,8.064 10.304,8.064 3.008,0 6.592,-0.704 9.664005,-1.856 2.368,-0.896 3.392,-1.728 3.392,-2.688 0,-0.896 -0.704,-1.6 -1.6,-1.6 -0.32,0 -0.576,0.064 -1.152,0.448 -2.496,1.408 -6.912005,2.432 -10.432005,2.432 -4.224,0 -6.848,-1.92 -6.848,-4.928 v -16.384 h 13.696 c 1.408005,0 2.112005,-0.576 2.112005,-1.664 0,-1.088 -0.704,-1.6 -2.112005,-1.6 z"
         style="font-family:'Nimbus Mono PS';-inkscape-font-specification:'Nimbus Mono PS'"
         id="path2569" />
      <path
         d="m 119.5868,101.52105 h -5.12 c -1.408,0 -2.048,0.512 -2.048,1.6 0,1.088 0.704,1.664 2.048,1.664 h 1.856 v 20.288 h -1.856 c -1.344,0 -2.048,0.576 -2.048,1.6 0,1.024 0.768,1.664 1.984,1.664 h 6.976 c 1.344,0 2.112,-0.576 2.112,-1.6 0,-1.088 -0.704,-1.664 -2.112,-1.664 h -1.792 v -16.32 c 2.304,-3.392 4.224,-4.864 6.4,-4.864 1.984,0 3.776,2.048 3.776,4.288 v 20.16 h 5.12 c 1.344,0 2.048,-0.576 2.048,-1.664 0,-1.024 -0.704,-1.6 -2.048,-1.6 h -1.856 v -16.32 c 2.304,-3.392 4.16,-4.864 6.272,-4.864 2.112,0 3.904,1.92 3.904,4.096 v 20.352 h 5.12 c 1.28,0 2.048,-0.576 2.048,-1.664 0,-1.024 -0.704,-1.6 -2.048,-1.6 h -1.856 v -17.344 c 0,-3.904 -3.2,-7.104 -7.104,-7.104 -2.624,0 -4.544,1.088 -7.104,4.16 -1.536,-2.816 -3.584,-4.16 -6.272,-4.16 -2.56,0 -4.416,1.024 -6.4,3.456 z"
         style="font-family:'Nimbus Mono PS';-inkscape-font-specification:'Nimbus Mono PS'"
         id="path2571" />
      <path
         d="m 176.9307,128.33705 h 6.464 c 1.344,0 2.048,-0.576 2.048,-1.664 0,-1.024 -0.704,-1.6 -2.048,-1.6 h -3.136 v -16.384 c 0,-4.672 -4.544,-8.064 -10.688,-8.064 -2.432,0 -6.592,0.832 -10.112,2.048 -0.896,0.32 -1.344,0.832 -1.344,1.6 0,0.896 0.704,1.6 1.536,1.6 0.32,0 0.512,-0.064 1.344,-0.32 3.648,-1.152 6.336,-1.664 8.384,-1.664 4.48,0 7.552,1.92 7.552,4.8 v 3.968 c -3.84,-0.96 -5.44,-1.152 -8.32,-1.152 -8.32,0 -13.888,3.84 -13.888,9.536 0,4.928 4.16,8.32 10.304,8.32 4.416,0 7.936,-1.408 11.904,-4.8 z m 0,-7.552 c -4.16,3.84 -7.488,5.312 -11.904,5.312 -4.288,0 -6.976,-1.984 -6.976,-5.056 0,-3.712 4.48,-6.272 10.88,-6.272 2.816,0 5.888,0.32 8,0.832 z"
         style="font-family:'Nimbus Mono PS';-inkscape-font-specification:'Nimbus Mono PS'"
         id="path2573" />
      <path
         d="m 199.9066,101.52105 h -5.184 c -1.408,0 -2.048,0.512 -2.048,1.6 0,1.088 0.704,1.664 2.048,1.664 h 1.856 v 20.288 h -2.56 c -1.408,0 -2.112,0.576 -2.112,1.6 0,1.088 0.768,1.664 2.112,1.664 h 8.448 c 1.344,0 2.048,-0.576 2.048,-1.664 0,-1.024 -0.704,-1.6 -2.048,-1.6 h -2.56 v -15.424 c 3.904,-4.8 5.504,-5.76 9.408,-5.76 2.304,0 3.52,0.384 4.928,1.536 1.536,1.28 2.304,2.752 2.304,4.48 v 15.168 h -1.792 c -1.408,0 -2.112,0.576 -2.112,1.6 0,1.088 0.768,1.664 2.112,1.664 h 6.976 c 1.28,0 2.048,-0.576 2.048,-1.664 0,-1.024 -0.704,-1.6 -2.048,-1.6 h -1.856 v -15.616 c 0,-4.992 -4.48,-8.832 -10.368,-8.832 -3.904,0 -6.208,1.152 -9.6,4.736 z"
         style="font-family:'Nimbus Mono PS';-inkscape-font-specification:'Nimbus Mono PS'"
         id="path2575" />
    </g>
  </g>
</svg>
