<?xml version="1.0" standalone="no"?>
<!DOCTYPE svg PUBLIC "-//W3C//DTD SVG 1.1//EN" "http://www.w3.org/Graphics/SVG/1.1/DTD/svg11.dtd">
<svg width="150mm" height="150mm" viewBox="0 -150 150 150" xmlns="http://www.w3.org/2000/svg" version="1.1">
<title>OpenSCAD Model</title>
<path d="
M 136,-130 L 136,-150 L 14,-150 L 14,-130 L 0,-130 L 0,-20
 L 14,-20 L 14,-0 L 136,-0 L 136,-20 L 150,-20 L 150,-130
 z
M 74.952,-142 L 74.904,-142.002 L 74.8561,-142.004 L 74.8082,-142.007 L 74.7603,-142.01 L 74.7125,-142.015
 L 74.6649,-142.02 L 74.6173,-142.027 L 74.5698,-142.034 L 74.5225,-142.042 L 74.4753,-142.051 L 74.4282,-142.06
 L 74.3814,-142.07 L 74.3347,-142.082 L 74.2882,-142.094 L 74.242,-142.107 L 74.196,-142.12 L 74.1502,-142.135
 L 74.1047,-142.15 L 74.0594,-142.166 L 74.0145,-142.183 L 73.9698,-142.2 L 73.9255,-142.219 L 73.8815,-142.238
 L 73.8378,-142.258 L 73.7945,-142.278 L 73.7515,-142.3 L 73.7089,-142.322 L 73.6668,-142.345 L 73.625,-142.368
 L 73.5836,-142.393 L 73.5427,-142.418 L 73.5022,-142.444 L 73.4622,-142.47 L 73.4227,-142.497 L 73.3836,-142.525
 L 73.345,-142.554 L 73.3069,-142.583 L 73.2694,-142.613 L 73.2323,-142.643 L 73.1958,-142.675 L 73.1599,-142.706
 L 73.1245,-142.739 L 73.0897,-142.772 L 73.0555,-142.805 L 73.0218,-142.84 L 72.9888,-142.874 L 72.9563,-142.91
 L 72.9245,-142.946 L 72.8934,-142.982 L 72.8628,-143.019 L 72.833,-143.057 L 72.8037,-143.095 L 72.7752,-143.134
 L 72.7473,-143.173 L 72.7201,-143.212 L 72.6936,-143.252 L 72.6679,-143.293 L 72.6428,-143.334 L 72.6184,-143.375
 L 72.5948,-143.417 L 72.5719,-143.459 L 72.5497,-143.502 L 72.5283,-143.544 L 72.5076,-143.588 L 72.4877,-143.631
 L 72.4686,-143.675 L 72.4502,-143.72 L 72.4326,-143.764 L 72.4158,-143.809 L 72.3998,-143.855 L 72.3846,-143.9
 L 72.3701,-143.946 L 72.3565,-143.992 L 72.3437,-144.038 L 72.3317,-144.085 L 72.3205,-144.131 L 72.3101,-144.178
 L 72.3005,-144.225 L 72.2918,-144.272 L 72.2838,-144.32 L 72.2767,-144.367 L 72.2705,-144.415 L 72.2651,-144.463
 L 72.2605,-144.51 L 72.2567,-144.558 L 72.2538,-144.606 L 72.2517,-144.654 L 72.2504,-144.702 L 72.25,-144.75
 L 72.2504,-144.798 L 72.2517,-144.846 L 72.2538,-144.894 L 72.2567,-144.942 L 72.2605,-144.99 L 72.2651,-145.037
 L 72.2705,-145.085 L 72.2767,-145.133 L 72.2838,-145.18 L 72.2918,-145.228 L 72.3005,-145.275 L 72.3101,-145.322
 L 72.3205,-145.369 L 72.3317,-145.415 L 72.3437,-145.462 L 72.3565,-145.508 L 72.3701,-145.554 L 72.3846,-145.6
 L 72.3998,-145.645 L 72.4158,-145.691 L 72.4326,-145.736 L 72.4502,-145.78 L 72.4686,-145.825 L 72.4877,-145.869
 L 72.5076,-145.912 L 72.5283,-145.956 L 72.5497,-145.998 L 72.5719,-146.041 L 72.5948,-146.083 L 72.6184,-146.125
 L 72.6428,-146.166 L 72.6679,-146.207 L 72.6936,-146.248 L 72.7201,-146.288 L 72.7473,-146.327 L 72.7752,-146.366
 L 72.8037,-146.405 L 72.833,-146.443 L 72.8628,-146.481 L 72.8934,-146.518 L 72.9245,-146.554 L 72.9563,-146.59
 L 72.9888,-146.625 L 73.0218,-146.66 L 73.0555,-146.695 L 73.0897,-146.728 L 73.1245,-146.761 L 73.1599,-146.794
 L 73.1958,-146.825 L 73.2323,-146.857 L 73.2694,-146.887 L 73.3069,-146.917 L 73.345,-146.946 L 73.3836,-146.975
 L 73.4227,-147.003 L 73.4622,-147.03 L 73.5022,-147.056 L 73.5427,-147.082 L 73.5836,-147.107 L 73.625,-147.132
 L 73.6668,-147.155 L 73.7089,-147.178 L 73.7515,-147.2 L 73.7945,-147.222 L 73.8378,-147.242 L 73.8815,-147.262
 L 73.9255,-147.281 L 73.9698,-147.3 L 74.0145,-147.317 L 74.0594,-147.334 L 74.1047,-147.35 L 74.1502,-147.365
 L 74.196,-147.38 L 74.242,-147.393 L 74.2882,-147.406 L 74.3347,-147.418 L 74.3814,-147.43 L 74.4282,-147.44
 L 74.4753,-147.449 L 74.5225,-147.458 L 74.5698,-147.466 L 74.6173,-147.473 L 74.6649,-147.479 L 74.7125,-147.485
 L 74.7603,-147.49 L 74.8082,-147.493 L 74.8561,-147.496 L 74.904,-147.498 L 74.952,-147.5 L 75,-147.5
 L 75.048,-147.5 L 75.096,-147.498 L 75.1439,-147.496 L 75.1918,-147.493 L 75.2397,-147.49 L 75.2874,-147.485
 L 75.3351,-147.479 L 75.3827,-147.473 L 75.4302,-147.466 L 75.4775,-147.458 L 75.5247,-147.449 L 75.5717,-147.44
 L 75.6186,-147.43 L 75.6653,-147.418 L 75.7117,-147.406 L 75.758,-147.393 L 75.804,-147.38 L 75.8498,-147.365
 L 75.8953,-147.35 L 75.9406,-147.334 L 75.9855,-147.317 L 76.0302,-147.3 L 76.0745,-147.281 L 76.1185,-147.262
 L 76.1622,-147.242 L 76.2055,-147.222 L 76.2485,-147.2 L 76.291,-147.178 L 76.3332,-147.155 L 76.375,-147.132
 L 76.4164,-147.107 L 76.4573,-147.082 L 76.4978,-147.056 L 76.5378,-147.03 L 76.5773,-147.003 L 76.6164,-146.975
 L 76.655,-146.946 L 76.6931,-146.917 L 76.7306,-146.887 L 76.7677,-146.857 L 76.8042,-146.825 L 76.8401,-146.794
 L 76.8755,-146.761 L 76.9103,-146.728 L 76.9445,-146.695 L 76.9782,-146.66 L 77.0112,-146.625 L 77.0436,-146.59
 L 77.0754,-146.554 L 77.1066,-146.518 L 77.1371,-146.481 L 77.167,-146.443 L 77.1962,-146.405 L 77.2248,-146.366
 L 77.2527,-146.327 L 77.2798,-146.288 L 77.3063,-146.248 L 77.3321,-146.207 L 77.3572,-146.166 L 77.3816,-146.125
 L 77.4052,-146.083 L 77.4281,-146.041 L 77.4503,-145.998 L 77.4717,-145.956 L 77.4923,-145.912 L 77.5122,-145.869
 L 77.5314,-145.825 L 77.5497,-145.78 L 77.5673,-145.736 L 77.5842,-145.691 L 77.6002,-145.645 L 77.6154,-145.6
 L 77.6298,-145.554 L 77.6435,-145.508 L 77.6563,-145.462 L 77.6683,-145.415 L 77.6795,-145.369 L 77.6899,-145.322
 L 77.6995,-145.275 L 77.7082,-145.228 L 77.7161,-145.18 L 77.7232,-145.133 L 77.7295,-145.085 L 77.7349,-145.037
 L 77.7395,-144.99 L 77.7433,-144.942 L 77.7462,-144.894 L 77.7483,-144.846 L 77.7496,-144.798 L 77.75,-144.75
 L 77.7496,-144.702 L 77.7483,-144.654 L 77.7462,-144.606 L 77.7433,-144.558 L 77.7395,-144.51 L 77.7349,-144.463
 L 77.7295,-144.415 L 77.7232,-144.367 L 77.7161,-144.32 L 77.7082,-144.272 L 77.6995,-144.225 L 77.6899,-144.178
 L 77.6795,-144.131 L 77.6683,-144.085 L 77.6563,-144.038 L 77.6435,-143.992 L 77.6298,-143.946 L 77.6154,-143.9
 L 77.6002,-143.855 L 77.5842,-143.809 L 77.5673,-143.764 L 77.5497,-143.72 L 77.5314,-143.675 L 77.5122,-143.631
 L 77.4923,-143.588 L 77.4717,-143.544 L 77.4503,-143.502 L 77.4281,-143.459 L 77.4052,-143.417 L 77.3816,-143.375
 L 77.3572,-143.334 L 77.3321,-143.293 L 77.3063,-143.252 L 77.2798,-143.212 L 77.2527,-143.173 L 77.2248,-143.134
 L 77.1962,-143.095 L 77.167,-143.057 L 77.1371,-143.019 L 77.1066,-142.982 L 77.0754,-142.946 L 77.0436,-142.91
 L 77.0112,-142.874 L 76.9782,-142.84 L 76.9445,-142.805 L 76.9103,-142.772 L 76.8755,-142.739 L 76.8401,-142.706
 L 76.8042,-142.675 L 76.7677,-142.643 L 76.7306,-142.613 L 76.6931,-142.583 L 76.655,-142.554 L 76.6164,-142.525
 L 76.5773,-142.497 L 76.5378,-142.47 L 76.4978,-142.444 L 76.4573,-142.418 L 76.4164,-142.393 L 76.375,-142.368
 L 76.3332,-142.345 L 76.291,-142.322 L 76.2485,-142.3 L 76.2055,-142.278 L 76.1622,-142.258 L 76.1185,-142.238
 L 76.0745,-142.219 L 76.0302,-142.2 L 75.9855,-142.183 L 75.9406,-142.166 L 75.8953,-142.15 L 75.8498,-142.135
 L 75.804,-142.12 L 75.758,-142.107 L 75.7117,-142.094 L 75.6653,-142.082 L 75.6186,-142.07 L 75.5717,-142.06
 L 75.5247,-142.051 L 75.4775,-142.042 L 75.4302,-142.034 L 75.3827,-142.027 L 75.3351,-142.02 L 75.2874,-142.015
 L 75.2397,-142.01 L 75.1918,-142.007 L 75.1439,-142.004 L 75.096,-142.002 L 75.048,-142 L 75,-142
 z
M 74.952,-2.50041 L 74.904,-2.50166 L 74.8561,-2.50375 L 74.8082,-2.5067 L 74.7603,-2.51045 L 74.7125,-2.51506
 L 74.6649,-2.52049 L 74.6173,-2.52675 L 74.5698,-2.53384 L 74.5225,-2.54178 L 74.4753,-2.55052 L 74.4282,-2.56009
 L 74.3814,-2.57048 L 74.3347,-2.58168 L 74.2882,-2.59369 L 74.242,-2.60652 L 74.196,-2.62015 L 74.1502,-2.63458
 L 74.1047,-2.64981 L 74.0594,-2.66583 L 74.0145,-2.68265 L 73.9698,-2.70024 L 73.9255,-2.7186 L 73.8815,-2.73775
 L 73.8378,-2.75764 L 73.7945,-2.77831 L 73.7515,-2.79973 L 73.7089,-2.82188 L 73.6668,-2.84479 L 73.625,-2.86842
 L 73.5836,-2.89278 L 73.5427,-2.91786 L 73.5022,-2.94365 L 73.4622,-2.97014 L 73.4227,-2.99733 L 73.3836,-3.02519
 L 73.345,-3.05374 L 73.3069,-3.08296 L 73.2694,-3.11284 L 73.2323,-3.14337 L 73.1958,-3.17455 L 73.1599,-3.20634
 L 73.1245,-3.23877 L 73.0897,-3.2718 L 73.0555,-3.30545 L 73.0218,-3.33968 L 72.9888,-3.3745 L 72.9563,-3.40988
 L 72.9245,-3.44583 L 72.8934,-3.48233 L 72.8628,-3.51936 L 72.833,-3.55693 L 72.8037,-3.595 L 72.7752,-3.63358
 L 72.7473,-3.67265 L 72.7201,-3.71222 L 72.6936,-3.75223 L 72.6679,-3.79271 L 72.6428,-3.83363 L 72.6184,-3.875
 L 72.5948,-3.91676 L 72.5719,-3.95894 L 72.5497,-4.00153 L 72.5283,-4.04446 L 72.5076,-4.0878 L 72.4877,-4.13147
 L 72.4686,-4.17548 L 72.4502,-4.21982 L 72.4326,-4.26448 L 72.4158,-4.30943 L 72.3998,-4.35468 L 72.3846,-4.40019
 L 72.3701,-4.44597 L 72.3565,-4.49199 L 72.3437,-4.53824 L 72.3317,-4.5847 L 72.3205,-4.63138 L 72.3101,-4.67824
 L 72.3005,-4.72527 L 72.2918,-4.77246 L 72.2838,-4.81979 L 72.2767,-4.86726 L 72.2705,-4.91486 L 72.2651,-4.96254
 L 72.2605,-5.01031 L 72.2567,-5.05817 L 72.2538,-5.10606 L 72.2517,-5.15402 L 72.2504,-5.202 L 72.25,-5.25
 L 72.2504,-5.29799 L 72.2517,-5.34596 L 72.2538,-5.39392 L 72.2567,-5.44182 L 72.2605,-5.48967 L 72.2651,-5.53745
 L 72.2705,-5.58513 L 72.2767,-5.63272 L 72.2838,-5.68019 L 72.2918,-5.72752 L 72.3005,-5.77472 L 72.3101,-5.82175
 L 72.3205,-5.86861 L 72.3317,-5.91528 L 72.3437,-5.96175 L 72.3565,-6.008 L 72.3701,-6.05402 L 72.3846,-6.09979
 L 72.3998,-6.14531 L 72.4158,-6.19055 L 72.4326,-6.2355 L 72.4502,-6.28017 L 72.4686,-6.32451 L 72.4877,-6.36852
 L 72.5076,-6.41219 L 72.5283,-6.45552 L 72.5497,-6.49846 L 72.5719,-6.54105 L 72.5948,-6.58322 L 72.6184,-6.625
 L 72.6428,-6.66635 L 72.6679,-6.70728 L 72.6936,-6.74776 L 72.7201,-6.78777 L 72.7473,-6.82733 L 72.7752,-6.86641
 L 72.8037,-6.90498 L 72.833,-6.94305 L 72.8628,-6.98062 L 72.8934,-7.01765 L 72.9245,-7.05415 L 72.9563,-7.0901
 L 72.9888,-7.12549 L 73.0218,-7.16031 L 73.0555,-7.19453 L 73.0897,-7.22818 L 73.1245,-7.26122 L 73.1599,-7.29364
 L 73.1958,-7.32544 L 73.2323,-7.35661 L 73.2694,-7.38715 L 73.3069,-7.41702 L 73.345,-7.44624 L 73.3836,-7.47479
 L 73.4227,-7.50266 L 73.4622,-7.52985 L 73.5022,-7.55634 L 73.5427,-7.58212 L 73.5836,-7.60721 L 73.625,-7.63156
 L 73.6668,-7.6552 L 73.7089,-7.6781 L 73.7515,-7.70026 L 73.7945,-7.72168 L 73.8378,-7.74234 L 73.8815,-7.76224
 L 73.9255,-7.78139 L 73.9698,-7.79974 L 74.0145,-7.81734 L 74.0594,-7.83415 L 74.1047,-7.85017 L 74.1502,-7.8654
 L 74.196,-7.87984 L 74.242,-7.89346 L 74.2882,-7.9063 L 74.3347,-7.9183 L 74.3814,-7.9295 L 74.4282,-7.9399
 L 74.4753,-7.94946 L 74.5225,-7.95821 L 74.5698,-7.96614 L 74.6173,-7.97324 L 74.6649,-7.97949 L 74.7125,-7.98492
 L 74.7603,-7.98953 L 74.8082,-7.99329 L 74.8561,-7.99623 L 74.904,-7.99832 L 74.952,-7.99957 L 75,-8
 L 75.048,-7.99957 L 75.096,-7.99832 L 75.1439,-7.99623 L 75.1918,-7.99329 L 75.2397,-7.98953 L 75.2874,-7.98492
 L 75.3351,-7.97949 L 75.3827,-7.97324 L 75.4302,-7.96614 L 75.4775,-7.95821 L 75.5247,-7.94946 L 75.5717,-7.9399
 L 75.6186,-7.9295 L 75.6653,-7.9183 L 75.7117,-7.9063 L 75.758,-7.89346 L 75.804,-7.87984 L 75.8498,-7.8654
 L 75.8953,-7.85017 L 75.9406,-7.83415 L 75.9855,-7.81734 L 76.0302,-7.79974 L 76.0745,-7.78139 L 76.1185,-7.76224
 L 76.1622,-7.74234 L 76.2055,-7.72168 L 76.2485,-7.70026 L 76.291,-7.6781 L 76.3332,-7.6552 L 76.375,-7.63156
 L 76.4164,-7.60721 L 76.4573,-7.58212 L 76.4978,-7.55634 L 76.5378,-7.52985 L 76.5773,-7.50266 L 76.6164,-7.47479
 L 76.655,-7.44624 L 76.6931,-7.41702 L 76.7306,-7.38715 L 76.7677,-7.35661 L 76.8042,-7.32544 L 76.8401,-7.29364
 L 76.8755,-7.26122 L 76.9103,-7.22818 L 76.9445,-7.19453 L 76.9782,-7.16031 L 77.0112,-7.12549 L 77.0436,-7.0901
 L 77.0754,-7.05415 L 77.1066,-7.01765 L 77.1371,-6.98062 L 77.167,-6.94305 L 77.1962,-6.90498 L 77.2248,-6.86641
 L 77.2527,-6.82733 L 77.2798,-6.78777 L 77.3063,-6.74776 L 77.3321,-6.70728 L 77.3572,-6.66635 L 77.3816,-6.625
 L 77.4052,-6.58322 L 77.4281,-6.54105 L 77.4503,-6.49846 L 77.4717,-6.45552 L 77.4923,-6.41219 L 77.5122,-6.36852
 L 77.5314,-6.32451 L 77.5497,-6.28017 L 77.5673,-6.2355 L 77.5842,-6.19055 L 77.6002,-6.14531 L 77.6154,-6.09979
 L 77.6298,-6.05402 L 77.6435,-6.008 L 77.6563,-5.96175 L 77.6683,-5.91528 L 77.6795,-5.86861 L 77.6899,-5.82175
 L 77.6995,-5.77472 L 77.7082,-5.72752 L 77.7161,-5.68019 L 77.7232,-5.63272 L 77.7295,-5.58513 L 77.7349,-5.53745
 L 77.7395,-5.48967 L 77.7433,-5.44182 L 77.7462,-5.39392 L 77.7483,-5.34596 L 77.7496,-5.29799 L 77.75,-5.25
 L 77.7496,-5.202 L 77.7483,-5.15402 L 77.7462,-5.10606 L 77.7433,-5.05817 L 77.7395,-5.01031 L 77.7349,-4.96254
 L 77.7295,-4.91486 L 77.7232,-4.86726 L 77.7161,-4.81979 L 77.7082,-4.77246 L 77.6995,-4.72527 L 77.6899,-4.67824
 L 77.6795,-4.63138 L 77.6683,-4.5847 L 77.6563,-4.53824 L 77.6435,-4.49199 L 77.6298,-4.44597 L 77.6154,-4.40019
 L 77.6002,-4.35468 L 77.5842,-4.30943 L 77.5673,-4.26448 L 77.5497,-4.21982 L 77.5314,-4.17548 L 77.5122,-4.13147
 L 77.4923,-4.0878 L 77.4717,-4.04446 L 77.4503,-4.00153 L 77.4281,-3.95894 L 77.4052,-3.91676 L 77.3816,-3.875
 L 77.3572,-3.83363 L 77.3321,-3.79271 L 77.3063,-3.75223 L 77.2798,-3.71222 L 77.2527,-3.67265 L 77.2248,-3.63358
 L 77.1962,-3.595 L 77.167,-3.55693 L 77.1371,-3.51936 L 77.1066,-3.48233 L 77.0754,-3.44583 L 77.0436,-3.40988
 L 77.0112,-3.3745 L 76.9782,-3.33968 L 76.9445,-3.30545 L 76.9103,-3.2718 L 76.8755,-3.23877 L 76.8401,-3.20634
 L 76.8042,-3.17455 L 76.7677,-3.14337 L 76.7306,-3.11284 L 76.6931,-3.08296 L 76.655,-3.05374 L 76.6164,-3.02519
 L 76.5773,-2.99733 L 76.5378,-2.97014 L 76.4978,-2.94365 L 76.4573,-2.91786 L 76.4164,-2.89278 L 76.375,-2.86842
 L 76.3332,-2.84479 L 76.291,-2.82188 L 76.2485,-2.79973 L 76.2055,-2.77831 L 76.1622,-2.75764 L 76.1185,-2.73775
 L 76.0745,-2.7186 L 76.0302,-2.70024 L 75.9855,-2.68265 L 75.9406,-2.66583 L 75.8953,-2.64981 L 75.8498,-2.63458
 L 75.804,-2.62015 L 75.758,-2.60652 L 75.7117,-2.59369 L 75.6653,-2.58168 L 75.6186,-2.57048 L 75.5717,-2.56009
 L 75.5247,-2.55052 L 75.4775,-2.54178 L 75.4302,-2.53384 L 75.3827,-2.52675 L 75.3351,-2.52049 L 75.2874,-2.51506
 L 75.2397,-2.51045 L 75.1918,-2.5067 L 75.1439,-2.50375 L 75.096,-2.50166 L 75.048,-2.50041 L 75,-2.5
 z
" stroke="black" fill="lightgray" stroke-width="0.5"/>
</svg>
