<?xml version="1.0" standalone="no"?>
<!DOCTYPE svg PUBLIC "-//W3C//DTD SVG 1.1//EN" "http://www.w3.org/Graphics/SVG/1.1/DTD/svg11.dtd">
<svg width="139mm" height="188mm" viewBox="0 -188 139 188" xmlns="http://www.w3.org/2000/svg" version="1.1">
<title>OpenSCAD Model</title>
<path d="
M 120.433,-0.314133 L 120.441,-0.628189 L 120.455,-0.942047 L 120.474,-1.25562 L 120.498,-1.5688 L 120.529,-1.8815
 L 120.564,-2.19363 L 120.605,-2.50511 L 120.652,-2.81581 L 120.703,-3.12566 L 120.761,-3.43456 L 120.823,-3.7424
 L 120.891,-4.04912 L 120.965,-4.35458 L 121.043,-4.65874 L 121.127,-4.96147 L 121.217,-5.26268 L 121.311,-5.5623
 L 121.411,-5.86021 L 121.516,-6.15636 L 121.626,-6.45062 L 121.741,-6.7429 L 121.861,-7.03316 L 121.986,-7.32126
 L 122.116,-7.60712 L 122.252,-7.89067 L 122.392,-8.17181 L 122.537,-8.45049 L 122.687,-8.72656 L 122.842,-9
 L 123.001,-9.27068 L 123.165,-9.53854 L 123.334,-9.8035 L 123.507,-10.0655 L 123.685,-10.3244 L 123.868,-10.5801
 L 124.055,-10.8327 L 124.246,-11.0819 L 124.441,-11.3278 L 124.641,-11.5702 L 124.845,-11.8091 L 125.053,-12.0443
 L 125.266,-12.276 L 125.482,-12.5038 L 125.702,-12.7279 L 125.926,-12.9481 L 126.154,-13.1644 L 126.386,-13.3766
 L 126.621,-13.5848 L 126.86,-13.7888 L 127.102,-13.9886 L 127.348,-14.1842 L 127.597,-14.3754 L 127.85,-14.5623
 L 128.106,-14.7447 L 128.365,-14.9227 L 128.626,-15.0961 L 128.891,-15.2649 L 129.159,-15.429 L 129.43,-15.5885
 L 129.703,-15.7431 L 129.98,-15.8931 L 130.258,-16.0381 L 130.539,-16.1783 L 130.823,-16.3135 L 131.109,-16.4438
 L 131.397,-16.5691 L 131.687,-16.6893 L 131.979,-16.8044 L 132.274,-16.9145 L 132.57,-17.0193 L 132.868,-17.119
 L 133.167,-17.2135 L 133.469,-17.3027 L 133.771,-17.3867 L 134.075,-17.4653 L 134.381,-17.5387 L 134.688,-17.6066
 L 134.995,-17.6693 L 135.304,-17.7265 L 135.614,-17.7784 L 135.925,-17.8248 L 136.236,-17.8658 L 136.548,-17.9014
 L 136.861,-17.9315 L 137.174,-17.9561 L 137.488,-17.9753 L 137.802,-17.989 L 138.116,-17.9973 L 138.43,-18
 L 138.43,-169.96 L 138.116,-169.963 L 137.802,-169.971 L 137.488,-169.985 L 137.174,-170.004 L 136.861,-170.028
 L 136.548,-170.059 L 136.236,-170.094 L 135.925,-170.135 L 135.614,-170.182 L 135.304,-170.233 L 134.995,-170.291
 L 134.688,-170.353 L 134.381,-170.421 L 134.075,-170.495 L 133.771,-170.573 L 133.469,-170.657 L 133.167,-170.747
 L 132.868,-170.841 L 132.57,-170.941 L 132.274,-171.046 L 131.979,-171.156 L 131.687,-171.271 L 131.397,-171.391
 L 131.109,-171.516 L 130.823,-171.646 L 130.539,-171.782 L 130.258,-171.922 L 129.98,-172.067 L 129.703,-172.217
 L 129.43,-172.372 L 129.159,-172.531 L 128.891,-172.695 L 128.626,-172.864 L 128.365,-173.037 L 128.106,-173.215
 L 127.85,-173.398 L 127.597,-173.585 L 127.348,-173.776 L 127.102,-173.971 L 126.86,-174.171 L 126.621,-174.375
 L 126.386,-174.583 L 126.154,-174.796 L 125.926,-175.012 L 125.702,-175.232 L 125.482,-175.456 L 125.266,-175.684
 L 125.053,-175.916 L 124.845,-176.151 L 124.641,-176.39 L 124.441,-176.632 L 124.246,-176.878 L 124.055,-177.127
 L 123.868,-177.38 L 123.685,-177.636 L 123.507,-177.895 L 123.334,-178.156 L 123.165,-178.421 L 123.001,-178.689
 L 122.842,-178.96 L 122.687,-179.233 L 122.537,-179.51 L 122.392,-179.788 L 122.252,-180.069 L 122.116,-180.353
 L 121.986,-180.639 L 121.861,-180.927 L 121.741,-181.217 L 121.626,-181.509 L 121.516,-181.804 L 121.411,-182.1
 L 121.311,-182.398 L 121.217,-182.697 L 121.127,-182.999 L 121.043,-183.301 L 120.965,-183.605 L 120.891,-183.911
 L 120.823,-184.218 L 120.761,-184.525 L 120.703,-184.834 L 120.652,-185.144 L 120.605,-185.455 L 120.564,-185.766
 L 120.529,-186.078 L 120.498,-186.391 L 120.474,-186.704 L 120.455,-187.018 L 120.441,-187.332 L 120.433,-187.646
 L 120.43,-187.96 L 18,-187.96 L 17.9973,-187.646 L 17.989,-187.332 L 17.9753,-187.018 L 17.9561,-186.704
 L 17.9315,-186.391 L 17.9014,-186.078 L 17.8658,-185.766 L 17.8248,-185.455 L 17.7784,-185.144 L 17.7265,-184.834
 L 17.6693,-184.525 L 17.6066,-184.218 L 17.5387,-183.911 L 17.4653,-183.605 L 17.3867,-183.301 L 17.3027,-182.999
 L 17.2135,-182.697 L 17.119,-182.398 L 17.0193,-182.1 L 16.9145,-181.804 L 16.8044,-181.509 L 16.6893,-181.217
 L 16.5691,-180.927 L 16.4438,-180.639 L 16.3135,-180.353 L 16.1783,-180.069 L 16.0381,-179.788 L 15.8931,-179.51
 L 15.7431,-179.233 L 15.5885,-178.96 L 15.429,-178.689 L 15.2649,-178.421 L 15.0961,-178.156 L 14.9227,-177.895
 L 14.7447,-177.636 L 14.5623,-177.38 L 14.3754,-177.127 L 14.1842,-176.878 L 13.9886,-176.632 L 13.7888,-176.39
 L 13.5848,-176.151 L 13.3766,-175.916 L 13.1644,-175.684 L 12.9481,-175.456 L 12.7279,-175.232 L 12.5038,-175.012
 L 12.276,-174.796 L 12.0443,-174.583 L 11.8091,-174.375 L 11.5702,-174.171 L 11.3278,-173.971 L 11.0819,-173.776
 L 10.8327,-173.585 L 10.5801,-173.398 L 10.3244,-173.215 L 10.0655,-173.037 L 9.8035,-172.864 L 9.53854,-172.695
 L 9.27068,-172.531 L 9,-172.372 L 8.72656,-172.217 L 8.45049,-172.067 L 8.17181,-171.922 L 7.89067,-171.782
 L 7.60712,-171.646 L 7.32126,-171.516 L 7.03316,-171.391 L 6.7429,-171.271 L 6.45062,-171.156 L 6.15636,-171.046
 L 5.86021,-170.941 L 5.5623,-170.841 L 5.26268,-170.747 L 4.96147,-170.657 L 4.65874,-170.573 L 4.35458,-170.495
 L 4.04912,-170.421 L 3.7424,-170.353 L 3.43456,-170.291 L 3.12566,-170.233 L 2.81581,-170.182 L 2.50511,-170.135
 L 2.19363,-170.094 L 1.8815,-170.059 L 1.5688,-170.028 L 1.25562,-170.004 L 0.942047,-169.985 L 0.628189,-169.971
 L 0.314133,-169.963 L 0,-169.96 L 0,-18 L 0.314133,-17.9973 L 0.628189,-17.989 L 0.942047,-17.9753
 L 1.25562,-17.9561 L 1.5688,-17.9315 L 1.8815,-17.9014 L 2.19363,-17.8658 L 2.50511,-17.8248 L 2.81581,-17.7784
 L 3.12566,-17.7265 L 3.43456,-17.6693 L 3.7424,-17.6066 L 4.04912,-17.5387 L 4.35458,-17.4653 L 4.65874,-17.3867
 L 4.96147,-17.3027 L 5.26268,-17.2135 L 5.5623,-17.119 L 5.86021,-17.0193 L 6.15636,-16.9145 L 6.45062,-16.8044
 L 6.7429,-16.6893 L 7.03316,-16.5691 L 7.32126,-16.4438 L 7.60712,-16.3135 L 7.89067,-16.1783 L 8.17181,-16.0381
 L 8.45049,-15.8931 L 8.72656,-15.7431 L 9,-15.5885 L 9.27068,-15.429 L 9.53854,-15.2649 L 9.8035,-15.0961
 L 10.0655,-14.9227 L 10.3244,-14.7447 L 10.5801,-14.5623 L 10.8327,-14.3754 L 11.0819,-14.1842 L 11.3278,-13.9886
 L 11.5702,-13.7888 L 11.8091,-13.5848 L 12.0443,-13.3766 L 12.276,-13.1644 L 12.5038,-12.9481 L 12.7279,-12.7279
 L 12.9481,-12.5038 L 13.1644,-12.276 L 13.3766,-12.0443 L 13.5848,-11.8091 L 13.7888,-11.5702 L 13.9886,-11.3278
 L 14.1842,-11.0819 L 14.3754,-10.8327 L 14.5623,-10.5801 L 14.7447,-10.3244 L 14.9227,-10.0655 L 15.0961,-9.8035
 L 15.2649,-9.53854 L 15.429,-9.27068 L 15.5885,-9 L 15.7431,-8.72656 L 15.8931,-8.45049 L 16.0381,-8.17181
 L 16.1783,-7.89067 L 16.3135,-7.60712 L 16.4438,-7.32126 L 16.5691,-7.03316 L 16.6893,-6.7429 L 16.8044,-6.45062
 L 16.9145,-6.15636 L 17.0193,-5.86021 L 17.119,-5.5623 L 17.2135,-5.26268 L 17.3027,-4.96147 L 17.3867,-4.65874
 L 17.4653,-4.35458 L 17.5387,-4.04912 L 17.6066,-3.7424 L 17.6693,-3.43456 L 17.7265,-3.12566 L 17.7784,-2.81581
 L 17.8248,-2.50511 L 17.8658,-2.19363 L 17.9014,-1.8815 L 17.9315,-1.5688 L 17.9561,-1.25562 L 17.9753,-0.942047
 L 17.989,-0.628189 L 17.9973,-0.314133 L 18,-0 L 120.43,-0 z
M 69.167,-171.23 L 69.119,-171.232 L 69.0711,-171.234 L 69.0232,-171.237 L 68.9753,-171.24 L 68.9275,-171.245
 L 68.8799,-171.25 L 68.8323,-171.257 L 68.7848,-171.264 L 68.7375,-171.272 L 68.6903,-171.281 L 68.6432,-171.29
 L 68.5964,-171.3 L 68.5497,-171.312 L 68.5032,-171.324 L 68.457,-171.337 L 68.411,-171.35 L 68.3652,-171.365
 L 68.3197,-171.38 L 68.2744,-171.396 L 68.2295,-171.413 L 68.1848,-171.43 L 68.1405,-171.449 L 68.0965,-171.468
 L 68.0528,-171.488 L 68.0095,-171.508 L 67.9665,-171.53 L 67.924,-171.552 L 67.8818,-171.575 L 67.84,-171.598
 L 67.7986,-171.623 L 67.7577,-171.648 L 67.7172,-171.674 L 67.6772,-171.7 L 67.6377,-171.727 L 67.5986,-171.755
 L 67.56,-171.784 L 67.5219,-171.813 L 67.4844,-171.843 L 67.4473,-171.873 L 67.4108,-171.905 L 67.3749,-171.936
 L 67.3395,-171.969 L 67.3047,-172.002 L 67.2704,-172.035 L 67.2368,-172.07 L 67.2038,-172.104 L 67.1713,-172.14
 L 67.1395,-172.176 L 67.1084,-172.212 L 67.0778,-172.249 L 67.048,-172.287 L 67.0187,-172.325 L 66.9902,-172.364
 L 66.9623,-172.403 L 66.9351,-172.442 L 66.9086,-172.482 L 66.8829,-172.523 L 66.8578,-172.564 L 66.8334,-172.605
 L 66.8098,-172.647 L 66.7869,-172.689 L 66.7647,-172.732 L 66.7433,-172.774 L 66.7226,-172.818 L 66.7027,-172.861
 L 66.6836,-172.905 L 66.6652,-172.95 L 66.6476,-172.994 L 66.6308,-173.039 L 66.6148,-173.085 L 66.5996,-173.13
 L 66.5852,-173.176 L 66.5715,-173.222 L 66.5587,-173.268 L 66.5467,-173.315 L 66.5355,-173.361 L 66.5251,-173.408
 L 66.5155,-173.455 L 66.5068,-173.502 L 66.4989,-173.55 L 66.4918,-173.597 L 66.4855,-173.645 L 66.4801,-173.693
 L 66.4755,-173.74 L 66.4717,-173.788 L 66.4688,-173.836 L 66.4667,-173.884 L 66.4654,-173.932 L 66.465,-173.98
 L 66.4654,-174.028 L 66.4667,-174.076 L 66.4688,-174.124 L 66.4717,-174.172 L 66.4755,-174.22 L 66.4801,-174.267
 L 66.4855,-174.315 L 66.4918,-174.363 L 66.4989,-174.41 L 66.5068,-174.458 L 66.5155,-174.505 L 66.5251,-174.552
 L 66.5355,-174.599 L 66.5467,-174.645 L 66.5587,-174.692 L 66.5715,-174.738 L 66.5852,-174.784 L 66.5996,-174.83
 L 66.6148,-174.875 L 66.6308,-174.921 L 66.6476,-174.965 L 66.6652,-175.01 L 66.6836,-175.055 L 66.7027,-175.099
 L 66.7226,-175.142 L 66.7433,-175.186 L 66.7647,-175.228 L 66.7869,-175.271 L 66.8098,-175.313 L 66.8334,-175.355
 L 66.8578,-175.396 L 66.8829,-175.437 L 66.9086,-175.478 L 66.9351,-175.518 L 66.9623,-175.557 L 66.9902,-175.596
 L 67.0187,-175.635 L 67.048,-175.673 L 67.0778,-175.711 L 67.1084,-175.748 L 67.1395,-175.784 L 67.1713,-175.82
 L 67.2038,-175.855 L 67.2368,-175.89 L 67.2704,-175.925 L 67.3047,-175.958 L 67.3395,-175.991 L 67.3749,-176.024
 L 67.4108,-176.055 L 67.4473,-176.087 L 67.4844,-176.117 L 67.5219,-176.147 L 67.56,-176.176 L 67.5986,-176.205
 L 67.6377,-176.233 L 67.6772,-176.26 L 67.7172,-176.286 L 67.7577,-176.312 L 67.7986,-176.337 L 67.84,-176.362
 L 67.8818,-176.385 L 67.924,-176.408 L 67.9665,-176.43 L 68.0095,-176.452 L 68.0528,-176.472 L 68.0965,-176.492
 L 68.1405,-176.511 L 68.1848,-176.53 L 68.2295,-176.547 L 68.2744,-176.564 L 68.3197,-176.58 L 68.3652,-176.595
 L 68.411,-176.61 L 68.457,-176.623 L 68.5032,-176.636 L 68.5497,-176.648 L 68.5964,-176.66 L 68.6432,-176.67
 L 68.6903,-176.679 L 68.7375,-176.688 L 68.7848,-176.696 L 68.8323,-176.703 L 68.8799,-176.709 L 68.9275,-176.715
 L 68.9753,-176.72 L 69.0232,-176.723 L 69.0711,-176.726 L 69.119,-176.728 L 69.167,-176.73 L 69.215,-176.73
 L 69.263,-176.73 L 69.311,-176.728 L 69.3589,-176.726 L 69.4068,-176.723 L 69.4547,-176.72 L 69.5024,-176.715
 L 69.5501,-176.709 L 69.5977,-176.703 L 69.6452,-176.696 L 69.6925,-176.688 L 69.7397,-176.679 L 69.7867,-176.67
 L 69.8336,-176.66 L 69.8803,-176.648 L 69.9267,-176.636 L 69.973,-176.623 L 70.019,-176.61 L 70.0648,-176.595
 L 70.1103,-176.58 L 70.1555,-176.564 L 70.2005,-176.547 L 70.2452,-176.53 L 70.2895,-176.511 L 70.3335,-176.492
 L 70.3772,-176.472 L 70.4205,-176.452 L 70.4635,-176.43 L 70.506,-176.408 L 70.5482,-176.385 L 70.59,-176.362
 L 70.6313,-176.337 L 70.6723,-176.312 L 70.7128,-176.286 L 70.7528,-176.26 L 70.7923,-176.233 L 70.8314,-176.205
 L 70.87,-176.176 L 70.9081,-176.147 L 70.9456,-176.117 L 70.9827,-176.087 L 71.0191,-176.055 L 71.0551,-176.024
 L 71.0905,-175.991 L 71.1253,-175.958 L 71.1595,-175.925 L 71.1932,-175.89 L 71.2262,-175.855 L 71.2586,-175.82
 L 71.2905,-175.784 L 71.3216,-175.748 L 71.3521,-175.711 L 71.382,-175.673 L 71.4112,-175.635 L 71.4398,-175.596
 L 71.4677,-175.557 L 71.4948,-175.518 L 71.5213,-175.478 L 71.5471,-175.437 L 71.5722,-175.396 L 71.5966,-175.355
 L 71.6202,-175.313 L 71.6431,-175.271 L 71.6653,-175.228 L 71.6867,-175.186 L 71.7073,-175.142 L 71.7272,-175.099
 L 71.7464,-175.055 L 71.7648,-175.01 L 71.7823,-174.965 L 71.7991,-174.921 L 71.8152,-174.875 L 71.8304,-174.83
 L 71.8448,-174.784 L 71.8585,-174.738 L 71.8713,-174.692 L 71.8833,-174.645 L 71.8945,-174.599 L 71.9049,-174.552
 L 71.9145,-174.505 L 71.9232,-174.458 L 71.9311,-174.41 L 71.9382,-174.363 L 71.9445,-174.315 L 71.9499,-174.267
 L 71.9545,-174.22 L 71.9583,-174.172 L 71.9612,-174.124 L 71.9633,-174.076 L 71.9646,-174.028 L 71.965,-173.98
 L 71.9646,-173.932 L 71.9633,-173.884 L 71.9612,-173.836 L 71.9583,-173.788 L 71.9545,-173.74 L 71.9499,-173.693
 L 71.9445,-173.645 L 71.9382,-173.597 L 71.9311,-173.55 L 71.9232,-173.502 L 71.9145,-173.455 L 71.9049,-173.408
 L 71.8945,-173.361 L 71.8833,-173.315 L 71.8713,-173.268 L 71.8585,-173.222 L 71.8448,-173.176 L 71.8304,-173.13
 L 71.8152,-173.085 L 71.7991,-173.039 L 71.7823,-172.994 L 71.7648,-172.95 L 71.7464,-172.905 L 71.7272,-172.861
 L 71.7073,-172.818 L 71.6867,-172.774 L 71.6653,-172.732 L 71.6431,-172.689 L 71.6202,-172.647 L 71.5966,-172.605
 L 71.5722,-172.564 L 71.5471,-172.523 L 71.5213,-172.482 L 71.4948,-172.442 L 71.4677,-172.403 L 71.4398,-172.364
 L 71.4112,-172.325 L 71.382,-172.287 L 71.3521,-172.249 L 71.3216,-172.212 L 71.2905,-172.176 L 71.2586,-172.14
 L 71.2262,-172.104 L 71.1932,-172.07 L 71.1595,-172.035 L 71.1253,-172.002 L 71.0905,-171.969 L 71.0551,-171.936
 L 71.0191,-171.905 L 70.9827,-171.873 L 70.9456,-171.843 L 70.9081,-171.813 L 70.87,-171.784 L 70.8314,-171.755
 L 70.7923,-171.727 L 70.7528,-171.7 L 70.7128,-171.674 L 70.6723,-171.648 L 70.6313,-171.623 L 70.59,-171.598
 L 70.5482,-171.575 L 70.506,-171.552 L 70.4635,-171.53 L 70.4205,-171.508 L 70.3772,-171.488 L 70.3335,-171.468
 L 70.2895,-171.449 L 70.2452,-171.43 L 70.2005,-171.413 L 70.1555,-171.396 L 70.1103,-171.38 L 70.0648,-171.365
 L 70.019,-171.35 L 69.973,-171.337 L 69.9267,-171.324 L 69.8803,-171.312 L 69.8336,-171.3 L 69.7867,-171.29
 L 69.7397,-171.281 L 69.6925,-171.272 L 69.6452,-171.264 L 69.5977,-171.257 L 69.5501,-171.25 L 69.5024,-171.245
 L 69.4547,-171.24 L 69.4068,-171.237 L 69.3589,-171.234 L 69.311,-171.232 L 69.263,-171.23 L 69.215,-171.23
 z
M 69.167,-11.2304 L 69.119,-11.2317 L 69.0711,-11.2338 L 69.0232,-11.2367 L 68.9753,-11.2405 L 68.9275,-11.2451
 L 68.8799,-11.2505 L 68.8323,-11.2568 L 68.7848,-11.2639 L 68.7375,-11.2718 L 68.6903,-11.2805 L 68.6432,-11.2901
 L 68.5964,-11.3005 L 68.5497,-11.3117 L 68.5032,-11.3237 L 68.457,-11.3365 L 68.411,-11.3502 L 68.3652,-11.3646
 L 68.3197,-11.3798 L 68.2744,-11.3958 L 68.2295,-11.4126 L 68.1848,-11.4302 L 68.1405,-11.4486 L 68.0965,-11.4677
 L 68.0528,-11.4876 L 68.0095,-11.5083 L 67.9665,-11.5297 L 67.924,-11.5519 L 67.8818,-11.5748 L 67.84,-11.5984
 L 67.7986,-11.6228 L 67.7577,-11.6479 L 67.7172,-11.6736 L 67.6772,-11.7001 L 67.6377,-11.7273 L 67.5986,-11.7552
 L 67.56,-11.7837 L 67.5219,-11.813 L 67.4844,-11.8428 L 67.4473,-11.8734 L 67.4108,-11.9045 L 67.3749,-11.9363
 L 67.3395,-11.9688 L 67.3047,-12.0018 L 67.2704,-12.0354 L 67.2368,-12.0697 L 67.2038,-12.1045 L 67.1713,-12.1399
 L 67.1395,-12.1758 L 67.1084,-12.2123 L 67.0778,-12.2494 L 67.048,-12.2869 L 67.0187,-12.325 L 66.9902,-12.3636
 L 66.9623,-12.4027 L 66.9351,-12.4422 L 66.9086,-12.4822 L 66.8829,-12.5227 L 66.8578,-12.5636 L 66.8334,-12.605
 L 66.8098,-12.6468 L 66.7869,-12.6889 L 66.7647,-12.7315 L 66.7433,-12.7745 L 66.7226,-12.8178 L 66.7027,-12.8615
 L 66.6836,-12.9055 L 66.6652,-12.9498 L 66.6476,-12.9945 L 66.6308,-13.0394 L 66.6148,-13.0847 L 66.5996,-13.1302
 L 66.5852,-13.176 L 66.5715,-13.222 L 66.5587,-13.2682 L 66.5467,-13.3147 L 66.5355,-13.3614 L 66.5251,-13.4082
 L 66.5155,-13.4553 L 66.5068,-13.5025 L 66.4989,-13.5498 L 66.4918,-13.5973 L 66.4855,-13.6449 L 66.4801,-13.6925
 L 66.4755,-13.7403 L 66.4717,-13.7882 L 66.4688,-13.8361 L 66.4667,-13.884 L 66.4654,-13.932 L 66.465,-13.98
 L 66.4654,-14.028 L 66.4667,-14.076 L 66.4688,-14.1239 L 66.4717,-14.1718 L 66.4755,-14.2197 L 66.4801,-14.2674
 L 66.4855,-14.3151 L 66.4918,-14.3627 L 66.4989,-14.4102 L 66.5068,-14.4575 L 66.5155,-14.5047 L 66.5251,-14.5517
 L 66.5355,-14.5986 L 66.5467,-14.6453 L 66.5587,-14.6917 L 66.5715,-14.738 L 66.5852,-14.784 L 66.5996,-14.8298
 L 66.6148,-14.8753 L 66.6308,-14.9205 L 66.6476,-14.9655 L 66.6652,-15.0102 L 66.6836,-15.0545 L 66.7027,-15.0985
 L 66.7226,-15.1422 L 66.7433,-15.1855 L 66.7647,-15.2285 L 66.7869,-15.271 L 66.8098,-15.3132 L 66.8334,-15.355
 L 66.8578,-15.3963 L 66.8829,-15.4373 L 66.9086,-15.4778 L 66.9351,-15.5178 L 66.9623,-15.5573 L 66.9902,-15.5964
 L 67.0187,-15.635 L 67.048,-15.6731 L 67.0778,-15.7106 L 67.1084,-15.7477 L 67.1395,-15.7841 L 67.1713,-15.8201
 L 67.2038,-15.8555 L 67.2368,-15.8903 L 67.2704,-15.9245 L 67.3047,-15.9582 L 67.3395,-15.9912 L 67.3749,-16.0236
 L 67.4108,-16.0555 L 67.4473,-16.0866 L 67.4844,-16.1171 L 67.5219,-16.147 L 67.56,-16.1762 L 67.5986,-16.2048
 L 67.6377,-16.2327 L 67.6772,-16.2598 L 67.7172,-16.2863 L 67.7577,-16.3121 L 67.7986,-16.3372 L 67.84,-16.3616
 L 67.8818,-16.3852 L 67.924,-16.4081 L 67.9665,-16.4303 L 68.0095,-16.4517 L 68.0528,-16.4723 L 68.0965,-16.4922
 L 68.1405,-16.5114 L 68.1848,-16.5298 L 68.2295,-16.5473 L 68.2744,-16.5641 L 68.3197,-16.5802 L 68.3652,-16.5954
 L 68.411,-16.6098 L 68.457,-16.6235 L 68.5032,-16.6363 L 68.5497,-16.6483 L 68.5964,-16.6595 L 68.6432,-16.6699
 L 68.6903,-16.6795 L 68.7375,-16.6882 L 68.7848,-16.6961 L 68.8323,-16.7032 L 68.8799,-16.7095 L 68.9275,-16.7149
 L 68.9753,-16.7195 L 69.0232,-16.7233 L 69.0711,-16.7262 L 69.119,-16.7283 L 69.167,-16.7296 L 69.215,-16.73
 L 69.263,-16.7296 L 69.311,-16.7283 L 69.3589,-16.7262 L 69.4068,-16.7233 L 69.4547,-16.7195 L 69.5024,-16.7149
 L 69.5501,-16.7095 L 69.5977,-16.7032 L 69.6452,-16.6961 L 69.6925,-16.6882 L 69.7397,-16.6795 L 69.7867,-16.6699
 L 69.8336,-16.6595 L 69.8803,-16.6483 L 69.9267,-16.6363 L 69.973,-16.6235 L 70.019,-16.6098 L 70.0648,-16.5954
 L 70.1103,-16.5802 L 70.1555,-16.5641 L 70.2005,-16.5473 L 70.2452,-16.5298 L 70.2895,-16.5114 L 70.3335,-16.4922
 L 70.3772,-16.4723 L 70.4205,-16.4517 L 70.4635,-16.4303 L 70.506,-16.4081 L 70.5482,-16.3852 L 70.59,-16.3616
 L 70.6313,-16.3372 L 70.6723,-16.3121 L 70.7128,-16.2863 L 70.7528,-16.2598 L 70.7923,-16.2327 L 70.8314,-16.2048
 L 70.87,-16.1762 L 70.9081,-16.147 L 70.9456,-16.1171 L 70.9827,-16.0866 L 71.0191,-16.0555 L 71.0551,-16.0236
 L 71.0905,-15.9912 L 71.1253,-15.9582 L 71.1595,-15.9245 L 71.1932,-15.8903 L 71.2262,-15.8555 L 71.2586,-15.8201
 L 71.2905,-15.7841 L 71.3216,-15.7477 L 71.3521,-15.7106 L 71.382,-15.6731 L 71.4112,-15.635 L 71.4398,-15.5964
 L 71.4677,-15.5573 L 71.4948,-15.5178 L 71.5213,-15.4778 L 71.5471,-15.4373 L 71.5722,-15.3963 L 71.5966,-15.355
 L 71.6202,-15.3132 L 71.6431,-15.271 L 71.6653,-15.2285 L 71.6867,-15.1855 L 71.7073,-15.1422 L 71.7272,-15.0985
 L 71.7464,-15.0545 L 71.7648,-15.0102 L 71.7823,-14.9655 L 71.7991,-14.9205 L 71.8152,-14.8753 L 71.8304,-14.8298
 L 71.8448,-14.784 L 71.8585,-14.738 L 71.8713,-14.6917 L 71.8833,-14.6453 L 71.8945,-14.5986 L 71.9049,-14.5517
 L 71.9145,-14.5047 L 71.9232,-14.4575 L 71.9311,-14.4102 L 71.9382,-14.3627 L 71.9445,-14.3151 L 71.9499,-14.2674
 L 71.9545,-14.2197 L 71.9583,-14.1718 L 71.9612,-14.1239 L 71.9633,-14.076 L 71.9646,-14.028 L 71.965,-13.98
 L 71.9646,-13.932 L 71.9633,-13.884 L 71.9612,-13.8361 L 71.9583,-13.7882 L 71.9545,-13.7403 L 71.9499,-13.6925
 L 71.9445,-13.6449 L 71.9382,-13.5973 L 71.9311,-13.5498 L 71.9232,-13.5025 L 71.9145,-13.4553 L 71.9049,-13.4082
 L 71.8945,-13.3614 L 71.8833,-13.3147 L 71.8713,-13.2682 L 71.8585,-13.222 L 71.8448,-13.176 L 71.8304,-13.1302
 L 71.8152,-13.0847 L 71.7991,-13.0394 L 71.7823,-12.9945 L 71.7648,-12.9498 L 71.7464,-12.9055 L 71.7272,-12.8615
 L 71.7073,-12.8178 L 71.6867,-12.7745 L 71.6653,-12.7315 L 71.6431,-12.6889 L 71.6202,-12.6468 L 71.5966,-12.605
 L 71.5722,-12.5636 L 71.5471,-12.5227 L 71.5213,-12.4822 L 71.4948,-12.4422 L 71.4677,-12.4027 L 71.4398,-12.3636
 L 71.4112,-12.325 L 71.382,-12.2869 L 71.3521,-12.2494 L 71.3216,-12.2123 L 71.2905,-12.1758 L 71.2586,-12.1399
 L 71.2262,-12.1045 L 71.1932,-12.0697 L 71.1595,-12.0354 L 71.1253,-12.0018 L 71.0905,-11.9688 L 71.0551,-11.9363
 L 71.0191,-11.9045 L 70.9827,-11.8734 L 70.9456,-11.8428 L 70.9081,-11.813 L 70.87,-11.7837 L 70.8314,-11.7552
 L 70.7923,-11.7273 L 70.7528,-11.7001 L 70.7128,-11.6736 L 70.6723,-11.6479 L 70.6313,-11.6228 L 70.59,-11.5984
 L 70.5482,-11.5748 L 70.506,-11.5519 L 70.4635,-11.5297 L 70.4205,-11.5083 L 70.3772,-11.4876 L 70.3335,-11.4677
 L 70.2895,-11.4486 L 70.2452,-11.4302 L 70.2005,-11.4126 L 70.1555,-11.3958 L 70.1103,-11.3798 L 70.0648,-11.3646
 L 70.019,-11.3502 L 69.973,-11.3365 L 69.9267,-11.3237 L 69.8803,-11.3117 L 69.8336,-11.3005 L 69.7867,-11.2901
 L 69.7397,-11.2805 L 69.6925,-11.2718 L 69.6452,-11.2639 L 69.5977,-11.2568 L 69.5501,-11.2505 L 69.5024,-11.2451
 L 69.4547,-11.2405 L 69.4068,-11.2367 L 69.3589,-11.2338 L 69.311,-11.2317 L 69.263,-11.2304 L 69.215,-11.23
 z
" stroke="black" fill="lightgray" stroke-width="0.5"/>
</svg>
