<?xml version="1.0" standalone="no"?>
<!DOCTYPE svg PUBLIC "-//W3C//DTD SVG 1.1//EN" "http://www.w3.org/Graphics/SVG/1.1/DTD/svg11.dtd">
<svg width="139mm" height="188mm" viewBox="0 -188 139 188" xmlns="http://www.w3.org/2000/svg" version="1.1">
<title>OpenSCAD Model</title>
<path d="
M 129.431,-0.157059 L 129.435,-0.314087 L 129.442,-0.471024 L 129.452,-0.627808 L 129.464,-0.784393 L 129.479,-0.94075
 L 129.497,-1.09682 L 129.518,-1.25255 L 129.541,-1.4079 L 129.567,-1.56282 L 129.595,-1.71727 L 129.627,-1.8712
 L 129.661,-2.02455 L 129.697,-2.17729 L 129.737,-2.32936 L 129.779,-2.48073 L 129.823,-2.63133 L 129.87,-2.78114
 L 129.92,-2.9301 L 129.973,-3.07817 L 130.028,-3.22531 L 130.085,-3.37144 L 130.145,-3.51657 L 130.208,-3.66063
 L 130.273,-3.80356 L 130.341,-3.94533 L 130.411,-4.08591 L 130.483,-4.22523 L 130.558,-4.36328 L 130.636,-4.5
 L 130.715,-4.63533 L 130.798,-4.76927 L 130.882,-4.90175 L 130.969,-5.03273 L 131.058,-5.16219 L 131.149,-5.29005
 L 131.242,-5.41632 L 131.338,-5.54094 L 131.436,-5.66388 L 131.536,-5.78508 L 131.638,-5.90453 L 131.742,-6.02217
 L 131.848,-6.13799 L 131.956,-6.25192 L 132.066,-6.36395 L 132.178,-6.47404 L 132.292,-6.58217 L 132.408,-6.68829
 L 132.525,-6.79237 L 132.645,-6.89439 L 132.766,-6.99431 L 132.889,-7.09209 L 133.014,-7.18771 L 133.14,-7.28114
 L 133.268,-7.37236 L 133.397,-7.46133 L 133.528,-7.54803 L 133.661,-7.63243 L 133.795,-7.71449 L 133.93,-7.79422
 L 134.067,-7.87157 L 134.205,-7.94652 L 134.344,-8.01906 L 134.485,-8.08914 L 134.626,-8.15677 L 134.769,-8.22191
 L 134.913,-8.28453 L 135.059,-8.34465 L 135.205,-8.40222 L 135.352,-8.45723 L 135.5,-8.50966 L 135.649,-8.55949
 L 135.799,-8.60674 L 135.949,-8.65135 L 136.101,-8.69333 L 136.253,-8.73265 L 136.405,-8.76932 L 136.559,-8.80331
 L 136.713,-8.83464 L 136.867,-8.86327 L 137.022,-8.88919 L 137.177,-8.9124 L 137.333,-8.93291 L 137.489,-8.95068
 L 137.646,-8.96574 L 137.802,-8.97807 L 137.959,-8.98766 L 138.116,-8.99451 L 138.273,-8.99863 L 138.43,-9
 L 138.43,-178.96 L 138.273,-178.961 L 138.116,-178.965 L 137.959,-178.972 L 137.802,-178.982 L 137.646,-178.994
 L 137.489,-179.009 L 137.333,-179.027 L 137.177,-179.048 L 137.022,-179.071 L 136.867,-179.097 L 136.713,-179.125
 L 136.559,-179.157 L 136.405,-179.191 L 136.253,-179.227 L 136.101,-179.267 L 135.949,-179.309 L 135.799,-179.353
 L 135.649,-179.4 L 135.5,-179.45 L 135.352,-179.503 L 135.205,-179.558 L 135.059,-179.615 L 134.913,-179.675
 L 134.769,-179.738 L 134.626,-179.803 L 134.485,-179.871 L 134.344,-179.941 L 134.205,-180.013 L 134.067,-180.088
 L 133.93,-180.166 L 133.795,-180.245 L 133.661,-180.328 L 133.528,-180.412 L 133.397,-180.499 L 133.268,-180.588
 L 133.14,-180.679 L 133.014,-180.772 L 132.889,-180.868 L 132.766,-180.966 L 132.645,-181.066 L 132.525,-181.168
 L 132.408,-181.272 L 132.292,-181.378 L 132.178,-181.486 L 132.066,-181.596 L 131.956,-181.708 L 131.848,-181.822
 L 131.742,-181.938 L 131.638,-182.055 L 131.536,-182.175 L 131.436,-182.296 L 131.338,-182.419 L 131.242,-182.544
 L 131.149,-182.67 L 131.058,-182.798 L 130.969,-182.927 L 130.882,-183.058 L 130.798,-183.191 L 130.715,-183.325
 L 130.636,-183.46 L 130.558,-183.597 L 130.483,-183.735 L 130.411,-183.874 L 130.341,-184.015 L 130.273,-184.156
 L 130.208,-184.299 L 130.145,-184.443 L 130.085,-184.589 L 130.028,-184.735 L 129.973,-184.882 L 129.92,-185.03
 L 129.87,-185.179 L 129.823,-185.329 L 129.779,-185.479 L 129.737,-185.631 L 129.697,-185.783 L 129.661,-185.935
 L 129.627,-186.089 L 129.595,-186.243 L 129.567,-186.397 L 129.541,-186.552 L 129.518,-186.707 L 129.497,-186.863
 L 129.479,-187.019 L 129.464,-187.176 L 129.452,-187.332 L 129.442,-187.489 L 129.435,-187.646 L 129.431,-187.803
 L 129.43,-187.96 L 9,-187.96 L 8.99863,-187.803 L 8.99451,-187.646 L 8.98766,-187.489 L 8.97807,-187.332
 L 8.96574,-187.176 L 8.95068,-187.019 L 8.93291,-186.863 L 8.9124,-186.707 L 8.88919,-186.552 L 8.86327,-186.397
 L 8.83464,-186.243 L 8.80331,-186.089 L 8.76932,-185.935 L 8.73265,-185.783 L 8.69333,-185.631 L 8.65135,-185.479
 L 8.60674,-185.329 L 8.55949,-185.179 L 8.50966,-185.03 L 8.45723,-184.882 L 8.40222,-184.735 L 8.34465,-184.589
 L 8.28453,-184.443 L 8.22191,-184.299 L 8.15677,-184.156 L 8.08914,-184.015 L 8.01906,-183.874 L 7.94652,-183.735
 L 7.87157,-183.597 L 7.79422,-183.46 L 7.71449,-183.325 L 7.63243,-183.191 L 7.54803,-183.058 L 7.46133,-182.927
 L 7.37236,-182.798 L 7.28114,-182.67 L 7.18771,-182.544 L 7.09209,-182.419 L 6.99431,-182.296 L 6.89439,-182.175
 L 6.79237,-182.055 L 6.68829,-181.938 L 6.58217,-181.822 L 6.47404,-181.708 L 6.36395,-181.596 L 6.25192,-181.486
 L 6.13799,-181.378 L 6.02217,-181.272 L 5.90453,-181.168 L 5.78508,-181.066 L 5.66388,-180.966 L 5.54094,-180.868
 L 5.41632,-180.772 L 5.29005,-180.679 L 5.16219,-180.588 L 5.03273,-180.499 L 4.90175,-180.412 L 4.76927,-180.328
 L 4.63533,-180.245 L 4.5,-180.166 L 4.36328,-180.088 L 4.22523,-180.013 L 4.08591,-179.941 L 3.94533,-179.871
 L 3.80356,-179.803 L 3.66063,-179.738 L 3.51657,-179.675 L 3.37144,-179.615 L 3.22531,-179.558 L 3.07817,-179.503
 L 2.9301,-179.45 L 2.78114,-179.4 L 2.63133,-179.353 L 2.48073,-179.309 L 2.32936,-179.267 L 2.17729,-179.227
 L 2.02455,-179.191 L 1.8712,-179.157 L 1.71727,-179.125 L 1.56282,-179.097 L 1.4079,-179.071 L 1.25255,-179.048
 L 1.09682,-179.027 L 0.94075,-179.009 L 0.784393,-178.994 L 0.627808,-178.982 L 0.471024,-178.972 L 0.314087,-178.965
 L 0.157059,-178.961 L 0,-178.96 L 0,-9 L 0.157059,-8.99863 L 0.314087,-8.99451 L 0.471024,-8.98766
 L 0.627808,-8.97807 L 0.784393,-8.96574 L 0.94075,-8.95068 L 1.09682,-8.93291 L 1.25255,-8.9124 L 1.4079,-8.88919
 L 1.56282,-8.86327 L 1.71727,-8.83464 L 1.8712,-8.80331 L 2.02455,-8.76932 L 2.17729,-8.73265 L 2.32936,-8.69333
 L 2.48073,-8.65135 L 2.63133,-8.60674 L 2.78114,-8.55949 L 2.9301,-8.50966 L 3.07817,-8.45723 L 3.22531,-8.40222
 L 3.37144,-8.34465 L 3.51657,-8.28453 L 3.66063,-8.22191 L 3.80356,-8.15677 L 3.94533,-8.08914 L 4.08591,-8.01906
 L 4.22523,-7.94652 L 4.36328,-7.87157 L 4.5,-7.79422 L 4.63533,-7.71449 L 4.76927,-7.63243 L 4.90175,-7.54803
 L 5.03273,-7.46133 L 5.16219,-7.37236 L 5.29005,-7.28114 L 5.41632,-7.18771 L 5.54094,-7.09209 L 5.66388,-6.99431
 L 5.78508,-6.89439 L 5.90453,-6.79237 L 6.02217,-6.68829 L 6.13799,-6.58217 L 6.25192,-6.47404 L 6.36395,-6.36395
 L 6.47404,-6.25192 L 6.58217,-6.13799 L 6.68829,-6.02217 L 6.79237,-5.90453 L 6.89439,-5.78508 L 6.99431,-5.66388
 L 7.09209,-5.54094 L 7.18771,-5.41632 L 7.28114,-5.29005 L 7.37236,-5.16219 L 7.46133,-5.03273 L 7.54803,-4.90175
 L 7.63243,-4.76927 L 7.71449,-4.63533 L 7.79422,-4.5 L 7.87157,-4.36328 L 7.94652,-4.22523 L 8.01906,-4.08591
 L 8.08914,-3.94533 L 8.15677,-3.80356 L 8.22191,-3.66063 L 8.28453,-3.51657 L 8.34465,-3.37144 L 8.40222,-3.22531
 L 8.45723,-3.07817 L 8.50966,-2.9301 L 8.55949,-2.78114 L 8.60674,-2.63133 L 8.65135,-2.48073 L 8.69333,-2.32936
 L 8.73265,-2.17729 L 8.76932,-2.02455 L 8.80331,-1.8712 L 8.83464,-1.71727 L 8.86327,-1.56282 L 8.88919,-1.4079
 L 8.9124,-1.25255 L 8.93291,-1.09682 L 8.95068,-0.94075 L 8.96574,-0.784393 L 8.97807,-0.627808 L 8.98766,-0.471024
 L 8.99451,-0.314087 L 8.99863,-0.157059 L 9,-0 L 129.43,-0 z
M 69.1583,-170.73 L 69.1016,-170.732 L 69.0449,-170.734 L 68.9883,-170.738 L 68.9317,-170.742 L 68.8753,-170.748
 L 68.8189,-170.754 L 68.7627,-170.762 L 68.7066,-170.77 L 68.6506,-170.779 L 68.5949,-170.79 L 68.5393,-170.801
 L 68.4839,-170.813 L 68.4287,-170.827 L 68.3738,-170.841 L 68.3192,-170.856 L 68.2648,-170.872 L 68.2107,-170.889
 L 68.1569,-170.907 L 68.1034,-170.926 L 68.0503,-170.946 L 67.9975,-170.967 L 67.9451,-170.988 L 67.8931,-171.011
 L 67.8415,-171.034 L 67.7903,-171.059 L 67.7395,-171.084 L 67.6892,-171.11 L 67.6394,-171.137 L 67.59,-171.165
 L 67.5411,-171.194 L 67.4928,-171.224 L 67.4449,-171.254 L 67.3976,-171.286 L 67.3509,-171.318 L 67.3047,-171.351
 L 67.2591,-171.384 L 67.2141,-171.419 L 67.1697,-171.454 L 67.1259,-171.49 L 67.0828,-171.527 L 67.0403,-171.565
 L 66.9985,-171.603 L 66.9574,-171.642 L 66.9169,-171.682 L 66.8771,-171.722 L 66.8381,-171.764 L 66.7998,-171.805
 L 66.7622,-171.848 L 66.7253,-171.891 L 66.6893,-171.935 L 66.654,-171.979 L 66.6194,-172.024 L 66.5857,-172.07
 L 66.5527,-172.116 L 66.5206,-172.163 L 66.4893,-172.21 L 66.4588,-172.258 L 66.4292,-172.306 L 66.4004,-172.355
 L 66.3725,-172.404 L 66.3454,-172.454 L 66.3192,-172.505 L 66.2939,-172.555 L 66.2695,-172.606 L 66.246,-172.658
 L 66.2234,-172.71 L 66.2016,-172.763 L 66.1809,-172.815 L 66.161,-172.868 L 66.1421,-172.922 L 66.1241,-172.976
 L 66.107,-173.03 L 66.0909,-173.084 L 66.0757,-173.139 L 66.0615,-173.194 L 66.0483,-173.249 L 66.036,-173.304
 L 66.0247,-173.36 L 66.0144,-173.416 L 66.005,-173.472 L 65.9966,-173.528 L 65.9892,-173.584 L 65.9828,-173.64
 L 65.9774,-173.697 L 65.9729,-173.753 L 65.9695,-173.81 L 65.967,-173.867 L 65.9655,-173.923 L 65.965,-173.98
 L 65.9655,-174.037 L 65.967,-174.093 L 65.9695,-174.15 L 65.9729,-174.207 L 65.9774,-174.263 L 65.9828,-174.32
 L 65.9892,-174.376 L 65.9966,-174.432 L 66.005,-174.488 L 66.0144,-174.544 L 66.0247,-174.6 L 66.036,-174.656
 L 66.0483,-174.711 L 66.0615,-174.766 L 66.0757,-174.821 L 66.0909,-174.876 L 66.107,-174.93 L 66.1241,-174.984
 L 66.1421,-175.038 L 66.161,-175.092 L 66.1809,-175.145 L 66.2016,-175.197 L 66.2234,-175.25 L 66.246,-175.302
 L 66.2695,-175.354 L 66.2939,-175.405 L 66.3192,-175.455 L 66.3454,-175.506 L 66.3725,-175.556 L 66.4004,-175.605
 L 66.4292,-175.654 L 66.4588,-175.702 L 66.4893,-175.75 L 66.5206,-175.797 L 66.5527,-175.844 L 66.5857,-175.89
 L 66.6194,-175.936 L 66.654,-175.981 L 66.6893,-176.025 L 66.7253,-176.069 L 66.7622,-176.112 L 66.7998,-176.155
 L 66.8381,-176.196 L 66.8771,-176.238 L 66.9169,-176.278 L 66.9574,-176.318 L 66.9985,-176.357 L 67.0403,-176.395
 L 67.0828,-176.433 L 67.1259,-176.47 L 67.1697,-176.506 L 67.2141,-176.541 L 67.2591,-176.576 L 67.3047,-176.609
 L 67.3509,-176.642 L 67.3976,-176.674 L 67.4449,-176.706 L 67.4928,-176.736 L 67.5411,-176.766 L 67.59,-176.795
 L 67.6394,-176.823 L 67.6892,-176.85 L 67.7395,-176.876 L 67.7903,-176.901 L 67.8415,-176.925 L 67.8931,-176.949
 L 67.9451,-176.972 L 67.9975,-176.993 L 68.0503,-177.014 L 68.1034,-177.034 L 68.1569,-177.053 L 68.2107,-177.071
 L 68.2648,-177.088 L 68.3192,-177.104 L 68.3738,-177.119 L 68.4287,-177.133 L 68.4839,-177.147 L 68.5393,-177.159
 L 68.5949,-177.17 L 68.6506,-177.181 L 68.7066,-177.19 L 68.7627,-177.198 L 68.8189,-177.206 L 68.8753,-177.212
 L 68.9317,-177.218 L 68.9883,-177.222 L 69.0449,-177.226 L 69.1016,-177.228 L 69.1583,-177.229 L 69.215,-177.23
 L 69.2717,-177.229 L 69.3284,-177.228 L 69.3851,-177.226 L 69.4417,-177.222 L 69.4982,-177.218 L 69.5547,-177.212
 L 69.6111,-177.206 L 69.6673,-177.198 L 69.7234,-177.19 L 69.7793,-177.181 L 69.8351,-177.17 L 69.8907,-177.159
 L 69.9461,-177.147 L 70.0012,-177.133 L 70.0562,-177.119 L 70.1108,-177.104 L 70.1652,-177.088 L 70.2193,-177.071
 L 70.2731,-177.053 L 70.3266,-177.034 L 70.3797,-177.014 L 70.4325,-176.993 L 70.4849,-176.972 L 70.5369,-176.949
 L 70.5885,-176.925 L 70.6397,-176.901 L 70.6905,-176.876 L 70.7408,-176.85 L 70.7906,-176.823 L 70.84,-176.795
 L 70.8889,-176.766 L 70.9372,-176.736 L 70.9851,-176.706 L 71.0324,-176.674 L 71.0791,-176.642 L 71.1253,-176.609
 L 71.1709,-176.576 L 71.2159,-176.541 L 71.2603,-176.506 L 71.304,-176.47 L 71.3472,-176.433 L 71.3897,-176.395
 L 71.4315,-176.357 L 71.4726,-176.318 L 71.5131,-176.278 L 71.5528,-176.238 L 71.5919,-176.196 L 71.6302,-176.155
 L 71.6678,-176.112 L 71.7046,-176.069 L 71.7407,-176.025 L 71.776,-175.981 L 71.8106,-175.936 L 71.8443,-175.89
 L 71.8772,-175.844 L 71.9094,-175.797 L 71.9407,-175.75 L 71.9711,-175.702 L 72.0008,-175.654 L 72.0296,-175.605
 L 72.0575,-175.556 L 72.0846,-175.506 L 72.1108,-175.455 L 72.1361,-175.405 L 72.1605,-175.354 L 72.184,-175.302
 L 72.2066,-175.25 L 72.2283,-175.197 L 72.2491,-175.145 L 72.269,-175.092 L 72.2879,-175.038 L 72.3059,-174.984
 L 72.323,-174.93 L 72.3391,-174.876 L 72.3542,-174.821 L 72.3685,-174.766 L 72.3817,-174.711 L 72.394,-174.656
 L 72.4053,-174.6 L 72.4156,-174.544 L 72.425,-174.488 L 72.4334,-174.432 L 72.4408,-174.376 L 72.4472,-174.32
 L 72.4526,-174.263 L 72.4571,-174.207 L 72.4605,-174.15 L 72.463,-174.093 L 72.4645,-174.037 L 72.465,-173.98
 L 72.4645,-173.923 L 72.463,-173.867 L 72.4605,-173.81 L 72.4571,-173.753 L 72.4526,-173.697 L 72.4472,-173.64
 L 72.4408,-173.584 L 72.4334,-173.528 L 72.425,-173.472 L 72.4156,-173.416 L 72.4053,-173.36 L 72.394,-173.304
 L 72.3817,-173.249 L 72.3685,-173.194 L 72.3542,-173.139 L 72.3391,-173.084 L 72.323,-173.03 L 72.3059,-172.976
 L 72.2879,-172.922 L 72.269,-172.868 L 72.2491,-172.815 L 72.2283,-172.763 L 72.2066,-172.71 L 72.184,-172.658
 L 72.1605,-172.606 L 72.1361,-172.555 L 72.1108,-172.505 L 72.0846,-172.454 L 72.0575,-172.404 L 72.0296,-172.355
 L 72.0008,-172.306 L 71.9711,-172.258 L 71.9407,-172.21 L 71.9094,-172.163 L 71.8772,-172.116 L 71.8443,-172.07
 L 71.8106,-172.024 L 71.776,-171.979 L 71.7407,-171.935 L 71.7046,-171.891 L 71.6678,-171.848 L 71.6302,-171.805
 L 71.5919,-171.764 L 71.5528,-171.722 L 71.5131,-171.682 L 71.4726,-171.642 L 71.4315,-171.603 L 71.3897,-171.565
 L 71.3472,-171.527 L 71.304,-171.49 L 71.2603,-171.454 L 71.2159,-171.419 L 71.1709,-171.384 L 71.1253,-171.351
 L 71.0791,-171.318 L 71.0324,-171.286 L 70.9851,-171.254 L 70.9372,-171.224 L 70.8889,-171.194 L 70.84,-171.165
 L 70.7906,-171.137 L 70.7408,-171.11 L 70.6905,-171.084 L 70.6397,-171.059 L 70.5885,-171.034 L 70.5369,-171.011
 L 70.4849,-170.988 L 70.4325,-170.967 L 70.3797,-170.946 L 70.3266,-170.926 L 70.2731,-170.907 L 70.2193,-170.889
 L 70.1652,-170.872 L 70.1108,-170.856 L 70.0562,-170.841 L 70.0012,-170.827 L 69.9461,-170.813 L 69.8907,-170.801
 L 69.8351,-170.79 L 69.7793,-170.779 L 69.7234,-170.77 L 69.6673,-170.762 L 69.6111,-170.754 L 69.5547,-170.748
 L 69.4982,-170.742 L 69.4417,-170.738 L 69.3851,-170.734 L 69.3284,-170.732 L 69.2717,-170.73 L 69.215,-170.73
 z
M 69.1583,-10.7305 L 69.1016,-10.732 L 69.0449,-10.7345 L 68.9883,-10.7379 L 68.9317,-10.7424 L 68.8753,-10.7478
 L 68.8189,-10.7542 L 68.7627,-10.7616 L 68.7066,-10.77 L 68.6506,-10.7794 L 68.5949,-10.7897 L 68.5393,-10.801
 L 68.4839,-10.8133 L 68.4287,-10.8265 L 68.3738,-10.8407 L 68.3192,-10.8559 L 68.2648,-10.872 L 68.2107,-10.8891
 L 68.1569,-10.9071 L 68.1034,-10.926 L 68.0503,-10.9459 L 67.9975,-10.9666 L 67.9451,-10.9884 L 67.8931,-11.011
 L 67.8415,-11.0345 L 67.7903,-11.0589 L 67.7395,-11.0842 L 67.6892,-11.1104 L 67.6394,-11.1375 L 67.59,-11.1654
 L 67.5411,-11.1942 L 67.4928,-11.2238 L 67.4449,-11.2543 L 67.3976,-11.2856 L 67.3509,-11.3177 L 67.3047,-11.3507
 L 67.2591,-11.3844 L 67.2141,-11.419 L 67.1697,-11.4543 L 67.1259,-11.4903 L 67.0828,-11.5272 L 67.0403,-11.5648
 L 66.9985,-11.6031 L 66.9574,-11.6421 L 66.9169,-11.6819 L 66.8771,-11.7224 L 66.8381,-11.7635 L 66.7998,-11.8053
 L 66.7622,-11.8478 L 66.7253,-11.8909 L 66.6893,-11.9347 L 66.654,-11.9791 L 66.6194,-12.0241 L 66.5857,-12.0697
 L 66.5527,-12.1159 L 66.5206,-12.1626 L 66.4893,-12.2099 L 66.4588,-12.2578 L 66.4292,-12.3061 L 66.4004,-12.355
 L 66.3725,-12.4044 L 66.3454,-12.4542 L 66.3192,-12.5045 L 66.2939,-12.5553 L 66.2695,-12.6065 L 66.246,-12.6581
 L 66.2234,-12.7101 L 66.2016,-12.7625 L 66.1809,-12.8153 L 66.161,-12.8684 L 66.1421,-12.9219 L 66.1241,-12.9757
 L 66.107,-13.0298 L 66.0909,-13.0842 L 66.0757,-13.1388 L 66.0615,-13.1937 L 66.0483,-13.2489 L 66.036,-13.3043
 L 66.0247,-13.3599 L 66.0144,-13.4156 L 66.005,-13.4716 L 65.9966,-13.5277 L 65.9892,-13.5839 L 65.9828,-13.6403
 L 65.9774,-13.6967 L 65.9729,-13.7533 L 65.9695,-13.8099 L 65.967,-13.8666 L 65.9655,-13.9233 L 65.965,-13.98
 L 65.9655,-14.0367 L 65.967,-14.0934 L 65.9695,-14.1501 L 65.9729,-14.2067 L 65.9774,-14.2632 L 65.9828,-14.3197
 L 65.9892,-14.3761 L 65.9966,-14.4323 L 66.005,-14.4884 L 66.0144,-14.5443 L 66.0247,-14.6001 L 66.036,-14.6557
 L 66.0483,-14.7111 L 66.0615,-14.7662 L 66.0757,-14.8212 L 66.0909,-14.8758 L 66.107,-14.9302 L 66.1241,-14.9843
 L 66.1421,-15.0381 L 66.161,-15.0916 L 66.1809,-15.1447 L 66.2016,-15.1975 L 66.2234,-15.2499 L 66.246,-15.3019
 L 66.2695,-15.3535 L 66.2939,-15.4047 L 66.3192,-15.4555 L 66.3454,-15.5058 L 66.3725,-15.5556 L 66.4004,-15.605
 L 66.4292,-15.6539 L 66.4588,-15.7022 L 66.4893,-15.7501 L 66.5206,-15.7974 L 66.5527,-15.8441 L 66.5857,-15.8903
 L 66.6194,-15.9359 L 66.654,-15.9809 L 66.6893,-16.0253 L 66.7253,-16.069 L 66.7622,-16.1122 L 66.7998,-16.1547
 L 66.8381,-16.1965 L 66.8771,-16.2376 L 66.9169,-16.2781 L 66.9574,-16.3178 L 66.9985,-16.3569 L 67.0403,-16.3952
 L 67.0828,-16.4328 L 67.1259,-16.4696 L 67.1697,-16.5057 L 67.2141,-16.541 L 67.2591,-16.5756 L 67.3047,-16.6093
 L 67.3509,-16.6422 L 67.3976,-16.6744 L 67.4449,-16.7057 L 67.4928,-16.7361 L 67.5411,-16.7658 L 67.59,-16.7946
 L 67.6394,-16.8225 L 67.6892,-16.8496 L 67.7395,-16.8758 L 67.7903,-16.9011 L 67.8415,-16.9255 L 67.8931,-16.949
 L 67.9451,-16.9716 L 67.9975,-16.9933 L 68.0503,-17.0141 L 68.1034,-17.034 L 68.1569,-17.0529 L 68.2107,-17.0709
 L 68.2648,-17.088 L 68.3192,-17.1041 L 68.3738,-17.1192 L 68.4287,-17.1335 L 68.4839,-17.1467 L 68.5393,-17.159
 L 68.5949,-17.1703 L 68.6506,-17.1806 L 68.7066,-17.19 L 68.7627,-17.1984 L 68.8189,-17.2058 L 68.8753,-17.2122
 L 68.9317,-17.2176 L 68.9883,-17.2221 L 69.0449,-17.2255 L 69.1016,-17.228 L 69.1583,-17.2295 L 69.215,-17.23
 L 69.2717,-17.2295 L 69.3284,-17.228 L 69.3851,-17.2255 L 69.4417,-17.2221 L 69.4982,-17.2176 L 69.5547,-17.2122
 L 69.6111,-17.2058 L 69.6673,-17.1984 L 69.7234,-17.19 L 69.7793,-17.1806 L 69.8351,-17.1703 L 69.8907,-17.159
 L 69.9461,-17.1467 L 70.0012,-17.1335 L 70.0562,-17.1192 L 70.1108,-17.1041 L 70.1652,-17.088 L 70.2193,-17.0709
 L 70.2731,-17.0529 L 70.3266,-17.034 L 70.3797,-17.0141 L 70.4325,-16.9933 L 70.4849,-16.9716 L 70.5369,-16.949
 L 70.5885,-16.9255 L 70.6397,-16.9011 L 70.6905,-16.8758 L 70.7408,-16.8496 L 70.7906,-16.8225 L 70.84,-16.7946
 L 70.8889,-16.7658 L 70.9372,-16.7361 L 70.9851,-16.7057 L 71.0324,-16.6744 L 71.0791,-16.6422 L 71.1253,-16.6093
 L 71.1709,-16.5756 L 71.2159,-16.541 L 71.2603,-16.5057 L 71.304,-16.4696 L 71.3472,-16.4328 L 71.3897,-16.3952
 L 71.4315,-16.3569 L 71.4726,-16.3178 L 71.5131,-16.2781 L 71.5528,-16.2376 L 71.5919,-16.1965 L 71.6302,-16.1547
 L 71.6678,-16.1122 L 71.7046,-16.069 L 71.7407,-16.0253 L 71.776,-15.9809 L 71.8106,-15.9359 L 71.8443,-15.8903
 L 71.8772,-15.8441 L 71.9094,-15.7974 L 71.9407,-15.7501 L 71.9711,-15.7022 L 72.0008,-15.6539 L 72.0296,-15.605
 L 72.0575,-15.5556 L 72.0846,-15.5058 L 72.1108,-15.4555 L 72.1361,-15.4047 L 72.1605,-15.3535 L 72.184,-15.3019
 L 72.2066,-15.2499 L 72.2283,-15.1975 L 72.2491,-15.1447 L 72.269,-15.0916 L 72.2879,-15.0381 L 72.3059,-14.9843
 L 72.323,-14.9302 L 72.3391,-14.8758 L 72.3542,-14.8212 L 72.3685,-14.7662 L 72.3817,-14.7111 L 72.394,-14.6557
 L 72.4053,-14.6001 L 72.4156,-14.5443 L 72.425,-14.4884 L 72.4334,-14.4323 L 72.4408,-14.3761 L 72.4472,-14.3197
 L 72.4526,-14.2632 L 72.4571,-14.2067 L 72.4605,-14.1501 L 72.463,-14.0934 L 72.4645,-14.0367 L 72.465,-13.98
 L 72.4645,-13.9233 L 72.463,-13.8666 L 72.4605,-13.8099 L 72.4571,-13.7533 L 72.4526,-13.6967 L 72.4472,-13.6403
 L 72.4408,-13.5839 L 72.4334,-13.5277 L 72.425,-13.4716 L 72.4156,-13.4156 L 72.4053,-13.3599 L 72.394,-13.3043
 L 72.3817,-13.2489 L 72.3685,-13.1937 L 72.3542,-13.1388 L 72.3391,-13.0842 L 72.323,-13.0298 L 72.3059,-12.9757
 L 72.2879,-12.9219 L 72.269,-12.8684 L 72.2491,-12.8153 L 72.2283,-12.7625 L 72.2066,-12.7101 L 72.184,-12.6581
 L 72.1605,-12.6065 L 72.1361,-12.5553 L 72.1108,-12.5045 L 72.0846,-12.4542 L 72.0575,-12.4044 L 72.0296,-12.355
 L 72.0008,-12.3061 L 71.9711,-12.2578 L 71.9407,-12.2099 L 71.9094,-12.1626 L 71.8772,-12.1159 L 71.8443,-12.0697
 L 71.8106,-12.0241 L 71.776,-11.9791 L 71.7407,-11.9347 L 71.7046,-11.8909 L 71.6678,-11.8478 L 71.6302,-11.8053
 L 71.5919,-11.7635 L 71.5528,-11.7224 L 71.5131,-11.6819 L 71.4726,-11.6421 L 71.4315,-11.6031 L 71.3897,-11.5648
 L 71.3472,-11.5272 L 71.304,-11.4903 L 71.2603,-11.4543 L 71.2159,-11.419 L 71.1709,-11.3844 L 71.1253,-11.3507
 L 71.0791,-11.3177 L 71.0324,-11.2856 L 70.9851,-11.2543 L 70.9372,-11.2238 L 70.8889,-11.1942 L 70.84,-11.1654
 L 70.7906,-11.1375 L 70.7408,-11.1104 L 70.6905,-11.0842 L 70.6397,-11.0589 L 70.5885,-11.0345 L 70.5369,-11.011
 L 70.4849,-10.9884 L 70.4325,-10.9666 L 70.3797,-10.9459 L 70.3266,-10.926 L 70.2731,-10.9071 L 70.2193,-10.8891
 L 70.1652,-10.872 L 70.1108,-10.8559 L 70.0562,-10.8407 L 70.0012,-10.8265 L 69.9461,-10.8133 L 69.8907,-10.801
 L 69.8351,-10.7897 L 69.7793,-10.7794 L 69.7234,-10.77 L 69.6673,-10.7616 L 69.6111,-10.7542 L 69.5547,-10.7478
 L 69.4982,-10.7424 L 69.4417,-10.7379 L 69.3851,-10.7345 L 69.3284,-10.732 L 69.2717,-10.7305 L 69.215,-10.73
 z
" stroke="black" fill="lightgray" stroke-width="0.5"/>
</svg>
