<?xml version="1.0" standalone="no"?>
<!DOCTYPE svg PUBLIC "-//W3C//DTD SVG 1.1//EN" "http://www.w3.org/Graphics/SVG/1.1/DTD/svg11.dtd">
<svg width="178mm" height="92mm" viewBox="0 -92 178 92" xmlns="http://www.w3.org/2000/svg" version="1.1">
<title>OpenSCAD Model</title>
<path d="
M 0.00190353,-2 L 0.00950623,-1.82585 L 0.032259,-1.65303 L 0.0699863,-1.48285 L 0.122403,-1.31661 L 0.189109,-1.15557
 L 0.269597,-1.00095 L 0.363255,-0.853938 L 0.469369,-0.715648 L 0.587132,-0.587132 L 0.715648,-0.469369 L 0.853938,-0.363255
 L 1.00095,-0.269597 L 1.15557,-0.189109 L 1.31661,-0.122403 L 1.48285,-0.0699863 L 1.65303,-0.032259 L 1.82585,-0.00950623
 L 2,-0.00190353 L 175.55,-0.00190353 L 175.724,-0.00950623 L 175.897,-0.032259 L 176.067,-0.0699863 L 176.233,-0.122403
 L 176.394,-0.189109 L 176.549,-0.269597 L 176.696,-0.363255 L 176.834,-0.469369 L 176.963,-0.587132 L 177.081,-0.715648
 L 177.187,-0.853938 L 177.28,-1.00095 L 177.361,-1.15557 L 177.428,-1.31661 L 177.48,-1.48285 L 177.518,-1.65303
 L 177.54,-1.82585 L 177.548,-2 L 177.548,-89.5 L 177.54,-89.6741 L 177.518,-89.847 L 177.48,-90.0171
 L 177.428,-90.1834 L 177.361,-90.3444 L 177.28,-90.499 L 177.187,-90.6461 L 177.081,-90.7844 L 176.963,-90.9129
 L 176.834,-91.0306 L 176.696,-91.1367 L 176.549,-91.2304 L 176.394,-91.3109 L 176.233,-91.3776 L 176.067,-91.43
 L 175.897,-91.4677 L 175.724,-91.4905 L 175.55,-91.4981 L 2,-91.4981 L 1.82585,-91.4905 L 1.65303,-91.4677
 L 1.48285,-91.43 L 1.31661,-91.3776 L 1.15557,-91.3109 L 1.00095,-91.2304 L 0.853938,-91.1367 L 0.715648,-91.0306
 L 0.587132,-90.9129 L 0.469369,-90.7844 L 0.363255,-90.6461 L 0.269597,-90.499 L 0.189109,-90.3444 L 0.122403,-90.1834
 L 0.0699863,-90.0171 L 0.032259,-89.847 L 0.00950623,-89.6741 L 0.00190353,-89.5 z
M 21,-22.55 L 21.0059,-22.6851 L 21.0235,-22.8192 L 21.0528,-22.9512 L 21.0935,-23.0801 L 21.1452,-23.2051
 L 21.2077,-23.325 L 21.2803,-23.439 L 21.3626,-23.5463 L 21.454,-23.646 L 21.5537,-23.7374 L 21.661,-23.8197
 L 21.775,-23.8923 L 21.8949,-23.9548 L 22.0199,-24.0065 L 22.1488,-24.0472 L 22.2808,-24.0765 L 22.4149,-24.0941
 L 22.55,-24.1 L 22.6851,-24.0941 L 22.8192,-24.0765 L 22.9512,-24.0472 L 23.0801,-24.0065 L 23.2051,-23.9548
 L 23.325,-23.8923 L 23.439,-23.8197 L 23.5463,-23.7374 L 23.646,-23.646 L 23.7374,-23.5463 L 23.8197,-23.439
 L 23.8923,-23.325 L 23.9548,-23.2051 L 24.0065,-23.0801 L 24.0472,-22.9512 L 24.0765,-22.8192 L 24.0941,-22.6851
 L 24.1,-22.55 L 24.0941,-22.4149 L 24.0765,-22.2808 L 24.0472,-22.1488 L 24.0065,-22.0199 L 23.9548,-21.8949
 L 23.8923,-21.775 L 23.8197,-21.661 L 23.7374,-21.5537 L 23.646,-21.454 L 23.5463,-21.3626 L 23.439,-21.2803
 L 23.325,-21.2077 L 23.2051,-21.1452 L 23.0801,-21.0935 L 22.9512,-21.0528 L 22.8192,-21.0235 L 22.6851,-21.0059
 L 22.55,-21 L 22.4149,-21.0059 L 22.2808,-21.0235 L 22.1488,-21.0528 L 22.0199,-21.0935 L 21.8949,-21.1452
 L 21.775,-21.2077 L 21.661,-21.2803 L 21.5537,-21.3626 L 21.454,-21.454 L 21.3626,-21.5537 L 21.2803,-21.661
 L 21.2077,-21.775 L 21.1452,-21.8949 L 21.0935,-22.0199 L 21.0528,-22.1488 L 21.0235,-22.2808 L 21.0059,-22.4149
 z
M 21,-68.95 L 21.0059,-69.0851 L 21.0235,-69.2192 L 21.0528,-69.3512 L 21.0935,-69.4801 L 21.1452,-69.6051
 L 21.2077,-69.725 L 21.2803,-69.839 L 21.3626,-69.9463 L 21.454,-70.046 L 21.5537,-70.1374 L 21.661,-70.2197
 L 21.775,-70.2923 L 21.8949,-70.3548 L 22.0199,-70.4065 L 22.1488,-70.4472 L 22.2808,-70.4765 L 22.4149,-70.4941
 L 22.55,-70.5 L 22.6851,-70.4941 L 22.8192,-70.4765 L 22.9512,-70.4472 L 23.0801,-70.4065 L 23.2051,-70.3548
 L 23.325,-70.2923 L 23.439,-70.2197 L 23.5463,-70.1374 L 23.646,-70.046 L 23.7374,-69.9463 L 23.8197,-69.839
 L 23.8923,-69.725 L 23.9548,-69.6051 L 24.0065,-69.4801 L 24.0472,-69.3512 L 24.0765,-69.2192 L 24.0941,-69.0851
 L 24.1,-68.95 L 24.0941,-68.8149 L 24.0765,-68.6808 L 24.0472,-68.5488 L 24.0065,-68.4199 L 23.9548,-68.2949
 L 23.8923,-68.175 L 23.8197,-68.061 L 23.7374,-67.9537 L 23.646,-67.854 L 23.5463,-67.7626 L 23.439,-67.6803
 L 23.325,-67.6077 L 23.2051,-67.5452 L 23.0801,-67.4935 L 22.9512,-67.4528 L 22.8192,-67.4235 L 22.6851,-67.4059
 L 22.55,-67.4 L 22.4149,-67.4059 L 22.2808,-67.4235 L 22.1488,-67.4528 L 22.0199,-67.4935 L 21.8949,-67.5452
 L 21.775,-67.6077 L 21.661,-67.6803 L 21.5537,-67.7626 L 21.454,-67.854 L 21.3626,-67.9537 L 21.2803,-68.061
 L 21.2077,-68.175 L 21.1452,-68.2949 L 21.0935,-68.4199 L 21.0528,-68.5488 L 21.0235,-68.6808 L 21.0059,-68.8149
 z
M 44.6,-22.55 L 44.6059,-22.6851 L 44.6235,-22.8192 L 44.6528,-22.9512 L 44.6935,-23.0801 L 44.7452,-23.2051
 L 44.8077,-23.325 L 44.8803,-23.439 L 44.9626,-23.5463 L 45.054,-23.646 L 45.1537,-23.7374 L 45.261,-23.8197
 L 45.375,-23.8923 L 45.4949,-23.9548 L 45.6199,-24.0065 L 45.7488,-24.0472 L 45.8808,-24.0765 L 46.0149,-24.0941
 L 46.15,-24.1 L 46.2851,-24.0941 L 46.4192,-24.0765 L 46.5512,-24.0472 L 46.6801,-24.0065 L 46.8051,-23.9548
 L 46.925,-23.8923 L 47.039,-23.8197 L 47.1463,-23.7374 L 47.246,-23.646 L 47.3374,-23.5463 L 47.4197,-23.439
 L 47.4923,-23.325 L 47.5548,-23.2051 L 47.6065,-23.0801 L 47.6472,-22.9512 L 47.6765,-22.8192 L 47.6941,-22.6851
 L 47.7,-22.55 L 47.6941,-22.4149 L 47.6765,-22.2808 L 47.6472,-22.1488 L 47.6065,-22.0199 L 47.5548,-21.8949
 L 47.4923,-21.775 L 47.4197,-21.661 L 47.3374,-21.5537 L 47.246,-21.454 L 47.1463,-21.3626 L 47.039,-21.2803
 L 46.925,-21.2077 L 46.8051,-21.1452 L 46.6801,-21.0935 L 46.5512,-21.0528 L 46.4192,-21.0235 L 46.2851,-21.0059
 L 46.15,-21 L 46.0149,-21.0059 L 45.8808,-21.0235 L 45.7488,-21.0528 L 45.6199,-21.0935 L 45.4949,-21.1452
 L 45.375,-21.2077 L 45.261,-21.2803 L 45.1537,-21.3626 L 45.054,-21.454 L 44.9626,-21.5537 L 44.8803,-21.661
 L 44.8077,-21.775 L 44.7452,-21.8949 L 44.6935,-22.0199 L 44.6528,-22.1488 L 44.6235,-22.2808 L 44.6059,-22.4149
 z
M 44.6,-68.95 L 44.6059,-69.0851 L 44.6235,-69.2192 L 44.6528,-69.3512 L 44.6935,-69.4801 L 44.7452,-69.6051
 L 44.8077,-69.725 L 44.8803,-69.839 L 44.9626,-69.9463 L 45.054,-70.046 L 45.1537,-70.1374 L 45.261,-70.2197
 L 45.375,-70.2923 L 45.4949,-70.3548 L 45.6199,-70.4065 L 45.7488,-70.4472 L 45.8808,-70.4765 L 46.0149,-70.4941
 L 46.15,-70.5 L 46.2851,-70.4941 L 46.4192,-70.4765 L 46.5512,-70.4472 L 46.6801,-70.4065 L 46.8051,-70.3548
 L 46.925,-70.2923 L 47.039,-70.2197 L 47.1463,-70.1374 L 47.246,-70.046 L 47.3374,-69.9463 L 47.4197,-69.839
 L 47.4923,-69.725 L 47.5548,-69.6051 L 47.6065,-69.4801 L 47.6472,-69.3512 L 47.6765,-69.2192 L 47.6941,-69.0851
 L 47.7,-68.95 L 47.6941,-68.8149 L 47.6765,-68.6808 L 47.6472,-68.5488 L 47.6065,-68.4199 L 47.5548,-68.2949
 L 47.4923,-68.175 L 47.4197,-68.061 L 47.3374,-67.9537 L 47.246,-67.854 L 47.1463,-67.7626 L 47.039,-67.6803
 L 46.925,-67.6077 L 46.8051,-67.5452 L 46.6801,-67.4935 L 46.5512,-67.4528 L 46.4192,-67.4235 L 46.2851,-67.4059
 L 46.15,-67.4 L 46.0149,-67.4059 L 45.8808,-67.4235 L 45.7488,-67.4528 L 45.6199,-67.4935 L 45.4949,-67.5452
 L 45.375,-67.6077 L 45.261,-67.6803 L 45.1537,-67.7626 L 45.054,-67.854 L 44.9626,-67.9537 L 44.8803,-68.061
 L 44.8077,-68.175 L 44.7452,-68.2949 L 44.6935,-68.4199 L 44.6528,-68.5488 L 44.6235,-68.6808 L 44.6059,-68.8149
 z
M 69.9,-36.05 L 69.9059,-36.1851 L 69.9235,-36.3192 L 69.9528,-36.4512 L 69.9935,-36.5801 L 70.0452,-36.7051
 L 70.1077,-36.825 L 70.1803,-36.939 L 70.2626,-37.0463 L 70.354,-37.146 L 70.4537,-37.2374 L 70.561,-37.3197
 L 70.675,-37.3923 L 70.7949,-37.4548 L 70.9199,-37.5065 L 71.0488,-37.5472 L 71.1808,-37.5765 L 71.3149,-37.5941
 L 71.45,-37.6 L 71.5851,-37.5941 L 71.7192,-37.5765 L 71.8512,-37.5472 L 71.9801,-37.5065 L 72.1051,-37.4548
 L 72.225,-37.3923 L 72.339,-37.3197 L 72.4463,-37.2374 L 72.546,-37.146 L 72.6374,-37.0463 L 72.7197,-36.939
 L 72.7923,-36.825 L 72.8548,-36.7051 L 72.9065,-36.5801 L 72.9472,-36.4512 L 72.9765,-36.3192 L 72.9941,-36.1851
 L 73,-36.05 L 72.9941,-35.9149 L 72.9765,-35.7808 L 72.9472,-35.6488 L 72.9065,-35.5199 L 72.8548,-35.3949
 L 72.7923,-35.275 L 72.7197,-35.161 L 72.6374,-35.0537 L 72.546,-34.954 L 72.4463,-34.8626 L 72.339,-34.7803
 L 72.225,-34.7077 L 72.1051,-34.6452 L 71.9801,-34.5935 L 71.8512,-34.5528 L 71.7192,-34.5235 L 71.5851,-34.5059
 L 71.45,-34.5 L 71.3149,-34.5059 L 71.1808,-34.5235 L 71.0488,-34.5528 L 70.9199,-34.5935 L 70.7949,-34.6452
 L 70.675,-34.7077 L 70.561,-34.7803 L 70.4537,-34.8626 L 70.354,-34.954 L 70.2626,-35.0537 L 70.1803,-35.161
 L 70.1077,-35.275 L 70.0452,-35.3949 L 69.9935,-35.5199 L 69.9528,-35.6488 L 69.9235,-35.7808 L 69.9059,-35.9149
 z
M 69.9,-56.3 L 69.9059,-56.4351 L 69.9235,-56.5692 L 69.9528,-56.7012 L 69.9935,-56.8301 L 70.0452,-56.9551
 L 70.1077,-57.075 L 70.1803,-57.189 L 70.2626,-57.2963 L 70.354,-57.396 L 70.4537,-57.4874 L 70.561,-57.5697
 L 70.675,-57.6423 L 70.7949,-57.7048 L 70.9199,-57.7565 L 71.0488,-57.7972 L 71.1808,-57.8265 L 71.3149,-57.8441
 L 71.45,-57.85 L 71.5851,-57.8441 L 71.7192,-57.8265 L 71.8512,-57.7972 L 71.9801,-57.7565 L 72.1051,-57.7048
 L 72.225,-57.6423 L 72.339,-57.5697 L 72.4463,-57.4874 L 72.546,-57.396 L 72.6374,-57.2963 L 72.7197,-57.189
 L 72.7923,-57.075 L 72.8548,-56.9551 L 72.9065,-56.8301 L 72.9472,-56.7012 L 72.9765,-56.5692 L 72.9941,-56.4351
 L 73,-56.3 L 72.9941,-56.1649 L 72.9765,-56.0308 L 72.9472,-55.8988 L 72.9065,-55.7699 L 72.8548,-55.6449
 L 72.7923,-55.525 L 72.7197,-55.411 L 72.6374,-55.3037 L 72.546,-55.204 L 72.4463,-55.1126 L 72.339,-55.0303
 L 72.225,-54.9577 L 72.1051,-54.8952 L 71.9801,-54.8435 L 71.8512,-54.8028 L 71.7192,-54.7735 L 71.5851,-54.7559
 L 71.45,-54.75 L 71.3149,-54.7559 L 71.1808,-54.7735 L 71.0488,-54.8028 L 70.9199,-54.8435 L 70.7949,-54.8952
 L 70.675,-54.9577 L 70.561,-55.0303 L 70.4537,-55.1126 L 70.354,-55.204 L 70.2626,-55.3037 L 70.1803,-55.411
 L 70.1077,-55.525 L 70.0452,-55.6449 L 69.9935,-55.7699 L 69.9528,-55.8988 L 69.9235,-56.0308 L 69.9059,-56.1649
 z
M 82.65,-36.05 L 82.6559,-36.1851 L 82.6735,-36.3192 L 82.7028,-36.4512 L 82.7435,-36.5801 L 82.7952,-36.7051
 L 82.8577,-36.825 L 82.9303,-36.939 L 83.0126,-37.0463 L 83.104,-37.146 L 83.2037,-37.2374 L 83.311,-37.3197
 L 83.425,-37.3923 L 83.5449,-37.4548 L 83.6699,-37.5065 L 83.7988,-37.5472 L 83.9308,-37.5765 L 84.0649,-37.5941
 L 84.2,-37.6 L 84.3351,-37.5941 L 84.4692,-37.5765 L 84.6012,-37.5472 L 84.7301,-37.5065 L 84.8551,-37.4548
 L 84.975,-37.3923 L 85.089,-37.3197 L 85.1963,-37.2374 L 85.296,-37.146 L 85.3874,-37.0463 L 85.4697,-36.939
 L 85.5423,-36.825 L 85.6048,-36.7051 L 85.6565,-36.5801 L 85.6972,-36.4512 L 85.7265,-36.3192 L 85.7441,-36.1851
 L 85.75,-36.05 L 85.7441,-35.9149 L 85.7265,-35.7808 L 85.6972,-35.6488 L 85.6565,-35.5199 L 85.6048,-35.3949
 L 85.5423,-35.275 L 85.4697,-35.161 L 85.3874,-35.0537 L 85.296,-34.954 L 85.1963,-34.8626 L 85.089,-34.7803
 L 84.975,-34.7077 L 84.8551,-34.6452 L 84.7301,-34.5935 L 84.6012,-34.5528 L 84.4692,-34.5235 L 84.3351,-34.5059
 L 84.2,-34.5 L 84.0649,-34.5059 L 83.9308,-34.5235 L 83.7988,-34.5528 L 83.6699,-34.5935 L 83.5449,-34.6452
 L 83.425,-34.7077 L 83.311,-34.7803 L 83.2037,-34.8626 L 83.104,-34.954 L 83.0126,-35.0537 L 82.9303,-35.161
 L 82.8577,-35.275 L 82.7952,-35.3949 L 82.7435,-35.5199 L 82.7028,-35.6488 L 82.6735,-35.7808 L 82.6559,-35.9149
 z
M 82.65,-56.3 L 82.6559,-56.4351 L 82.6735,-56.5692 L 82.7028,-56.7012 L 82.7435,-56.8301 L 82.7952,-56.9551
 L 82.8577,-57.075 L 82.9303,-57.189 L 83.0126,-57.2963 L 83.104,-57.396 L 83.2037,-57.4874 L 83.311,-57.5697
 L 83.425,-57.6423 L 83.5449,-57.7048 L 83.6699,-57.7565 L 83.7988,-57.7972 L 83.9308,-57.8265 L 84.0649,-57.8441
 L 84.2,-57.85 L 84.3351,-57.8441 L 84.4692,-57.8265 L 84.6012,-57.7972 L 84.7301,-57.7565 L 84.8551,-57.7048
 L 84.975,-57.6423 L 85.089,-57.5697 L 85.1963,-57.4874 L 85.296,-57.396 L 85.3874,-57.2963 L 85.4697,-57.189
 L 85.5423,-57.075 L 85.6048,-56.9551 L 85.6565,-56.8301 L 85.6972,-56.7012 L 85.7265,-56.5692 L 85.7441,-56.4351
 L 85.75,-56.3 L 85.7441,-56.1649 L 85.7265,-56.0308 L 85.6972,-55.8988 L 85.6565,-55.7699 L 85.6048,-55.6449
 L 85.5423,-55.525 L 85.4697,-55.411 L 85.3874,-55.3037 L 85.296,-55.204 L 85.1963,-55.1126 L 85.089,-55.0303
 L 84.975,-54.9577 L 84.8551,-54.8952 L 84.7301,-54.8435 L 84.6012,-54.8028 L 84.4692,-54.7735 L 84.3351,-54.7559
 L 84.2,-54.75 L 84.0649,-54.7559 L 83.9308,-54.7735 L 83.7988,-54.8028 L 83.6699,-54.8435 L 83.5449,-54.8952
 L 83.425,-54.9577 L 83.311,-55.0303 L 83.2037,-55.1126 L 83.104,-55.204 L 83.0126,-55.3037 L 82.9303,-55.411
 L 82.8577,-55.525 L 82.7952,-55.6449 L 82.7435,-55.7699 L 82.7028,-55.8988 L 82.6735,-56.0308 L 82.6559,-56.1649
 z
M 107.8,-31 L 107.806,-31.1351 L 107.824,-31.2692 L 107.853,-31.4012 L 107.893,-31.5301 L 107.945,-31.6551
 L 108.008,-31.775 L 108.08,-31.889 L 108.163,-31.9963 L 108.254,-32.096 L 108.354,-32.1874 L 108.461,-32.2697
 L 108.575,-32.3423 L 108.695,-32.4048 L 108.82,-32.4565 L 108.949,-32.4972 L 109.081,-32.5265 L 109.215,-32.5441
 L 109.35,-32.55 L 109.485,-32.5441 L 109.619,-32.5265 L 109.751,-32.4972 L 109.88,-32.4565 L 110.005,-32.4048
 L 110.125,-32.3423 L 110.239,-32.2697 L 110.346,-32.1874 L 110.446,-32.096 L 110.537,-31.9963 L 110.62,-31.889
 L 110.692,-31.775 L 110.755,-31.6551 L 110.807,-31.5301 L 110.847,-31.4012 L 110.876,-31.2692 L 110.894,-31.1351
 L 110.9,-31 L 110.894,-30.8649 L 110.876,-30.7308 L 110.847,-30.5988 L 110.807,-30.4699 L 110.755,-30.3449
 L 110.692,-30.225 L 110.62,-30.111 L 110.537,-30.0037 L 110.446,-29.904 L 110.346,-29.8126 L 110.239,-29.7303
 L 110.125,-29.6577 L 110.005,-29.5952 L 109.88,-29.5435 L 109.751,-29.5028 L 109.619,-29.4735 L 109.485,-29.4559
 L 109.35,-29.45 L 109.215,-29.4559 L 109.081,-29.4735 L 108.949,-29.5028 L 108.82,-29.5435 L 108.695,-29.5952
 L 108.575,-29.6577 L 108.461,-29.7303 L 108.354,-29.8126 L 108.254,-29.904 L 108.163,-30.0037 L 108.08,-30.111
 L 108.008,-30.225 L 107.945,-30.3449 L 107.893,-30.4699 L 107.853,-30.5988 L 107.824,-30.7308 L 107.806,-30.8649
 z
M 107.8,-61.375 L 107.806,-61.5101 L 107.824,-61.6442 L 107.853,-61.7762 L 107.893,-61.9051 L 107.945,-62.0301
 L 108.008,-62.15 L 108.08,-62.264 L 108.163,-62.3713 L 108.254,-62.471 L 108.354,-62.5624 L 108.461,-62.6447
 L 108.575,-62.7173 L 108.695,-62.7798 L 108.82,-62.8315 L 108.949,-62.8722 L 109.081,-62.9015 L 109.215,-62.9191
 L 109.35,-62.925 L 109.485,-62.9191 L 109.619,-62.9015 L 109.751,-62.8722 L 109.88,-62.8315 L 110.005,-62.7798
 L 110.125,-62.7173 L 110.239,-62.6447 L 110.346,-62.5624 L 110.446,-62.471 L 110.537,-62.3713 L 110.62,-62.264
 L 110.692,-62.15 L 110.755,-62.0301 L 110.807,-61.9051 L 110.847,-61.7762 L 110.876,-61.6442 L 110.894,-61.5101
 L 110.9,-61.375 L 110.894,-61.2399 L 110.876,-61.1058 L 110.847,-60.9738 L 110.807,-60.8449 L 110.755,-60.7199
 L 110.692,-60.6 L 110.62,-60.486 L 110.537,-60.3787 L 110.446,-60.279 L 110.346,-60.1876 L 110.239,-60.1053
 L 110.125,-60.0327 L 110.005,-59.9702 L 109.88,-59.9185 L 109.751,-59.8778 L 109.619,-59.8485 L 109.485,-59.8309
 L 109.35,-59.825 L 109.215,-59.8309 L 109.081,-59.8485 L 108.949,-59.8778 L 108.82,-59.9185 L 108.695,-59.9702
 L 108.575,-60.0327 L 108.461,-60.1053 L 108.354,-60.1876 L 108.254,-60.279 L 108.163,-60.3787 L 108.08,-60.486
 L 108.008,-60.6 L 107.945,-60.7199 L 107.893,-60.8449 L 107.853,-60.9738 L 107.824,-61.1058 L 107.806,-61.2399
 z
" stroke="black" fill="lightgray" stroke-width="0.5"/>
</svg>
