  0
SECTION
  2
BLOCKS
  0
ENDSEC
  0
SECTION
  2
ENTITIES
  0
LINE
  8
0
 10
0.00190353
 20
2
 11
0.00950623
 21
1.82585
  0
LINE
  8
0
 10
0.00950623
 20
1.82585
 11
0.032259
 21
1.65303
  0
LINE
  8
0
 10
0.032259
 20
1.65303
 11
0.0699863
 21
1.48285
  0
LINE
  8
0
 10
0.0699863
 20
1.48285
 11
0.122403
 21
1.31661
  0
LINE
  8
0
 10
0.122403
 20
1.31661
 11
0.189109
 21
1.15557
  0
LINE
  8
0
 10
0.189109
 20
1.15557
 11
0.269597
 21
1.00095
  0
LINE
  8
0
 10
0.269597
 20
1.00095
 11
0.363255
 21
0.853938
  0
LINE
  8
0
 10
0.363255
 20
0.853938
 11
0.469369
 21
0.715648
  0
LINE
  8
0
 10
0.469369
 20
0.715648
 11
0.587132
 21
0.587132
  0
LINE
  8
0
 10
0.587132
 20
0.587132
 11
0.715648
 21
0.469369
  0
LINE
  8
0
 10
0.715648
 20
0.469369
 11
0.853938
 21
0.363255
  0
LINE
  8
0
 10
0.853938
 20
0.363255
 11
1.00095
 21
0.269597
  0
LINE
  8
0
 10
1.00095
 20
0.269597
 11
1.15557
 21
0.189109
  0
LINE
  8
0
 10
1.15557
 20
0.189109
 11
1.31661
 21
0.122403
  0
LINE
  8
0
 10
1.31661
 20
0.122403
 11
1.48285
 21
0.0699863
  0
LINE
  8
0
 10
1.48285
 20
0.0699863
 11
1.65303
 21
0.032259
  0
LINE
  8
0
 10
1.65303
 20
0.032259
 11
1.82585
 21
0.00950623
  0
LINE
  8
0
 10
1.82585
 20
0.00950623
 11
2
 21
0.00190353
  0
LINE
  8
0
 10
2
 20
0.00190353
 11
175.55
 21
0.00190353
  0
LINE
  8
0
 10
175.55
 20
0.00190353
 11
175.724
 21
0.00950623
  0
LINE
  8
0
 10
175.724
 20
0.00950623
 11
175.897
 21
0.032259
  0
LINE
  8
0
 10
175.897
 20
0.032259
 11
176.067
 21
0.0699863
  0
LINE
  8
0
 10
176.067
 20
0.0699863
 11
176.233
 21
0.122403
  0
LINE
  8
0
 10
176.233
 20
0.122403
 11
176.394
 21
0.189109
  0
LINE
  8
0
 10
176.394
 20
0.189109
 11
176.549
 21
0.269597
  0
LINE
  8
0
 10
176.549
 20
0.269597
 11
176.696
 21
0.363255
  0
LINE
  8
0
 10
176.696
 20
0.363255
 11
176.834
 21
0.469369
  0
LINE
  8
0
 10
176.834
 20
0.469369
 11
176.963
 21
0.587132
  0
LINE
  8
0
 10
176.963
 20
0.587132
 11
177.081
 21
0.715648
  0
LINE
  8
0
 10
177.081
 20
0.715648
 11
177.187
 21
0.853938
  0
LINE
  8
0
 10
177.187
 20
0.853938
 11
177.28
 21
1.00095
  0
LINE
  8
0
 10
177.28
 20
1.00095
 11
177.361
 21
1.15557
  0
LINE
  8
0
 10
177.361
 20
1.15557
 11
177.428
 21
1.31661
  0
LINE
  8
0
 10
177.428
 20
1.31661
 11
177.48
 21
1.48285
  0
LINE
  8
0
 10
177.48
 20
1.48285
 11
177.518
 21
1.65303
  0
LINE
  8
0
 10
177.518
 20
1.65303
 11
177.54
 21
1.82585
  0
LINE
  8
0
 10
177.54
 20
1.82585
 11
177.548
 21
2
  0
LINE
  8
0
 10
177.548
 20
2
 11
177.548
 21
89.5
  0
LINE
  8
0
 10
177.548
 20
89.5
 11
177.54
 21
89.6741
  0
LINE
  8
0
 10
177.54
 20
89.6741
 11
177.518
 21
89.847
  0
LINE
  8
0
 10
177.518
 20
89.847
 11
177.48
 21
90.0171
  0
LINE
  8
0
 10
177.48
 20
90.0171
 11
177.428
 21
90.1834
  0
LINE
  8
0
 10
177.428
 20
90.1834
 11
177.361
 21
90.3444
  0
LINE
  8
0
 10
177.361
 20
90.3444
 11
177.28
 21
90.499
  0
LINE
  8
0
 10
177.28
 20
90.499
 11
177.187
 21
90.6461
  0
LINE
  8
0
 10
177.187
 20
90.6461
 11
177.081
 21
90.7844
  0
LINE
  8
0
 10
177.081
 20
90.7844
 11
176.963
 21
90.9129
  0
LINE
  8
0
 10
176.963
 20
90.9129
 11
176.834
 21
91.0306
  0
LINE
  8
0
 10
176.834
 20
91.0306
 11
176.696
 21
91.1367
  0
LINE
  8
0
 10
176.696
 20
91.1367
 11
176.549
 21
91.2304
  0
LINE
  8
0
 10
176.549
 20
91.2304
 11
176.394
 21
91.3109
  0
LINE
  8
0
 10
176.394
 20
91.3109
 11
176.233
 21
91.3776
  0
LINE
  8
0
 10
176.233
 20
91.3776
 11
176.067
 21
91.43
  0
LINE
  8
0
 10
176.067
 20
91.43
 11
175.897
 21
91.4677
  0
LINE
  8
0
 10
175.897
 20
91.4677
 11
175.724
 21
91.4905
  0
LINE
  8
0
 10
175.724
 20
91.4905
 11
175.55
 21
91.4981
  0
LINE
  8
0
 10
175.55
 20
91.4981
 11
2
 21
91.4981
  0
LINE
  8
0
 10
2
 20
91.4981
 11
1.82585
 21
91.4905
  0
LINE
  8
0
 10
1.82585
 20
91.4905
 11
1.65303
 21
91.4677
  0
LINE
  8
0
 10
1.65303
 20
91.4677
 11
1.48285
 21
91.43
  0
LINE
  8
0
 10
1.48285
 20
91.43
 11
1.31661
 21
91.3776
  0
LINE
  8
0
 10
1.31661
 20
91.3776
 11
1.15557
 21
91.3109
  0
LINE
  8
0
 10
1.15557
 20
91.3109
 11
1.00095
 21
91.2304
  0
LINE
  8
0
 10
1.00095
 20
91.2304
 11
0.853938
 21
91.1367
  0
LINE
  8
0
 10
0.853938
 20
91.1367
 11
0.715648
 21
91.0306
  0
LINE
  8
0
 10
0.715648
 20
91.0306
 11
0.587132
 21
90.9129
  0
LINE
  8
0
 10
0.587132
 20
90.9129
 11
0.469369
 21
90.7844
  0
LINE
  8
0
 10
0.469369
 20
90.7844
 11
0.363255
 21
90.6461
  0
LINE
  8
0
 10
0.363255
 20
90.6461
 11
0.269597
 21
90.499
  0
LINE
  8
0
 10
0.269597
 20
90.499
 11
0.189109
 21
90.3444
  0
LINE
  8
0
 10
0.189109
 20
90.3444
 11
0.122403
 21
90.1834
  0
LINE
  8
0
 10
0.122403
 20
90.1834
 11
0.0699863
 21
90.0171
  0
LINE
  8
0
 10
0.0699863
 20
90.0171
 11
0.032259
 21
89.847
  0
LINE
  8
0
 10
0.032259
 20
89.847
 11
0.00950623
 21
89.6741
  0
LINE
  8
0
 10
0.00950623
 20
89.6741
 11
0.00190353
 21
89.5
  0
LINE
  8
0
 10
0.00190353
 20
89.5
 11
0.00190353
 21
2
  0
LINE
  8
0
 10
21
 20
22.55
 11
21.0059
 21
22.6851
  0
LINE
  8
0
 10
21.0059
 20
22.6851
 11
21.0235
 21
22.8192
  0
LINE
  8
0
 10
21.0235
 20
22.8192
 11
21.0528
 21
22.9512
  0
LINE
  8
0
 10
21.0528
 20
22.9512
 11
21.0935
 21
23.0801
  0
LINE
  8
0
 10
21.0935
 20
23.0801
 11
21.1452
 21
23.2051
  0
LINE
  8
0
 10
21.1452
 20
23.2051
 11
21.2077
 21
23.325
  0
LINE
  8
0
 10
21.2077
 20
23.325
 11
21.2803
 21
23.439
  0
LINE
  8
0
 10
21.2803
 20
23.439
 11
21.3626
 21
23.5463
  0
LINE
  8
0
 10
21.3626
 20
23.5463
 11
21.454
 21
23.646
  0
LINE
  8
0
 10
21.454
 20
23.646
 11
21.5537
 21
23.7374
  0
LINE
  8
0
 10
21.5537
 20
23.7374
 11
21.661
 21
23.8197
  0
LINE
  8
0
 10
21.661
 20
23.8197
 11
21.775
 21
23.8923
  0
LINE
  8
0
 10
21.775
 20
23.8923
 11
21.8949
 21
23.9548
  0
LINE
  8
0
 10
21.8949
 20
23.9548
 11
22.0199
 21
24.0065
  0
LINE
  8
0
 10
22.0199
 20
24.0065
 11
22.1488
 21
24.0472
  0
LINE
  8
0
 10
22.1488
 20
24.0472
 11
22.2808
 21
24.0765
  0
LINE
  8
0
 10
22.2808
 20
24.0765
 11
22.4149
 21
24.0941
  0
LINE
  8
0
 10
22.4149
 20
24.0941
 11
22.55
 21
24.1
  0
LINE
  8
0
 10
22.55
 20
24.1
 11
22.6851
 21
24.0941
  0
LINE
  8
0
 10
22.6851
 20
24.0941
 11
22.8192
 21
24.0765
  0
LINE
  8
0
 10
22.8192
 20
24.0765
 11
22.9512
 21
24.0472
  0
LINE
  8
0
 10
22.9512
 20
24.0472
 11
23.0801
 21
24.0065
  0
LINE
  8
0
 10
23.0801
 20
24.0065
 11
23.2051
 21
23.9548
  0
LINE
  8
0
 10
23.2051
 20
23.9548
 11
23.325
 21
23.8923
  0
LINE
  8
0
 10
23.325
 20
23.8923
 11
23.439
 21
23.8197
  0
LINE
  8
0
 10
23.439
 20
23.8197
 11
23.5463
 21
23.7374
  0
LINE
  8
0
 10
23.5463
 20
23.7374
 11
23.646
 21
23.646
  0
LINE
  8
0
 10
23.646
 20
23.646
 11
23.7374
 21
23.5463
  0
LINE
  8
0
 10
23.7374
 20
23.5463
 11
23.8197
 21
23.439
  0
LINE
  8
0
 10
23.8197
 20
23.439
 11
23.8923
 21
23.325
  0
LINE
  8
0
 10
23.8923
 20
23.325
 11
23.9548
 21
23.2051
  0
LINE
  8
0
 10
23.9548
 20
23.2051
 11
24.0065
 21
23.0801
  0
LINE
  8
0
 10
24.0065
 20
23.0801
 11
24.0472
 21
22.9512
  0
LINE
  8
0
 10
24.0472
 20
22.9512
 11
24.0765
 21
22.8192
  0
LINE
  8
0
 10
24.0765
 20
22.8192
 11
24.0941
 21
22.6851
  0
LINE
  8
0
 10
24.0941
 20
22.6851
 11
24.1
 21
22.55
  0
LINE
  8
0
 10
24.1
 20
22.55
 11
24.0941
 21
22.4149
  0
LINE
  8
0
 10
24.0941
 20
22.4149
 11
24.0765
 21
22.2808
  0
LINE
  8
0
 10
24.0765
 20
22.2808
 11
24.0472
 21
22.1488
  0
LINE
  8
0
 10
24.0472
 20
22.1488
 11
24.0065
 21
22.0199
  0
LINE
  8
0
 10
24.0065
 20
22.0199
 11
23.9548
 21
21.8949
  0
LINE
  8
0
 10
23.9548
 20
21.8949
 11
23.8923
 21
21.775
  0
LINE
  8
0
 10
23.8923
 20
21.775
 11
23.8197
 21
21.661
  0
LINE
  8
0
 10
23.8197
 20
21.661
 11
23.7374
 21
21.5537
  0
LINE
  8
0
 10
23.7374
 20
21.5537
 11
23.646
 21
21.454
  0
LINE
  8
0
 10
23.646
 20
21.454
 11
23.5463
 21
21.3626
  0
LINE
  8
0
 10
23.5463
 20
21.3626
 11
23.439
 21
21.2803
  0
LINE
  8
0
 10
23.439
 20
21.2803
 11
23.325
 21
21.2077
  0
LINE
  8
0
 10
23.325
 20
21.2077
 11
23.2051
 21
21.1452
  0
LINE
  8
0
 10
23.2051
 20
21.1452
 11
23.0801
 21
21.0935
  0
LINE
  8
0
 10
23.0801
 20
21.0935
 11
22.9512
 21
21.0528
  0
LINE
  8
0
 10
22.9512
 20
21.0528
 11
22.8192
 21
21.0235
  0
LINE
  8
0
 10
22.8192
 20
21.0235
 11
22.6851
 21
21.0059
  0
LINE
  8
0
 10
22.6851
 20
21.0059
 11
22.55
 21
21
  0
LINE
  8
0
 10
22.55
 20
21
 11
22.4149
 21
21.0059
  0
LINE
  8
0
 10
22.4149
 20
21.0059
 11
22.2808
 21
21.0235
  0
LINE
  8
0
 10
22.2808
 20
21.0235
 11
22.1488
 21
21.0528
  0
LINE
  8
0
 10
22.1488
 20
21.0528
 11
22.0199
 21
21.0935
  0
LINE
  8
0
 10
22.0199
 20
21.0935
 11
21.8949
 21
21.1452
  0
LINE
  8
0
 10
21.8949
 20
21.1452
 11
21.775
 21
21.2077
  0
LINE
  8
0
 10
21.775
 20
21.2077
 11
21.661
 21
21.2803
  0
LINE
  8
0
 10
21.661
 20
21.2803
 11
21.5537
 21
21.3626
  0
LINE
  8
0
 10
21.5537
 20
21.3626
 11
21.454
 21
21.454
  0
LINE
  8
0
 10
21.454
 20
21.454
 11
21.3626
 21
21.5537
  0
LINE
  8
0
 10
21.3626
 20
21.5537
 11
21.2803
 21
21.661
  0
LINE
  8
0
 10
21.2803
 20
21.661
 11
21.2077
 21
21.775
  0
LINE
  8
0
 10
21.2077
 20
21.775
 11
21.1452
 21
21.8949
  0
LINE
  8
0
 10
21.1452
 20
21.8949
 11
21.0935
 21
22.0199
  0
LINE
  8
0
 10
21.0935
 20
22.0199
 11
21.0528
 21
22.1488
  0
LINE
  8
0
 10
21.0528
 20
22.1488
 11
21.0235
 21
22.2808
  0
LINE
  8
0
 10
21.0235
 20
22.2808
 11
21.0059
 21
22.4149
  0
LINE
  8
0
 10
21.0059
 20
22.4149
 11
21
 21
22.55
  0
LINE
  8
0
 10
21
 20
68.95
 11
21.0059
 21
69.0851
  0
LINE
  8
0
 10
21.0059
 20
69.0851
 11
21.0235
 21
69.2192
  0
LINE
  8
0
 10
21.0235
 20
69.2192
 11
21.0528
 21
69.3512
  0
LINE
  8
0
 10
21.0528
 20
69.3512
 11
21.0935
 21
69.4801
  0
LINE
  8
0
 10
21.0935
 20
69.4801
 11
21.1452
 21
69.6051
  0
LINE
  8
0
 10
21.1452
 20
69.6051
 11
21.2077
 21
69.725
  0
LINE
  8
0
 10
21.2077
 20
69.725
 11
21.2803
 21
69.839
  0
LINE
  8
0
 10
21.2803
 20
69.839
 11
21.3626
 21
69.9463
  0
LINE
  8
0
 10
21.3626
 20
69.9463
 11
21.454
 21
70.046
  0
LINE
  8
0
 10
21.454
 20
70.046
 11
21.5537
 21
70.1374
  0
LINE
  8
0
 10
21.5537
 20
70.1374
 11
21.661
 21
70.2197
  0
LINE
  8
0
 10
21.661
 20
70.2197
 11
21.775
 21
70.2923
  0
LINE
  8
0
 10
21.775
 20
70.2923
 11
21.8949
 21
70.3548
  0
LINE
  8
0
 10
21.8949
 20
70.3548
 11
22.0199
 21
70.4065
  0
LINE
  8
0
 10
22.0199
 20
70.4065
 11
22.1488
 21
70.4472
  0
LINE
  8
0
 10
22.1488
 20
70.4472
 11
22.2808
 21
70.4765
  0
LINE
  8
0
 10
22.2808
 20
70.4765
 11
22.4149
 21
70.4941
  0
LINE
  8
0
 10
22.4149
 20
70.4941
 11
22.55
 21
70.5
  0
LINE
  8
0
 10
22.55
 20
70.5
 11
22.6851
 21
70.4941
  0
LINE
  8
0
 10
22.6851
 20
70.4941
 11
22.8192
 21
70.4765
  0
LINE
  8
0
 10
22.8192
 20
70.4765
 11
22.9512
 21
70.4472
  0
LINE
  8
0
 10
22.9512
 20
70.4472
 11
23.0801
 21
70.4065
  0
LINE
  8
0
 10
23.0801
 20
70.4065
 11
23.2051
 21
70.3548
  0
LINE
  8
0
 10
23.2051
 20
70.3548
 11
23.325
 21
70.2923
  0
LINE
  8
0
 10
23.325
 20
70.2923
 11
23.439
 21
70.2197
  0
LINE
  8
0
 10
23.439
 20
70.2197
 11
23.5463
 21
70.1374
  0
LINE
  8
0
 10
23.5463
 20
70.1374
 11
23.646
 21
70.046
  0
LINE
  8
0
 10
23.646
 20
70.046
 11
23.7374
 21
69.9463
  0
LINE
  8
0
 10
23.7374
 20
69.9463
 11
23.8197
 21
69.839
  0
LINE
  8
0
 10
23.8197
 20
69.839
 11
23.8923
 21
69.725
  0
LINE
  8
0
 10
23.8923
 20
69.725
 11
23.9548
 21
69.6051
  0
LINE
  8
0
 10
23.9548
 20
69.6051
 11
24.0065
 21
69.4801
  0
LINE
  8
0
 10
24.0065
 20
69.4801
 11
24.0472
 21
69.3512
  0
LINE
  8
0
 10
24.0472
 20
69.3512
 11
24.0765
 21
69.2192
  0
LINE
  8
0
 10
24.0765
 20
69.2192
 11
24.0941
 21
69.0851
  0
LINE
  8
0
 10
24.0941
 20
69.0851
 11
24.1
 21
68.95
  0
LINE
  8
0
 10
24.1
 20
68.95
 11
24.0941
 21
68.8149
  0
LINE
  8
0
 10
24.0941
 20
68.8149
 11
24.0765
 21
68.6808
  0
LINE
  8
0
 10
24.0765
 20
68.6808
 11
24.0472
 21
68.5488
  0
LINE
  8
0
 10
24.0472
 20
68.5488
 11
24.0065
 21
68.4199
  0
LINE
  8
0
 10
24.0065
 20
68.4199
 11
23.9548
 21
68.2949
  0
LINE
  8
0
 10
23.9548
 20
68.2949
 11
23.8923
 21
68.175
  0
LINE
  8
0
 10
23.8923
 20
68.175
 11
23.8197
 21
68.061
  0
LINE
  8
0
 10
23.8197
 20
68.061
 11
23.7374
 21
67.9537
  0
LINE
  8
0
 10
23.7374
 20
67.9537
 11
23.646
 21
67.854
  0
LINE
  8
0
 10
23.646
 20
67.854
 11
23.5463
 21
67.7626
  0
LINE
  8
0
 10
23.5463
 20
67.7626
 11
23.439
 21
67.6803
  0
LINE
  8
0
 10
23.439
 20
67.6803
 11
23.325
 21
67.6077
  0
LINE
  8
0
 10
23.325
 20
67.6077
 11
23.2051
 21
67.5452
  0
LINE
  8
0
 10
23.2051
 20
67.5452
 11
23.0801
 21
67.4935
  0
LINE
  8
0
 10
23.0801
 20
67.4935
 11
22.9512
 21
67.4528
  0
LINE
  8
0
 10
22.9512
 20
67.4528
 11
22.8192
 21
67.4235
  0
LINE
  8
0
 10
22.8192
 20
67.4235
 11
22.6851
 21
67.4059
  0
LINE
  8
0
 10
22.6851
 20
67.4059
 11
22.55
 21
67.4
  0
LINE
  8
0
 10
22.55
 20
67.4
 11
22.4149
 21
67.4059
  0
LINE
  8
0
 10
22.4149
 20
67.4059
 11
22.2808
 21
67.4235
  0
LINE
  8
0
 10
22.2808
 20
67.4235
 11
22.1488
 21
67.4528
  0
LINE
  8
0
 10
22.1488
 20
67.4528
 11
22.0199
 21
67.4935
  0
LINE
  8
0
 10
22.0199
 20
67.4935
 11
21.8949
 21
67.5452
  0
LINE
  8
0
 10
21.8949
 20
67.5452
 11
21.775
 21
67.6077
  0
LINE
  8
0
 10
21.775
 20
67.6077
 11
21.661
 21
67.6803
  0
LINE
  8
0
 10
21.661
 20
67.6803
 11
21.5537
 21
67.7626
  0
LINE
  8
0
 10
21.5537
 20
67.7626
 11
21.454
 21
67.854
  0
LINE
  8
0
 10
21.454
 20
67.854
 11
21.3626
 21
67.9537
  0
LINE
  8
0
 10
21.3626
 20
67.9537
 11
21.2803
 21
68.061
  0
LINE
  8
0
 10
21.2803
 20
68.061
 11
21.2077
 21
68.175
  0
LINE
  8
0
 10
21.2077
 20
68.175
 11
21.1452
 21
68.2949
  0
LINE
  8
0
 10
21.1452
 20
68.2949
 11
21.0935
 21
68.4199
  0
LINE
  8
0
 10
21.0935
 20
68.4199
 11
21.0528
 21
68.5488
  0
LINE
  8
0
 10
21.0528
 20
68.5488
 11
21.0235
 21
68.6808
  0
LINE
  8
0
 10
21.0235
 20
68.6808
 11
21.0059
 21
68.8149
  0
LINE
  8
0
 10
21.0059
 20
68.8149
 11
21
 21
68.95
  0
LINE
  8
0
 10
44.6
 20
22.55
 11
44.6059
 21
22.6851
  0
LINE
  8
0
 10
44.6059
 20
22.6851
 11
44.6235
 21
22.8192
  0
LINE
  8
0
 10
44.6235
 20
22.8192
 11
44.6528
 21
22.9512
  0
LINE
  8
0
 10
44.6528
 20
22.9512
 11
44.6935
 21
23.0801
  0
LINE
  8
0
 10
44.6935
 20
23.0801
 11
44.7452
 21
23.2051
  0
LINE
  8
0
 10
44.7452
 20
23.2051
 11
44.8077
 21
23.325
  0
LINE
  8
0
 10
44.8077
 20
23.325
 11
44.8803
 21
23.439
  0
LINE
  8
0
 10
44.8803
 20
23.439
 11
44.9626
 21
23.5463
  0
LINE
  8
0
 10
44.9626
 20
23.5463
 11
45.054
 21
23.646
  0
LINE
  8
0
 10
45.054
 20
23.646
 11
45.1537
 21
23.7374
  0
LINE
  8
0
 10
45.1537
 20
23.7374
 11
45.261
 21
23.8197
  0
LINE
  8
0
 10
45.261
 20
23.8197
 11
45.375
 21
23.8923
  0
LINE
  8
0
 10
45.375
 20
23.8923
 11
45.4949
 21
23.9548
  0
LINE
  8
0
 10
45.4949
 20
23.9548
 11
45.6199
 21
24.0065
  0
LINE
  8
0
 10
45.6199
 20
24.0065
 11
45.7488
 21
24.0472
  0
LINE
  8
0
 10
45.7488
 20
24.0472
 11
45.8808
 21
24.0765
  0
LINE
  8
0
 10
45.8808
 20
24.0765
 11
46.0149
 21
24.0941
  0
LINE
  8
0
 10
46.0149
 20
24.0941
 11
46.15
 21
24.1
  0
LINE
  8
0
 10
46.15
 20
24.1
 11
46.2851
 21
24.0941
  0
LINE
  8
0
 10
46.2851
 20
24.0941
 11
46.4192
 21
24.0765
  0
LINE
  8
0
 10
46.4192
 20
24.0765
 11
46.5512
 21
24.0472
  0
LINE
  8
0
 10
46.5512
 20
24.0472
 11
46.6801
 21
24.0065
  0
LINE
  8
0
 10
46.6801
 20
24.0065
 11
46.8051
 21
23.9548
  0
LINE
  8
0
 10
46.8051
 20
23.9548
 11
46.925
 21
23.8923
  0
LINE
  8
0
 10
46.925
 20
23.8923
 11
47.039
 21
23.8197
  0
LINE
  8
0
 10
47.039
 20
23.8197
 11
47.1463
 21
23.7374
  0
LINE
  8
0
 10
47.1463
 20
23.7374
 11
47.246
 21
23.646
  0
LINE
  8
0
 10
47.246
 20
23.646
 11
47.3374
 21
23.5463
  0
LINE
  8
0
 10
47.3374
 20
23.5463
 11
47.4197
 21
23.439
  0
LINE
  8
0
 10
47.4197
 20
23.439
 11
47.4923
 21
23.325
  0
LINE
  8
0
 10
47.4923
 20
23.325
 11
47.5548
 21
23.2051
  0
LINE
  8
0
 10
47.5548
 20
23.2051
 11
47.6065
 21
23.0801
  0
LINE
  8
0
 10
47.6065
 20
23.0801
 11
47.6472
 21
22.9512
  0
LINE
  8
0
 10
47.6472
 20
22.9512
 11
47.6765
 21
22.8192
  0
LINE
  8
0
 10
47.6765
 20
22.8192
 11
47.6941
 21
22.6851
  0
LINE
  8
0
 10
47.6941
 20
22.6851
 11
47.7
 21
22.55
  0
LINE
  8
0
 10
47.7
 20
22.55
 11
47.6941
 21
22.4149
  0
LINE
  8
0
 10
47.6941
 20
22.4149
 11
47.6765
 21
22.2808
  0
LINE
  8
0
 10
47.6765
 20
22.2808
 11
47.6472
 21
22.1488
  0
LINE
  8
0
 10
47.6472
 20
22.1488
 11
47.6065
 21
22.0199
  0
LINE
  8
0
 10
47.6065
 20
22.0199
 11
47.5548
 21
21.8949
  0
LINE
  8
0
 10
47.5548
 20
21.8949
 11
47.4923
 21
21.775
  0
LINE
  8
0
 10
47.4923
 20
21.775
 11
47.4197
 21
21.661
  0
LINE
  8
0
 10
47.4197
 20
21.661
 11
47.3374
 21
21.5537
  0
LINE
  8
0
 10
47.3374
 20
21.5537
 11
47.246
 21
21.454
  0
LINE
  8
0
 10
47.246
 20
21.454
 11
47.1463
 21
21.3626
  0
LINE
  8
0
 10
47.1463
 20
21.3626
 11
47.039
 21
21.2803
  0
LINE
  8
0
 10
47.039
 20
21.2803
 11
46.925
 21
21.2077
  0
LINE
  8
0
 10
46.925
 20
21.2077
 11
46.8051
 21
21.1452
  0
LINE
  8
0
 10
46.8051
 20
21.1452
 11
46.6801
 21
21.0935
  0
LINE
  8
0
 10
46.6801
 20
21.0935
 11
46.5512
 21
21.0528
  0
LINE
  8
0
 10
46.5512
 20
21.0528
 11
46.4192
 21
21.0235
  0
LINE
  8
0
 10
46.4192
 20
21.0235
 11
46.2851
 21
21.0059
  0
LINE
  8
0
 10
46.2851
 20
21.0059
 11
46.15
 21
21
  0
LINE
  8
0
 10
46.15
 20
21
 11
46.0149
 21
21.0059
  0
LINE
  8
0
 10
46.0149
 20
21.0059
 11
45.8808
 21
21.0235
  0
LINE
  8
0
 10
45.8808
 20
21.0235
 11
45.7488
 21
21.0528
  0
LINE
  8
0
 10
45.7488
 20
21.0528
 11
45.6199
 21
21.0935
  0
LINE
  8
0
 10
45.6199
 20
21.0935
 11
45.4949
 21
21.1452
  0
LINE
  8
0
 10
45.4949
 20
21.1452
 11
45.375
 21
21.2077
  0
LINE
  8
0
 10
45.375
 20
21.2077
 11
45.261
 21
21.2803
  0
LINE
  8
0
 10
45.261
 20
21.2803
 11
45.1537
 21
21.3626
  0
LINE
  8
0
 10
45.1537
 20
21.3626
 11
45.054
 21
21.454
  0
LINE
  8
0
 10
45.054
 20
21.454
 11
44.9626
 21
21.5537
  0
LINE
  8
0
 10
44.9626
 20
21.5537
 11
44.8803
 21
21.661
  0
LINE
  8
0
 10
44.8803
 20
21.661
 11
44.8077
 21
21.775
  0
LINE
  8
0
 10
44.8077
 20
21.775
 11
44.7452
 21
21.8949
  0
LINE
  8
0
 10
44.7452
 20
21.8949
 11
44.6935
 21
22.0199
  0
LINE
  8
0
 10
44.6935
 20
22.0199
 11
44.6528
 21
22.1488
  0
LINE
  8
0
 10
44.6528
 20
22.1488
 11
44.6235
 21
22.2808
  0
LINE
  8
0
 10
44.6235
 20
22.2808
 11
44.6059
 21
22.4149
  0
LINE
  8
0
 10
44.6059
 20
22.4149
 11
44.6
 21
22.55
  0
LINE
  8
0
 10
44.6
 20
68.95
 11
44.6059
 21
69.0851
  0
LINE
  8
0
 10
44.6059
 20
69.0851
 11
44.6235
 21
69.2192
  0
LINE
  8
0
 10
44.6235
 20
69.2192
 11
44.6528
 21
69.3512
  0
LINE
  8
0
 10
44.6528
 20
69.3512
 11
44.6935
 21
69.4801
  0
LINE
  8
0
 10
44.6935
 20
69.4801
 11
44.7452
 21
69.6051
  0
LINE
  8
0
 10
44.7452
 20
69.6051
 11
44.8077
 21
69.725
  0
LINE
  8
0
 10
44.8077
 20
69.725
 11
44.8803
 21
69.839
  0
LINE
  8
0
 10
44.8803
 20
69.839
 11
44.9626
 21
69.9463
  0
LINE
  8
0
 10
44.9626
 20
69.9463
 11
45.054
 21
70.046
  0
LINE
  8
0
 10
45.054
 20
70.046
 11
45.1537
 21
70.1374
  0
LINE
  8
0
 10
45.1537
 20
70.1374
 11
45.261
 21
70.2197
  0
LINE
  8
0
 10
45.261
 20
70.2197
 11
45.375
 21
70.2923
  0
LINE
  8
0
 10
45.375
 20
70.2923
 11
45.4949
 21
70.3548
  0
LINE
  8
0
 10
45.4949
 20
70.3548
 11
45.6199
 21
70.4065
  0
LINE
  8
0
 10
45.6199
 20
70.4065
 11
45.7488
 21
70.4472
  0
LINE
  8
0
 10
45.7488
 20
70.4472
 11
45.8808
 21
70.4765
  0
LINE
  8
0
 10
45.8808
 20
70.4765
 11
46.0149
 21
70.4941
  0
LINE
  8
0
 10
46.0149
 20
70.4941
 11
46.15
 21
70.5
  0
LINE
  8
0
 10
46.15
 20
70.5
 11
46.2851
 21
70.4941
  0
LINE
  8
0
 10
46.2851
 20
70.4941
 11
46.4192
 21
70.4765
  0
LINE
  8
0
 10
46.4192
 20
70.4765
 11
46.5512
 21
70.4472
  0
LINE
  8
0
 10
46.5512
 20
70.4472
 11
46.6801
 21
70.4065
  0
LINE
  8
0
 10
46.6801
 20
70.4065
 11
46.8051
 21
70.3548
  0
LINE
  8
0
 10
46.8051
 20
70.3548
 11
46.925
 21
70.2923
  0
LINE
  8
0
 10
46.925
 20
70.2923
 11
47.039
 21
70.2197
  0
LINE
  8
0
 10
47.039
 20
70.2197
 11
47.1463
 21
70.1374
  0
LINE
  8
0
 10
47.1463
 20
70.1374
 11
47.246
 21
70.046
  0
LINE
  8
0
 10
47.246
 20
70.046
 11
47.3374
 21
69.9463
  0
LINE
  8
0
 10
47.3374
 20
69.9463
 11
47.4197
 21
69.839
  0
LINE
  8
0
 10
47.4197
 20
69.839
 11
47.4923
 21
69.725
  0
LINE
  8
0
 10
47.4923
 20
69.725
 11
47.5548
 21
69.6051
  0
LINE
  8
0
 10
47.5548
 20
69.6051
 11
47.6065
 21
69.4801
  0
LINE
  8
0
 10
47.6065
 20
69.4801
 11
47.6472
 21
69.3512
  0
LINE
  8
0
 10
47.6472
 20
69.3512
 11
47.6765
 21
69.2192
  0
LINE
  8
0
 10
47.6765
 20
69.2192
 11
47.6941
 21
69.0851
  0
LINE
  8
0
 10
47.6941
 20
69.0851
 11
47.7
 21
68.95
  0
LINE
  8
0
 10
47.7
 20
68.95
 11
47.6941
 21
68.8149
  0
LINE
  8
0
 10
47.6941
 20
68.8149
 11
47.6765
 21
68.6808
  0
LINE
  8
0
 10
47.6765
 20
68.6808
 11
47.6472
 21
68.5488
  0
LINE
  8
0
 10
47.6472
 20
68.5488
 11
47.6065
 21
68.4199
  0
LINE
  8
0
 10
47.6065
 20
68.4199
 11
47.5548
 21
68.2949
  0
LINE
  8
0
 10
47.5548
 20
68.2949
 11
47.4923
 21
68.175
  0
LINE
  8
0
 10
47.4923
 20
68.175
 11
47.4197
 21
68.061
  0
LINE
  8
0
 10
47.4197
 20
68.061
 11
47.3374
 21
67.9537
  0
LINE
  8
0
 10
47.3374
 20
67.9537
 11
47.246
 21
67.854
  0
LINE
  8
0
 10
47.246
 20
67.854
 11
47.1463
 21
67.7626
  0
LINE
  8
0
 10
47.1463
 20
67.7626
 11
47.039
 21
67.6803
  0
LINE
  8
0
 10
47.039
 20
67.6803
 11
46.925
 21
67.6077
  0
LINE
  8
0
 10
46.925
 20
67.6077
 11
46.8051
 21
67.5452
  0
LINE
  8
0
 10
46.8051
 20
67.5452
 11
46.6801
 21
67.4935
  0
LINE
  8
0
 10
46.6801
 20
67.4935
 11
46.5512
 21
67.4528
  0
LINE
  8
0
 10
46.5512
 20
67.4528
 11
46.4192
 21
67.4235
  0
LINE
  8
0
 10
46.4192
 20
67.4235
 11
46.2851
 21
67.4059
  0
LINE
  8
0
 10
46.2851
 20
67.4059
 11
46.15
 21
67.4
  0
LINE
  8
0
 10
46.15
 20
67.4
 11
46.0149
 21
67.4059
  0
LINE
  8
0
 10
46.0149
 20
67.4059
 11
45.8808
 21
67.4235
  0
LINE
  8
0
 10
45.8808
 20
67.4235
 11
45.7488
 21
67.4528
  0
LINE
  8
0
 10
45.7488
 20
67.4528
 11
45.6199
 21
67.4935
  0
LINE
  8
0
 10
45.6199
 20
67.4935
 11
45.4949
 21
67.5452
  0
LINE
  8
0
 10
45.4949
 20
67.5452
 11
45.375
 21
67.6077
  0
LINE
  8
0
 10
45.375
 20
67.6077
 11
45.261
 21
67.6803
  0
LINE
  8
0
 10
45.261
 20
67.6803
 11
45.1537
 21
67.7626
  0
LINE
  8
0
 10
45.1537
 20
67.7626
 11
45.054
 21
67.854
  0
LINE
  8
0
 10
45.054
 20
67.854
 11
44.9626
 21
67.9537
  0
LINE
  8
0
 10
44.9626
 20
67.9537
 11
44.8803
 21
68.061
  0
LINE
  8
0
 10
44.8803
 20
68.061
 11
44.8077
 21
68.175
  0
LINE
  8
0
 10
44.8077
 20
68.175
 11
44.7452
 21
68.2949
  0
LINE
  8
0
 10
44.7452
 20
68.2949
 11
44.6935
 21
68.4199
  0
LINE
  8
0
 10
44.6935
 20
68.4199
 11
44.6528
 21
68.5488
  0
LINE
  8
0
 10
44.6528
 20
68.5488
 11
44.6235
 21
68.6808
  0
LINE
  8
0
 10
44.6235
 20
68.6808
 11
44.6059
 21
68.8149
  0
LINE
  8
0
 10
44.6059
 20
68.8149
 11
44.6
 21
68.95
  0
LINE
  8
0
 10
69.9
 20
36.05
 11
69.9059
 21
36.1851
  0
LINE
  8
0
 10
69.9059
 20
36.1851
 11
69.9235
 21
36.3192
  0
LINE
  8
0
 10
69.9235
 20
36.3192
 11
69.9528
 21
36.4512
  0
LINE
  8
0
 10
69.9528
 20
36.4512
 11
69.9935
 21
36.5801
  0
LINE
  8
0
 10
69.9935
 20
36.5801
 11
70.0452
 21
36.7051
  0
LINE
  8
0
 10
70.0452
 20
36.7051
 11
70.1077
 21
36.825
  0
LINE
  8
0
 10
70.1077
 20
36.825
 11
70.1803
 21
36.939
  0
LINE
  8
0
 10
70.1803
 20
36.939
 11
70.2626
 21
37.0463
  0
LINE
  8
0
 10
70.2626
 20
37.0463
 11
70.354
 21
37.146
  0
LINE
  8
0
 10
70.354
 20
37.146
 11
70.4537
 21
37.2374
  0
LINE
  8
0
 10
70.4537
 20
37.2374
 11
70.561
 21
37.3197
  0
LINE
  8
0
 10
70.561
 20
37.3197
 11
70.675
 21
37.3923
  0
LINE
  8
0
 10
70.675
 20
37.3923
 11
70.7949
 21
37.4548
  0
LINE
  8
0
 10
70.7949
 20
37.4548
 11
70.9199
 21
37.5065
  0
LINE
  8
0
 10
70.9199
 20
37.5065
 11
71.0488
 21
37.5472
  0
LINE
  8
0
 10
71.0488
 20
37.5472
 11
71.1808
 21
37.5765
  0
LINE
  8
0
 10
71.1808
 20
37.5765
 11
71.3149
 21
37.5941
  0
LINE
  8
0
 10
71.3149
 20
37.5941
 11
71.45
 21
37.6
  0
LINE
  8
0
 10
71.45
 20
37.6
 11
71.5851
 21
37.5941
  0
LINE
  8
0
 10
71.5851
 20
37.5941
 11
71.7192
 21
37.5765
  0
LINE
  8
0
 10
71.7192
 20
37.5765
 11
71.8512
 21
37.5472
  0
LINE
  8
0
 10
71.8512
 20
37.5472
 11
71.9801
 21
37.5065
  0
LINE
  8
0
 10
71.9801
 20
37.5065
 11
72.1051
 21
37.4548
  0
LINE
  8
0
 10
72.1051
 20
37.4548
 11
72.225
 21
37.3923
  0
LINE
  8
0
 10
72.225
 20
37.3923
 11
72.339
 21
37.3197
  0
LINE
  8
0
 10
72.339
 20
37.3197
 11
72.4463
 21
37.2374
  0
LINE
  8
0
 10
72.4463
 20
37.2374
 11
72.546
 21
37.146
  0
LINE
  8
0
 10
72.546
 20
37.146
 11
72.6374
 21
37.0463
  0
LINE
  8
0
 10
72.6374
 20
37.0463
 11
72.7197
 21
36.939
  0
LINE
  8
0
 10
72.7197
 20
36.939
 11
72.7923
 21
36.825
  0
LINE
  8
0
 10
72.7923
 20
36.825
 11
72.8548
 21
36.7051
  0
LINE
  8
0
 10
72.8548
 20
36.7051
 11
72.9065
 21
36.5801
  0
LINE
  8
0
 10
72.9065
 20
36.5801
 11
72.9472
 21
36.4512
  0
LINE
  8
0
 10
72.9472
 20
36.4512
 11
72.9765
 21
36.3192
  0
LINE
  8
0
 10
72.9765
 20
36.3192
 11
72.9941
 21
36.1851
  0
LINE
  8
0
 10
72.9941
 20
36.1851
 11
73
 21
36.05
  0
LINE
  8
0
 10
73
 20
36.05
 11
72.9941
 21
35.9149
  0
LINE
  8
0
 10
72.9941
 20
35.9149
 11
72.9765
 21
35.7808
  0
LINE
  8
0
 10
72.9765
 20
35.7808
 11
72.9472
 21
35.6488
  0
LINE
  8
0
 10
72.9472
 20
35.6488
 11
72.9065
 21
35.5199
  0
LINE
  8
0
 10
72.9065
 20
35.5199
 11
72.8548
 21
35.3949
  0
LINE
  8
0
 10
72.8548
 20
35.3949
 11
72.7923
 21
35.275
  0
LINE
  8
0
 10
72.7923
 20
35.275
 11
72.7197
 21
35.161
  0
LINE
  8
0
 10
72.7197
 20
35.161
 11
72.6374
 21
35.0537
  0
LINE
  8
0
 10
72.6374
 20
35.0537
 11
72.546
 21
34.954
  0
LINE
  8
0
 10
72.546
 20
34.954
 11
72.4463
 21
34.8626
  0
LINE
  8
0
 10
72.4463
 20
34.8626
 11
72.339
 21
34.7803
  0
LINE
  8
0
 10
72.339
 20
34.7803
 11
72.225
 21
34.7077
  0
LINE
  8
0
 10
72.225
 20
34.7077
 11
72.1051
 21
34.6452
  0
LINE
  8
0
 10
72.1051
 20
34.6452
 11
71.9801
 21
34.5935
  0
LINE
  8
0
 10
71.9801
 20
34.5935
 11
71.8512
 21
34.5528
  0
LINE
  8
0
 10
71.8512
 20
34.5528
 11
71.7192
 21
34.5235
  0
LINE
  8
0
 10
71.7192
 20
34.5235
 11
71.5851
 21
34.5059
  0
LINE
  8
0
 10
71.5851
 20
34.5059
 11
71.45
 21
34.5
  0
LINE
  8
0
 10
71.45
 20
34.5
 11
71.3149
 21
34.5059
  0
LINE
  8
0
 10
71.3149
 20
34.5059
 11
71.1808
 21
34.5235
  0
LINE
  8
0
 10
71.1808
 20
34.5235
 11
71.0488
 21
34.5528
  0
LINE
  8
0
 10
71.0488
 20
34.5528
 11
70.9199
 21
34.5935
  0
LINE
  8
0
 10
70.9199
 20
34.5935
 11
70.7949
 21
34.6452
  0
LINE
  8
0
 10
70.7949
 20
34.6452
 11
70.675
 21
34.7077
  0
LINE
  8
0
 10
70.675
 20
34.7077
 11
70.561
 21
34.7803
  0
LINE
  8
0
 10
70.561
 20
34.7803
 11
70.4537
 21
34.8626
  0
LINE
  8
0
 10
70.4537
 20
34.8626
 11
70.354
 21
34.954
  0
LINE
  8
0
 10
70.354
 20
34.954
 11
70.2626
 21
35.0537
  0
LINE
  8
0
 10
70.2626
 20
35.0537
 11
70.1803
 21
35.161
  0
LINE
  8
0
 10
70.1803
 20
35.161
 11
70.1077
 21
35.275
  0
LINE
  8
0
 10
70.1077
 20
35.275
 11
70.0452
 21
35.3949
  0
LINE
  8
0
 10
70.0452
 20
35.3949
 11
69.9935
 21
35.5199
  0
LINE
  8
0
 10
69.9935
 20
35.5199
 11
69.9528
 21
35.6488
  0
LINE
  8
0
 10
69.9528
 20
35.6488
 11
69.9235
 21
35.7808
  0
LINE
  8
0
 10
69.9235
 20
35.7808
 11
69.9059
 21
35.9149
  0
LINE
  8
0
 10
69.9059
 20
35.9149
 11
69.9
 21
36.05
  0
LINE
  8
0
 10
69.9
 20
56.3
 11
69.9059
 21
56.4351
  0
LINE
  8
0
 10
69.9059
 20
56.4351
 11
69.9235
 21
56.5692
  0
LINE
  8
0
 10
69.9235
 20
56.5692
 11
69.9528
 21
56.7012
  0
LINE
  8
0
 10
69.9528
 20
56.7012
 11
69.9935
 21
56.8301
  0
LINE
  8
0
 10
69.9935
 20
56.8301
 11
70.0452
 21
56.9551
  0
LINE
  8
0
 10
70.0452
 20
56.9551
 11
70.1077
 21
57.075
  0
LINE
  8
0
 10
70.1077
 20
57.075
 11
70.1803
 21
57.189
  0
LINE
  8
0
 10
70.1803
 20
57.189
 11
70.2626
 21
57.2963
  0
LINE
  8
0
 10
70.2626
 20
57.2963
 11
70.354
 21
57.396
  0
LINE
  8
0
 10
70.354
 20
57.396
 11
70.4537
 21
57.4874
  0
LINE
  8
0
 10
70.4537
 20
57.4874
 11
70.561
 21
57.5697
  0
LINE
  8
0
 10
70.561
 20
57.5697
 11
70.675
 21
57.6423
  0
LINE
  8
0
 10
70.675
 20
57.6423
 11
70.7949
 21
57.7048
  0
LINE
  8
0
 10
70.7949
 20
57.7048
 11
70.9199
 21
57.7565
  0
LINE
  8
0
 10
70.9199
 20
57.7565
 11
71.0488
 21
57.7972
  0
LINE
  8
0
 10
71.0488
 20
57.7972
 11
71.1808
 21
57.8265
  0
LINE
  8
0
 10
71.1808
 20
57.8265
 11
71.3149
 21
57.8441
  0
LINE
  8
0
 10
71.3149
 20
57.8441
 11
71.45
 21
57.85
  0
LINE
  8
0
 10
71.45
 20
57.85
 11
71.5851
 21
57.8441
  0
LINE
  8
0
 10
71.5851
 20
57.8441
 11
71.7192
 21
57.8265
  0
LINE
  8
0
 10
71.7192
 20
57.8265
 11
71.8512
 21
57.7972
  0
LINE
  8
0
 10
71.8512
 20
57.7972
 11
71.9801
 21
57.7565
  0
LINE
  8
0
 10
71.9801
 20
57.7565
 11
72.1051
 21
57.7048
  0
LINE
  8
0
 10
72.1051
 20
57.7048
 11
72.225
 21
57.6423
  0
LINE
  8
0
 10
72.225
 20
57.6423
 11
72.339
 21
57.5697
  0
LINE
  8
0
 10
72.339
 20
57.5697
 11
72.4463
 21
57.4874
  0
LINE
  8
0
 10
72.4463
 20
57.4874
 11
72.546
 21
57.396
  0
LINE
  8
0
 10
72.546
 20
57.396
 11
72.6374
 21
57.2963
  0
LINE
  8
0
 10
72.6374
 20
57.2963
 11
72.7197
 21
57.189
  0
LINE
  8
0
 10
72.7197
 20
57.189
 11
72.7923
 21
57.075
  0
LINE
  8
0
 10
72.7923
 20
57.075
 11
72.8548
 21
56.9551
  0
LINE
  8
0
 10
72.8548
 20
56.9551
 11
72.9065
 21
56.8301
  0
LINE
  8
0
 10
72.9065
 20
56.8301
 11
72.9472
 21
56.7012
  0
LINE
  8
0
 10
72.9472
 20
56.7012
 11
72.9765
 21
56.5692
  0
LINE
  8
0
 10
72.9765
 20
56.5692
 11
72.9941
 21
56.4351
  0
LINE
  8
0
 10
72.9941
 20
56.4351
 11
73
 21
56.3
  0
LINE
  8
0
 10
73
 20
56.3
 11
72.9941
 21
56.1649
  0
LINE
  8
0
 10
72.9941
 20
56.1649
 11
72.9765
 21
56.0308
  0
LINE
  8
0
 10
72.9765
 20
56.0308
 11
72.9472
 21
55.8988
  0
LINE
  8
0
 10
72.9472
 20
55.8988
 11
72.9065
 21
55.7699
  0
LINE
  8
0
 10
72.9065
 20
55.7699
 11
72.8548
 21
55.6449
  0
LINE
  8
0
 10
72.8548
 20
55.6449
 11
72.7923
 21
55.525
  0
LINE
  8
0
 10
72.7923
 20
55.525
 11
72.7197
 21
55.411
  0
LINE
  8
0
 10
72.7197
 20
55.411
 11
72.6374
 21
55.3037
  0
LINE
  8
0
 10
72.6374
 20
55.3037
 11
72.546
 21
55.204
  0
LINE
  8
0
 10
72.546
 20
55.204
 11
72.4463
 21
55.1126
  0
LINE
  8
0
 10
72.4463
 20
55.1126
 11
72.339
 21
55.0303
  0
LINE
  8
0
 10
72.339
 20
55.0303
 11
72.225
 21
54.9577
  0
LINE
  8
0
 10
72.225
 20
54.9577
 11
72.1051
 21
54.8952
  0
LINE
  8
0
 10
72.1051
 20
54.8952
 11
71.9801
 21
54.8435
  0
LINE
  8
0
 10
71.9801
 20
54.8435
 11
71.8512
 21
54.8028
  0
LINE
  8
0
 10
71.8512
 20
54.8028
 11
71.7192
 21
54.7735
  0
LINE
  8
0
 10
71.7192
 20
54.7735
 11
71.5851
 21
54.7559
  0
LINE
  8
0
 10
71.5851
 20
54.7559
 11
71.45
 21
54.75
  0
LINE
  8
0
 10
71.45
 20
54.75
 11
71.3149
 21
54.7559
  0
LINE
  8
0
 10
71.3149
 20
54.7559
 11
71.1808
 21
54.7735
  0
LINE
  8
0
 10
71.1808
 20
54.7735
 11
71.0488
 21
54.8028
  0
LINE
  8
0
 10
71.0488
 20
54.8028
 11
70.9199
 21
54.8435
  0
LINE
  8
0
 10
70.9199
 20
54.8435
 11
70.7949
 21
54.8952
  0
LINE
  8
0
 10
70.7949
 20
54.8952
 11
70.675
 21
54.9577
  0
LINE
  8
0
 10
70.675
 20
54.9577
 11
70.561
 21
55.0303
  0
LINE
  8
0
 10
70.561
 20
55.0303
 11
70.4537
 21
55.1126
  0
LINE
  8
0
 10
70.4537
 20
55.1126
 11
70.354
 21
55.204
  0
LINE
  8
0
 10
70.354
 20
55.204
 11
70.2626
 21
55.3037
  0
LINE
  8
0
 10
70.2626
 20
55.3037
 11
70.1803
 21
55.411
  0
LINE
  8
0
 10
70.1803
 20
55.411
 11
70.1077
 21
55.525
  0
LINE
  8
0
 10
70.1077
 20
55.525
 11
70.0452
 21
55.6449
  0
LINE
  8
0
 10
70.0452
 20
55.6449
 11
69.9935
 21
55.7699
  0
LINE
  8
0
 10
69.9935
 20
55.7699
 11
69.9528
 21
55.8988
  0
LINE
  8
0
 10
69.9528
 20
55.8988
 11
69.9235
 21
56.0308
  0
LINE
  8
0
 10
69.9235
 20
56.0308
 11
69.9059
 21
56.1649
  0
LINE
  8
0
 10
69.9059
 20
56.1649
 11
69.9
 21
56.3
  0
LINE
  8
0
 10
82.65
 20
36.05
 11
82.6559
 21
36.1851
  0
LINE
  8
0
 10
82.6559
 20
36.1851
 11
82.6735
 21
36.3192
  0
LINE
  8
0
 10
82.6735
 20
36.3192
 11
82.7028
 21
36.4512
  0
LINE
  8
0
 10
82.7028
 20
36.4512
 11
82.7435
 21
36.5801
  0
LINE
  8
0
 10
82.7435
 20
36.5801
 11
82.7952
 21
36.7051
  0
LINE
  8
0
 10
82.7952
 20
36.7051
 11
82.8577
 21
36.825
  0
LINE
  8
0
 10
82.8577
 20
36.825
 11
82.9303
 21
36.939
  0
LINE
  8
0
 10
82.9303
 20
36.939
 11
83.0126
 21
37.0463
  0
LINE
  8
0
 10
83.0126
 20
37.0463
 11
83.104
 21
37.146
  0
LINE
  8
0
 10
83.104
 20
37.146
 11
83.2037
 21
37.2374
  0
LINE
  8
0
 10
83.2037
 20
37.2374
 11
83.311
 21
37.3197
  0
LINE
  8
0
 10
83.311
 20
37.3197
 11
83.425
 21
37.3923
  0
LINE
  8
0
 10
83.425
 20
37.3923
 11
83.5449
 21
37.4548
  0
LINE
  8
0
 10
83.5449
 20
37.4548
 11
83.6699
 21
37.5065
  0
LINE
  8
0
 10
83.6699
 20
37.5065
 11
83.7988
 21
37.5472
  0
LINE
  8
0
 10
83.7988
 20
37.5472
 11
83.9308
 21
37.5765
  0
LINE
  8
0
 10
83.9308
 20
37.5765
 11
84.0649
 21
37.5941
  0
LINE
  8
0
 10
84.0649
 20
37.5941
 11
84.2
 21
37.6
  0
LINE
  8
0
 10
84.2
 20
37.6
 11
84.3351
 21
37.5941
  0
LINE
  8
0
 10
84.3351
 20
37.5941
 11
84.4692
 21
37.5765
  0
LINE
  8
0
 10
84.4692
 20
37.5765
 11
84.6012
 21
37.5472
  0
LINE
  8
0
 10
84.6012
 20
37.5472
 11
84.7301
 21
37.5065
  0
LINE
  8
0
 10
84.7301
 20
37.5065
 11
84.8551
 21
37.4548
  0
LINE
  8
0
 10
84.8551
 20
37.4548
 11
84.975
 21
37.3923
  0
LINE
  8
0
 10
84.975
 20
37.3923
 11
85.089
 21
37.3197
  0
LINE
  8
0
 10
85.089
 20
37.3197
 11
85.1963
 21
37.2374
  0
LINE
  8
0
 10
85.1963
 20
37.2374
 11
85.296
 21
37.146
  0
LINE
  8
0
 10
85.296
 20
37.146
 11
85.3874
 21
37.0463
  0
LINE
  8
0
 10
85.3874
 20
37.0463
 11
85.4697
 21
36.939
  0
LINE
  8
0
 10
85.4697
 20
36.939
 11
85.5423
 21
36.825
  0
LINE
  8
0
 10
85.5423
 20
36.825
 11
85.6048
 21
36.7051
  0
LINE
  8
0
 10
85.6048
 20
36.7051
 11
85.6565
 21
36.5801
  0
LINE
  8
0
 10
85.6565
 20
36.5801
 11
85.6972
 21
36.4512
  0
LINE
  8
0
 10
85.6972
 20
36.4512
 11
85.7265
 21
36.3192
  0
LINE
  8
0
 10
85.7265
 20
36.3192
 11
85.7441
 21
36.1851
  0
LINE
  8
0
 10
85.7441
 20
36.1851
 11
85.75
 21
36.05
  0
LINE
  8
0
 10
85.75
 20
36.05
 11
85.7441
 21
35.9149
  0
LINE
  8
0
 10
85.7441
 20
35.9149
 11
85.7265
 21
35.7808
  0
LINE
  8
0
 10
85.7265
 20
35.7808
 11
85.6972
 21
35.6488
  0
LINE
  8
0
 10
85.6972
 20
35.6488
 11
85.6565
 21
35.5199
  0
LINE
  8
0
 10
85.6565
 20
35.5199
 11
85.6048
 21
35.3949
  0
LINE
  8
0
 10
85.6048
 20
35.3949
 11
85.5423
 21
35.275
  0
LINE
  8
0
 10
85.5423
 20
35.275
 11
85.4697
 21
35.161
  0
LINE
  8
0
 10
85.4697
 20
35.161
 11
85.3874
 21
35.0537
  0
LINE
  8
0
 10
85.3874
 20
35.0537
 11
85.296
 21
34.954
  0
LINE
  8
0
 10
85.296
 20
34.954
 11
85.1963
 21
34.8626
  0
LINE
  8
0
 10
85.1963
 20
34.8626
 11
85.089
 21
34.7803
  0
LINE
  8
0
 10
85.089
 20
34.7803
 11
84.975
 21
34.7077
  0
LINE
  8
0
 10
84.975
 20
34.7077
 11
84.8551
 21
34.6452
  0
LINE
  8
0
 10
84.8551
 20
34.6452
 11
84.7301
 21
34.5935
  0
LINE
  8
0
 10
84.7301
 20
34.5935
 11
84.6012
 21
34.5528
  0
LINE
  8
0
 10
84.6012
 20
34.5528
 11
84.4692
 21
34.5235
  0
LINE
  8
0
 10
84.4692
 20
34.5235
 11
84.3351
 21
34.5059
  0
LINE
  8
0
 10
84.3351
 20
34.5059
 11
84.2
 21
34.5
  0
LINE
  8
0
 10
84.2
 20
34.5
 11
84.0649
 21
34.5059
  0
LINE
  8
0
 10
84.0649
 20
34.5059
 11
83.9308
 21
34.5235
  0
LINE
  8
0
 10
83.9308
 20
34.5235
 11
83.7988
 21
34.5528
  0
LINE
  8
0
 10
83.7988
 20
34.5528
 11
83.6699
 21
34.5935
  0
LINE
  8
0
 10
83.6699
 20
34.5935
 11
83.5449
 21
34.6452
  0
LINE
  8
0
 10
83.5449
 20
34.6452
 11
83.425
 21
34.7077
  0
LINE
  8
0
 10
83.425
 20
34.7077
 11
83.311
 21
34.7803
  0
LINE
  8
0
 10
83.311
 20
34.7803
 11
83.2037
 21
34.8626
  0
LINE
  8
0
 10
83.2037
 20
34.8626
 11
83.104
 21
34.954
  0
LINE
  8
0
 10
83.104
 20
34.954
 11
83.0126
 21
35.0537
  0
LINE
  8
0
 10
83.0126
 20
35.0537
 11
82.9303
 21
35.161
  0
LINE
  8
0
 10
82.9303
 20
35.161
 11
82.8577
 21
35.275
  0
LINE
  8
0
 10
82.8577
 20
35.275
 11
82.7952
 21
35.3949
  0
LINE
  8
0
 10
82.7952
 20
35.3949
 11
82.7435
 21
35.5199
  0
LINE
  8
0
 10
82.7435
 20
35.5199
 11
82.7028
 21
35.6488
  0
LINE
  8
0
 10
82.7028
 20
35.6488
 11
82.6735
 21
35.7808
  0
LINE
  8
0
 10
82.6735
 20
35.7808
 11
82.6559
 21
35.9149
  0
LINE
  8
0
 10
82.6559
 20
35.9149
 11
82.65
 21
36.05
  0
LINE
  8
0
 10
82.65
 20
56.3
 11
82.6559
 21
56.4351
  0
LINE
  8
0
 10
82.6559
 20
56.4351
 11
82.6735
 21
56.5692
  0
LINE
  8
0
 10
82.6735
 20
56.5692
 11
82.7028
 21
56.7012
  0
LINE
  8
0
 10
82.7028
 20
56.7012
 11
82.7435
 21
56.8301
  0
LINE
  8
0
 10
82.7435
 20
56.8301
 11
82.7952
 21
56.9551
  0
LINE
  8
0
 10
82.7952
 20
56.9551
 11
82.8577
 21
57.075
  0
LINE
  8
0
 10
82.8577
 20
57.075
 11
82.9303
 21
57.189
  0
LINE
  8
0
 10
82.9303
 20
57.189
 11
83.0126
 21
57.2963
  0
LINE
  8
0
 10
83.0126
 20
57.2963
 11
83.104
 21
57.396
  0
LINE
  8
0
 10
83.104
 20
57.396
 11
83.2037
 21
57.4874
  0
LINE
  8
0
 10
83.2037
 20
57.4874
 11
83.311
 21
57.5697
  0
LINE
  8
0
 10
83.311
 20
57.5697
 11
83.425
 21
57.6423
  0
LINE
  8
0
 10
83.425
 20
57.6423
 11
83.5449
 21
57.7048
  0
LINE
  8
0
 10
83.5449
 20
57.7048
 11
83.6699
 21
57.7565
  0
LINE
  8
0
 10
83.6699
 20
57.7565
 11
83.7988
 21
57.7972
  0
LINE
  8
0
 10
83.7988
 20
57.7972
 11
83.9308
 21
57.8265
  0
LINE
  8
0
 10
83.9308
 20
57.8265
 11
84.0649
 21
57.8441
  0
LINE
  8
0
 10
84.0649
 20
57.8441
 11
84.2
 21
57.85
  0
LINE
  8
0
 10
84.2
 20
57.85
 11
84.3351
 21
57.8441
  0
LINE
  8
0
 10
84.3351
 20
57.8441
 11
84.4692
 21
57.8265
  0
LINE
  8
0
 10
84.4692
 20
57.8265
 11
84.6012
 21
57.7972
  0
LINE
  8
0
 10
84.6012
 20
57.7972
 11
84.7301
 21
57.7565
  0
LINE
  8
0
 10
84.7301
 20
57.7565
 11
84.8551
 21
57.7048
  0
LINE
  8
0
 10
84.8551
 20
57.7048
 11
84.975
 21
57.6423
  0
LINE
  8
0
 10
84.975
 20
57.6423
 11
85.089
 21
57.5697
  0
LINE
  8
0
 10
85.089
 20
57.5697
 11
85.1963
 21
57.4874
  0
LINE
  8
0
 10
85.1963
 20
57.4874
 11
85.296
 21
57.396
  0
LINE
  8
0
 10
85.296
 20
57.396
 11
85.3874
 21
57.2963
  0
LINE
  8
0
 10
85.3874
 20
57.2963
 11
85.4697
 21
57.189
  0
LINE
  8
0
 10
85.4697
 20
57.189
 11
85.5423
 21
57.075
  0
LINE
  8
0
 10
85.5423
 20
57.075
 11
85.6048
 21
56.9551
  0
LINE
  8
0
 10
85.6048
 20
56.9551
 11
85.6565
 21
56.8301
  0
LINE
  8
0
 10
85.6565
 20
56.8301
 11
85.6972
 21
56.7012
  0
LINE
  8
0
 10
85.6972
 20
56.7012
 11
85.7265
 21
56.5692
  0
LINE
  8
0
 10
85.7265
 20
56.5692
 11
85.7441
 21
56.4351
  0
LINE
  8
0
 10
85.7441
 20
56.4351
 11
85.75
 21
56.3
  0
LINE
  8
0
 10
85.75
 20
56.3
 11
85.7441
 21
56.1649
  0
LINE
  8
0
 10
85.7441
 20
56.1649
 11
85.7265
 21
56.0308
  0
LINE
  8
0
 10
85.7265
 20
56.0308
 11
85.6972
 21
55.8988
  0
LINE
  8
0
 10
85.6972
 20
55.8988
 11
85.6565
 21
55.7699
  0
LINE
  8
0
 10
85.6565
 20
55.7699
 11
85.6048
 21
55.6449
  0
LINE
  8
0
 10
85.6048
 20
55.6449
 11
85.5423
 21
55.525
  0
LINE
  8
0
 10
85.5423
 20
55.525
 11
85.4697
 21
55.411
  0
LINE
  8
0
 10
85.4697
 20
55.411
 11
85.3874
 21
55.3037
  0
LINE
  8
0
 10
85.3874
 20
55.3037
 11
85.296
 21
55.204
  0
LINE
  8
0
 10
85.296
 20
55.204
 11
85.1963
 21
55.1126
  0
LINE
  8
0
 10
85.1963
 20
55.1126
 11
85.089
 21
55.0303
  0
LINE
  8
0
 10
85.089
 20
55.0303
 11
84.975
 21
54.9577
  0
LINE
  8
0
 10
84.975
 20
54.9577
 11
84.8551
 21
54.8952
  0
LINE
  8
0
 10
84.8551
 20
54.8952
 11
84.7301
 21
54.8435
  0
LINE
  8
0
 10
84.7301
 20
54.8435
 11
84.6012
 21
54.8028
  0
LINE
  8
0
 10
84.6012
 20
54.8028
 11
84.4692
 21
54.7735
  0
LINE
  8
0
 10
84.4692
 20
54.7735
 11
84.3351
 21
54.7559
  0
LINE
  8
0
 10
84.3351
 20
54.7559
 11
84.2
 21
54.75
  0
LINE
  8
0
 10
84.2
 20
54.75
 11
84.0649
 21
54.7559
  0
LINE
  8
0
 10
84.0649
 20
54.7559
 11
83.9308
 21
54.7735
  0
LINE
  8
0
 10
83.9308
 20
54.7735
 11
83.7988
 21
54.8028
  0
LINE
  8
0
 10
83.7988
 20
54.8028
 11
83.6699
 21
54.8435
  0
LINE
  8
0
 10
83.6699
 20
54.8435
 11
83.5449
 21
54.8952
  0
LINE
  8
0
 10
83.5449
 20
54.8952
 11
83.425
 21
54.9577
  0
LINE
  8
0
 10
83.425
 20
54.9577
 11
83.311
 21
55.0303
  0
LINE
  8
0
 10
83.311
 20
55.0303
 11
83.2037
 21
55.1126
  0
LINE
  8
0
 10
83.2037
 20
55.1126
 11
83.104
 21
55.204
  0
LINE
  8
0
 10
83.104
 20
55.204
 11
83.0126
 21
55.3037
  0
LINE
  8
0
 10
83.0126
 20
55.3037
 11
82.9303
 21
55.411
  0
LINE
  8
0
 10
82.9303
 20
55.411
 11
82.8577
 21
55.525
  0
LINE
  8
0
 10
82.8577
 20
55.525
 11
82.7952
 21
55.6449
  0
LINE
  8
0
 10
82.7952
 20
55.6449
 11
82.7435
 21
55.7699
  0
LINE
  8
0
 10
82.7435
 20
55.7699
 11
82.7028
 21
55.8988
  0
LINE
  8
0
 10
82.7028
 20
55.8988
 11
82.6735
 21
56.0308
  0
LINE
  8
0
 10
82.6735
 20
56.0308
 11
82.6559
 21
56.1649
  0
LINE
  8
0
 10
82.6559
 20
56.1649
 11
82.65
 21
56.3
  0
LINE
  8
0
 10
107.8
 20
31
 11
107.806
 21
31.1351
  0
LINE
  8
0
 10
107.806
 20
31.1351
 11
107.824
 21
31.2692
  0
LINE
  8
0
 10
107.824
 20
31.2692
 11
107.853
 21
31.4012
  0
LINE
  8
0
 10
107.853
 20
31.4012
 11
107.893
 21
31.5301
  0
LINE
  8
0
 10
107.893
 20
31.5301
 11
107.945
 21
31.6551
  0
LINE
  8
0
 10
107.945
 20
31.6551
 11
108.008
 21
31.775
  0
LINE
  8
0
 10
108.008
 20
31.775
 11
108.08
 21
31.889
  0
LINE
  8
0
 10
108.08
 20
31.889
 11
108.163
 21
31.9963
  0
LINE
  8
0
 10
108.163
 20
31.9963
 11
108.254
 21
32.096
  0
LINE
  8
0
 10
108.254
 20
32.096
 11
108.354
 21
32.1874
  0
LINE
  8
0
 10
108.354
 20
32.1874
 11
108.461
 21
32.2697
  0
LINE
  8
0
 10
108.461
 20
32.2697
 11
108.575
 21
32.3423
  0
LINE
  8
0
 10
108.575
 20
32.3423
 11
108.695
 21
32.4048
  0
LINE
  8
0
 10
108.695
 20
32.4048
 11
108.82
 21
32.4565
  0
LINE
  8
0
 10
108.82
 20
32.4565
 11
108.949
 21
32.4972
  0
LINE
  8
0
 10
108.949
 20
32.4972
 11
109.081
 21
32.5265
  0
LINE
  8
0
 10
109.081
 20
32.5265
 11
109.215
 21
32.5441
  0
LINE
  8
0
 10
109.215
 20
32.5441
 11
109.35
 21
32.55
  0
LINE
  8
0
 10
109.35
 20
32.55
 11
109.485
 21
32.5441
  0
LINE
  8
0
 10
109.485
 20
32.5441
 11
109.619
 21
32.5265
  0
LINE
  8
0
 10
109.619
 20
32.5265
 11
109.751
 21
32.4972
  0
LINE
  8
0
 10
109.751
 20
32.4972
 11
109.88
 21
32.4565
  0
LINE
  8
0
 10
109.88
 20
32.4565
 11
110.005
 21
32.4048
  0
LINE
  8
0
 10
110.005
 20
32.4048
 11
110.125
 21
32.3423
  0
LINE
  8
0
 10
110.125
 20
32.3423
 11
110.239
 21
32.2697
  0
LINE
  8
0
 10
110.239
 20
32.2697
 11
110.346
 21
32.1874
  0
LINE
  8
0
 10
110.346
 20
32.1874
 11
110.446
 21
32.096
  0
LINE
  8
0
 10
110.446
 20
32.096
 11
110.537
 21
31.9963
  0
LINE
  8
0
 10
110.537
 20
31.9963
 11
110.62
 21
31.889
  0
LINE
  8
0
 10
110.62
 20
31.889
 11
110.692
 21
31.775
  0
LINE
  8
0
 10
110.692
 20
31.775
 11
110.755
 21
31.6551
  0
LINE
  8
0
 10
110.755
 20
31.6551
 11
110.807
 21
31.5301
  0
LINE
  8
0
 10
110.807
 20
31.5301
 11
110.847
 21
31.4012
  0
LINE
  8
0
 10
110.847
 20
31.4012
 11
110.876
 21
31.2692
  0
LINE
  8
0
 10
110.876
 20
31.2692
 11
110.894
 21
31.1351
  0
LINE
  8
0
 10
110.894
 20
31.1351
 11
110.9
 21
31
  0
LINE
  8
0
 10
110.9
 20
31
 11
110.894
 21
30.8649
  0
LINE
  8
0
 10
110.894
 20
30.8649
 11
110.876
 21
30.7308
  0
LINE
  8
0
 10
110.876
 20
30.7308
 11
110.847
 21
30.5988
  0
LINE
  8
0
 10
110.847
 20
30.5988
 11
110.807
 21
30.4699
  0
LINE
  8
0
 10
110.807
 20
30.4699
 11
110.755
 21
30.3449
  0
LINE
  8
0
 10
110.755
 20
30.3449
 11
110.692
 21
30.225
  0
LINE
  8
0
 10
110.692
 20
30.225
 11
110.62
 21
30.111
  0
LINE
  8
0
 10
110.62
 20
30.111
 11
110.537
 21
30.0037
  0
LINE
  8
0
 10
110.537
 20
30.0037
 11
110.446
 21
29.904
  0
LINE
  8
0
 10
110.446
 20
29.904
 11
110.346
 21
29.8126
  0
LINE
  8
0
 10
110.346
 20
29.8126
 11
110.239
 21
29.7303
  0
LINE
  8
0
 10
110.239
 20
29.7303
 11
110.125
 21
29.6577
  0
LINE
  8
0
 10
110.125
 20
29.6577
 11
110.005
 21
29.5952
  0
LINE
  8
0
 10
110.005
 20
29.5952
 11
109.88
 21
29.5435
  0
LINE
  8
0
 10
109.88
 20
29.5435
 11
109.751
 21
29.5028
  0
LINE
  8
0
 10
109.751
 20
29.5028
 11
109.619
 21
29.4735
  0
LINE
  8
0
 10
109.619
 20
29.4735
 11
109.485
 21
29.4559
  0
LINE
  8
0
 10
109.485
 20
29.4559
 11
109.35
 21
29.45
  0
LINE
  8
0
 10
109.35
 20
29.45
 11
109.215
 21
29.4559
  0
LINE
  8
0
 10
109.215
 20
29.4559
 11
109.081
 21
29.4735
  0
LINE
  8
0
 10
109.081
 20
29.4735
 11
108.949
 21
29.5028
  0
LINE
  8
0
 10
108.949
 20
29.5028
 11
108.82
 21
29.5435
  0
LINE
  8
0
 10
108.82
 20
29.5435
 11
108.695
 21
29.5952
  0
LINE
  8
0
 10
108.695
 20
29.5952
 11
108.575
 21
29.6577
  0
LINE
  8
0
 10
108.575
 20
29.6577
 11
108.461
 21
29.7303
  0
LINE
  8
0
 10
108.461
 20
29.7303
 11
108.354
 21
29.8126
  0
LINE
  8
0
 10
108.354
 20
29.8126
 11
108.254
 21
29.904
  0
LINE
  8
0
 10
108.254
 20
29.904
 11
108.163
 21
30.0037
  0
LINE
  8
0
 10
108.163
 20
30.0037
 11
108.08
 21
30.111
  0
LINE
  8
0
 10
108.08
 20
30.111
 11
108.008
 21
30.225
  0
LINE
  8
0
 10
108.008
 20
30.225
 11
107.945
 21
30.3449
  0
LINE
  8
0
 10
107.945
 20
30.3449
 11
107.893
 21
30.4699
  0
LINE
  8
0
 10
107.893
 20
30.4699
 11
107.853
 21
30.5988
  0
LINE
  8
0
 10
107.853
 20
30.5988
 11
107.824
 21
30.7308
  0
LINE
  8
0
 10
107.824
 20
30.7308
 11
107.806
 21
30.8649
  0
LINE
  8
0
 10
107.806
 20
30.8649
 11
107.8
 21
31
  0
LINE
  8
0
 10
107.8
 20
61.375
 11
107.806
 21
61.5101
  0
LINE
  8
0
 10
107.806
 20
61.5101
 11
107.824
 21
61.6442
  0
LINE
  8
0
 10
107.824
 20
61.6442
 11
107.853
 21
61.7762
  0
LINE
  8
0
 10
107.853
 20
61.7762
 11
107.893
 21
61.9051
  0
LINE
  8
0
 10
107.893
 20
61.9051
 11
107.945
 21
62.0301
  0
LINE
  8
0
 10
107.945
 20
62.0301
 11
108.008
 21
62.15
  0
LINE
  8
0
 10
108.008
 20
62.15
 11
108.08
 21
62.264
  0
LINE
  8
0
 10
108.08
 20
62.264
 11
108.163
 21
62.3713
  0
LINE
  8
0
 10
108.163
 20
62.3713
 11
108.254
 21
62.471
  0
LINE
  8
0
 10
108.254
 20
62.471
 11
108.354
 21
62.5624
  0
LINE
  8
0
 10
108.354
 20
62.5624
 11
108.461
 21
62.6447
  0
LINE
  8
0
 10
108.461
 20
62.6447
 11
108.575
 21
62.7173
  0
LINE
  8
0
 10
108.575
 20
62.7173
 11
108.695
 21
62.7798
  0
LINE
  8
0
 10
108.695
 20
62.7798
 11
108.82
 21
62.8315
  0
LINE
  8
0
 10
108.82
 20
62.8315
 11
108.949
 21
62.8722
  0
LINE
  8
0
 10
108.949
 20
62.8722
 11
109.081
 21
62.9015
  0
LINE
  8
0
 10
109.081
 20
62.9015
 11
109.215
 21
62.9191
  0
LINE
  8
0
 10
109.215
 20
62.9191
 11
109.35
 21
62.925
  0
LINE
  8
0
 10
109.35
 20
62.925
 11
109.485
 21
62.9191
  0
LINE
  8
0
 10
109.485
 20
62.9191
 11
109.619
 21
62.9015
  0
LINE
  8
0
 10
109.619
 20
62.9015
 11
109.751
 21
62.8722
  0
LINE
  8
0
 10
109.751
 20
62.8722
 11
109.88
 21
62.8315
  0
LINE
  8
0
 10
109.88
 20
62.8315
 11
110.005
 21
62.7798
  0
LINE
  8
0
 10
110.005
 20
62.7798
 11
110.125
 21
62.7173
  0
LINE
  8
0
 10
110.125
 20
62.7173
 11
110.239
 21
62.6447
  0
LINE
  8
0
 10
110.239
 20
62.6447
 11
110.346
 21
62.5624
  0
LINE
  8
0
 10
110.346
 20
62.5624
 11
110.446
 21
62.471
  0
LINE
  8
0
 10
110.446
 20
62.471
 11
110.537
 21
62.3713
  0
LINE
  8
0
 10
110.537
 20
62.3713
 11
110.62
 21
62.264
  0
LINE
  8
0
 10
110.62
 20
62.264
 11
110.692
 21
62.15
  0
LINE
  8
0
 10
110.692
 20
62.15
 11
110.755
 21
62.0301
  0
LINE
  8
0
 10
110.755
 20
62.0301
 11
110.807
 21
61.9051
  0
LINE
  8
0
 10
110.807
 20
61.9051
 11
110.847
 21
61.7762
  0
LINE
  8
0
 10
110.847
 20
61.7762
 11
110.876
 21
61.6442
  0
LINE
  8
0
 10
110.876
 20
61.6442
 11
110.894
 21
61.5101
  0
LINE
  8
0
 10
110.894
 20
61.5101
 11
110.9
 21
61.375
  0
LINE
  8
0
 10
110.9
 20
61.375
 11
110.894
 21
61.2399
  0
LINE
  8
0
 10
110.894
 20
61.2399
 11
110.876
 21
61.1058
  0
LINE
  8
0
 10
110.876
 20
61.1058
 11
110.847
 21
60.9738
  0
LINE
  8
0
 10
110.847
 20
60.9738
 11
110.807
 21
60.8449
  0
LINE
  8
0
 10
110.807
 20
60.8449
 11
110.755
 21
60.7199
  0
LINE
  8
0
 10
110.755
 20
60.7199
 11
110.692
 21
60.6
  0
LINE
  8
0
 10
110.692
 20
60.6
 11
110.62
 21
60.486
  0
LINE
  8
0
 10
110.62
 20
60.486
 11
110.537
 21
60.3787
  0
LINE
  8
0
 10
110.537
 20
60.3787
 11
110.446
 21
60.279
  0
LINE
  8
0
 10
110.446
 20
60.279
 11
110.346
 21
60.1876
  0
LINE
  8
0
 10
110.346
 20
60.1876
 11
110.239
 21
60.1053
  0
LINE
  8
0
 10
110.239
 20
60.1053
 11
110.125
 21
60.0327
  0
LINE
  8
0
 10
110.125
 20
60.0327
 11
110.005
 21
59.9702
  0
LINE
  8
0
 10
110.005
 20
59.9702
 11
109.88
 21
59.9185
  0
LINE
  8
0
 10
109.88
 20
59.9185
 11
109.751
 21
59.8778
  0
LINE
  8
0
 10
109.751
 20
59.8778
 11
109.619
 21
59.8485
  0
LINE
  8
0
 10
109.619
 20
59.8485
 11
109.485
 21
59.8309
  0
LINE
  8
0
 10
109.485
 20
59.8309
 11
109.35
 21
59.825
  0
LINE
  8
0
 10
109.35
 20
59.825
 11
109.215
 21
59.8309
  0
LINE
  8
0
 10
109.215
 20
59.8309
 11
109.081
 21
59.8485
  0
LINE
  8
0
 10
109.081
 20
59.8485
 11
108.949
 21
59.8778
  0
LINE
  8
0
 10
108.949
 20
59.8778
 11
108.82
 21
59.9185
  0
LINE
  8
0
 10
108.82
 20
59.9185
 11
108.695
 21
59.9702
  0
LINE
  8
0
 10
108.695
 20
59.9702
 11
108.575
 21
60.0327
  0
LINE
  8
0
 10
108.575
 20
60.0327
 11
108.461
 21
60.1053
  0
LINE
  8
0
 10
108.461
 20
60.1053
 11
108.354
 21
60.1876
  0
LINE
  8
0
 10
108.354
 20
60.1876
 11
108.254
 21
60.279
  0
LINE
  8
0
 10
108.254
 20
60.279
 11
108.163
 21
60.3787
  0
LINE
  8
0
 10
108.163
 20
60.3787
 11
108.08
 21
60.486
  0
LINE
  8
0
 10
108.08
 20
60.486
 11
108.008
 21
60.6
  0
LINE
  8
0
 10
108.008
 20
60.6
 11
107.945
 21
60.7199
  0
LINE
  8
0
 10
107.945
 20
60.7199
 11
107.893
 21
60.8449
  0
LINE
  8
0
 10
107.893
 20
60.8449
 11
107.853
 21
60.9738
  0
LINE
  8
0
 10
107.853
 20
60.9738
 11
107.824
 21
61.1058
  0
LINE
  8
0
 10
107.824
 20
61.1058
 11
107.806
 21
61.2399
  0
LINE
  8
0
 10
107.806
 20
61.2399
 11
107.8
 21
61.375
  0
ENDSEC
  0
SECTION
  2
OBJECTS
  0
DICTIONARY
  0
ENDSEC
  0
EOF
