<?xml version="1.0" encoding="UTF-8" standalone="no"?>
<!-- Created with Inkscape (http://www.inkscape.org/) -->

<svg
   width="3.5277779in"
   height="1.5277778in"
   viewBox="0 0 89.60556 38.805556"
   version="1.1"
   id="svg1"
   xml:space="preserve"
   inkscape:version="1.3 (0e150ed6c4, 2023-07-21)"
   sodipodi:docname="DecaturMakers_nametag_with_guide_box.svg"
   xmlns:inkscape="http://www.inkscape.org/namespaces/inkscape"
   xmlns:sodipodi="http://sodipodi.sourceforge.net/DTD/sodipodi-0.dtd"
   xmlns="http://www.w3.org/2000/svg"
   xmlns:svg="http://www.w3.org/2000/svg"><sodipodi:namedview
     id="namedview1"
     pagecolor="#ffffff"
     bordercolor="#666666"
     borderopacity="1.0"
     inkscape:showpageshadow="2"
     inkscape:pageopacity="0.0"
     inkscape:pagecheckerboard="0"
     inkscape:deskcolor="#d1d1d1"
     inkscape:document-units="in"
     inkscape:zoom="2"
     inkscape:cx="217.75"
     inkscape:cy="68.75"
     inkscape:window-width="1920"
     inkscape:window-height="1021"
     inkscape:window-x="0"
     inkscape:window-y="0"
     inkscape:window-maximized="1"
     inkscape:current-layer="layer1" /><defs
     id="defs1"><style
       id="style1562">.cls-1{fill:#0087a9;}.cls-2{fill:#fff;}.cls-3,.cls-4{fill:#b8d659;}.cls-3{fill-rule:evenodd;}</style></defs><g
     inkscape:label="Layer 1"
     inkscape:groupmode="layer"
     id="layer1"
     transform="translate(-24.875862,-24.51234)"><rect
       style="display:inline;opacity:0.999;fill:none;fill-rule:evenodd;stroke:#0000ff;stroke-width:0.705556;stroke-linecap:round;stroke-linejoin:round;stroke-dasharray:none;stroke-opacity:1"
       id="rect2"
       width="50.376663"
       height="38.099998"
       x="63.66378"
       y="24.803383"
       ry="0" /><rect
       style="opacity:0.999;fill:none;fill-rule:evenodd;stroke:#ff0000;stroke-width:0.705556;stroke-linecap:round;stroke-linejoin:round;stroke-dasharray:none;stroke-opacity:1"
       id="rect1"
       width="88.900002"
       height="38.099998"
       x="25.22864"
       y="24.865118"
       ry="6.9796805" /><g
       id="g1"
       transform="matrix(0.10047536,0,0,0.10047536,27.5438,28.478586)"><rect
         class="cls-1"
         x="45.599998"
         y="184.72"
         width="13.05"
         height="90.82"
         id="rect1592"
         style="fill:#000000;fill-opacity:1" /><path
         class="cls-1"
         d="M 248.73,152.55 H 73.49 c -6.36,0 -11.51,4.89 -11.51,10.91 v 132.89 c 0,6 5.15,10.92 11.51,10.92 h 175.24 c 6.35,0 11.5,-4.89 11.5,-10.92 V 163.46 c 0,-6 -5.15,-10.91 -11.5,-10.91"
         id="path1594"
         style="fill:#000000;fill-opacity:1" /><path
         class="cls-2"
         d="m 244.95,212.23 c 0,16.54 -10.54,30 -23.54,30 H 99.56 c -13,0 -23.54,-13.42 -23.54,-30 0,-16.58 10.54,-29.95 23.54,-29.95 h 121.85 c 13,0 23.54,13.41 23.54,29.95"
         id="path1596" /><path
         class="cls-3"
         d="m 130.28,212.81 a 22.59,22.59 0 1 1 -22.58,-22.59 22.59,22.59 0 0 1 22.58,22.59"
         id="path1598"
         style="fill:#00000d;fill-opacity:1" /><path
         class="cls-3"
         d="m 236.26,212.81 a 22.59,22.59 0 1 1 -22.58,-22.59 22.59,22.59 0 0 1 22.58,22.59"
         id="path1600"
         style="fill:#000000;fill-opacity:1" /><rect
         class="cls-2"
         x="128.74001"
         y="277.04001"
         width="14.17"
         height="12.22"
         id="rect1602" /><rect
         class="cls-2"
         x="111.96001"
         y="262.54001"
         width="14.17"
         height="11.89"
         id="rect1604" /><rect
         class="cls-2"
         x="111.96001"
         y="277.04001"
         width="14.17"
         height="12.22"
         id="rect1606" /><rect
         class="cls-2"
         x="128.74001"
         y="262.54001"
         width="14.17"
         height="11.89"
         id="rect1608" /><rect
         class="cls-2"
         x="179.07001"
         y="262.54001"
         width="14.17"
         height="11.89"
         id="rect1610" /><rect
         class="cls-2"
         x="212.62"
         y="262.54001"
         width="14.94"
         height="11.89"
         id="rect1612" /><rect
         class="cls-2"
         x="162.29001"
         y="262.54001"
         width="14.17"
         height="11.89"
         id="rect1614" /><rect
         class="cls-2"
         x="145.52"
         y="262.54001"
         width="14.17"
         height="11.89"
         id="rect1616" /><rect
         class="cls-2"
         x="179.07001"
         y="277.04001"
         width="14.17"
         height="12.22"
         id="rect1618" /><rect
         class="cls-2"
         x="94.400002"
         y="277.04001"
         width="14.96"
         height="12.22"
         id="rect1620" /><rect
         class="cls-2"
         x="212.62"
         y="277.04001"
         width="14.94"
         height="12.22"
         id="rect1622" /><rect
         class="cls-2"
         x="94.400002"
         y="262.54001"
         width="14.96"
         height="11.89"
         id="rect1624" /><rect
         class="cls-2"
         x="145.52"
         y="277.04001"
         width="14.17"
         height="12.22"
         id="rect1626" /><rect
         class="cls-2"
         x="195.84"
         y="262.54001"
         width="14.17"
         height="11.89"
         id="rect1628" /><rect
         class="cls-2"
         x="162.29001"
         y="277.04001"
         width="14.17"
         height="12.22"
         id="rect1630" /><rect
         class="cls-2"
         x="195.84"
         y="277.04001"
         width="14.17"
         height="12.22"
         id="rect1632" /><path
         class="cls-4"
         d="m 5.93,230.18 a 36.91,36.91 0 0 0 35.93,36.89 v -73.79 a 36.92,36.92 0 0 0 -35.93,36.9"
         id="path1634"
         style="fill:#000000;fill-opacity:1" /><rect
         class="cls-1"
         x="263.45001"
         y="184.72"
         width="13.05"
         height="90.82"
         id="rect1636"
         style="fill:#000000;fill-opacity:1" /><path
         class="cls-4"
         d="M 316.17,230.1 A 36.9,36.9 0 0 0 280.24,193.21 V 267 a 36.92,36.92 0 0 0 35.93,-36.9"
         id="path1638"
         style="fill:#000000;fill-opacity:1" /><path
         class="cls-4"
         d="m 111.49,121.73 a 24.09,24.09 0 0 1 -4.28,-4.4 c 0.67,-1 1.43,-1.92 2.19,-2.82 a 19.49,19.49 0 0 1 -1,-1.68 17.14,17.14 0 0 1 -0.88,-1.77 c -1.16,0.17 -2.35,0.29 -3.55,0.37 a 23.78,23.78 0 0 1 -1.49,-5.93 q 1.65,-0.75 3.3,-1.35 a 18.71,18.71 0 0 1 -0.06,-2 16.28,16.28 0 0 1 0.12,-2 c -1.1,-0.44 -2.21,-0.92 -3.26,-1.45 a 24.15,24.15 0 0 1 1.69,-5.9 c 1.19,0.12 2.34,0.27 3.52,0.48 l 0.93,-1.74 1.1,-1.64 c -0.76,-0.94 -1.43,-1.88 -2.09,-2.87 a 24,24 0 0 1 4.39,-4.28 c 1,0.67 1.92,1.42 2.83,2.19 a 17.91,17.91 0 0 1 1.67,-1 16.19,16.19 0 0 1 1.77,-0.88 c -0.17,-1.16 -0.29,-2.35 -0.36,-3.55 a 23.78,23.78 0 0 1 5.93,-1.49 c 0.5,1.09 0.95,2.2 1.35,3.3 a 18.44,18.44 0 0 1 2,-0.06 18.78,18.78 0 0 1 2,0.12 c 0.43,-1.1 0.92,-2.21 1.45,-3.26 a 24.2,24.2 0 0 1 5.89,1.69 c -0.11,1.19 -0.26,2.34 -0.48,3.52 l 1.74,0.93 1.58,1.09 c 0.94,-0.75 1.88,-1.43 2.88,-2.09 a 24.71,24.71 0 0 1 4.28,4.39 c -0.68,1 -1.43,1.92 -2.19,2.82 a 21.95,21.95 0 0 1 1.92,3.46 c 1.16,-0.18 2.34,-0.3 3.54,-0.37 a 23.78,23.78 0 0 1 1.49,5.93 q -1.64,0.75 -3.3,1.35 a 18.44,18.44 0 0 1 0.06,2 16.44,16.44 0 0 1 -0.12,2 c 1.1,0.43 2.22,0.92 3.27,1.44 a 24.62,24.62 0 0 1 -1.7,5.9 c -1.19,-0.11 -2.34,-0.26 -3.52,-0.48 l -0.93,1.74 -1.09,1.65 c 0.75,0.93 1.42,1.87 2.09,2.87 a 24.43,24.43 0 0 1 -4.4,4.28 c -1,-0.68 -1.92,-1.43 -2.82,-2.2 a 17.4,17.4 0 0 1 -1.68,1.05 17.06,17.06 0 0 1 -1.77,0.87 c 0.17,1.17 0.29,2.35 0.37,3.55 a 23.78,23.78 0 0 1 -5.93,1.49 q -0.75,-1.63 -1.35,-3.3 a 18.63,18.63 0 0 1 -2,0.06 16.28,16.28 0 0 1 -2,-0.12 c -0.43,1.1 -0.92,2.22 -1.45,3.27 a 24.62,24.62 0 0 1 -5.9,-1.7 c 0.12,-1.19 0.27,-2.34 0.48,-3.52 l -1.74,-0.92 -1.64,-1.1 c -0.94,0.75 -1.87,1.42 -2.87,2.09 m 21.58,-29.51 a 12.25,12.25 0 0 0 -6,-1.69 11.83,11.83 0 0 0 -6,1.52 11.85,11.85 0 0 0 -6.12,10.27 11.74,11.74 0 0 0 1.51,6 11.9,11.9 0 0 0 10.26,6.14 11.94,11.94 0 0 0 6,-1.51 11.9,11.9 0 0 0 6.14,-10.26 12,12 0 0 0 -1.51,-6 12.23,12.23 0 0 0 -4.3,-4.45"
         id="path1640"
         style="fill:#000000;fill-opacity:1" /><path
         class="cls-4"
         d="M 96.38,77.19 A 14,14 0 0 1 94.66,74.1 c 0.52,-0.43 1.09,-0.84 1.65,-1.23 a 10.51,10.51 0 0 1 -0.33,-1.09 c -0.07,-0.37 -0.18,-0.74 -0.22,-1.12 -0.67,-0.08 -1.34,-0.19 -2,-0.33 a 13.75,13.75 0 0 1 0.07,-3.51 c 0.68,-0.11 1.36,-0.2 2,-0.25 a 10.56,10.56 0 0 1 0.27,-1.11 9.6,9.6 0 0 1 0.39,-1.11 C 95.95,63.94 95.4,63.5 94.9,63.05 a 14.06,14.06 0 0 1 1.83,-3 c 0.65,0.25 1.26,0.5 1.88,0.8 l 0.78,-0.83 0.86,-0.74 c -0.28,-0.63 -0.51,-1.26 -0.73,-1.91 a 13.91,13.91 0 0 1 3.09,-1.71 c 0.43,0.52 0.85,1.08 1.23,1.64 a 10.45,10.45 0 0 1 1.09,-0.32 10.59,10.59 0 0 1 1.12,-0.23 c 0.08,-0.67 0.19,-1.34 0.33,-2 a 13.83,13.83 0 0 1 3.52,0.07 c 0.11,0.68 0.19,1.36 0.25,2 a 8.76,8.76 0 0 1 1.1,0.26 8.6,8.6 0 0 1 1.08,0.37 19.75,19.75 0 0 1 1.3,-1.6 14.67,14.67 0 0 1 3,1.83 c -0.24,0.65 -0.5,1.26 -0.8,1.88 l 0.83,0.78 0.75,0.86 c 0.63,-0.28 1.25,-0.51 1.91,-0.73 a 14.32,14.32 0 0 1 1.71,3.09 c -0.52,0.43 -1.09,0.85 -1.65,1.24 a 8.07,8.07 0 0 1 0.33,1.09 10.37,10.37 0 0 1 0.22,1.11 c 0.67,0.08 1.34,0.19 2,0.33 a 13.39,13.39 0 0 1 -0.07,3.52 c -0.68,0.11 -1.36,0.19 -2,0.25 a 9.81,9.81 0 0 1 -0.27,1.1 10.52,10.52 0 0 1 -0.36,1.08 c 0.54,0.41 1.09,0.85 1.59,1.3 a 14,14 0 0 1 -1.83,3 18.29,18.29 0 0 1 -1.88,-0.8 l -0.78,0.83 -0.86,0.75 c 0.28,0.63 0.51,1.25 0.73,1.91 a 13.91,13.91 0 0 1 -3.09,1.71 c -0.43,-0.52 -0.85,-1.09 -1.23,-1.65 a 8.53,8.53 0 0 1 -1.09,0.33 10.55,10.55 0 0 1 -1.12,0.22 c -0.08,0.67 -0.19,1.35 -0.33,2 a 13.3,13.3 0 0 1 -3.51,-0.07 c -0.12,-0.68 -0.2,-1.36 -0.26,-2 -0.37,0 -0.73,-0.18 -1.1,-0.26 a 10.58,10.58 0 0 1 -1.08,-0.37 19.6,19.6 0 0 1 -1.3,1.59 13.84,13.84 0 0 1 -3,-1.83 c 0.24,-0.64 0.5,-1.26 0.8,-1.88 l -0.83,-0.78 -0.74,-0.85 c -0.64,0.27 -1.26,0.5 -1.91,0.72 m 16.43,-13.11 a 7.06,7.06 0 0 0 -3.05,-1.84 6.87,6.87 0 0 0 -3.57,-0.07 7,7 0 0 0 -3.13,1.72 6.93,6.93 0 0 0 -1.83,3 6.76,6.76 0 0 0 -0.07,3.57 6.83,6.83 0 0 0 4.77,5 6.82,6.82 0 0 0 3.56,0.06 7.09,7.09 0 0 0 3.13,-1.71 7,7 0 0 0 1.83,-3 6.76,6.76 0 0 0 0.07,-3.57 7,7 0 0 0 -1.71,-3.12"
         id="path1642"
         style="fill:#000000;fill-opacity:1" /><polygon
         class="cls-2"
         points="348.67,131.95 342.49,145.56 343.85,132.08 330.23,142.72 339.95,127.46 327.83,130.77 339.52,121.62 324.58,118.35 337.46,117.98 326.88,111.18 339.41,113.13 332.37,102.79 342.83,109.77 335.88,91.23 347.51,108 350.97,93.38 352.52,108.28 360.38,98.47 355.19,110.72 368.15,104.81 360.12,114.48 372.67,113.76 358.94,119.44 373.15,123.78 359.99,125.65 374.44,139.26 357.11,129.33 362.4,140.18 352.98,129.35 353.03,143.74 "
         id="polygon1644"
         transform="translate(-23.03)" /><path
         class="cls-4"
         d="m 318.4,149.5 1.6,-15.94 -15.43,12.06 10.92,-17.07 -13.64,3.72 13.16,-10.3 -18.82,-4.12 16.12,-0.47 -11.41,-7.33 14.11,2.19 -8.13,-11.89 11.61,7.74 -8.09,-21.59 13.81,19.9 4,-17 1.78,17.18 9.84,-12.23 -6.4,15.08 14,-6.39 -8.91,10.72 14.93,-0.86 -15.58,6.45 15.29,4.66 -14.74,2.1 17.52,16.5 -20.32,-11.63 6.55,13.42 -11.55,-13.27 v 16.35 l -5.09,-13.79 z m 3.23,-18.89 -1.11,11 5.19,-11.42 3.61,9.8 v -12.43 l 7.3,8.38 -4,-8.27 14.35,8.21 -11.48,-10.69 11.57,-1.65 -13.13,-4 11.82,-4.89 -10.17,0.58 7.16,-8.61 -11.87,5.41 4,-9.41 -5.88,7.33 -1.31,-12.6 -2.89,12.26 -9.46,-13.63 5.81,15.5 -9.34,-6.24 6,8.79 -10.96,-1.68 9.74,6.26 -9.63,0.28 11,2.42 -10.21,8 10.61,-2.9 -8.57,13.46 z"
         id="path1646"
         style="fill:#000000;fill-opacity:1" /><path
         class="cls-4"
         d="m 141.49,67.35 1.56,-1.64 -0.36,-1.71 -2.08,-0.89 -0.94,-1.53 0.15,-2.25 -1.38,-1.09 -2.17,0.66 -1.78,-0.55 -1.34,-1.82 h -1.75 l -1.23,1.9 -1.67,0.66 -2.2,-0.54 -1.31,1.17 0.28,2.24 -0.78,1.62 -2,1 -0.31,1.77 1.65,1.54 0.36,1.76 -0.91,2.07 0.93,1.5 2.28,0.13 1.4,1.12 0.64,2.17 1.66,0.55 1.81,-1.36 1.79,-0.06 1.89,1.26 1.61,-0.68 0.5,-2.21 1.35,-1.19 2.24,-0.25 0.84,-1.54 -1,-2 z m -10.61,2.3 a 3.34,3.34 0 1 1 4.65,-0.84 3.33,3.33 0 0 1 -4.69,0.84 z"
         id="path1648"
         style="fill:#000000;fill-opacity:1" /><path
         class="cls-4"
         d="m 294.84,100.98 -1.29,5 c -50.9,-10.88 -64.81,21.65 -66.7,26.88 h -8.72 c 10.17,-13.22 19.69,-25.85 27.26,-36.15 A 170.4,170.4 0 0 0 259.11,75.3 l -10.52,-7.75 a 171.41,171.41 0 0 0 -16.31,19.49 c -9.2,12.54 -20.8,28.85 -32.56,45.78 h -9.13 c 0.83,-2.89 1.64,-5.79 2.4,-8.67 1.12,-4.21 2.09,-8.74 3.48,-12.62 0.85,-2.38 2.42,-5.63 3.66,-8.3 1.16,-2.51 2.29,-4.63 3.59,-7.23 2.29,-4.58 4.84,-10.66 8.36,-12.84 2.8,-1.74 6.1,-0.73 9.81,-0.89 9,-0.38 17.94,-10 16.57,-21.79 -0.69,-5.88 -6.5,-11.9 -14.36,-9.83 -7.23,1.9 -14.17,11.26 -13.72,20.82 0.1,2 0.79,3.27 1.45,5.8 -2.43,1.9 -5.1,3.64 -7.18,6.59 a 62.42,62.42 0 0 0 -4.82,8.42 c -0.89,1.82 -1.13,3.12 -2.38,4.21 -1.14,0 -1.23,-0.94 -1.43,-1.38 -0.67,-1.48 0.07,-4.72 0.36,-7.09 0.69,-5.67 1,-11.25 -1.76,-15.2 6.79,-4.25 10.7,-13.66 9.28,-21.51 -0.86,-4.71 -3.11,-9.36 -9.74,-10.48 -13.41,-2.26 -21.82,20.62 -11.73,29.34 2.92,2.53 8.64,4.25 9.42,8.53 0.44,2.41 -0.18,6.08 -0.59,9.34 -0.41,3.26 -1.17,6.85 -1.71,9.93 a 163.06,163.06 0 0 1 -5.23,20.45 c -1.52,4.87 -3.3,9.67 -4.91,14.4 h -6.54 V 20.43 h 18.29 v 2.81 h 18.47 V 14 h -18.47 v 3.81 h -20.91 v 115 h -7.22 V 6.43 h 18.28 v 2.81 h 18.48 V 0 h -18.48 v 3.81 h -20.9 v 129 h -3 V 41.66 H 145.08 V 38.1 H 126.6 v 9.25 h 18.48 v -3.07 h 9.7 v 88.54 h -39.8 c -2.12,-2.88 -4.29,-5.65 -6.52,-8.12 -14.23,-15.71 -24.91,-35.34 -33.5,-53.09 -3.28,-6.77 -10.44,-18.2 -1.19,-22 10.16,-4.15 21.44,1.76 31.54,3.38 -13.4,-9.45 -28.9,-14.87 -45,-9.77 -4.79,1.52 -12.48,3.28 -16.17,6.77 -1.37,1.3 -1.49,3.86 -2.26,5.11 a 16.91,16.91 0 0 1 -10.39,7.86 c -3.28,0.77 -8.84,0.32 -12.5,4.45 -2.59,2.92 4.8,15.9 8.87,16 6.36,0.08 8.58,-8.69 11.53,-11.42 16.77,-15.46 30.48,14.79 39.33,29.89 a 274.32,274.32 0 0 1 15.43,31 h -1.82 c -5.88,-8 -23.22,-29.17 -40.25,-27.25 a 19,19 0 0 0 -5.94,1.69 C 39.38,93.26 29.95,90.26 24.05,89.92 12.74,89.26 2.5,97.2 0,104.99 l 3.58,1.14 c 2,-6.32 10.83,-13 20.25,-12.46 7.94,0.45 14.46,5.86 19.06,15.57 -5.42,3.88 -10,10.76 -13.7,20.58 -2.68,7.11 -1.68,13.53 2.65,17.17 a 11.09,11.09 0 0 0 7.17,2.57 11.89,11.89 0 0 0 6.06,-1.67 c 6.28,-3.72 8.74,-12.37 6.6,-23.14 a 79.67,79.67 0 0 0 -4,-14 15,15 0 0 1 4.82,-1.4 c 13.59,-1.54 28.38,14.93 35.09,23.52 h -7.2 v 11.38 h 165 v -11.43 h -6.4 c 4.14,-7.63 17.08,-23.29 51.72,-16.06 l -1.21,4.84 35,1.54 1.66,-6.38 z M 214.34,65.5 c 1.57,-5.7 9.06,-15.38 17.43,-9.66 9.65,6.58 -3,30.48 -14.82,21.4 -2.78,-2.13 -4.18,-6 -2.61,-11.74 m -29.43,2.66 c -3.91,-2.88 -4.74,-7.39 -3.07,-14 1.61,-6.32 8.25,-14.35 15.5,-7.94 5.46,4.82 4.13,19.56 -3.7,23 a 10.21,10.21 0 0 1 -8.73,-1.1 m -136.9,57.26 c 1.82,9.14 0,16.31 -4.83,19.18 a 7.73,7.73 0 0 1 -8.91,-0.54 c -3.11,-2.61 -3.67,-7.34 -1.55,-13 q 4.9,-13 11.71,-18.35 a 77.24,77.24 0 0 1 3.58,12.69"
         id="path1650"
         style="fill:#000000;fill-opacity:1" /><path
         class="cls-4"
         d="m 274.38,51.47 a 8.4,8.4 0 0 1 -4.75,-1.63 7.34,7.34 0 0 1 -2.92,-4.58 l -18.35,19.66 13.27,9.74 z"
         id="path1652"
         style="fill:#000000;fill-opacity:1" /><path
         class="cls-4"
         d="m 270.62,48.5 a 8.38,8.38 0 0 0 4.75,1.63 c 4,0.12 8.24,-2.54 10.35,-7.05 3.73,-8 -2.1,-12.29 12.21,-26.9 4.3,-4.39 -22.44,7.57 -27.44,16.42 -2,3.55 -3.48,7.8 -2.76,11.32 a 7.32,7.32 0 0 0 2.92,4.58"
         id="path1654"
         style="fill:#000000;fill-opacity:1" /></g><text
       xml:space="preserve"
       style="font-size:10.5833px;line-height:125%;font-family:'Liberation Sans';-inkscape-font-specification:'Liberation Sans';text-align:center;text-decoration:none;text-decoration-line:none;text-decoration-color:#000000;letter-spacing:0px;word-spacing:0px;text-anchor:middle;fill:#000000;stroke:#000000;stroke-width:0.264583px;stroke-linecap:butt;stroke-linejoin:miter;stroke-opacity:1;stop-color:#000000"
       x="89.269661"
       y="43.022434"
       id="text1"><tspan
         sodipodi:role="line"
         id="tspan1"
         style="font-size:16.9333px;text-align:center;text-anchor:middle;stroke-width:0.264583px"
         x="89.269661"
         y="43.022434">Jason</tspan><tspan
         sodipodi:role="line"
         style="font-size:8.46667px;text-align:center;text-anchor:middle;stroke-width:0.264583px"
         x="89.269661"
         y="56.25156"
         id="tspan2">Antman</tspan></text></g></svg>
