<?xml version="1.0" encoding="UTF-8" standalone="no"?>
<!-- Created with Inkscape (http://www.inkscape.org/) -->

<svg
   width="86mm"
   height="54mm"
   viewBox="0 0 86 54"
   version="1.1"
   id="svg5"
   inkscape:version="1.1.1 (3bf5ae0d25, 2021-09-20, custom)"
   sodipodi:docname="ScaledDown-Pathed.svg"
   xmlns:inkscape="http://www.inkscape.org/namespaces/inkscape"
   xmlns:sodipodi="http://sodipodi.sourceforge.net/DTD/sodipodi-0.dtd"
   xmlns="http://www.w3.org/2000/svg"
   xmlns:svg="http://www.w3.org/2000/svg">
  <sodipodi:namedview
     id="namedview7"
     pagecolor="#ffffff"
     bordercolor="#666666"
     borderopacity="1.0"
     inkscape:pageshadow="2"
     inkscape:pageopacity="0.0"
     inkscape:pagecheckerboard="0"
     inkscape:document-units="mm"
     showgrid="false"
     width="86mm"
     showguides="true"
     inkscape:guide-bbox="true"
     inkscape:zoom="2.8132592"
     inkscape:cx="163.68915"
     inkscape:cy="97.751391"
     inkscape:window-width="1920"
     inkscape:window-height="1051"
     inkscape:window-x="1920"
     inkscape:window-y="0"
     inkscape:window-maximized="1"
     inkscape:current-layer="layer1" />
  <defs
     id="defs2">
    <rect
       x="33.07358"
       y="39.100322"
       width="254.4257"
       height="52.481345"
       id="rect2658" />
  </defs>
  <g
     inkscape:label="Layer 1"
     inkscape:groupmode="layer"
     id="layer1">
    <g
       aria-label="Jason"
       transform="matrix(0.74849974,0,0,0.98855111,-77.159039,-43.057567)"
       id="text2656"
       style="font-size:19.6855px;line-height:125%;text-align:center;letter-spacing:0px;word-spacing:0px;baseline-shift:baseline;white-space:pre;shape-inside:url(#rect2658);opacity:1;vector-effect:none;stroke-width:0.999999px;stop-color:#000000;stop-opacity:1">
      <path
         d="m 139.93228,46.437687 h 1.79138 c 0.4134,0 0.62994,-0.17717 0.62994,-0.511823 0,-0.334654 -0.21654,-0.492138 -0.62994,-0.492138 h -5.8269 c -0.43308,0 -0.64962,0.157484 -0.64962,0.492138 0,0.334653 0.23622,0.511823 0.64962,0.511823 h 3.01188 v 6.771812 c 0,1.456726 -1.2205,2.618171 -2.77566,2.618171 -0.9449,0 -1.83075,-0.39371 -2.79534,-1.259872 v -2.460687 c 0,-0.413396 -0.17717,-0.629936 -0.51182,-0.629936 -0.33465,0 -0.51182,0.21654 -0.51182,0.629936 v 2.933139 c 1.53547,1.338614 2.50005,1.79138 3.7993,1.79138 2.08666,0 3.81898,-1.633896 3.81898,-3.622131 z"
         style="font-family:'Nimbus Mono PS';-inkscape-font-specification:'Nimbus Mono PS'"
         id="path8890" />
      <path
         d="m 150.71995,56.516662 h 1.98823 c 0.4134,0 0.62994,-0.177169 0.62994,-0.511823 0,-0.314968 -0.21654,-0.492137 -0.62994,-0.492137 h -0.96459 v -5.039488 c 0,-1.437041 -1.39767,-2.480373 -3.28748,-2.480373 -0.74805,0 -2.0276,0.255912 -3.11031,0.629936 -0.27559,0.09843 -0.41339,0.255912 -0.41339,0.492138 0,0.275597 0.21654,0.492137 0.47245,0.492137 0.0984,0 0.15748,-0.01969 0.4134,-0.09843 1.12207,-0.354339 1.94886,-0.511823 2.5788,-0.511823 1.37798,0 2.32289,0.590565 2.32289,1.476412 v 1.220501 c -1.18113,-0.295282 -1.67327,-0.354339 -2.55912,-0.354339 -2.55911,0 -4.27175,1.18113 -4.27175,2.933139 0,1.515784 1.27955,2.559115 3.16936,2.559115 1.3583,0 2.441,-0.433081 3.66151,-1.476412 z m 0,-2.322889 c -1.27956,1.18113 -2.30321,1.633897 -3.66151,1.633897 -1.31893,0 -2.14572,-0.610251 -2.14572,-1.555155 0,-1.141758 1.37799,-1.929178 3.34654,-1.929178 0.86616,0 1.81106,0.09843 2.46069,0.255911 z"
         style="font-family:'Nimbus Mono PS';-inkscape-font-specification:'Nimbus Mono PS'"
         id="path8892" />
      <path
         d="m 157.33428,54.193773 c 0,-0.314968 -0.21654,-0.531508 -0.51182,-0.531508 -0.33466,0 -0.51183,0.21654 -0.51183,0.629936 v 1.594525 c 0,0.413396 0.17717,0.629936 0.51183,0.629936 0.31497,0 0.49214,-0.21654 0.49214,-0.61025 0.74804,0.61025 1.79138,0.925218 2.99219,0.925218 2.32289,0 3.97647,-1.102388 3.97647,-2.657542 0,-0.708678 -0.39371,-1.39767 -1.02364,-1.811066 -0.64963,-0.433081 -1.37799,-0.649621 -2.59849,-0.767734 -1.73232,-0.196855 -1.83075,-0.216541 -2.26383,-0.472452 -0.35434,-0.216541 -0.57088,-0.511823 -0.57088,-0.78742 0,-0.767735 1.04333,-1.338614 2.46069,-1.338614 1.43704,0 2.42131,0.531508 2.51974,1.338614 0.0394,0.354339 0.19685,0.531508 0.49214,0.531508 0.33465,0 0.51182,-0.21654 0.51182,-0.629936 v -1.338614 c 0,-0.413395 -0.17717,-0.629936 -0.49214,-0.629936 -0.27559,0 -0.47245,0.196855 -0.51182,0.492138 -0.66931,-0.511823 -1.55516,-0.767735 -2.61817,-0.767735 -1.98824,0 -3.46465,0.96459 -3.46465,2.283518 0,0.649622 0.35434,1.259872 0.9449,1.614211 0.57088,0.354339 1.14176,0.492138 2.59849,0.629936 1.0827,0.118113 1.59453,0.236226 2.10635,0.531509 0.49214,0.255911 0.8071,0.688992 0.8071,1.102387 0,0.96459 -1.24018,1.673268 -2.91345,1.673268 -1.61421,0 -2.93314,-0.669307 -2.93314,-1.496098 z"
         style="font-family:'Nimbus Mono PS';-inkscape-font-specification:'Nimbus Mono PS'"
         id="path8894" />
      <path
         d="m 172.17716,47.992841 c -2.63786,0 -4.66547,1.929179 -4.66547,4.429238 0,2.441001 2.04729,4.409551 4.60641,4.409551 2.55911,0 4.58672,-1.948864 4.58672,-4.429237 0,-2.421316 -2.02761,-4.409552 -4.52766,-4.409552 z m -0.11812,1.003961 c 2.04729,0 3.62213,1.476412 3.62213,3.425277 0,1.889807 -1.57484,3.405591 -3.56307,3.405591 -1.98824,0 -3.58276,-1.515784 -3.58276,-3.425277 0,-1.870122 1.57484,-3.405591 3.5237,-3.405591 z"
         style="font-family:'Nimbus Mono PS';-inkscape-font-specification:'Nimbus Mono PS'"
         id="path8896" />
      <path
         d="m 181.40966,48.268438 h -1.59452 c -0.43309,0 -0.62994,0.157484 -0.62994,0.492138 0,0.334653 0.21654,0.511823 0.62994,0.511823 h 0.57088 v 6.240303 h -0.78742 c -0.43309,0 -0.64963,0.177169 -0.64963,0.492137 0,0.334654 0.23623,0.511823 0.64963,0.511823 h 2.59848 c 0.4134,0 0.62994,-0.177169 0.62994,-0.511823 0,-0.314968 -0.21654,-0.492137 -0.62994,-0.492137 h -0.78742 v -4.744205 c 1.20082,-1.476413 1.69295,-1.771695 2.89377,-1.771695 0.70868,0 1.0827,0.118113 1.51578,0.472452 0.47245,0.39371 0.70868,0.846476 0.70868,1.377985 v 4.665463 h -0.55119 c -0.43308,0 -0.64962,0.177169 -0.64962,0.492137 0,0.334654 0.23622,0.511823 0.64962,0.511823 h 2.14572 c 0.39371,0 0.62993,-0.177169 0.62993,-0.511823 0,-0.314968 -0.21654,-0.492137 -0.62993,-0.492137 h -0.57088 V 50.70944 c 0,-1.535469 -1.37799,-2.716599 -3.18905,-2.716599 -1.20082,0 -1.9095,0.354339 -2.95283,1.456727 z"
         style="font-family:'Nimbus Mono PS';-inkscape-font-specification:'Nimbus Mono PS'"
         id="path8898" />
    </g>
    <g
       aria-label="Antman"
       transform="matrix(0.26458333,0,0,0.26458333,13.674963,-10.583334)"
       id="text7592"
       style="font-size:48px;line-height:125%;text-align:center;letter-spacing:0px;word-spacing:0px;baseline-shift:baseline;text-anchor:middle;opacity:1;vector-effect:none;stroke-width:0.999999px;stop-color:#000000;stop-opacity:1">
      <path
         d="m 46.034743,119.50505 2.448,6.384 h -3.264 c -1.008,0 -1.536,0.432 -1.536,1.2 0,0.816 0.528,1.248 1.536,1.248 h 7.488 c 1.008,0 1.584,-0.432 1.584,-1.248 0,-0.768 -0.528,-1.2 -1.584,-1.2 h -1.584 l -9.456,-24.576 h -9.936 c -1.056,0 -1.584,0.384 -1.584,1.2 0,0.816 0.576,1.248 1.584,1.248 h 5.328 l -8.352,22.128 h -1.344 c -1.008,0 -1.536,0.432 -1.536,1.2 0,0.816 0.576,1.248 1.536,1.248 h 7.248 c 1.008,0 1.584,-0.432 1.584,-1.248 0,-0.768 -0.528,-1.2 -1.584,-1.2 h -3.408 l 2.4,-6.384 z m -0.96,-2.448 h -10.512 l 4.992,-13.296 h 0.384 z"
         style="font-family:'Nimbus Mono PS';-inkscape-font-specification:'Nimbus Mono PS'"
         id="path8919" />
      <path
         d="m 62.738761,108.22505 h -3.888 c -1.056,0 -1.536,0.384 -1.536,1.2 0,0.816 0.528,1.248 1.536,1.248 h 1.392 v 15.216 h -1.92 c -1.056,0 -1.584,0.432 -1.584,1.2 0,0.816 0.576,1.248 1.584,1.248 h 6.336 c 1.008,0 1.536,-0.432 1.536,-1.248 0,-0.768 -0.528,-1.2 -1.536,-1.2 h -1.92 v -11.568 c 2.928,-3.6 4.128,-4.32 7.056,-4.32 1.728,0 2.64,0.288 3.696,1.152 1.152,0.96 1.728,2.064 1.728,3.36 v 11.376 h -1.344 c -1.056,0 -1.584,0.432 -1.584,1.2 0,0.816 0.576,1.248 1.584,1.248 h 5.232 c 0.96,0 1.536,-0.432 1.536,-1.248 0,-0.768 -0.528,-1.2 -1.536,-1.2 h -1.392 v -11.712 c 0,-3.744 -3.36,-6.624 -7.776,-6.624 -2.928,0 -4.656,0.864 -7.2,3.552 z"
         style="font-family:'Nimbus Mono PS';-inkscape-font-specification:'Nimbus Mono PS'"
         id="path8921" />
      <path
         d="m 92.450779,108.22505 v -5.376 c 0,-1.008 -0.432,-1.488 -1.248,-1.488 -0.816,0 -1.248,0.528 -1.248,1.488 v 5.376 h -3.312 c -1.056,0 -1.584,0.384 -1.584,1.2 0,0.816 0.528,1.248 1.584,1.248 h 3.312 v 12.384 c 0,3.648 3.024,6.048 7.728,6.048 2.256,0 4.944001,-0.528 7.248001,-1.392 1.776,-0.672 2.544,-1.296 2.544,-2.016 0,-0.672 -0.528,-1.2 -1.2,-1.2 -0.24,0 -0.432,0.048 -0.864,0.336 -1.872,1.056 -5.184,1.824 -7.824001,1.824 -3.168,0 -5.136,-1.44 -5.136,-3.696 v -12.288 h 10.272001 c 1.056,0 1.584,-0.432 1.584,-1.248 0,-0.816 -0.528,-1.2 -1.584,-1.2 z"
         style="font-family:'Nimbus Mono PS';-inkscape-font-specification:'Nimbus Mono PS'"
         id="path8923" />
      <path
         d="m 117.6988,108.22505 h -3.84 c -1.056,0 -1.536,0.384 -1.536,1.2 0,0.816 0.528,1.248 1.536,1.248 h 1.392 v 15.216 h -1.392 c -1.008,0 -1.536,0.432 -1.536,1.2 0,0.768 0.576,1.248 1.488,1.248 h 5.232 c 1.008,0 1.584,-0.432 1.584,-1.2 0,-0.816 -0.528,-1.248 -1.584,-1.248 h -1.344 v -12.24 c 1.728,-2.544 3.168,-3.648 4.8,-3.648 1.488,0 2.832,1.536 2.832,3.216 v 15.12 h 3.84 c 1.008,0 1.536,-0.432 1.536,-1.248 0,-0.768 -0.528,-1.2 -1.536,-1.2 h -1.392 v -12.24 c 1.728,-2.544 3.12,-3.648 4.704,-3.648 1.584,0 2.928,1.44 2.928,3.072 v 15.264 h 3.84 c 0.96,0 1.536,-0.432 1.536,-1.248 0,-0.768 -0.528,-1.2 -1.536,-1.2 h -1.392 v -13.008 c 0,-2.928 -2.4,-5.328 -5.328,-5.328 -1.968,0 -3.408,0.816 -5.328,3.12 -1.152,-2.112 -2.688,-3.12 -4.704,-3.12 -1.92,0 -3.312,0.768 -4.8,2.592 z"
         style="font-family:'Nimbus Mono PS';-inkscape-font-specification:'Nimbus Mono PS'"
         id="path8925" />
      <path
         d="m 160.70682,128.33705 h 4.848 c 1.008,0 1.536,-0.432 1.536,-1.248 0,-0.768 -0.528,-1.2 -1.536,-1.2 h -2.352 v -12.288 c 0,-3.504 -3.408,-6.048 -8.016,-6.048 -1.824,0 -4.944,0.624 -7.584,1.536 -0.672,0.24 -1.008,0.624 -1.008,1.2 0,0.672 0.528,1.2 1.152,1.2 0.24,0 0.384,-0.048 1.008,-0.24 2.736,-0.864 4.752,-1.248 6.288,-1.248 3.36,0 5.664,1.44 5.664,3.6 v 2.976 c -2.88,-0.72 -4.08,-0.864 -6.24,-0.864 -6.24,0 -10.416,2.88 -10.416,7.152 0,3.696 3.12,6.24 7.728,6.24 3.312,0 5.952,-1.056 8.928,-3.6 z m 0,-5.664 c -3.12,2.88 -5.616,3.984 -8.928,3.984 -3.216,0 -5.232,-1.488 -5.232,-3.792 0,-2.784 3.36,-4.704 8.16,-4.704 2.112,0 4.416,0.24 6,0.624 z"
         style="font-family:'Nimbus Mono PS';-inkscape-font-specification:'Nimbus Mono PS'"
         id="path8927" />
      <path
         d="m 177.93883,108.22505 h -3.888 c -1.056,0 -1.536,0.384 -1.536,1.2 0,0.816 0.528,1.248 1.536,1.248 h 1.392 v 15.216 h -1.92 c -1.056,0 -1.584,0.432 -1.584,1.2 0,0.816 0.576,1.248 1.584,1.248 h 6.336 c 1.008,0 1.536,-0.432 1.536,-1.248 0,-0.768 -0.528,-1.2 -1.536,-1.2 h -1.92 v -11.568 c 2.928,-3.6 4.128,-4.32 7.056,-4.32 1.728,0 2.64,0.288 3.696,1.152 1.152,0.96 1.728,2.064 1.728,3.36 v 11.376 h -1.344 c -1.056,0 -1.584,0.432 -1.584,1.2 0,0.816 0.576,1.248 1.584,1.248 h 5.232 c 0.96,0 1.536,-0.432 1.536,-1.248 0,-0.768 -0.528,-1.2 -1.536,-1.2 h -1.392 v -11.712 c 0,-3.744 -3.36,-6.624 -7.776,-6.624 -2.928,0 -4.656,0.864 -7.2,3.552 z"
         style="font-family:'Nimbus Mono PS';-inkscape-font-specification:'Nimbus Mono PS'"
         id="path8929" />
    </g>
    <rect
       style="opacity:0.999;fill:none;fill-rule:evenodd;stroke:#000000;stroke-width:0.065;stroke-miterlimit:4;stroke-dasharray:none"
       id="rect960"
       width="64"
       height="26"
       x="11"
       y="0.032499999" />
  </g>
</svg>
