<?xml version="1.0" encoding="UTF-8" standalone="no"?>
<!-- Created with Inkscape (http://www.inkscape.org/) -->

<svg
   width="86mm"
   height="54mm"
   viewBox="0 0 86 54"
   version="1.1"
   id="svg5"
   inkscape:version="1.1.1 (3bf5ae0d25, 2021-09-20, custom)"
   sodipodi:docname="ScaledDown-Bold-Pathed.svg"
   xmlns:inkscape="http://www.inkscape.org/namespaces/inkscape"
   xmlns:sodipodi="http://sodipodi.sourceforge.net/DTD/sodipodi-0.dtd"
   xmlns="http://www.w3.org/2000/svg"
   xmlns:svg="http://www.w3.org/2000/svg">
  <sodipodi:namedview
     id="namedview7"
     pagecolor="#ffffff"
     bordercolor="#666666"
     borderopacity="1.0"
     inkscape:pageshadow="2"
     inkscape:pageopacity="0.0"
     inkscape:pagecheckerboard="0"
     inkscape:document-units="mm"
     showgrid="false"
     width="86mm"
     showguides="true"
     inkscape:guide-bbox="true"
     inkscape:zoom="2.8132592"
     inkscape:cx="163.68915"
     inkscape:cy="97.751391"
     inkscape:window-width="1920"
     inkscape:window-height="1051"
     inkscape:window-x="1920"
     inkscape:window-y="0"
     inkscape:window-maximized="1"
     inkscape:current-layer="layer1" />
  <defs
     id="defs2">
    <rect
       x="33.07358"
       y="39.100322"
       width="254.4257"
       height="52.481345"
       id="rect2658" />
  </defs>
  <g
     inkscape:label="Layer 1"
     inkscape:groupmode="layer"
     id="layer1">
    <g
       aria-label="Jason"
       transform="matrix(0.74849974,0,0,0.98855111,-77.159039,-43.057567)"
       id="text2656"
       style="font-size:19.6855px;line-height:125%;text-align:center;letter-spacing:0px;word-spacing:0px;baseline-shift:baseline;white-space:pre;shape-inside:url(#rect2658);opacity:1;vector-effect:none;stroke-width:0.999999px;stop-color:#000000;stop-opacity:1">
      <path
         d="m 140.48348,47.441647 h 1.04333 c 0.45277,0 0.68899,-0.03937 0.86616,-0.137798 0.31497,-0.196855 0.51182,-0.531509 0.51182,-0.885848 0,-0.314968 -0.15748,-0.61025 -0.43308,-0.807105 -0.21654,-0.157484 -0.39371,-0.196855 -0.9449,-0.196855 h -5.4332 c -0.53151,0 -0.6693,0.01969 -0.86616,0.137798 -0.31497,0.196855 -0.51182,0.531509 -0.51182,0.866162 0,0.334654 0.15748,0.649622 0.43308,0.826791 0.21654,0.157484 0.43308,0.196855 0.9449,0.196855 h 2.26383 v 5.275714 c 0,0.846476 -0.0394,0.984275 -0.45276,1.358299 -0.43308,0.39371 -1.12208,0.649622 -1.7717,0.649622 -0.68899,0 -1.31893,-0.157484 -2.26383,-0.551194 v -1.752009 c 0,-0.472452 -0.0394,-0.649622 -0.15748,-0.846477 -0.19686,-0.295282 -0.53151,-0.472452 -0.90554,-0.472452 -0.33465,0 -0.64962,0.157484 -0.86616,0.413396 -0.15748,0.196855 -0.19685,0.413395 -0.19685,0.905533 v 3.110308 l 0.15748,0.05906 c 1.7717,0.826791 3.05125,1.18113 4.15364,1.18113 1.18113,0 2.28352,-0.374025 3.13,-1.082703 0.96458,-0.767734 1.29924,-1.496098 1.29924,-2.755969 z"
         style="font-weight:bold;font-family:'Nimbus Mono PS';-inkscape-font-specification:'Nimbus Mono PS Bold'"
         id="path8727" />
      <path
         d="m 150.12938,56.516662 h 2.38195 c 0.92521,0 1.37798,-0.334653 1.37798,-1.023646 0,-0.314968 -0.15748,-0.629936 -0.43308,-0.826791 -0.21654,-0.137798 -0.39371,-0.177169 -0.9449,-0.177169 h -0.23623 v -3.720559 c 0,-1.791381 -1.47641,-2.854398 -3.95679,-2.854398 -1.00396,0 -2.441,0.236226 -3.40559,0.551194 -0.43308,0.157484 -0.64962,0.452767 -0.64962,0.885848 0,0.570879 0.45277,1.023646 1.02365,1.023646 0.19685,0 0.47245,-0.03937 0.82679,-0.118113 0.9449,-0.216541 1.61421,-0.314968 2.28352,-0.314968 1.20081,0 1.73232,0.255911 1.73232,0.826791 v 0.354339 c -0.68899,-0.118113 -1.33861,-0.17717 -1.98823,-0.17717 -1.75201,0 -3.11031,0.492138 -4.03553,1.456727 -0.49214,0.511823 -0.78742,1.200815 -0.78742,1.811066 0,1.437041 1.63389,2.598486 3.6615,2.598486 1.0827,0 2.22446,-0.236226 3.14968,-0.669307 z m 0.0197,-2.657542 c -1.06302,0.61025 -2.12604,0.925218 -3.18905,0.925218 -0.76774,0 -1.39768,-0.295282 -1.39768,-0.649621 0,-0.275597 0.23623,-0.57088 0.62994,-0.826791 0.53151,-0.334653 1.0827,-0.472452 1.87012,-0.472452 0.64962,0 1.24019,0.05906 2.08667,0.196855 z"
         style="font-weight:bold;font-family:'Nimbus Mono PS';-inkscape-font-specification:'Nimbus Mono PS Bold'"
         id="path8729" />
      <path
         d="m 164.42106,49.233028 c 0,-0.374025 -0.0197,-0.511823 -0.0787,-0.688993 -0.0984,-0.374024 -0.49214,-0.629936 -0.92522,-0.629936 -0.31497,0 -0.49214,0.118113 -0.66931,0.452767 -0.72836,-0.295283 -1.55515,-0.452767 -2.50006,-0.452767 -2.40163,0 -4.13395,1.102388 -4.13395,2.657543 0,1.515783 1.18113,2.303203 3.97647,2.598486 1.06302,0.09843 1.47641,0.177169 1.79138,0.295282 0.39371,0.157484 0.62994,0.374024 0.62994,0.590565 0,0.39371 -1.04333,0.728363 -2.20478,0.728363 -1.04333,0 -1.87012,-0.236226 -2.42132,-0.688992 -0.17716,-0.590565 -0.51182,-0.866162 -1.06301,-0.866162 -0.37403,0 -0.66931,0.137798 -0.88585,0.413395 -0.15748,0.216541 -0.19685,0.39371 -0.19685,0.905533 v 0.629936 c 0,0.905533 0.35433,1.318929 1.0827,1.318929 0.25591,0 0.43308,-0.05906 0.64962,-0.216541 0.76773,0.354339 1.77169,0.531509 2.91345,0.531509 2.5788,0 4.44893,-1.141759 4.44893,-2.716599 0,-0.905533 -0.53151,-1.732324 -1.41736,-2.204776 -0.59057,-0.314968 -1.41736,-0.531508 -2.87408,-0.708678 -1.25987,-0.177169 -1.37799,-0.196855 -1.6339,-0.275597 -0.29528,-0.118113 -0.47245,-0.255911 -0.47245,-0.39371 0,-0.275597 0.9449,-0.570879 1.87012,-0.570879 0.80711,0 1.45673,0.177169 1.96855,0.531508 0.35434,0.610251 0.59057,0.767735 1.0827,0.767735 0.33466,0 0.64962,-0.157484 0.86617,-0.413396 0.15748,-0.196855 0.19685,-0.39371 0.19685,-0.905533 z"
         style="font-weight:bold;font-family:'Nimbus Mono PS';-inkscape-font-specification:'Nimbus Mono PS Bold'"
         id="path8731" />
      <path
         d="m 172.15747,47.914099 c -2.95282,0 -5.21666,1.929179 -5.21666,4.448923 0,2.500058 2.26384,4.448923 5.1576,4.448923 2.89377,0 5.1576,-1.948865 5.1576,-4.448923 0,-2.480373 -2.26383,-4.448923 -5.09854,-4.448923 z m -0.0984,2.027607 c 1.75201,0 3.07094,1.043331 3.07094,2.421316 0,1.358299 -1.31893,2.421316 -3.03157,2.421316 -1.71264,0 -3.03156,-1.063017 -3.03156,-2.421316 0,-1.358299 1.31892,-2.421316 2.99219,-2.421316 z"
         style="font-weight:bold;font-family:'Nimbus Mono PS';-inkscape-font-specification:'Nimbus Mono PS Bold'"
         id="path8733" />
      <path
         d="m 181.92148,48.150325 h -1.92917 c -0.4134,0 -0.5512,0.01969 -0.72837,0.07874 -0.37402,0.118113 -0.66931,0.531509 -0.66931,0.944904 0,0.314968 0.15749,0.629936 0.43309,0.826791 0.19685,0.118113 0.33465,0.157484 0.76773,0.17717 v 4.311124 h -0.0394 c -0.49214,0 -0.68899,0.01969 -0.86616,0.137798 -0.31497,0.17717 -0.51183,0.531509 -0.51183,0.866162 0,0.314968 0.15749,0.629936 0.43309,0.826791 0.19685,0.137799 0.45276,0.196855 0.9449,0.196855 h 2.20477 c 0.90554,0 1.37799,-0.354339 1.37799,-1.023646 0,-0.314968 -0.15748,-0.61025 -0.43308,-0.826791 -0.21654,-0.137798 -0.39371,-0.177169 -0.94491,-0.177169 h -0.0394 v -3.307164 c 0.88585,-0.925218 1.4961,-1.240186 2.38195,-1.240186 1.18113,0 1.69295,0.39371 1.69295,1.279557 v 3.267793 c -0.74805,0 -1.20081,0.374024 -1.20081,1.00396 0,0.688993 0.47245,1.023646 1.39767,1.023646 h 1.75201 c 0.90553,0 1.37798,-0.334653 1.37798,-1.023646 0,-0.314968 -0.15748,-0.629936 -0.43308,-0.826791 -0.19685,-0.118113 -0.33465,-0.157484 -0.76773,-0.177169 v -3.346535 c 0,-1.122073 -0.39371,-1.948864 -1.20082,-2.519744 -0.64962,-0.472452 -1.47641,-0.708678 -2.40163,-0.708678 -1.04333,0 -1.69295,0.255912 -2.59849,1.043332 z"
         style="font-weight:bold;font-family:'Nimbus Mono PS';-inkscape-font-specification:'Nimbus Mono PS Bold'"
         id="path8735" />
    </g>
    <g
       aria-label="Antman"
       transform="matrix(0.26458333,0,0,0.26458333,13.674963,-10.583334)"
       id="text7592"
       style="font-size:48px;line-height:125%;text-align:center;letter-spacing:0px;word-spacing:0px;baseline-shift:baseline;text-anchor:middle;opacity:1;vector-effect:none;stroke-width:0.999999px;stop-color:#000000;stop-opacity:1">
      <path
         d="m 45.506743,121.08905 0.912,2.256 h -0.816 c -1.248,0 -1.632,0.096 -2.112,0.384 -0.768,0.432 -1.248,1.248 -1.248,2.112 0,0.816 0.384,1.536 1.056,2.016 0.48,0.336 1.152,0.48 2.304,0.48 h 6.672 c 1.008,0 1.728,-0.096 2.112,-0.336 0.768,-0.432 1.248,-1.296 1.248,-2.16 0,-0.768 -0.384,-1.536 -1.056,-2.016 -0.528,-0.336 -0.96,-0.432 -2.256,-0.48 l -9.552,-22.08 h -10.512 c -1.296,0 -1.68,0.048 -2.16,0.336 -0.768,0.48 -1.248,1.296 -1.248,2.112 0,0.816 0.384,1.536 1.104,2.016 0.48,0.384 1.008,0.48 2.304,0.48 h 2.736 l -7.296,17.136 c -2.112,0 -3.264,0.864 -3.264,2.496 0,1.68 1.104,2.496 3.36,2.496 h 6.384 c 1.008,0 1.728,-0.096 2.112,-0.336 0.768,-0.48 1.248,-1.296 1.248,-2.16 0,-0.768 -0.384,-1.536 -1.056,-2.016 -0.528,-0.384 -0.96,-0.48 -2.304,-0.48 h -0.816 l 0.96,-2.256 z m -2.16,-4.944 h -6.96 l 3.504,-8.112 z"
         style="font-weight:bold;font-family:'Nimbus Mono PS';-inkscape-font-specification:'Nimbus Mono PS Bold'"
         id="path8756" />
      <path
         d="m 63.986761,107.93705 h -4.704 c -1.008,0 -1.344,0.048 -1.776,0.192 -0.912,0.288 -1.632,1.296 -1.632,2.304 0,0.768 0.384,1.536 1.056,2.016 0.48,0.288 0.816,0.384 1.872,0.432 v 10.512 h -0.096 c -1.2,0 -1.68,0.048 -2.112,0.336 -0.768,0.432 -1.248,1.296 -1.248,2.112 0,0.768 0.384,1.536 1.056,2.016 0.48,0.336 1.104,0.48 2.304,0.48 h 5.376 c 2.208,0 3.36,-0.864 3.36,-2.496 0,-0.768 -0.384,-1.488 -1.056,-2.016 -0.528,-0.336 -0.96,-0.432 -2.304,-0.432 h -0.096 v -8.064 c 2.16,-2.256 3.648,-3.024 5.808,-3.024 2.88,0 4.128,0.96 4.128,3.12 v 7.968 c -1.824,0 -2.928,0.912 -2.928,2.448 0,1.68 1.152,2.496 3.408,2.496 h 4.272 c 2.208,0 3.36,-0.816 3.36,-2.496 0,-0.768 -0.384,-1.536 -1.056,-2.016 -0.48,-0.288 -0.816,-0.384 -1.872,-0.432 v -8.16 c 0,-2.736 -0.96,-4.752 -2.928,-6.144 -1.584,-1.152 -3.6,-1.728 -5.856,-1.728 -2.544,0 -4.128,0.624 -6.336,2.544 z"
         style="font-weight:bold;font-family:'Nimbus Mono PS';-inkscape-font-specification:'Nimbus Mono PS Bold'"
         id="path8758" />
      <path
         d="m 93.698779,112.88105 h 8.496001 c 2.208,0 3.36,-0.816 3.36,-2.496 0,-0.768 -0.384,-1.536 -1.056,-2.016 -0.528,-0.336 -0.96,-0.432 -2.304,-0.432 h -8.496001 v -3.84 c 0,-1.2 -0.048,-1.584 -0.384,-2.064 -0.48,-0.72 -1.296,-1.152 -2.208,-1.152 -0.816,0 -1.584,0.384 -2.112,1.008 -0.384,0.48 -0.48,0.96 -0.48,2.208 v 3.84 h -1.488 c -1.296,0 -1.632,0.048 -2.112,0.336 -0.768,0.432 -1.248,1.296 -1.248,2.112 0,0.816 0.384,1.536 1.056,2.016 0.48,0.336 1.104,0.48 2.304,0.48 h 1.488 v 9.696 c 0,3.984 3.456,6.48 9.072,6.48 2.592001,0 6.336001,-0.768 8.688001,-1.824 1.92,-0.864 2.544,-1.488 2.544,-2.688 0,-1.392 -1.104,-2.496 -2.496,-2.496 -0.576,0 -0.864,0.096 -1.776,0.528 -2.112,1.008 -4.416,1.536 -6.912001,1.536 -1.776,0 -3.072,-0.288 -3.6,-0.864 -0.24,-0.24 -0.336,-0.672 -0.336,-1.584 z"
         style="font-weight:bold;font-family:'Nimbus Mono PS';-inkscape-font-specification:'Nimbus Mono PS Bold'"
         id="path8760" />
      <path
         d="m 118.9948,107.93705 h -4.656 c -1.008,0 -1.344,0.048 -1.776,0.192 -0.912,0.288 -1.632,1.296 -1.632,2.304 0,0.768 0.384,1.536 1.056,2.016 0.432,0.288 0.768,0.384 1.824,0.432 v 10.512 c -1.776,0 -2.88,0.96 -2.88,2.448 0,1.632 1.152,2.496 3.408,2.496 h 4.224 c 2.208,0 3.36,-0.864 3.36,-2.496 0,-0.768 -0.384,-1.536 -1.056,-2.016 -0.48,-0.288 -0.816,-0.384 -1.872,-0.432 v -9.168 c 1.392,-1.488 2.208,-1.92 3.504,-1.92 1.056,0 1.44,0.432 1.44,1.584 v 14.448 h 4.704 c 2.208,0 3.36,-0.816 3.36,-2.496 0,-0.768 -0.384,-1.536 -1.056,-2.016 -0.48,-0.288 -0.816,-0.384 -1.824,-0.432 v -9.168 c 1.536,-1.536 2.256,-1.92 3.504,-1.92 1.104,0 1.44,0.384 1.44,1.584 v 14.448 h 4.704 c 2.208,0 3.36,-0.816 3.36,-2.496 0,-0.768 -0.384,-1.536 -1.056,-2.016 -0.48,-0.288 -0.816,-0.384 -1.824,-0.432 v -9.888 c 0,-3.552 -2.736,-6.144 -6.528,-6.144 -1.92,0 -3.504,0.672 -4.944,2.16 -1.344,-1.392 -3.024,-2.16 -4.896,-2.16 -1.44,0 -2.352,0.336 -3.888,1.488 z"
         style="font-weight:bold;font-family:'Nimbus Mono PS';-inkscape-font-specification:'Nimbus Mono PS Bold'"
         id="path8762" />
      <path
         d="m 159.26682,128.33705 h 5.808 c 2.256,0 3.36,-0.816 3.36,-2.496 0,-0.768 -0.384,-1.536 -1.056,-2.016 -0.528,-0.336 -0.96,-0.432 -2.304,-0.432 h -0.576 v -9.072 c 0,-4.368 -3.6,-6.96 -9.648,-6.96 -2.448,0 -5.952,0.576 -8.304,1.344 -1.056,0.384 -1.584,1.104 -1.584,2.16 0,1.392 1.104,2.496 2.496,2.496 0.48,0 1.152,-0.096 2.016,-0.288 2.304,-0.528 3.936,-0.768 5.568,-0.768 2.928,0 4.224,0.624 4.224,2.016 v 0.864 c -1.68,-0.288 -3.264,-0.432 -4.848,-0.432 -4.272,0 -7.584,1.2 -9.84,3.552 -1.2,1.248 -1.92,2.928 -1.92,4.416 0,3.504 3.984,6.336 8.928,6.336 2.64,0 5.424,-0.576 7.68,-1.632 z m 0.048,-6.48 c -2.592,1.488 -5.184,2.256 -7.776,2.256 -1.872,0 -3.408,-0.72 -3.408,-1.584 0,-0.672 0.576,-1.392 1.536,-2.016 1.296,-0.816 2.64,-1.152 4.56,-1.152 1.584,0 3.024,0.144 5.088,0.48 z"
         style="font-weight:bold;font-family:'Nimbus Mono PS';-inkscape-font-specification:'Nimbus Mono PS Bold'"
         id="path8764" />
      <path
         d="m 179.18683,107.93705 h -4.704 c -1.008,0 -1.344,0.048 -1.776,0.192 -0.912,0.288 -1.632,1.296 -1.632,2.304 0,0.768 0.384,1.536 1.056,2.016 0.48,0.288 0.816,0.384 1.872,0.432 v 10.512 h -0.096 c -1.2,0 -1.68,0.048 -2.112,0.336 -0.768,0.432 -1.248,1.296 -1.248,2.112 0,0.768 0.384,1.536 1.056,2.016 0.48,0.336 1.104,0.48 2.304,0.48 h 5.376 c 2.208,0 3.36,-0.864 3.36,-2.496 0,-0.768 -0.384,-1.488 -1.056,-2.016 -0.528,-0.336 -0.96,-0.432 -2.304,-0.432 h -0.096 v -8.064 c 2.16,-2.256 3.648,-3.024 5.808,-3.024 2.88,0 4.128,0.96 4.128,3.12 v 7.968 c -1.824,0 -2.928,0.912 -2.928,2.448 0,1.68 1.152,2.496 3.408,2.496 h 4.272 c 2.208,0 3.36,-0.816 3.36,-2.496 0,-0.768 -0.384,-1.536 -1.056,-2.016 -0.48,-0.288 -0.816,-0.384 -1.872,-0.432 v -8.16 c 0,-2.736 -0.96,-4.752 -2.928,-6.144 -1.584,-1.152 -3.6,-1.728 -5.856,-1.728 -2.544,0 -4.128,0.624 -6.336,2.544 z"
         style="font-weight:bold;font-family:'Nimbus Mono PS';-inkscape-font-specification:'Nimbus Mono PS Bold'"
         id="path8766" />
    </g>
    <rect
       style="opacity:0.999;fill:none;fill-rule:evenodd;stroke:#000000;stroke-width:0.065;stroke-miterlimit:4;stroke-dasharray:none"
       id="rect960"
       width="64"
       height="26"
       x="11"
       y="0.032499999" />
  </g>
</svg>
