<?xml version="1.0" standalone="no"?>
<!DOCTYPE svg PUBLIC "-//W3C//DTD SVG 1.1//EN" "http://www.w3.org/Graphics/SVG/1.1/DTD/svg11.dtd">
<svg width="218mm" height="186mm" viewBox="0 -186 218 186" xmlns="http://www.w3.org/2000/svg" version="1.1">
<title>OpenSCAD Model</title>
<path d="
M 0,-0 L 218,-0 L 218,-186 L 0,-186 z
M 103.7,-120 L 103.704,-120.22 L 103.715,-120.439 L 103.735,-120.659 L 103.761,-120.877 L 103.796,-121.094
 L 103.838,-121.31 L 103.887,-121.524 L 103.944,-121.737 L 104.008,-121.947 L 104.08,-122.155 L 104.159,-122.36
 L 104.245,-122.562 L 104.338,-122.762 L 104.437,-122.958 L 104.544,-123.15 L 104.657,-123.338 L 104.777,-123.523
 L 104.903,-123.703 L 105.036,-123.879 L 105.174,-124.05 L 105.318,-124.216 L 105.468,-124.376 L 105.624,-124.532
 L 105.784,-124.682 L 105.95,-124.826 L 106.121,-124.964 L 106.297,-125.097 L 106.477,-125.223 L 106.662,-125.343
 L 106.85,-125.456 L 107.042,-125.563 L 107.238,-125.662 L 107.438,-125.755 L 107.64,-125.841 L 107.845,-125.92
 L 108.053,-125.992 L 108.263,-126.056 L 108.476,-126.113 L 108.69,-126.162 L 108.906,-126.204 L 109.123,-126.239
 L 109.341,-126.265 L 109.561,-126.285 L 109.78,-126.296 L 110,-126.3 L 110.22,-126.296 L 110.439,-126.285
 L 110.659,-126.265 L 110.877,-126.239 L 111.094,-126.204 L 111.31,-126.162 L 111.524,-126.113 L 111.737,-126.056
 L 111.947,-125.992 L 112.155,-125.92 L 112.36,-125.841 L 112.562,-125.755 L 112.762,-125.662 L 112.958,-125.563
 L 113.15,-125.456 L 113.338,-125.343 L 113.523,-125.223 L 113.703,-125.097 L 113.879,-124.964 L 114.05,-124.826
 L 114.216,-124.682 L 114.376,-124.532 L 114.532,-124.376 L 114.682,-124.216 L 114.826,-124.05 L 114.964,-123.879
 L 115.097,-123.703 L 115.223,-123.523 L 115.343,-123.338 L 115.456,-123.15 L 115.563,-122.958 L 115.662,-122.762
 L 115.755,-122.562 L 115.841,-122.36 L 115.92,-122.155 L 115.992,-121.947 L 116.056,-121.737 L 116.113,-121.524
 L 116.162,-121.31 L 116.204,-121.094 L 116.239,-120.877 L 116.265,-120.659 L 116.285,-120.439 L 116.296,-120.22
 L 116.3,-120 L 116.296,-119.78 L 116.285,-119.561 L 116.265,-119.341 L 116.239,-119.123 L 116.204,-118.906
 L 116.162,-118.69 L 116.113,-118.476 L 116.056,-118.263 L 115.992,-118.053 L 115.92,-117.845 L 115.841,-117.64
 L 115.755,-117.438 L 115.662,-117.238 L 115.563,-117.042 L 115.456,-116.85 L 115.343,-116.662 L 115.223,-116.477
 L 115.097,-116.297 L 114.964,-116.121 L 114.826,-115.95 L 114.682,-115.784 L 114.532,-115.624 L 114.376,-115.468
 L 114.216,-115.318 L 114.05,-115.174 L 113.879,-115.036 L 113.703,-114.903 L 113.523,-114.777 L 113.338,-114.657
 L 113.15,-114.544 L 112.958,-114.437 L 112.762,-114.338 L 112.562,-114.245 L 112.36,-114.159 L 112.155,-114.08
 L 111.947,-114.008 L 111.737,-113.944 L 111.524,-113.887 L 111.31,-113.838 L 111.094,-113.796 L 110.877,-113.761
 L 110.659,-113.735 L 110.439,-113.715 L 110.22,-113.704 L 110,-113.7 L 109.78,-113.704 L 109.561,-113.715
 L 109.341,-113.735 L 109.123,-113.761 L 108.906,-113.796 L 108.69,-113.838 L 108.476,-113.887 L 108.263,-113.944
 L 108.053,-114.008 L 107.845,-114.08 L 107.64,-114.159 L 107.438,-114.245 L 107.238,-114.338 L 107.042,-114.437
 L 106.85,-114.544 L 106.662,-114.657 L 106.477,-114.777 L 106.297,-114.903 L 106.121,-115.036 L 105.95,-115.174
 L 105.784,-115.318 L 105.624,-115.468 L 105.468,-115.624 L 105.318,-115.784 L 105.174,-115.95 L 105.036,-116.121
 L 104.903,-116.297 L 104.777,-116.477 L 104.657,-116.662 L 104.544,-116.85 L 104.437,-117.042 L 104.338,-117.238
 L 104.245,-117.438 L 104.159,-117.64 L 104.08,-117.845 L 104.008,-118.053 L 103.944,-118.263 L 103.887,-118.476
 L 103.838,-118.69 L 103.796,-118.906 L 103.761,-119.123 L 103.735,-119.341 L 103.715,-119.561 L 103.704,-119.78
 z
M 115.38,-18.05 L 115.38,-80 L 118.556,-80 L 118.556,-97.85 L 121.444,-97.85 L 121.444,-80
 L 124.62,-80 L 124.62,-18.05 z
M 133.5,-115 L 133.519,-116.099 L 133.577,-117.197 L 133.673,-118.293 L 133.807,-119.384 L 133.979,-120.47
 L 134.188,-121.549 L 134.436,-122.621 L 134.72,-123.683 L 135.042,-124.734 L 135.4,-125.774 L 135.794,-126.8
 L 136.223,-127.812 L 136.688,-128.809 L 137.187,-129.788 L 137.72,-130.75 L 138.286,-131.692 L 138.885,-132.615
 L 139.516,-133.515 L 140.178,-134.393 L 140.87,-135.248 L 141.591,-136.078 L 142.341,-136.882 L 143.118,-137.659
 L 143.922,-138.409 L 144.752,-139.13 L 145.607,-139.822 L 146.485,-140.484 L 147.385,-141.115 L 148.308,-141.714
 L 149.25,-142.28 L 150.212,-142.813 L 151.191,-143.312 L 152.188,-143.777 L 153.2,-144.206 L 154.226,-144.6
 L 155.266,-144.958 L 156.317,-145.28 L 157.379,-145.564 L 158.451,-145.812 L 159.53,-146.021 L 160.616,-146.193
 L 161.707,-146.327 L 162.803,-146.423 L 163.901,-146.481 L 165,-146.5 L 166.099,-146.481 L 167.197,-146.423
 L 168.293,-146.327 L 169.384,-146.193 L 170.47,-146.021 L 171.549,-145.812 L 172.621,-145.564 L 173.683,-145.28
 L 174.734,-144.958 L 175.774,-144.6 L 176.8,-144.206 L 177.812,-143.777 L 178.809,-143.312 L 179.788,-142.813
 L 180.75,-142.28 L 181.692,-141.714 L 182.615,-141.115 L 183.515,-140.484 L 184.393,-139.822 L 185.248,-139.13
 L 186.078,-138.409 L 186.882,-137.659 L 187.659,-136.882 L 188.409,-136.078 L 189.13,-135.248 L 189.822,-134.393
 L 190.484,-133.515 L 191.115,-132.615 L 191.714,-131.692 L 192.28,-130.75 L 192.813,-129.788 L 193.312,-128.809
 L 193.777,-127.812 L 194.206,-126.8 L 194.6,-125.774 L 194.958,-124.734 L 195.28,-123.683 L 195.564,-122.621
 L 195.812,-121.549 L 196.021,-120.47 L 196.193,-119.384 L 196.327,-118.293 L 196.423,-117.197 L 196.481,-116.099
 L 196.5,-115 L 196.481,-113.901 L 196.423,-112.803 L 196.327,-111.707 L 196.193,-110.616 L 196.021,-109.53
 L 195.812,-108.451 L 195.564,-107.379 L 195.28,-106.317 L 194.958,-105.266 L 194.6,-104.226 L 194.206,-103.2
 L 193.777,-102.188 L 193.312,-101.191 L 192.813,-100.212 L 192.28,-99.25 L 191.714,-98.3075 L 191.115,-97.3854
 L 190.484,-96.4848 L 189.822,-95.6067 L 189.13,-94.7522 L 188.409,-93.9224 L 187.659,-93.1183 L 186.882,-92.3408
 L 186.078,-91.5909 L 185.248,-90.8696 L 184.393,-90.1777 L 183.515,-89.516 L 182.615,-88.8853 L 181.692,-88.2865
 L 180.75,-87.7202 L 179.788,-87.1872 L 178.809,-86.688 L 177.812,-86.2233 L 176.8,-85.7937 L 175.774,-85.3997
 L 174.734,-85.0417 L 173.683,-84.7203 L 172.621,-84.4357 L 171.549,-84.1884 L 170.47,-83.9786 L 169.384,-83.8066
 L 168.293,-83.6726 L 167.197,-83.5767 L 166.099,-83.5192 L 165,-83.5 L 163.901,-83.5192 L 162.803,-83.5767
 L 161.707,-83.6726 L 160.616,-83.8066 L 159.53,-83.9786 L 158.451,-84.1884 L 157.379,-84.4357 L 156.317,-84.7203
 L 155.266,-85.0417 L 154.226,-85.3997 L 153.2,-85.7937 L 152.188,-86.2233 L 151.191,-86.688 L 150.212,-87.1872
 L 149.25,-87.7202 L 148.308,-88.2865 L 147.385,-88.8853 L 146.485,-89.516 L 145.607,-90.1777 L 144.752,-90.8696
 L 143.922,-91.5909 L 143.118,-92.3408 L 142.341,-93.1183 L 141.591,-93.9224 L 140.87,-94.7522 L 140.178,-95.6067
 L 139.516,-96.4848 L 138.885,-97.3854 L 138.286,-98.3075 L 137.72,-99.25 L 137.187,-100.212 L 136.688,-101.191
 L 136.223,-102.188 L 135.794,-103.2 L 135.4,-104.226 L 135.042,-105.266 L 134.72,-106.317 L 134.436,-107.379
 L 134.188,-108.451 L 133.979,-109.53 L 133.807,-110.616 L 133.673,-111.707 L 133.577,-112.803 L 133.519,-113.901
 z
" stroke="black" fill="lightgray" stroke-width="0.5"/>
</svg>
