<?xml version="1.0" standalone="no"?>
<!DOCTYPE svg PUBLIC "-//W3C//DTD SVG 1.1//EN" "http://www.w3.org/Graphics/SVG/1.1/DTD/svg11.dtd">
<svg width="218mm" height="186mm" viewBox="0 -186 218 186" xmlns="http://www.w3.org/2000/svg" version="1.1">
<title>OpenSCAD Model</title>
<path d="
M 0,-0 L 218,-0 L 218,-186 L 0,-186 z
M 5,-62.5 L 5.00609,-62.849 L 5.02436,-63.1976 L 5.05478,-63.5453 L 5.09732,-63.8917 L 5.15192,-64.2365
 L 5.21852,-64.5791 L 5.29704,-64.9192 L 5.38738,-65.2564 L 5.48944,-65.5902 L 5.60307,-65.9202 L 5.72816,-66.2461
 L 5.86455,-66.5674 L 6.01206,-66.8837 L 6.17052,-67.1947 L 6.33975,-67.5 L 6.51952,-67.7992 L 6.70962,-68.0919
 L 6.90983,-68.3779 L 7.11989,-68.6566 L 7.33956,-68.9279 L 7.56855,-69.1913 L 7.8066,-69.4466 L 8.05342,-69.6934
 L 8.30869,-69.9314 L 8.57212,-70.1604 L 8.84339,-70.3801 L 9.12215,-70.5902 L 9.40807,-70.7904 L 9.70081,-70.9805
 L 10,-71.1603 L 10.3053,-71.3295 L 10.6163,-71.4879 L 10.9326,-71.6355 L 11.2539,-71.7718 L 11.5798,-71.8969
 L 11.9098,-72.0106 L 12.2436,-72.1126 L 12.5808,-72.203 L 12.9209,-72.2815 L 13.2635,-72.3481 L 13.6083,-72.4027
 L 13.9547,-72.4452 L 14.3024,-72.4756 L 14.651,-72.4939 L 15,-72.5 L 15,-110 L 81,-110
 L 81,-72.5 L 81.349,-72.4939 L 81.6976,-72.4756 L 82.0453,-72.4452 L 82.3917,-72.4027 L 82.7365,-72.3481
 L 83.0791,-72.2815 L 83.4192,-72.203 L 83.7564,-72.1126 L 84.0902,-72.0106 L 84.4202,-71.8969 L 84.7461,-71.7718
 L 85.0674,-71.6355 L 85.3837,-71.4879 L 85.6947,-71.3295 L 86,-71.1603 L 86.2992,-70.9805 L 86.5919,-70.7904
 L 86.8779,-70.5902 L 87.1566,-70.3801 L 87.4279,-70.1604 L 87.6913,-69.9314 L 87.9466,-69.6934 L 88.1934,-69.4466
 L 88.4314,-69.1913 L 88.6604,-68.9279 L 88.8801,-68.6566 L 89.0902,-68.3779 L 89.2904,-68.0919 L 89.4805,-67.7992
 L 89.6603,-67.5 L 89.8295,-67.1947 L 89.9879,-66.8837 L 90.1355,-66.5674 L 90.2718,-66.2461 L 90.3969,-65.9202
 L 90.5106,-65.5902 L 90.6126,-65.2564 L 90.703,-64.9192 L 90.7815,-64.5791 L 90.8481,-64.2365 L 90.9027,-63.8917
 L 90.9452,-63.5453 L 90.9756,-63.1976 L 90.9939,-62.849 L 91,-62.5 L 90.9939,-62.151 L 90.9756,-61.8024
 L 90.9452,-61.4547 L 90.9027,-61.1083 L 90.8481,-60.7635 L 90.7815,-60.4209 L 90.703,-60.0808 L 90.6126,-59.7436
 L 90.5106,-59.4098 L 90.3969,-59.0798 L 90.2718,-58.7539 L 90.1355,-58.4326 L 89.9879,-58.1163 L 89.8295,-57.8053
 L 89.6603,-57.5 L 89.4805,-57.2008 L 89.2904,-56.9081 L 89.0902,-56.6221 L 88.8801,-56.3434 L 88.6604,-56.0721
 L 88.4314,-55.8087 L 88.1934,-55.5534 L 87.9466,-55.3066 L 87.6913,-55.0686 L 87.4279,-54.8396 L 87.1566,-54.6199
 L 86.8779,-54.4098 L 86.5919,-54.2096 L 86.2992,-54.0195 L 86,-53.8397 L 85.6947,-53.6705 L 85.3837,-53.5121
 L 85.0674,-53.3645 L 84.7461,-53.2282 L 84.4202,-53.1031 L 84.0902,-52.9894 L 83.7564,-52.8874 L 83.4192,-52.797
 L 83.0791,-52.7185 L 82.7365,-52.6519 L 82.3917,-52.5973 L 82.0453,-52.5548 L 81.6976,-52.5244 L 81.349,-52.5061
 L 81,-52.5 L 81,-15 L 15,-15 L 15,-52.5 L 14.651,-52.5061 L 14.3024,-52.5244
 L 13.9547,-52.5548 L 13.6083,-52.5973 L 13.2635,-52.6519 L 12.9209,-52.7185 L 12.5808,-52.797 L 12.2436,-52.8874
 L 11.9098,-52.9894 L 11.5798,-53.1031 L 11.2539,-53.2282 L 10.9326,-53.3645 L 10.6163,-53.5121 L 10.3053,-53.6705
 L 10,-53.8397 L 9.70081,-54.0195 L 9.40807,-54.2096 L 9.12215,-54.4098 L 8.84339,-54.6199 L 8.57212,-54.8396
 L 8.30869,-55.0686 L 8.05342,-55.3066 L 7.8066,-55.5534 L 7.56855,-55.8087 L 7.33956,-56.0721 L 7.11989,-56.3434
 L 6.90983,-56.6221 L 6.70962,-56.9081 L 6.51952,-57.2008 L 6.33975,-57.5 L 6.17052,-57.8053 L 6.01206,-58.1163
 L 5.86455,-58.4326 L 5.72816,-58.7539 L 5.60307,-59.0798 L 5.48944,-59.4098 L 5.38738,-59.7436 L 5.29704,-60.0808
 L 5.21852,-60.4209 L 5.15192,-60.7635 L 5.09732,-61.1083 L 5.05478,-61.4547 L 5.02436,-61.8024 L 5.00609,-62.151
 z
M 20,-122.5 L 20,-127.5 L 55,-127.5 L 55,-122.5 z
M 20,-132.5 L 20,-137.5 L 80,-137.5 L 80,-132.5 z
M 20,-142.5 L 20,-147.5 L 105,-147.5 L 105,-142.5 z
M 20,-152.5 L 20,-157.5 L 130,-157.5 L 130,-152.5 z
M 20,-162.5 L 20,-167.5 L 155,-167.5 L 155,-162.5 z
M 20,-172.5 L 20,-177.5 L 180,-177.5 L 180,-172.5 z
M 88.5,-35.06 L 88.5064,-35.4264 L 88.5256,-35.7924 L 88.5575,-36.1575 L 88.6022,-36.5213 L 88.6595,-36.8833
 L 88.7295,-37.2431 L 88.8119,-37.6002 L 88.9068,-37.9542 L 89.0139,-38.3047 L 89.1332,-38.6512 L 89.2646,-38.9934
 L 89.4078,-39.3307 L 89.5627,-39.6629 L 89.7291,-39.9895 L 89.9067,-40.31 L 90.0955,-40.6242 L 90.2951,-40.9315
 L 90.5053,-41.2317 L 90.7259,-41.5244 L 90.9565,-41.8093 L 91.197,-42.0859 L 91.4469,-42.3539 L 91.7061,-42.6131
 L 91.9741,-42.863 L 92.2507,-43.1035 L 92.5356,-43.3341 L 92.8283,-43.5547 L 93.1285,-43.7649 L 93.4358,-43.9645
 L 93.75,-44.1533 L 94.0705,-44.3309 L 94.3971,-44.4973 L 94.7293,-44.6522 L 95.0666,-44.7954 L 95.4088,-44.9268
 L 95.7553,-45.0461 L 96.1058,-45.1532 L 96.4598,-45.2481 L 96.8169,-45.3306 L 97.1767,-45.4005 L 97.5387,-45.4578
 L 97.9025,-45.5025 L 98.2676,-45.5344 L 98.6336,-45.5536 L 99,-45.56 L 99.3664,-45.5536 L 99.7324,-45.5344
 L 100.098,-45.5025 L 100.461,-45.4578 L 100.823,-45.4005 L 101.183,-45.3306 L 101.54,-45.2481 L 101.628,-45.2247
 L 101.813,-45.56 L 102.191,-46.1883 L 102.59,-46.8031 L 103.011,-47.4035 L 103.452,-47.9889 L 103.913,-48.5585
 L 104.394,-49.1117 L 104.894,-49.6478 L 105.412,-50.1661 L 105.948,-50.666 L 106.501,-51.1469 L 107.071,-51.6082
 L 107.657,-52.0494 L 108.257,-52.4698 L 108.872,-52.869 L 109.5,-53.2465 L 110.141,-53.6019 L 110.794,-53.9347
 L 111.459,-54.2445 L 112.133,-54.5309 L 112.818,-54.7935 L 113.511,-55.0322 L 114.212,-55.2465 L 114.92,-55.4362
 L 115.38,-55.5425 L 115.38,-80 L 118.556,-80 L 118.556,-97.85 L 121.444,-97.85 L 121.444,-80
 L 124.62,-80 L 124.62,-55.5425 L 125.08,-55.4362 L 125.788,-55.2465 L 126.489,-55.0322 L 127.182,-54.7935
 L 127.867,-54.5309 L 128.541,-54.2445 L 129.206,-53.9347 L 129.859,-53.6019 L 130.5,-53.2465 L 131.128,-52.869
 L 131.743,-52.4698 L 132.343,-52.0494 L 132.929,-51.6082 L 133.499,-51.1469 L 134.052,-50.666 L 134.588,-50.1661
 L 135.106,-49.6478 L 135.606,-49.1117 L 136.087,-48.5585 L 136.548,-47.9889 L 136.989,-47.4035 L 137.41,-46.8031
 L 137.809,-46.1883 L 138.187,-45.56 L 138.372,-45.2247 L 138.46,-45.2481 L 138.817,-45.3306 L 139.177,-45.4005
 L 139.539,-45.4578 L 139.902,-45.5025 L 140.268,-45.5344 L 140.634,-45.5536 L 141,-45.56 L 141.366,-45.5536
 L 141.732,-45.5344 L 142.098,-45.5025 L 142.461,-45.4578 L 142.823,-45.4005 L 143.183,-45.3306 L 143.54,-45.2481
 L 143.894,-45.1532 L 144.245,-45.0461 L 144.591,-44.9268 L 144.933,-44.7954 L 145.271,-44.6522 L 145.603,-44.4973
 L 145.929,-44.3309 L 146.25,-44.1533 L 146.564,-43.9645 L 146.872,-43.7649 L 147.172,-43.5547 L 147.464,-43.3341
 L 147.749,-43.1035 L 148.026,-42.863 L 148.294,-42.6131 L 148.553,-42.3539 L 148.803,-42.0859 L 149.043,-41.8093
 L 149.274,-41.5244 L 149.495,-41.2317 L 149.705,-40.9315 L 149.905,-40.6242 L 150.093,-40.31 L 150.271,-39.9895
 L 150.437,-39.6629 L 150.592,-39.3307 L 150.735,-38.9934 L 150.867,-38.6512 L 150.986,-38.3047 L 151.093,-37.9542
 L 151.188,-37.6002 L 151.271,-37.2431 L 151.34,-36.8833 L 151.398,-36.5213 L 151.442,-36.1575 L 151.474,-35.7924
 L 151.494,-35.4264 L 151.5,-35.06 L 151.494,-34.6936 L 151.474,-34.3276 L 151.442,-33.9625 L 151.398,-33.5987
 L 151.34,-33.2367 L 151.271,-32.8769 L 151.188,-32.5198 L 151.093,-32.1658 L 150.986,-31.8153 L 150.867,-31.4688
 L 150.735,-31.1266 L 150.592,-30.7893 L 150.437,-30.4571 L 150.271,-30.1305 L 150.093,-29.81 L 149.905,-29.4958
 L 149.705,-29.1885 L 149.495,-28.8883 L 149.274,-28.5956 L 149.043,-28.3107 L 148.803,-28.0341 L 148.553,-27.7661
 L 148.294,-27.5069 L 148.026,-27.257 L 147.749,-27.0165 L 147.464,-26.7859 L 147.172,-26.5653 L 146.872,-26.3551
 L 146.564,-26.1555 L 146.25,-25.9667 L 145.929,-25.7891 L 145.603,-25.6227 L 145.271,-25.4678 L 144.933,-25.3246
 L 144.591,-25.1932 L 144.245,-25.0739 L 143.894,-24.9668 L 143.54,-24.8719 L 143.183,-24.7895 L 142.823,-24.7195
 L 142.461,-24.6622 L 142.098,-24.6175 L 141.732,-24.5856 L 141.366,-24.5664 L 141,-24.56 L 140.634,-24.5664
 L 140.268,-24.5856 L 139.902,-24.6175 L 139.539,-24.6622 L 139.177,-24.7195 L 138.817,-24.7895 L 138.46,-24.8719
 L 138.372,-24.8953 L 138.187,-24.56 L 137.809,-23.9317 L 137.41,-23.3169 L 136.989,-22.7165 L 136.548,-22.1311
 L 136.087,-21.5615 L 135.606,-21.0083 L 135.106,-20.4722 L 134.588,-19.9539 L 134.052,-19.454 L 133.499,-18.9731
 L 132.929,-18.5118 L 132.343,-18.0706 L 131.743,-17.6502 L 131.128,-17.251 L 130.5,-16.8735 L 129.859,-16.5181
 L 129.206,-16.1853 L 128.541,-15.8755 L 127.867,-15.5891 L 127.182,-15.3265 L 126.489,-15.0878 L 125.788,-14.8735
 L 125.08,-14.6838 L 124.366,-14.5189 L 123.647,-14.379 L 122.923,-14.2644 L 122.195,-14.175 L 121.465,-14.1112
 L 120.733,-14.0728 L 120,-14.06 L 119.267,-14.0728 L 118.535,-14.1112 L 117.805,-14.175 L 117.077,-14.2644
 L 116.353,-14.379 L 115.634,-14.5189 L 114.92,-14.6838 L 114.212,-14.8735 L 113.511,-15.0878 L 112.818,-15.3265
 L 112.133,-15.5891 L 111.459,-15.8755 L 110.794,-16.1853 L 110.141,-16.5181 L 109.5,-16.8735 L 108.872,-17.251
 L 108.257,-17.6502 L 107.657,-18.0706 L 107.071,-18.5118 L 106.501,-18.9731 L 105.948,-19.454 L 105.412,-19.9539
 L 104.894,-20.4722 L 104.394,-21.0083 L 103.913,-21.5615 L 103.452,-22.1311 L 103.011,-22.7165 L 102.59,-23.3169
 L 102.191,-23.9317 L 101.813,-24.56 L 101.628,-24.8953 L 101.54,-24.8719 L 101.183,-24.7895 L 100.823,-24.7195
 L 100.461,-24.6622 L 100.098,-24.6175 L 99.7324,-24.5856 L 99.3664,-24.5664 L 99,-24.56 L 98.6336,-24.5664
 L 98.2676,-24.5856 L 97.9025,-24.6175 L 97.5387,-24.6622 L 97.1767,-24.7195 L 96.8169,-24.7895 L 96.4598,-24.8719
 L 96.1058,-24.9668 L 95.7553,-25.0739 L 95.4088,-25.1932 L 95.0666,-25.3246 L 94.7293,-25.4678 L 94.3971,-25.6227
 L 94.0705,-25.7891 L 93.75,-25.9667 L 93.4358,-26.1555 L 93.1285,-26.3551 L 92.8283,-26.5653 L 92.5356,-26.7859
 L 92.2507,-27.0165 L 91.9741,-27.257 L 91.7061,-27.5069 L 91.4469,-27.7661 L 91.197,-28.0341 L 90.9565,-28.3107
 L 90.7259,-28.5956 L 90.5053,-28.8883 L 90.2951,-29.1885 L 90.0955,-29.4958 L 89.9067,-29.81 L 89.7291,-30.1305
 L 89.5627,-30.4571 L 89.4078,-30.7893 L 89.2646,-31.1266 L 89.1332,-31.4688 L 89.0139,-31.8153 L 88.9068,-32.1658
 L 88.8119,-32.5198 L 88.7295,-32.8769 L 88.6595,-33.2367 L 88.6022,-33.5987 L 88.5575,-33.9625 L 88.5256,-34.3276
 L 88.5064,-34.6936 z
M 100.55,-120 L 100.552,-120.11 L 100.558,-120.22 L 100.568,-120.329 L 100.581,-120.438 L 100.598,-120.547
 L 100.619,-120.655 L 100.644,-120.762 L 100.672,-120.868 L 100.705,-120.973 L 100.74,-121.077 L 100.78,-121.18
 L 100.823,-121.281 L 100.869,-121.381 L 100.919,-121.479 L 100.972,-121.575 L 101.029,-121.669 L 101.089,-121.761
 L 101.152,-121.851 L 101.218,-121.939 L 101.287,-122.024 L 101.359,-122.107 L 101.434,-122.188 L 101.512,-122.266
 L 101.593,-122.341 L 101.676,-122.413 L 101.761,-122.482 L 101.849,-122.548 L 101.939,-122.611 L 102.031,-122.671
 L 102.125,-122.728 L 102.221,-122.781 L 102.319,-122.831 L 102.419,-122.877 L 102.52,-122.92 L 102.623,-122.96
 L 102.727,-122.995 L 102.832,-123.028 L 102.938,-123.056 L 103.045,-123.081 L 103.153,-123.102 L 103.262,-123.119
 L 103.371,-123.132 L 103.48,-123.142 L 103.59,-123.148 L 103.7,-123.15 L 103.81,-123.148 L 103.92,-123.142
 L 104.029,-123.132 L 104.138,-123.119 L 104.247,-123.102 L 104.355,-123.081 L 104.462,-123.056 L 104.488,-123.049
 L 104.544,-123.15 L 104.657,-123.338 L 104.777,-123.523 L 104.903,-123.703 L 105.036,-123.879 L 105.174,-124.05
 L 105.318,-124.216 L 105.468,-124.376 L 105.624,-124.532 L 105.784,-124.682 L 105.95,-124.826 L 106.121,-124.964
 L 106.297,-125.097 L 106.477,-125.223 L 106.662,-125.343 L 106.85,-125.456 L 107.042,-125.563 L 107.238,-125.662
 L 107.438,-125.755 L 107.64,-125.841 L 107.845,-125.92 L 108.053,-125.992 L 108.263,-126.056 L 108.476,-126.113
 L 108.69,-126.162 L 108.906,-126.204 L 109.123,-126.239 L 109.341,-126.265 L 109.561,-126.285 L 109.78,-126.296
 L 110,-126.3 L 110.22,-126.296 L 110.439,-126.285 L 110.659,-126.265 L 110.877,-126.239 L 111.094,-126.204
 L 111.31,-126.162 L 111.524,-126.113 L 111.737,-126.056 L 111.947,-125.992 L 112.155,-125.92 L 112.36,-125.841
 L 112.562,-125.755 L 112.762,-125.662 L 112.958,-125.563 L 113.15,-125.456 L 113.338,-125.343 L 113.523,-125.223
 L 113.703,-125.097 L 113.879,-124.964 L 114.05,-124.826 L 114.216,-124.682 L 114.376,-124.532 L 114.532,-124.376
 L 114.682,-124.216 L 114.826,-124.05 L 114.964,-123.879 L 115.097,-123.703 L 115.223,-123.523 L 115.343,-123.338
 L 115.456,-123.15 L 115.512,-123.049 L 115.538,-123.056 L 115.645,-123.081 L 115.753,-123.102 L 115.862,-123.119
 L 115.971,-123.132 L 116.08,-123.142 L 116.19,-123.148 L 116.3,-123.15 L 116.41,-123.148 L 116.52,-123.142
 L 116.629,-123.132 L 116.738,-123.119 L 116.847,-123.102 L 116.955,-123.081 L 117.062,-123.056 L 117.168,-123.028
 L 117.273,-122.995 L 117.377,-122.96 L 117.48,-122.92 L 117.581,-122.877 L 117.681,-122.831 L 117.779,-122.781
 L 117.875,-122.728 L 117.969,-122.671 L 118.061,-122.611 L 118.151,-122.548 L 118.239,-122.482 L 118.324,-122.413
 L 118.407,-122.341 L 118.488,-122.266 L 118.566,-122.188 L 118.641,-122.107 L 118.713,-122.024 L 118.782,-121.939
 L 118.848,-121.851 L 118.911,-121.761 L 118.971,-121.669 L 119.028,-121.575 L 119.081,-121.479 L 119.131,-121.381
 L 119.177,-121.281 L 119.22,-121.18 L 119.26,-121.077 L 119.295,-120.973 L 119.328,-120.868 L 119.356,-120.762
 L 119.381,-120.655 L 119.402,-120.547 L 119.419,-120.438 L 119.432,-120.329 L 119.442,-120.22 L 119.448,-120.11
 L 119.45,-120 L 119.448,-119.89 L 119.442,-119.78 L 119.432,-119.671 L 119.419,-119.562 L 119.402,-119.453
 L 119.381,-119.345 L 119.356,-119.238 L 119.328,-119.132 L 119.295,-119.027 L 119.26,-118.923 L 119.22,-118.82
 L 119.177,-118.719 L 119.131,-118.619 L 119.081,-118.521 L 119.028,-118.425 L 118.971,-118.331 L 118.911,-118.239
 L 118.848,-118.149 L 118.782,-118.061 L 118.713,-117.976 L 118.641,-117.893 L 118.566,-117.812 L 118.488,-117.734
 L 118.407,-117.659 L 118.324,-117.587 L 118.239,-117.518 L 118.151,-117.452 L 118.061,-117.389 L 117.969,-117.329
 L 117.875,-117.272 L 117.779,-117.219 L 117.681,-117.169 L 117.581,-117.123 L 117.48,-117.08 L 117.377,-117.04
 L 117.273,-117.005 L 117.168,-116.972 L 117.062,-116.944 L 116.955,-116.919 L 116.847,-116.898 L 116.738,-116.881
 L 116.629,-116.868 L 116.52,-116.858 L 116.41,-116.852 L 116.3,-116.85 L 116.19,-116.852 L 116.08,-116.858
 L 115.971,-116.868 L 115.862,-116.881 L 115.753,-116.898 L 115.645,-116.919 L 115.538,-116.944 L 115.512,-116.951
 L 115.456,-116.85 L 115.343,-116.662 L 115.223,-116.477 L 115.097,-116.297 L 114.964,-116.121 L 114.826,-115.95
 L 114.682,-115.784 L 114.532,-115.624 L 114.376,-115.468 L 114.216,-115.318 L 114.05,-115.174 L 113.879,-115.036
 L 113.703,-114.903 L 113.523,-114.777 L 113.338,-114.657 L 113.15,-114.544 L 112.958,-114.437 L 112.762,-114.338
 L 112.562,-114.245 L 112.36,-114.159 L 112.155,-114.08 L 111.947,-114.008 L 111.737,-113.944 L 111.524,-113.887
 L 111.31,-113.838 L 111.094,-113.796 L 110.877,-113.761 L 110.659,-113.735 L 110.439,-113.715 L 110.22,-113.704
 L 110,-113.7 L 109.78,-113.704 L 109.561,-113.715 L 109.341,-113.735 L 109.123,-113.761 L 108.906,-113.796
 L 108.69,-113.838 L 108.476,-113.887 L 108.263,-113.944 L 108.053,-114.008 L 107.845,-114.08 L 107.64,-114.159
 L 107.438,-114.245 L 107.238,-114.338 L 107.042,-114.437 L 106.85,-114.544 L 106.662,-114.657 L 106.477,-114.777
 L 106.297,-114.903 L 106.121,-115.036 L 105.95,-115.174 L 105.784,-115.318 L 105.624,-115.468 L 105.468,-115.624
 L 105.318,-115.784 L 105.174,-115.95 L 105.036,-116.121 L 104.903,-116.297 L 104.777,-116.477 L 104.657,-116.662
 L 104.544,-116.85 L 104.488,-116.951 L 104.462,-116.944 L 104.355,-116.919 L 104.247,-116.898 L 104.138,-116.881
 L 104.029,-116.868 L 103.92,-116.858 L 103.81,-116.852 L 103.7,-116.85 L 103.59,-116.852 L 103.48,-116.858
 L 103.371,-116.868 L 103.262,-116.881 L 103.153,-116.898 L 103.045,-116.919 L 102.938,-116.944 L 102.832,-116.972
 L 102.727,-117.005 L 102.623,-117.04 L 102.52,-117.08 L 102.419,-117.123 L 102.319,-117.169 L 102.221,-117.219
 L 102.125,-117.272 L 102.031,-117.329 L 101.939,-117.389 L 101.849,-117.452 L 101.761,-117.518 L 101.676,-117.587
 L 101.593,-117.659 L 101.512,-117.734 L 101.434,-117.812 L 101.359,-117.893 L 101.287,-117.976 L 101.218,-118.061
 L 101.152,-118.149 L 101.089,-118.239 L 101.029,-118.331 L 100.972,-118.425 L 100.919,-118.521 L 100.869,-118.619
 L 100.823,-118.719 L 100.78,-118.82 L 100.74,-118.923 L 100.705,-119.027 L 100.672,-119.132 L 100.644,-119.238
 L 100.619,-119.345 L 100.598,-119.453 L 100.581,-119.562 L 100.568,-119.671 L 100.558,-119.78 L 100.552,-119.89
 z
M 133.5,-115 L 133.519,-116.099 L 133.577,-117.197 L 133.673,-118.293 L 133.807,-119.384 L 133.979,-120.47
 L 134.188,-121.549 L 134.436,-122.621 L 134.72,-123.683 L 135.042,-124.734 L 135.4,-125.774 L 135.794,-126.8
 L 136.223,-127.812 L 136.688,-128.809 L 137.187,-129.788 L 137.72,-130.75 L 138.286,-131.692 L 138.885,-132.615
 L 139.516,-133.515 L 140.178,-134.393 L 140.87,-135.248 L 141.591,-136.078 L 142.341,-136.882 L 143.118,-137.659
 L 143.922,-138.409 L 144.752,-139.13 L 145.607,-139.822 L 146.485,-140.484 L 147.385,-141.115 L 148.308,-141.714
 L 149.25,-142.28 L 150.212,-142.813 L 151.191,-143.312 L 152.188,-143.777 L 152.4,-143.867 L 152.4,-155.06
 L 153.423,-155.373 L 154.839,-155.752 L 156.268,-156.082 L 157.707,-156.362 L 159.155,-156.591 L 160.61,-156.77
 L 162.07,-156.898 L 163.534,-156.974 L 165,-157 L 166.466,-156.974 L 167.93,-156.898 L 169.39,-156.77
 L 170.845,-156.591 L 172.293,-156.362 L 173.732,-156.082 L 175.161,-155.752 L 176.577,-155.373 L 177.979,-154.944
 L 179.365,-154.467 L 180.733,-153.942 L 182.083,-153.369 L 183.412,-152.749 L 184.718,-152.084 L 186,-151.373
 L 187.257,-150.618 L 188.486,-149.82 L 189.687,-148.979 L 190.858,-148.096 L 191.997,-147.174 L 193.103,-146.212
 L 194.176,-145.212 L 195.212,-144.176 L 196.212,-143.103 L 197.174,-141.997 L 198.096,-140.858 L 198.979,-139.687
 L 199.82,-138.486 L 200.618,-137.257 L 201.373,-136 L 202.084,-134.718 L 202.749,-133.412 L 203.369,-132.083
 L 203.942,-130.733 L 204.467,-129.365 L 204.944,-127.979 L 205.373,-126.577 L 205.752,-125.161 L 206.082,-123.732
 L 206.362,-122.293 L 206.591,-120.845 L 206.77,-119.39 L 206.898,-117.93 L 206.974,-116.466 L 207,-115
 L 196.5,-115 L 196.481,-113.901 L 196.423,-112.803 L 196.327,-111.707 L 196.193,-110.616 L 196.021,-109.53
 L 195.812,-108.451 L 195.564,-107.379 L 195.28,-106.317 L 194.958,-105.266 L 194.6,-104.226 L 194.206,-103.2
 L 193.777,-102.188 L 193.312,-101.191 L 192.813,-100.212 L 192.28,-99.25 L 191.714,-98.3075 L 191.115,-97.3854
 L 190.484,-96.4848 L 189.822,-95.6067 L 189.13,-94.7522 L 188.409,-93.9224 L 187.659,-93.1183 L 186.882,-92.3408
 L 186.078,-91.5909 L 185.248,-90.8696 L 184.393,-90.1777 L 183.515,-89.516 L 182.615,-88.8853 L 181.692,-88.2865
 L 180.75,-87.7202 L 179.788,-87.1872 L 178.809,-86.688 L 177.812,-86.2233 L 176.8,-85.7937 L 175.774,-85.3997
 L 174.734,-85.0417 L 173.683,-84.7203 L 172.621,-84.4357 L 171.549,-84.1884 L 170.47,-83.9786 L 169.987,-83.9021
 L 169.987,-47.8 L 167.362,-47.8 L 167.362,-26.8 L 162.637,-26.8 L 162.637,-47.8 L 160.012,-47.8
 L 160.012,-83.9021 L 159.53,-83.9786 L 158.451,-84.1884 L 157.379,-84.4357 L 156.317,-84.7203 L 155.266,-85.0417
 L 154.226,-85.3997 L 153.2,-85.7937 L 152.188,-86.2233 L 151.191,-86.688 L 150.212,-87.1872 L 149.25,-87.7202
 L 148.308,-88.2865 L 147.385,-88.8853 L 146.485,-89.516 L 145.607,-90.1777 L 144.752,-90.8696 L 143.922,-91.5909
 L 143.118,-92.3408 L 142.341,-93.1183 L 141.591,-93.9224 L 140.87,-94.7522 L 140.178,-95.6067 L 139.516,-96.4848
 L 138.885,-97.3854 L 138.286,-98.3075 L 137.72,-99.25 L 137.187,-100.212 L 136.688,-101.191 L 136.223,-102.188
 L 135.794,-103.2 L 135.4,-104.226 L 135.042,-105.266 L 134.72,-106.317 L 134.436,-107.379 L 134.188,-108.451
 L 133.979,-109.53 L 133.807,-110.616 L 133.673,-111.707 L 133.577,-112.803 L 133.519,-113.901 z
" stroke="black" fill="lightgray" stroke-width="0.5"/>
</svg>
