<?xml version="1.0" standalone="no"?>
<!DOCTYPE svg PUBLIC "-//W3C//DTD SVG 1.1//EN" "http://www.w3.org/Graphics/SVG/1.1/DTD/svg11.dtd">
<svg width="218mm" height="186mm" viewBox="0 -186 218 186" xmlns="http://www.w3.org/2000/svg" version="1.1">
<title>OpenSCAD Model</title>
<path d="
M 0,-0 L 218,-0 L 218,-186 L 0,-186 z
M 5,-62.5 L 5.00609,-62.849 L 5.02436,-63.1976 L 5.05478,-63.5453 L 5.09732,-63.8917 L 5.15192,-64.2365
 L 5.21852,-64.5791 L 5.29704,-64.9192 L 5.38738,-65.2564 L 5.48944,-65.5902 L 5.60307,-65.9202 L 5.72816,-66.2461
 L 5.86455,-66.5674 L 6.01206,-66.8837 L 6.17052,-67.1947 L 6.33975,-67.5 L 6.51952,-67.7992 L 6.70962,-68.0919
 L 6.90983,-68.3779 L 7.11989,-68.6566 L 7.33956,-68.9279 L 7.56855,-69.1913 L 7.8066,-69.4466 L 8.05342,-69.6934
 L 8.30869,-69.9314 L 8.57212,-70.1604 L 8.84339,-70.3801 L 9.12215,-70.5902 L 9.40807,-70.7904 L 9.70081,-70.9805
 L 10,-71.1603 L 10.3053,-71.3295 L 10.6163,-71.4879 L 10.9326,-71.6355 L 11.2539,-71.7718 L 11.5798,-71.8969
 L 11.9098,-72.0106 L 12.2436,-72.1126 L 12.5808,-72.203 L 12.9209,-72.2815 L 13.2635,-72.3481 L 13.6083,-72.4027
 L 13.9547,-72.4452 L 14.3024,-72.4756 L 14.651,-72.4939 L 15,-72.5 L 15.349,-72.4939 L 15.6976,-72.4756
 L 16.0453,-72.4452 L 16.3917,-72.4027 L 16.7365,-72.3481 L 17.0791,-72.2815 L 17.4192,-72.203 L 17.7564,-72.1126
 L 18.0902,-72.0106 L 18.4202,-71.8969 L 18.7461,-71.7718 L 19.0674,-71.6355 L 19.3837,-71.4879 L 19.6947,-71.3295
 L 20,-71.1603 L 20.2992,-70.9805 L 20.5919,-70.7904 L 20.8779,-70.5902 L 21.1566,-70.3801 L 21.4279,-70.1604
 L 21.6913,-69.9314 L 21.9466,-69.6934 L 22.1934,-69.4466 L 22.4314,-69.1913 L 22.6604,-68.9279 L 22.8801,-68.6566
 L 23.0902,-68.3779 L 23.2904,-68.0919 L 23.4805,-67.7992 L 23.6603,-67.5 L 23.8295,-67.1947 L 23.9879,-66.8837
 L 24.1355,-66.5674 L 24.2718,-66.2461 L 24.3969,-65.9202 L 24.5106,-65.5902 L 24.6126,-65.2564 L 24.703,-64.9192
 L 24.7815,-64.5791 L 24.8481,-64.2365 L 24.9027,-63.8917 L 24.9452,-63.5453 L 24.9756,-63.1976 L 24.9939,-62.849
 L 25,-62.5 L 24.9939,-62.151 L 24.9756,-61.8024 L 24.9452,-61.4547 L 24.9027,-61.1083 L 24.8481,-60.7635
 L 24.7815,-60.4209 L 24.703,-60.0808 L 24.6126,-59.7436 L 24.5106,-59.4098 L 24.3969,-59.0798 L 24.2718,-58.7539
 L 24.1355,-58.4326 L 23.9879,-58.1163 L 23.8295,-57.8053 L 23.6603,-57.5 L 23.4805,-57.2008 L 23.2904,-56.9081
 L 23.0902,-56.6221 L 22.8801,-56.3434 L 22.6604,-56.0721 L 22.4314,-55.8087 L 22.1934,-55.5534 L 21.9466,-55.3066
 L 21.6913,-55.0686 L 21.4279,-54.8396 L 21.1566,-54.6199 L 20.8779,-54.4098 L 20.5919,-54.2096 L 20.2992,-54.0195
 L 20,-53.8397 L 19.6947,-53.6705 L 19.3837,-53.5121 L 19.0674,-53.3645 L 18.7461,-53.2282 L 18.4202,-53.1031
 L 18.0902,-52.9894 L 17.7564,-52.8874 L 17.4192,-52.797 L 17.0791,-52.7185 L 16.7365,-52.6519 L 16.3917,-52.5973
 L 16.0453,-52.5548 L 15.6976,-52.5244 L 15.349,-52.5061 L 15,-52.5 L 14.651,-52.5061 L 14.3024,-52.5244
 L 13.9547,-52.5548 L 13.6083,-52.5973 L 13.2635,-52.6519 L 12.9209,-52.7185 L 12.5808,-52.797 L 12.2436,-52.8874
 L 11.9098,-52.9894 L 11.5798,-53.1031 L 11.2539,-53.2282 L 10.9326,-53.3645 L 10.6163,-53.5121 L 10.3053,-53.6705
 L 10,-53.8397 L 9.70081,-54.0195 L 9.40807,-54.2096 L 9.12215,-54.4098 L 8.84339,-54.6199 L 8.57212,-54.8396
 L 8.30869,-55.0686 L 8.05342,-55.3066 L 7.8066,-55.5534 L 7.56855,-55.8087 L 7.33956,-56.0721 L 7.11989,-56.3434
 L 6.90983,-56.6221 L 6.70962,-56.9081 L 6.51952,-57.2008 L 6.33975,-57.5 L 6.17052,-57.8053 L 6.01206,-58.1163
 L 5.86455,-58.4326 L 5.72816,-58.7539 L 5.60307,-59.0798 L 5.48944,-59.4098 L 5.38738,-59.7436 L 5.29704,-60.0808
 L 5.21852,-60.4209 L 5.15192,-60.7635 L 5.09732,-61.1083 L 5.05478,-61.4547 L 5.02436,-61.8024 L 5.00609,-62.151
 z
M 71,-62.5 L 71.0061,-62.849 L 71.0244,-63.1976 L 71.0548,-63.5453 L 71.0973,-63.8917 L 71.1519,-64.2365
 L 71.2185,-64.5791 L 71.297,-64.9192 L 71.3874,-65.2564 L 71.4894,-65.5902 L 71.6031,-65.9202 L 71.7282,-66.2461
 L 71.8645,-66.5674 L 72.0121,-66.8837 L 72.1705,-67.1947 L 72.3397,-67.5 L 72.5195,-67.7992 L 72.7096,-68.0919
 L 72.9098,-68.3779 L 73.1199,-68.6566 L 73.3396,-68.9279 L 73.5686,-69.1913 L 73.8066,-69.4466 L 74.0534,-69.6934
 L 74.3087,-69.9314 L 74.5721,-70.1604 L 74.8434,-70.3801 L 75.1221,-70.5902 L 75.4081,-70.7904 L 75.7008,-70.9805
 L 76,-71.1603 L 76.3053,-71.3295 L 76.6163,-71.4879 L 76.9326,-71.6355 L 77.2539,-71.7718 L 77.5798,-71.8969
 L 77.9098,-72.0106 L 78.2436,-72.1126 L 78.5808,-72.203 L 78.9209,-72.2815 L 79.2635,-72.3481 L 79.6083,-72.4027
 L 79.9547,-72.4452 L 80.3024,-72.4756 L 80.651,-72.4939 L 81,-72.5 L 81.349,-72.4939 L 81.6976,-72.4756
 L 82.0453,-72.4452 L 82.3917,-72.4027 L 82.7365,-72.3481 L 83.0791,-72.2815 L 83.4192,-72.203 L 83.7564,-72.1126
 L 84.0902,-72.0106 L 84.4202,-71.8969 L 84.7461,-71.7718 L 85.0674,-71.6355 L 85.3837,-71.4879 L 85.6947,-71.3295
 L 86,-71.1603 L 86.2992,-70.9805 L 86.5919,-70.7904 L 86.8779,-70.5902 L 87.1566,-70.3801 L 87.4279,-70.1604
 L 87.6913,-69.9314 L 87.9466,-69.6934 L 88.1934,-69.4466 L 88.4314,-69.1913 L 88.6604,-68.9279 L 88.8801,-68.6566
 L 89.0902,-68.3779 L 89.2904,-68.0919 L 89.4805,-67.7992 L 89.6603,-67.5 L 89.8295,-67.1947 L 89.9879,-66.8837
 L 90.1355,-66.5674 L 90.2718,-66.2461 L 90.3969,-65.9202 L 90.5106,-65.5902 L 90.6126,-65.2564 L 90.703,-64.9192
 L 90.7815,-64.5791 L 90.8481,-64.2365 L 90.9027,-63.8917 L 90.9452,-63.5453 L 90.9756,-63.1976 L 90.9939,-62.849
 L 91,-62.5 L 90.9939,-62.151 L 90.9756,-61.8024 L 90.9452,-61.4547 L 90.9027,-61.1083 L 90.8481,-60.7635
 L 90.7815,-60.4209 L 90.703,-60.0808 L 90.6126,-59.7436 L 90.5106,-59.4098 L 90.3969,-59.0798 L 90.2718,-58.7539
 L 90.1355,-58.4326 L 89.9879,-58.1163 L 89.8295,-57.8053 L 89.6603,-57.5 L 89.4805,-57.2008 L 89.2904,-56.9081
 L 89.0902,-56.6221 L 88.8801,-56.3434 L 88.6604,-56.0721 L 88.4314,-55.8087 L 88.1934,-55.5534 L 87.9466,-55.3066
 L 87.6913,-55.0686 L 87.4279,-54.8396 L 87.1566,-54.6199 L 86.8779,-54.4098 L 86.5919,-54.2096 L 86.2992,-54.0195
 L 86,-53.8397 L 85.6947,-53.6705 L 85.3837,-53.5121 L 85.0674,-53.3645 L 84.7461,-53.2282 L 84.4202,-53.1031
 L 84.0902,-52.9894 L 83.7564,-52.8874 L 83.4192,-52.797 L 83.0791,-52.7185 L 82.7365,-52.6519 L 82.3917,-52.5973
 L 82.0453,-52.5548 L 81.6976,-52.5244 L 81.349,-52.5061 L 81,-52.5 L 80.651,-52.5061 L 80.3024,-52.5244
 L 79.9547,-52.5548 L 79.6083,-52.5973 L 79.2635,-52.6519 L 78.9209,-52.7185 L 78.5808,-52.797 L 78.2436,-52.8874
 L 77.9098,-52.9894 L 77.5798,-53.1031 L 77.2539,-53.2282 L 76.9326,-53.3645 L 76.6163,-53.5121 L 76.3053,-53.6705
 L 76,-53.8397 L 75.7008,-54.0195 L 75.4081,-54.2096 L 75.1221,-54.4098 L 74.8434,-54.6199 L 74.5721,-54.8396
 L 74.3087,-55.0686 L 74.0534,-55.3066 L 73.8066,-55.5534 L 73.5686,-55.8087 L 73.3396,-56.0721 L 73.1199,-56.3434
 L 72.9098,-56.6221 L 72.7096,-56.9081 L 72.5195,-57.2008 L 72.3397,-57.5 L 72.1705,-57.8053 L 72.0121,-58.1163
 L 71.8645,-58.4326 L 71.7282,-58.7539 L 71.6031,-59.0798 L 71.4894,-59.4098 L 71.3874,-59.7436 L 71.297,-60.0808
 L 71.2185,-60.4209 L 71.1519,-60.7635 L 71.0973,-61.1083 L 71.0548,-61.4547 L 71.0244,-61.8024 L 71.0061,-62.151
 z
M 104,-120 L 104.004,-120.209 L 104.015,-120.419 L 104.033,-120.627 L 104.058,-120.835 L 104.091,-121.042
 L 104.131,-121.247 L 104.178,-121.452 L 104.232,-121.654 L 104.294,-121.854 L 104.362,-122.052 L 104.437,-122.248
 L 104.519,-122.44 L 104.607,-122.63 L 104.702,-122.817 L 104.804,-123 L 104.912,-123.18 L 105.026,-123.355
 L 105.146,-123.527 L 105.272,-123.694 L 105.404,-123.857 L 105.541,-124.015 L 105.684,-124.168 L 105.832,-124.316
 L 105.985,-124.459 L 106.143,-124.596 L 106.306,-124.728 L 106.473,-124.854 L 106.645,-124.974 L 106.82,-125.088
 L 107,-125.196 L 107.183,-125.298 L 107.37,-125.393 L 107.56,-125.481 L 107.752,-125.563 L 107.948,-125.638
 L 108.146,-125.706 L 108.346,-125.768 L 108.548,-125.822 L 108.753,-125.869 L 108.958,-125.909 L 109.165,-125.942
 L 109.373,-125.967 L 109.581,-125.985 L 109.791,-125.996 L 110,-126 L 110.209,-125.996 L 110.419,-125.985
 L 110.627,-125.967 L 110.835,-125.942 L 111.042,-125.909 L 111.247,-125.869 L 111.452,-125.822 L 111.654,-125.768
 L 111.854,-125.706 L 112.052,-125.638 L 112.248,-125.563 L 112.44,-125.481 L 112.63,-125.393 L 112.817,-125.298
 L 113,-125.196 L 113.18,-125.088 L 113.355,-124.974 L 113.527,-124.854 L 113.694,-124.728 L 113.857,-124.596
 L 114.015,-124.459 L 114.168,-124.316 L 114.316,-124.168 L 114.459,-124.015 L 114.596,-123.857 L 114.728,-123.694
 L 114.854,-123.527 L 114.974,-123.355 L 115.088,-123.18 L 115.196,-123 L 115.298,-122.817 L 115.393,-122.63
 L 115.481,-122.44 L 115.563,-122.248 L 115.638,-122.052 L 115.706,-121.854 L 115.768,-121.654 L 115.822,-121.452
 L 115.869,-121.247 L 115.909,-121.042 L 115.942,-120.835 L 115.967,-120.627 L 115.985,-120.419 L 115.996,-120.209
 L 116,-120 L 115.996,-119.791 L 115.985,-119.581 L 115.967,-119.373 L 115.942,-119.165 L 115.909,-118.958
 L 115.869,-118.753 L 115.822,-118.548 L 115.768,-118.346 L 115.706,-118.146 L 115.638,-117.948 L 115.563,-117.752
 L 115.481,-117.56 L 115.393,-117.37 L 115.298,-117.183 L 115.196,-117 L 115.088,-116.82 L 114.974,-116.645
 L 114.854,-116.473 L 114.728,-116.306 L 114.596,-116.143 L 114.459,-115.985 L 114.316,-115.832 L 114.168,-115.684
 L 114.015,-115.541 L 113.857,-115.404 L 113.694,-115.272 L 113.527,-115.146 L 113.355,-115.026 L 113.18,-114.912
 L 113,-114.804 L 112.817,-114.702 L 112.63,-114.607 L 112.44,-114.519 L 112.248,-114.437 L 112.052,-114.362
 L 111.854,-114.294 L 111.654,-114.232 L 111.452,-114.178 L 111.247,-114.131 L 111.042,-114.091 L 110.835,-114.058
 L 110.627,-114.033 L 110.419,-114.015 L 110.209,-114.004 L 110,-114 L 109.791,-114.004 L 109.581,-114.015
 L 109.373,-114.033 L 109.165,-114.058 L 108.958,-114.091 L 108.753,-114.131 L 108.548,-114.178 L 108.346,-114.232
 L 108.146,-114.294 L 107.948,-114.362 L 107.752,-114.437 L 107.56,-114.519 L 107.37,-114.607 L 107.183,-114.702
 L 107,-114.804 L 106.82,-114.912 L 106.645,-115.026 L 106.473,-115.146 L 106.306,-115.272 L 106.143,-115.404
 L 105.985,-115.541 L 105.832,-115.684 L 105.684,-115.832 L 105.541,-115.985 L 105.404,-116.143 L 105.272,-116.306
 L 105.146,-116.473 L 105.026,-116.645 L 104.912,-116.82 L 104.804,-117 L 104.702,-117.183 L 104.607,-117.37
 L 104.519,-117.56 L 104.437,-117.752 L 104.362,-117.948 L 104.294,-118.146 L 104.232,-118.346 L 104.178,-118.548
 L 104.131,-118.753 L 104.091,-118.958 L 104.058,-119.165 L 104.033,-119.373 L 104.015,-119.581 L 104.004,-119.791
 z
M 115.6,-21 L 115.6,-80 L 118.625,-80 L 118.625,-97 L 121.375,-97 L 121.375,-80
 L 124.4,-80 L 124.4,-21 z
M 135,-115 L 135.018,-116.047 L 135.073,-117.093 L 135.164,-118.136 L 135.292,-119.175 L 135.456,-120.209
 L 135.656,-121.237 L 135.891,-122.258 L 136.162,-123.269 L 136.468,-124.271 L 136.809,-125.261 L 137.184,-126.238
 L 137.594,-127.202 L 138.036,-128.151 L 138.512,-129.084 L 139.019,-130 L 139.559,-130.898 L 140.129,-131.776
 L 140.729,-132.634 L 141.36,-133.47 L 142.019,-134.284 L 142.706,-135.074 L 143.42,-135.84 L 144.16,-136.58
 L 144.926,-137.294 L 145.716,-137.981 L 146.53,-138.64 L 147.366,-139.271 L 148.224,-139.871 L 149.102,-140.441
 L 150,-140.981 L 150.916,-141.488 L 151.849,-141.964 L 152.798,-142.406 L 153,-142.492 L 153,-153.153
 L 153.975,-153.45 L 155.323,-153.812 L 156.684,-154.126 L 158.054,-154.392 L 159.433,-154.611 L 160.819,-154.781
 L 162.21,-154.903 L 163.604,-154.976 L 165,-155 L 166.396,-154.976 L 167.79,-154.903 L 169.181,-154.781
 L 170.567,-154.611 L 171.946,-154.392 L 173.316,-154.126 L 174.677,-153.812 L 176.025,-153.45 L 177.361,-153.042
 L 178.681,-152.588 L 179.984,-152.087 L 181.269,-151.542 L 182.535,-150.952 L 183.779,-150.318 L 185,-149.641
 L 186.197,-148.922 L 187.368,-148.162 L 188.511,-147.361 L 189.626,-146.52 L 190.712,-145.642 L 191.765,-144.726
 L 192.786,-143.774 L 193.774,-142.786 L 194.726,-141.765 L 195.642,-140.712 L 196.52,-139.626 L 197.361,-138.511
 L 198.162,-137.368 L 198.922,-136.197 L 199.641,-135 L 200.318,-133.779 L 200.952,-132.535 L 201.542,-131.269
 L 202.087,-129.984 L 202.588,-128.681 L 203.042,-127.361 L 203.45,-126.025 L 203.812,-124.677 L 204.126,-123.316
 L 204.392,-121.946 L 204.611,-120.567 L 204.781,-119.181 L 204.903,-117.79 L 204.976,-116.396 L 205,-115
 L 195,-115 L 194.982,-113.953 L 194.927,-112.907 L 194.836,-111.864 L 194.708,-110.825 L 194.544,-109.791
 L 194.344,-108.763 L 194.109,-107.742 L 193.838,-106.731 L 193.532,-105.729 L 193.191,-104.739 L 192.816,-103.762
 L 192.406,-102.798 L 191.964,-101.849 L 191.488,-100.916 L 190.981,-100 L 190.441,-99.1024 L 189.871,-98.2242
 L 189.271,-97.3664 L 188.64,-96.5302 L 187.981,-95.7164 L 187.294,-94.9261 L 186.58,-94.1602 L 185.84,-93.4198
 L 185.074,-92.7057 L 184.284,-92.0187 L 183.47,-91.3597 L 182.634,-90.7295 L 181.776,-90.1289 L 180.898,-89.5586
 L 180,-89.0192 L 179.084,-88.5116 L 178.151,-88.0362 L 177.202,-87.5936 L 176.238,-87.1845 L 175.261,-86.8092
 L 174.271,-86.4683 L 173.269,-86.1621 L 172.258,-85.8911 L 171.237,-85.6556 L 170.209,-85.4558 L 169.75,-85.383
 L 169.75,-51 L 167.25,-51 L 167.25,-31 L 162.75,-31 L 162.75,-51 L 160.25,-51
 L 160.25,-85.383 L 159.791,-85.4558 L 158.763,-85.6556 L 157.742,-85.8911 L 156.731,-86.1621 L 155.729,-86.4683
 L 154.739,-86.8092 L 153.762,-87.1845 L 152.798,-87.5936 L 151.849,-88.0362 L 150.916,-88.5116 L 150,-89.0192
 L 149.102,-89.5586 L 148.224,-90.1289 L 147.366,-90.7295 L 146.53,-91.3597 L 145.716,-92.0187 L 144.926,-92.7057
 L 144.16,-93.4198 L 143.42,-94.1602 L 142.706,-94.9261 L 142.019,-95.7164 L 141.36,-96.5302 L 140.729,-97.3664
 L 140.129,-98.2242 L 139.559,-99.1024 L 139.019,-100 L 138.512,-100.916 L 138.036,-101.849 L 137.594,-102.798
 L 137.184,-103.762 L 136.809,-104.739 L 136.468,-105.729 L 136.162,-106.731 L 135.891,-107.742 L 135.656,-108.763
 L 135.456,-109.791 L 135.292,-110.825 L 135.164,-111.864 L 135.073,-112.907 L 135.018,-113.953 z
" stroke="black" fill="lightgray" stroke-width="0.5"/>
</svg>
