<?xml version="1.0" standalone="no"?>
<!DOCTYPE svg PUBLIC "-//W3C//DTD SVG 1.1//EN" "http://www.w3.org/Graphics/SVG/1.1/DTD/svg11.dtd">
<svg width="218mm" height="186mm" viewBox="0 -186 218 186" xmlns="http://www.w3.org/2000/svg" version="1.1">
<title>OpenSCAD Model</title>
<path d="
M 0,-0 L 218,-0 L 218,-186 L 0,-186 z
M 5,-62.5 L 5.00609,-62.849 L 5.02436,-63.1976 L 5.05478,-63.5453 L 5.09732,-63.8917 L 5.15192,-64.2365
 L 5.21852,-64.5791 L 5.29704,-64.9192 L 5.38738,-65.2564 L 5.48944,-65.5902 L 5.60307,-65.9202 L 5.72816,-66.2461
 L 5.86455,-66.5674 L 6.01206,-66.8837 L 6.17052,-67.1947 L 6.33975,-67.5 L 6.51952,-67.7992 L 6.70962,-68.0919
 L 6.90983,-68.3779 L 7.11989,-68.6566 L 7.33956,-68.9279 L 7.56855,-69.1913 L 7.8066,-69.4466 L 8.05342,-69.6934
 L 8.30869,-69.9314 L 8.57212,-70.1604 L 8.84339,-70.3801 L 9.12215,-70.5902 L 9.40807,-70.7904 L 9.70081,-70.9805
 L 10,-71.1603 L 10.3053,-71.3295 L 10.6163,-71.4879 L 10.9326,-71.6355 L 11.2539,-71.7718 L 11.5798,-71.8969
 L 11.9098,-72.0106 L 12.2436,-72.1126 L 12.5808,-72.203 L 12.9209,-72.2815 L 13.2635,-72.3481 L 13.6083,-72.4027
 L 13.9547,-72.4452 L 14.3024,-72.4756 L 14.651,-72.4939 L 15,-72.5 L 15,-110 L 81,-110
 L 81,-72.5 L 81.349,-72.4939 L 81.6976,-72.4756 L 82.0453,-72.4452 L 82.3917,-72.4027 L 82.7365,-72.3481
 L 83.0791,-72.2815 L 83.4192,-72.203 L 83.7564,-72.1126 L 84.0902,-72.0106 L 84.4202,-71.8969 L 84.7461,-71.7718
 L 85.0674,-71.6355 L 85.3837,-71.4879 L 85.6947,-71.3295 L 86,-71.1603 L 86.2992,-70.9805 L 86.5919,-70.7904
 L 86.8779,-70.5902 L 87.1566,-70.3801 L 87.4279,-70.1604 L 87.6913,-69.9314 L 87.9466,-69.6934 L 88.1934,-69.4466
 L 88.4314,-69.1913 L 88.6604,-68.9279 L 88.8801,-68.6566 L 89.0902,-68.3779 L 89.2904,-68.0919 L 89.4805,-67.7992
 L 89.6603,-67.5 L 89.8295,-67.1947 L 89.9879,-66.8837 L 90.1355,-66.5674 L 90.2718,-66.2461 L 90.3969,-65.9202
 L 90.5106,-65.5902 L 90.6126,-65.2564 L 90.703,-64.9192 L 90.7815,-64.5791 L 90.8481,-64.2365 L 90.9027,-63.8917
 L 90.9452,-63.5453 L 90.9756,-63.1976 L 90.9939,-62.849 L 91,-62.5 L 90.9939,-62.151 L 90.9756,-61.8024
 L 90.9452,-61.4547 L 90.9027,-61.1083 L 90.8481,-60.7635 L 90.7815,-60.4209 L 90.703,-60.0808 L 90.6126,-59.7436
 L 90.5106,-59.4098 L 90.3969,-59.0798 L 90.2718,-58.7539 L 90.1355,-58.4326 L 89.9879,-58.1163 L 89.8295,-57.8053
 L 89.6603,-57.5 L 89.4805,-57.2008 L 89.2904,-56.9081 L 89.0902,-56.6221 L 88.8801,-56.3434 L 88.6604,-56.0721
 L 88.4314,-55.8087 L 88.1934,-55.5534 L 87.9466,-55.3066 L 87.6913,-55.0686 L 87.4279,-54.8396 L 87.1566,-54.6199
 L 86.8779,-54.4098 L 86.5919,-54.2096 L 86.2992,-54.0195 L 86,-53.8397 L 85.6947,-53.6705 L 85.3837,-53.5121
 L 85.0674,-53.3645 L 84.7461,-53.2282 L 84.4202,-53.1031 L 84.0902,-52.9894 L 83.7564,-52.8874 L 83.4192,-52.797
 L 83.0791,-52.7185 L 82.7365,-52.6519 L 82.3917,-52.5973 L 82.0453,-52.5548 L 81.6976,-52.5244 L 81.349,-52.5061
 L 81,-52.5 L 81,-15 L 15,-15 L 15,-52.5 L 14.651,-52.5061 L 14.3024,-52.5244
 L 13.9547,-52.5548 L 13.6083,-52.5973 L 13.2635,-52.6519 L 12.9209,-52.7185 L 12.5808,-52.797 L 12.2436,-52.8874
 L 11.9098,-52.9894 L 11.5798,-53.1031 L 11.2539,-53.2282 L 10.9326,-53.3645 L 10.6163,-53.5121 L 10.3053,-53.6705
 L 10,-53.8397 L 9.70081,-54.0195 L 9.40807,-54.2096 L 9.12215,-54.4098 L 8.84339,-54.6199 L 8.57212,-54.8396
 L 8.30869,-55.0686 L 8.05342,-55.3066 L 7.8066,-55.5534 L 7.56855,-55.8087 L 7.33956,-56.0721 L 7.11989,-56.3434
 L 6.90983,-56.6221 L 6.70962,-56.9081 L 6.51952,-57.2008 L 6.33975,-57.5 L 6.17052,-57.8053 L 6.01206,-58.1163
 L 5.86455,-58.4326 L 5.72816,-58.7539 L 5.60307,-59.0798 L 5.48944,-59.4098 L 5.38738,-59.7436 L 5.29704,-60.0808
 L 5.21852,-60.4209 L 5.15192,-60.7635 L 5.09732,-61.1083 L 5.05478,-61.4547 L 5.02436,-61.8024 L 5.00609,-62.151
 z
M 15,-120 L 15,-180 L 25,-180 L 25,-177.5 L 180,-177.5 L 180,-172.5
 L 25,-172.5 L 25,-167.5 L 155,-167.5 L 155,-162.5 L 25,-162.5 L 25,-157.5
 L 130,-157.5 L 130,-152.5 L 25,-152.5 L 25,-147.5 L 105,-147.5 L 105,-142.5
 L 25,-142.5 L 25,-137.5 L 80,-137.5 L 80,-132.5 L 25,-132.5 L 25,-127.5
 L 55,-127.5 L 55,-122.5 L 25,-122.5 L 25,-120 z
M 90,-37.2 L 90.0061,-37.549 L 90.0244,-37.8976 L 90.0548,-38.2453 L 90.0973,-38.5917 L 90.1519,-38.9365
 L 90.2185,-39.2791 L 90.297,-39.6192 L 90.3874,-39.9564 L 90.4894,-40.2902 L 90.6031,-40.6202 L 90.7282,-40.9461
 L 90.8645,-41.2674 L 91.0121,-41.5837 L 91.1705,-41.8947 L 91.3397,-42.2 L 91.5195,-42.4992 L 91.7096,-42.7919
 L 91.9098,-43.0779 L 92.1199,-43.3566 L 92.3396,-43.6279 L 92.5686,-43.8913 L 92.8066,-44.1466 L 93.0534,-44.3934
 L 93.3087,-44.6314 L 93.5721,-44.8604 L 93.8434,-45.0801 L 94.1221,-45.2902 L 94.4081,-45.4904 L 94.7008,-45.6805
 L 95,-45.8603 L 95.3053,-46.0295 L 95.6163,-46.1879 L 95.9326,-46.3355 L 96.2539,-46.4718 L 96.5798,-46.5969
 L 96.9098,-46.7106 L 97.2436,-46.8126 L 97.5808,-46.903 L 97.9209,-46.9815 L 98.2635,-47.0481 L 98.6083,-47.1027
 L 98.9547,-47.1452 L 99.3024,-47.1756 L 99.651,-47.1939 L 100,-47.2 L 100.349,-47.1939 L 100.698,-47.1756
 L 101.045,-47.1452 L 101.392,-47.1027 L 101.736,-47.0481 L 102.079,-46.9815 L 102.419,-46.903 L 102.502,-46.8807
 L 102.679,-47.2 L 103.039,-47.7984 L 103.419,-48.3839 L 103.82,-48.9557 L 104.24,-49.5132 L 104.679,-50.0558
 L 105.137,-50.5826 L 105.613,-51.0932 L 106.107,-51.5868 L 106.617,-52.0629 L 107.144,-52.5209 L 107.687,-52.9602
 L 108.244,-53.3803 L 108.816,-53.7808 L 109.402,-54.161 L 110,-54.5205 L 110.611,-54.859 L 111.233,-55.1759
 L 111.865,-55.4709 L 112.508,-55.7437 L 113.16,-55.9939 L 113.82,-56.2211 L 114.487,-56.4252 L 115.162,-56.6059
 L 115.6,-56.7071 L 115.6,-80 L 118.625,-80 L 118.625,-97 L 121.375,-97 L 121.375,-80
 L 124.4,-80 L 124.4,-56.7071 L 124.838,-56.6059 L 125.513,-56.4252 L 126.18,-56.2211 L 126.84,-55.9939
 L 127.492,-55.7437 L 128.135,-55.4709 L 128.767,-55.1759 L 129.389,-54.859 L 130,-54.5205 L 130.598,-54.161
 L 131.184,-53.7808 L 131.756,-53.3803 L 132.313,-52.9602 L 132.856,-52.5209 L 133.383,-52.0629 L 133.893,-51.5868
 L 134.387,-51.0932 L 134.863,-50.5826 L 135.321,-50.0558 L 135.76,-49.5132 L 136.18,-48.9557 L 136.581,-48.3839
 L 136.961,-47.7984 L 137.321,-47.2 L 137.498,-46.8807 L 137.581,-46.903 L 137.921,-46.9815 L 138.264,-47.0481
 L 138.608,-47.1027 L 138.955,-47.1452 L 139.302,-47.1756 L 139.651,-47.1939 L 140,-47.2 L 140.349,-47.1939
 L 140.698,-47.1756 L 141.045,-47.1452 L 141.392,-47.1027 L 141.736,-47.0481 L 142.079,-46.9815 L 142.419,-46.903
 L 142.756,-46.8126 L 143.09,-46.7106 L 143.42,-46.5969 L 143.746,-46.4718 L 144.067,-46.3355 L 144.384,-46.1879
 L 144.695,-46.0295 L 145,-45.8603 L 145.299,-45.6805 L 145.592,-45.4904 L 145.878,-45.2902 L 146.157,-45.0801
 L 146.428,-44.8604 L 146.691,-44.6314 L 146.947,-44.3934 L 147.193,-44.1466 L 147.431,-43.8913 L 147.66,-43.6279
 L 147.88,-43.3566 L 148.09,-43.0779 L 148.29,-42.7919 L 148.48,-42.4992 L 148.66,-42.2 L 148.829,-41.8947
 L 148.988,-41.5837 L 149.135,-41.2674 L 149.272,-40.9461 L 149.397,-40.6202 L 149.511,-40.2902 L 149.613,-39.9564
 L 149.703,-39.6192 L 149.781,-39.2791 L 149.848,-38.9365 L 149.903,-38.5917 L 149.945,-38.2453 L 149.976,-37.8976
 L 149.994,-37.549 L 150,-37.2 L 149.994,-36.851 L 149.976,-36.5024 L 149.945,-36.1547 L 149.903,-35.8083
 L 149.848,-35.4635 L 149.781,-35.1209 L 149.703,-34.7808 L 149.613,-34.4436 L 149.511,-34.1098 L 149.397,-33.7798
 L 149.272,-33.4539 L 149.135,-33.1326 L 148.988,-32.8163 L 148.829,-32.5053 L 148.66,-32.2 L 148.48,-31.9008
 L 148.29,-31.6081 L 148.09,-31.3221 L 147.88,-31.0434 L 147.66,-30.7721 L 147.431,-30.5087 L 147.193,-30.2534
 L 146.947,-30.0066 L 146.691,-29.7686 L 146.428,-29.5396 L 146.157,-29.3199 L 145.878,-29.1098 L 145.592,-28.9096
 L 145.299,-28.7195 L 145,-28.5397 L 144.695,-28.3705 L 144.384,-28.2121 L 144.067,-28.0645 L 143.746,-27.9282
 L 143.42,-27.8031 L 143.09,-27.6894 L 142.756,-27.5874 L 142.419,-27.497 L 142.079,-27.4185 L 141.736,-27.3519
 L 141.392,-27.2973 L 141.045,-27.2548 L 140.698,-27.2244 L 140.349,-27.2061 L 140,-27.2 L 139.651,-27.2061
 L 139.302,-27.2244 L 138.955,-27.2548 L 138.608,-27.2973 L 138.264,-27.3519 L 137.921,-27.4185 L 137.581,-27.497
 L 137.498,-27.5194 L 137.321,-27.2 L 136.961,-26.6016 L 136.581,-26.0161 L 136.18,-25.4443 L 135.76,-24.8868
 L 135.321,-24.3442 L 134.863,-23.8174 L 134.387,-23.3068 L 133.893,-22.8132 L 133.383,-22.3371 L 132.856,-21.8791
 L 132.313,-21.4398 L 131.756,-21.0197 L 131.184,-20.6192 L 130.598,-20.239 L 130,-19.8795 L 129.389,-19.541
 L 128.767,-19.2241 L 128.135,-18.9291 L 127.492,-18.6563 L 126.84,-18.4061 L 126.18,-18.1789 L 125.513,-17.9748
 L 124.838,-17.7941 L 124.158,-17.637 L 123.473,-17.5038 L 122.783,-17.3946 L 122.091,-17.3096 L 121.395,-17.2487
 L 120.698,-17.2122 L 120,-17.2 L 119.302,-17.2122 L 118.605,-17.2487 L 117.909,-17.3096 L 117.217,-17.3946
 L 116.527,-17.5038 L 115.842,-17.637 L 115.162,-17.7941 L 114.487,-17.9748 L 113.82,-18.1789 L 113.16,-18.4061
 L 112.508,-18.6563 L 111.865,-18.9291 L 111.233,-19.2241 L 110.611,-19.541 L 110,-19.8795 L 109.402,-20.239
 L 108.816,-20.6192 L 108.244,-21.0197 L 107.687,-21.4398 L 107.144,-21.8791 L 106.617,-22.3371 L 106.107,-22.8132
 L 105.613,-23.3068 L 105.137,-23.8174 L 104.679,-24.3442 L 104.24,-24.8868 L 103.82,-25.4443 L 103.419,-26.0161
 L 103.039,-26.6016 L 102.679,-27.2 L 102.502,-27.5194 L 102.419,-27.497 L 102.079,-27.4185 L 101.736,-27.3519
 L 101.392,-27.2973 L 101.045,-27.2548 L 100.698,-27.2244 L 100.349,-27.2061 L 100,-27.2 L 99.651,-27.2061
 L 99.3024,-27.2244 L 98.9547,-27.2548 L 98.6083,-27.2973 L 98.2635,-27.3519 L 97.9209,-27.4185 L 97.5808,-27.497
 L 97.2436,-27.5874 L 96.9098,-27.6894 L 96.5798,-27.8031 L 96.2539,-27.9282 L 95.9326,-28.0645 L 95.6163,-28.2121
 L 95.3053,-28.3705 L 95,-28.5397 L 94.7008,-28.7195 L 94.4081,-28.9096 L 94.1221,-29.1098 L 93.8434,-29.3199
 L 93.5721,-29.5396 L 93.3087,-29.7686 L 93.0534,-30.0066 L 92.8066,-30.2534 L 92.5686,-30.5087 L 92.3396,-30.7721
 L 92.1199,-31.0434 L 91.9098,-31.3221 L 91.7096,-31.6081 L 91.5195,-31.9008 L 91.3397,-32.2 L 91.1705,-32.5053
 L 91.0121,-32.8163 L 90.8645,-33.1326 L 90.7282,-33.4539 L 90.6031,-33.7798 L 90.4894,-34.1098 L 90.3874,-34.4436
 L 90.297,-34.7808 L 90.2185,-35.1209 L 90.1519,-35.4635 L 90.0973,-35.8083 L 90.0548,-36.1547 L 90.0244,-36.5024
 L 90.0061,-36.851 z
M 101,-120 L 101.002,-120.105 L 101.008,-120.209 L 101.017,-120.314 L 101.03,-120.417 L 101.046,-120.521
 L 101.066,-120.624 L 101.09,-120.726 L 101.117,-120.827 L 101.147,-120.927 L 101.181,-121.026 L 101.219,-121.124
 L 101.26,-121.22 L 101.304,-121.315 L 101.352,-121.408 L 101.402,-121.5 L 101.456,-121.59 L 101.513,-121.677
 L 101.573,-121.763 L 101.636,-121.847 L 101.702,-121.928 L 101.771,-122.007 L 101.842,-122.084 L 101.916,-122.158
 L 101.993,-122.229 L 102.072,-122.298 L 102.153,-122.364 L 102.237,-122.427 L 102.323,-122.487 L 102.41,-122.544
 L 102.5,-122.598 L 102.592,-122.648 L 102.685,-122.696 L 102.78,-122.74 L 102.876,-122.781 L 102.974,-122.819
 L 103.073,-122.853 L 103.173,-122.883 L 103.274,-122.91 L 103.376,-122.934 L 103.479,-122.954 L 103.583,-122.97
 L 103.686,-122.983 L 103.791,-122.992 L 103.895,-122.998 L 104,-123 L 104.105,-122.998 L 104.209,-122.992
 L 104.314,-122.983 L 104.417,-122.97 L 104.521,-122.954 L 104.624,-122.934 L 104.726,-122.91 L 104.751,-122.904
 L 104.804,-123 L 104.912,-123.18 L 105.026,-123.355 L 105.146,-123.527 L 105.272,-123.694 L 105.404,-123.857
 L 105.541,-124.015 L 105.684,-124.168 L 105.832,-124.316 L 105.985,-124.459 L 106.143,-124.596 L 106.306,-124.728
 L 106.473,-124.854 L 106.645,-124.974 L 106.82,-125.088 L 107,-125.196 L 107.183,-125.298 L 107.37,-125.393
 L 107.56,-125.481 L 107.752,-125.563 L 107.948,-125.638 L 108.146,-125.706 L 108.346,-125.768 L 108.548,-125.822
 L 108.753,-125.869 L 108.958,-125.909 L 109.165,-125.942 L 109.373,-125.967 L 109.581,-125.985 L 109.791,-125.996
 L 110,-126 L 110.209,-125.996 L 110.419,-125.985 L 110.627,-125.967 L 110.835,-125.942 L 111.042,-125.909
 L 111.247,-125.869 L 111.452,-125.822 L 111.654,-125.768 L 111.854,-125.706 L 112.052,-125.638 L 112.248,-125.563
 L 112.44,-125.481 L 112.63,-125.393 L 112.817,-125.298 L 113,-125.196 L 113.18,-125.088 L 113.355,-124.974
 L 113.527,-124.854 L 113.694,-124.728 L 113.857,-124.596 L 114.015,-124.459 L 114.168,-124.316 L 114.316,-124.168
 L 114.459,-124.015 L 114.596,-123.857 L 114.728,-123.694 L 114.854,-123.527 L 114.974,-123.355 L 115.088,-123.18
 L 115.196,-123 L 115.249,-122.904 L 115.274,-122.91 L 115.376,-122.934 L 115.479,-122.954 L 115.583,-122.97
 L 115.686,-122.983 L 115.791,-122.992 L 115.895,-122.998 L 116,-123 L 116.105,-122.998 L 116.209,-122.992
 L 116.314,-122.983 L 116.417,-122.97 L 116.521,-122.954 L 116.624,-122.934 L 116.726,-122.91 L 116.827,-122.883
 L 116.927,-122.853 L 117.026,-122.819 L 117.124,-122.781 L 117.22,-122.74 L 117.315,-122.696 L 117.408,-122.648
 L 117.5,-122.598 L 117.59,-122.544 L 117.677,-122.487 L 117.763,-122.427 L 117.847,-122.364 L 117.928,-122.298
 L 118.007,-122.229 L 118.084,-122.158 L 118.158,-122.084 L 118.229,-122.007 L 118.298,-121.928 L 118.364,-121.847
 L 118.427,-121.763 L 118.487,-121.677 L 118.544,-121.59 L 118.598,-121.5 L 118.648,-121.408 L 118.696,-121.315
 L 118.74,-121.22 L 118.781,-121.124 L 118.819,-121.026 L 118.853,-120.927 L 118.883,-120.827 L 118.91,-120.726
 L 118.934,-120.624 L 118.954,-120.521 L 118.97,-120.417 L 118.983,-120.314 L 118.992,-120.209 L 118.998,-120.105
 L 119,-120 L 118.998,-119.895 L 118.992,-119.791 L 118.983,-119.686 L 118.97,-119.583 L 118.954,-119.479
 L 118.934,-119.376 L 118.91,-119.274 L 118.883,-119.173 L 118.853,-119.073 L 118.819,-118.974 L 118.781,-118.876
 L 118.74,-118.78 L 118.696,-118.685 L 118.648,-118.592 L 118.598,-118.5 L 118.544,-118.41 L 118.487,-118.323
 L 118.427,-118.237 L 118.364,-118.153 L 118.298,-118.072 L 118.229,-117.993 L 118.158,-117.916 L 118.084,-117.842
 L 118.007,-117.771 L 117.928,-117.702 L 117.847,-117.636 L 117.763,-117.573 L 117.677,-117.513 L 117.59,-117.456
 L 117.5,-117.402 L 117.408,-117.352 L 117.315,-117.304 L 117.22,-117.26 L 117.124,-117.219 L 117.026,-117.181
 L 116.927,-117.147 L 116.827,-117.117 L 116.726,-117.09 L 116.624,-117.066 L 116.521,-117.046 L 116.417,-117.03
 L 116.314,-117.017 L 116.209,-117.008 L 116.105,-117.002 L 116,-117 L 115.895,-117.002 L 115.791,-117.008
 L 115.686,-117.017 L 115.583,-117.03 L 115.479,-117.046 L 115.376,-117.066 L 115.274,-117.09 L 115.249,-117.096
 L 115.196,-117 L 115.088,-116.82 L 114.974,-116.645 L 114.854,-116.473 L 114.728,-116.306 L 114.596,-116.143
 L 114.459,-115.985 L 114.316,-115.832 L 114.168,-115.684 L 114.015,-115.541 L 113.857,-115.404 L 113.694,-115.272
 L 113.527,-115.146 L 113.355,-115.026 L 113.18,-114.912 L 113,-114.804 L 112.817,-114.702 L 112.63,-114.607
 L 112.44,-114.519 L 112.248,-114.437 L 112.052,-114.362 L 111.854,-114.294 L 111.654,-114.232 L 111.452,-114.178
 L 111.247,-114.131 L 111.042,-114.091 L 110.835,-114.058 L 110.627,-114.033 L 110.419,-114.015 L 110.209,-114.004
 L 110,-114 L 109.791,-114.004 L 109.581,-114.015 L 109.373,-114.033 L 109.165,-114.058 L 108.958,-114.091
 L 108.753,-114.131 L 108.548,-114.178 L 108.346,-114.232 L 108.146,-114.294 L 107.948,-114.362 L 107.752,-114.437
 L 107.56,-114.519 L 107.37,-114.607 L 107.183,-114.702 L 107,-114.804 L 106.82,-114.912 L 106.645,-115.026
 L 106.473,-115.146 L 106.306,-115.272 L 106.143,-115.404 L 105.985,-115.541 L 105.832,-115.684 L 105.684,-115.832
 L 105.541,-115.985 L 105.404,-116.143 L 105.272,-116.306 L 105.146,-116.473 L 105.026,-116.645 L 104.912,-116.82
 L 104.804,-117 L 104.751,-117.096 L 104.726,-117.09 L 104.624,-117.066 L 104.521,-117.046 L 104.417,-117.03
 L 104.314,-117.017 L 104.209,-117.008 L 104.105,-117.002 L 104,-117 L 103.895,-117.002 L 103.791,-117.008
 L 103.686,-117.017 L 103.583,-117.03 L 103.479,-117.046 L 103.376,-117.066 L 103.274,-117.09 L 103.173,-117.117
 L 103.073,-117.147 L 102.974,-117.181 L 102.876,-117.219 L 102.78,-117.26 L 102.685,-117.304 L 102.592,-117.352
 L 102.5,-117.402 L 102.41,-117.456 L 102.323,-117.513 L 102.237,-117.573 L 102.153,-117.636 L 102.072,-117.702
 L 101.993,-117.771 L 101.916,-117.842 L 101.842,-117.916 L 101.771,-117.993 L 101.702,-118.072 L 101.636,-118.153
 L 101.573,-118.237 L 101.513,-118.323 L 101.456,-118.41 L 101.402,-118.5 L 101.352,-118.592 L 101.304,-118.685
 L 101.26,-118.78 L 101.219,-118.876 L 101.181,-118.974 L 101.147,-119.073 L 101.117,-119.173 L 101.09,-119.274
 L 101.066,-119.376 L 101.046,-119.479 L 101.03,-119.583 L 101.017,-119.686 L 101.008,-119.791 L 101.002,-119.895
 z
M 135,-115 L 135.018,-116.047 L 135.073,-117.093 L 135.164,-118.136 L 135.292,-119.175 L 135.456,-120.209
 L 135.656,-121.237 L 135.891,-122.258 L 136.162,-123.269 L 136.468,-124.271 L 136.809,-125.261 L 137.184,-126.238
 L 137.594,-127.202 L 138.036,-128.151 L 138.512,-129.084 L 139.019,-130 L 139.559,-130.898 L 140.129,-131.776
 L 140.729,-132.634 L 141.36,-133.47 L 142.019,-134.284 L 142.706,-135.074 L 143.42,-135.84 L 144.16,-136.58
 L 144.926,-137.294 L 145.716,-137.981 L 146.53,-138.64 L 147.366,-139.271 L 148.224,-139.871 L 149.102,-140.441
 L 150,-140.981 L 150.916,-141.488 L 151.849,-141.964 L 152.798,-142.406 L 153,-142.492 L 153,-153.153
 L 153.975,-153.45 L 155.323,-153.812 L 156.684,-154.126 L 158.054,-154.392 L 159.433,-154.611 L 160.819,-154.781
 L 162.21,-154.903 L 163.604,-154.976 L 165,-155 L 166.396,-154.976 L 167.79,-154.903 L 169.181,-154.781
 L 170.567,-154.611 L 171.946,-154.392 L 173.316,-154.126 L 174.677,-153.812 L 176.025,-153.45 L 177.361,-153.042
 L 178.681,-152.588 L 179.984,-152.087 L 181.269,-151.542 L 182.535,-150.952 L 183.779,-150.318 L 185,-149.641
 L 186.197,-148.922 L 187.368,-148.162 L 188.511,-147.361 L 189.626,-146.52 L 190.712,-145.642 L 191.765,-144.726
 L 192.786,-143.774 L 193.774,-142.786 L 194.726,-141.765 L 195.642,-140.712 L 196.52,-139.626 L 197.361,-138.511
 L 198.162,-137.368 L 198.922,-136.197 L 199.641,-135 L 200.318,-133.779 L 200.952,-132.535 L 201.542,-131.269
 L 202.087,-129.984 L 202.588,-128.681 L 203.042,-127.361 L 203.45,-126.025 L 203.812,-124.677 L 204.126,-123.316
 L 204.392,-121.946 L 204.611,-120.567 L 204.781,-119.181 L 204.903,-117.79 L 204.976,-116.396 L 205,-115
 L 195,-115 L 194.982,-113.953 L 194.927,-112.907 L 194.836,-111.864 L 194.708,-110.825 L 194.544,-109.791
 L 194.344,-108.763 L 194.109,-107.742 L 193.838,-106.731 L 193.532,-105.729 L 193.191,-104.739 L 192.816,-103.762
 L 192.406,-102.798 L 191.964,-101.849 L 191.488,-100.916 L 190.981,-100 L 190.441,-99.1024 L 189.871,-98.2242
 L 189.271,-97.3664 L 188.64,-96.5302 L 187.981,-95.7164 L 187.294,-94.9261 L 186.58,-94.1602 L 185.84,-93.4198
 L 185.074,-92.7057 L 184.284,-92.0187 L 183.47,-91.3597 L 182.634,-90.7295 L 181.776,-90.1289 L 180.898,-89.5586
 L 180,-89.0192 L 179.084,-88.5116 L 178.151,-88.0362 L 177.202,-87.5936 L 176.238,-87.1845 L 175.261,-86.8092
 L 174.271,-86.4683 L 173.269,-86.1621 L 172.258,-85.8911 L 171.237,-85.6556 L 170.209,-85.4558 L 169.75,-85.383
 L 169.75,-66 L 167.25,-66 L 167.25,-31 L 162.75,-31 L 162.75,-66 L 160.25,-66
 L 160.25,-85.383 L 159.791,-85.4558 L 158.763,-85.6556 L 157.742,-85.8911 L 156.731,-86.1621 L 155.729,-86.4683
 L 154.739,-86.8092 L 153.762,-87.1845 L 152.798,-87.5936 L 151.849,-88.0362 L 150.916,-88.5116 L 150,-89.0192
 L 149.102,-89.5586 L 148.224,-90.1289 L 147.366,-90.7295 L 146.53,-91.3597 L 145.716,-92.0187 L 144.926,-92.7057
 L 144.16,-93.4198 L 143.42,-94.1602 L 142.706,-94.9261 L 142.019,-95.7164 L 141.36,-96.5302 L 140.729,-97.3664
 L 140.129,-98.2242 L 139.559,-99.1024 L 139.019,-100 L 138.512,-100.916 L 138.036,-101.849 L 137.594,-102.798
 L 137.184,-103.762 L 136.809,-104.739 L 136.468,-105.729 L 136.162,-106.731 L 135.891,-107.742 L 135.656,-108.763
 L 135.456,-109.791 L 135.292,-110.825 L 135.164,-111.864 L 135.073,-112.907 L 135.018,-113.953 z
" stroke="black" fill="lightgray" stroke-width="0.5"/>
</svg>
