<?xml version="1.0" standalone="no"?>
<!DOCTYPE svg PUBLIC "-//W3C//DTD SVG 1.1//EN" "http://www.w3.org/Graphics/SVG/1.1/DTD/svg11.dtd">
<svg width="218mm" height="186mm" viewBox="0 -186 218 186" xmlns="http://www.w3.org/2000/svg" version="1.1">
<title>OpenSCAD Model</title>
<path d="
M 0,-0 L 218,-0 L 218,-186 L 0,-186 z
M 5,-62.5 L 5.00609,-62.849 L 5.02436,-63.1976 L 5.05478,-63.5453 L 5.09732,-63.8917 L 5.15192,-64.2365
 L 5.21852,-64.5791 L 5.29704,-64.9192 L 5.38738,-65.2564 L 5.48944,-65.5902 L 5.60307,-65.9202 L 5.72816,-66.2461
 L 5.86455,-66.5674 L 6.01206,-66.8837 L 6.17052,-67.1947 L 6.33975,-67.5 L 6.51952,-67.7992 L 6.70962,-68.0919
 L 6.90983,-68.3779 L 7.11989,-68.6566 L 7.33956,-68.9279 L 7.56855,-69.1913 L 7.8066,-69.4466 L 8.05342,-69.6934
 L 8.30869,-69.9314 L 8.57212,-70.1604 L 8.84339,-70.3801 L 9.12215,-70.5902 L 9.40807,-70.7904 L 9.70081,-70.9805
 L 10,-71.1603 L 10.3053,-71.3295 L 10.6163,-71.4879 L 10.9326,-71.6355 L 11.2539,-71.7718 L 11.5798,-71.8969
 L 11.9098,-72.0106 L 12.2436,-72.1126 L 12.5808,-72.203 L 12.9209,-72.2815 L 13.2635,-72.3481 L 13.6083,-72.4027
 L 13.9547,-72.4452 L 14.3024,-72.4756 L 14.651,-72.4939 L 15,-72.5 L 15.349,-72.4939 L 15.6976,-72.4756
 L 16.0453,-72.4452 L 16.3917,-72.4027 L 16.7365,-72.3481 L 17.0791,-72.2815 L 17.4192,-72.203 L 17.7564,-72.1126
 L 18.0902,-72.0106 L 18.4202,-71.8969 L 18.7461,-71.7718 L 19.0674,-71.6355 L 19.3837,-71.4879 L 19.6947,-71.3295
 L 20,-71.1603 L 20.2992,-70.9805 L 20.5919,-70.7904 L 20.8779,-70.5902 L 21.1566,-70.3801 L 21.4279,-70.1604
 L 21.6913,-69.9314 L 21.9466,-69.6934 L 22.1934,-69.4466 L 22.4314,-69.1913 L 22.6604,-68.9279 L 22.8801,-68.6566
 L 23.0902,-68.3779 L 23.2904,-68.0919 L 23.4805,-67.7992 L 23.6603,-67.5 L 23.8295,-67.1947 L 23.9879,-66.8837
 L 24.1355,-66.5674 L 24.2718,-66.2461 L 24.3969,-65.9202 L 24.5106,-65.5902 L 24.6126,-65.2564 L 24.703,-64.9192
 L 24.7815,-64.5791 L 24.8481,-64.2365 L 24.9027,-63.8917 L 24.9452,-63.5453 L 24.9756,-63.1976 L 24.9939,-62.849
 L 25,-62.5 L 24.9939,-62.151 L 24.9756,-61.8024 L 24.9452,-61.4547 L 24.9027,-61.1083 L 24.8481,-60.7635
 L 24.7815,-60.4209 L 24.703,-60.0808 L 24.6126,-59.7436 L 24.5106,-59.4098 L 24.3969,-59.0798 L 24.2718,-58.7539
 L 24.1355,-58.4326 L 23.9879,-58.1163 L 23.8295,-57.8053 L 23.6603,-57.5 L 23.4805,-57.2008 L 23.2904,-56.9081
 L 23.0902,-56.6221 L 22.8801,-56.3434 L 22.6604,-56.0721 L 22.4314,-55.8087 L 22.1934,-55.5534 L 21.9466,-55.3066
 L 21.6913,-55.0686 L 21.4279,-54.8396 L 21.1566,-54.6199 L 20.8779,-54.4098 L 20.5919,-54.2096 L 20.2992,-54.0195
 L 20,-53.8397 L 19.6947,-53.6705 L 19.3837,-53.5121 L 19.0674,-53.3645 L 18.7461,-53.2282 L 18.4202,-53.1031
 L 18.0902,-52.9894 L 17.7564,-52.8874 L 17.4192,-52.797 L 17.0791,-52.7185 L 16.7365,-52.6519 L 16.3917,-52.5973
 L 16.0453,-52.5548 L 15.6976,-52.5244 L 15.349,-52.5061 L 15,-52.5 L 14.651,-52.5061 L 14.3024,-52.5244
 L 13.9547,-52.5548 L 13.6083,-52.5973 L 13.2635,-52.6519 L 12.9209,-52.7185 L 12.5808,-52.797 L 12.2436,-52.8874
 L 11.9098,-52.9894 L 11.5798,-53.1031 L 11.2539,-53.2282 L 10.9326,-53.3645 L 10.6163,-53.5121 L 10.3053,-53.6705
 L 10,-53.8397 L 9.70081,-54.0195 L 9.40807,-54.2096 L 9.12215,-54.4098 L 8.84339,-54.6199 L 8.57212,-54.8396
 L 8.30869,-55.0686 L 8.05342,-55.3066 L 7.8066,-55.5534 L 7.56855,-55.8087 L 7.33956,-56.0721 L 7.11989,-56.3434
 L 6.90983,-56.6221 L 6.70962,-56.9081 L 6.51952,-57.2008 L 6.33975,-57.5 L 6.17052,-57.8053 L 6.01206,-58.1163
 L 5.86455,-58.4326 L 5.72816,-58.7539 L 5.60307,-59.0798 L 5.48944,-59.4098 L 5.38738,-59.7436 L 5.29704,-60.0808
 L 5.21852,-60.4209 L 5.15192,-60.7635 L 5.09732,-61.1083 L 5.05478,-61.4547 L 5.02436,-61.8024 L 5.00609,-62.151
 z
M 71,-62.5 L 71.0061,-62.849 L 71.0244,-63.1976 L 71.0548,-63.5453 L 71.0973,-63.8917 L 71.1519,-64.2365
 L 71.2185,-64.5791 L 71.297,-64.9192 L 71.3874,-65.2564 L 71.4894,-65.5902 L 71.6031,-65.9202 L 71.7282,-66.2461
 L 71.8645,-66.5674 L 72.0121,-66.8837 L 72.1705,-67.1947 L 72.3397,-67.5 L 72.5195,-67.7992 L 72.7096,-68.0919
 L 72.9098,-68.3779 L 73.1199,-68.6566 L 73.3396,-68.9279 L 73.5686,-69.1913 L 73.8066,-69.4466 L 74.0534,-69.6934
 L 74.3087,-69.9314 L 74.5721,-70.1604 L 74.8434,-70.3801 L 75.1221,-70.5902 L 75.4081,-70.7904 L 75.7008,-70.9805
 L 76,-71.1603 L 76.3053,-71.3295 L 76.6163,-71.4879 L 76.9326,-71.6355 L 77.2539,-71.7718 L 77.5798,-71.8969
 L 77.9098,-72.0106 L 78.2436,-72.1126 L 78.5808,-72.203 L 78.9209,-72.2815 L 79.2635,-72.3481 L 79.6083,-72.4027
 L 79.9547,-72.4452 L 80.3024,-72.4756 L 80.651,-72.4939 L 81,-72.5 L 81.349,-72.4939 L 81.6976,-72.4756
 L 82.0453,-72.4452 L 82.3917,-72.4027 L 82.7365,-72.3481 L 83.0791,-72.2815 L 83.4192,-72.203 L 83.7564,-72.1126
 L 84.0902,-72.0106 L 84.4202,-71.8969 L 84.7461,-71.7718 L 85.0674,-71.6355 L 85.3837,-71.4879 L 85.6947,-71.3295
 L 86,-71.1603 L 86.2992,-70.9805 L 86.5919,-70.7904 L 86.8779,-70.5902 L 87.1566,-70.3801 L 87.4279,-70.1604
 L 87.6913,-69.9314 L 87.9466,-69.6934 L 88.1934,-69.4466 L 88.4314,-69.1913 L 88.6604,-68.9279 L 88.8801,-68.6566
 L 89.0902,-68.3779 L 89.2904,-68.0919 L 89.4805,-67.7992 L 89.6603,-67.5 L 89.8295,-67.1947 L 89.9879,-66.8837
 L 90.1355,-66.5674 L 90.2718,-66.2461 L 90.3969,-65.9202 L 90.5106,-65.5902 L 90.6126,-65.2564 L 90.703,-64.9192
 L 90.7815,-64.5791 L 90.8481,-64.2365 L 90.9027,-63.8917 L 90.9452,-63.5453 L 90.9756,-63.1976 L 90.9939,-62.849
 L 91,-62.5 L 90.9939,-62.151 L 90.9756,-61.8024 L 90.9452,-61.4547 L 90.9027,-61.1083 L 90.8481,-60.7635
 L 90.7815,-60.4209 L 90.703,-60.0808 L 90.6126,-59.7436 L 90.5106,-59.4098 L 90.3969,-59.0798 L 90.2718,-58.7539
 L 90.1355,-58.4326 L 89.9879,-58.1163 L 89.8295,-57.8053 L 89.6603,-57.5 L 89.4805,-57.2008 L 89.2904,-56.9081
 L 89.0902,-56.6221 L 88.8801,-56.3434 L 88.6604,-56.0721 L 88.4314,-55.8087 L 88.1934,-55.5534 L 87.9466,-55.3066
 L 87.6913,-55.0686 L 87.4279,-54.8396 L 87.1566,-54.6199 L 86.8779,-54.4098 L 86.5919,-54.2096 L 86.2992,-54.0195
 L 86,-53.8397 L 85.6947,-53.6705 L 85.3837,-53.5121 L 85.0674,-53.3645 L 84.7461,-53.2282 L 84.4202,-53.1031
 L 84.0902,-52.9894 L 83.7564,-52.8874 L 83.4192,-52.797 L 83.0791,-52.7185 L 82.7365,-52.6519 L 82.3917,-52.5973
 L 82.0453,-52.5548 L 81.6976,-52.5244 L 81.349,-52.5061 L 81,-52.5 L 80.651,-52.5061 L 80.3024,-52.5244
 L 79.9547,-52.5548 L 79.6083,-52.5973 L 79.2635,-52.6519 L 78.9209,-52.7185 L 78.5808,-52.797 L 78.2436,-52.8874
 L 77.9098,-52.9894 L 77.5798,-53.1031 L 77.2539,-53.2282 L 76.9326,-53.3645 L 76.6163,-53.5121 L 76.3053,-53.6705
 L 76,-53.8397 L 75.7008,-54.0195 L 75.4081,-54.2096 L 75.1221,-54.4098 L 74.8434,-54.6199 L 74.5721,-54.8396
 L 74.3087,-55.0686 L 74.0534,-55.3066 L 73.8066,-55.5534 L 73.5686,-55.8087 L 73.3396,-56.0721 L 73.1199,-56.3434
 L 72.9098,-56.6221 L 72.7096,-56.9081 L 72.5195,-57.2008 L 72.3397,-57.5 L 72.1705,-57.8053 L 72.0121,-58.1163
 L 71.8645,-58.4326 L 71.7282,-58.7539 L 71.6031,-59.0798 L 71.4894,-59.4098 L 71.3874,-59.7436 L 71.297,-60.0808
 L 71.2185,-60.4209 L 71.1519,-60.7635 L 71.0973,-61.1083 L 71.0548,-61.4547 L 71.0244,-61.8024 L 71.0061,-62.151
 z
M 103.7,-120 L 103.704,-120.22 L 103.715,-120.439 L 103.735,-120.659 L 103.761,-120.877 L 103.796,-121.094
 L 103.838,-121.31 L 103.887,-121.524 L 103.944,-121.737 L 104.008,-121.947 L 104.08,-122.155 L 104.159,-122.36
 L 104.245,-122.562 L 104.338,-122.762 L 104.437,-122.958 L 104.544,-123.15 L 104.657,-123.338 L 104.777,-123.523
 L 104.903,-123.703 L 105.036,-123.879 L 105.174,-124.05 L 105.318,-124.216 L 105.468,-124.376 L 105.624,-124.532
 L 105.784,-124.682 L 105.95,-124.826 L 106.121,-124.964 L 106.297,-125.097 L 106.477,-125.223 L 106.662,-125.343
 L 106.85,-125.456 L 107.042,-125.563 L 107.238,-125.662 L 107.438,-125.755 L 107.64,-125.841 L 107.845,-125.92
 L 108.053,-125.992 L 108.263,-126.056 L 108.476,-126.113 L 108.69,-126.162 L 108.906,-126.204 L 109.123,-126.239
 L 109.341,-126.265 L 109.561,-126.285 L 109.78,-126.296 L 110,-126.3 L 110.22,-126.296 L 110.439,-126.285
 L 110.659,-126.265 L 110.877,-126.239 L 111.094,-126.204 L 111.31,-126.162 L 111.524,-126.113 L 111.737,-126.056
 L 111.947,-125.992 L 112.155,-125.92 L 112.36,-125.841 L 112.562,-125.755 L 112.762,-125.662 L 112.958,-125.563
 L 113.15,-125.456 L 113.338,-125.343 L 113.523,-125.223 L 113.703,-125.097 L 113.879,-124.964 L 114.05,-124.826
 L 114.216,-124.682 L 114.376,-124.532 L 114.532,-124.376 L 114.682,-124.216 L 114.826,-124.05 L 114.964,-123.879
 L 115.097,-123.703 L 115.223,-123.523 L 115.343,-123.338 L 115.456,-123.15 L 115.563,-122.958 L 115.662,-122.762
 L 115.755,-122.562 L 115.841,-122.36 L 115.92,-122.155 L 115.992,-121.947 L 116.056,-121.737 L 116.113,-121.524
 L 116.162,-121.31 L 116.204,-121.094 L 116.239,-120.877 L 116.265,-120.659 L 116.285,-120.439 L 116.296,-120.22
 L 116.3,-120 L 116.296,-119.78 L 116.285,-119.561 L 116.265,-119.341 L 116.239,-119.123 L 116.204,-118.906
 L 116.162,-118.69 L 116.113,-118.476 L 116.056,-118.263 L 115.992,-118.053 L 115.92,-117.845 L 115.841,-117.64
 L 115.755,-117.438 L 115.662,-117.238 L 115.563,-117.042 L 115.456,-116.85 L 115.343,-116.662 L 115.223,-116.477
 L 115.097,-116.297 L 114.964,-116.121 L 114.826,-115.95 L 114.682,-115.784 L 114.532,-115.624 L 114.376,-115.468
 L 114.216,-115.318 L 114.05,-115.174 L 113.879,-115.036 L 113.703,-114.903 L 113.523,-114.777 L 113.338,-114.657
 L 113.15,-114.544 L 112.958,-114.437 L 112.762,-114.338 L 112.562,-114.245 L 112.36,-114.159 L 112.155,-114.08
 L 111.947,-114.008 L 111.737,-113.944 L 111.524,-113.887 L 111.31,-113.838 L 111.094,-113.796 L 110.877,-113.761
 L 110.659,-113.735 L 110.439,-113.715 L 110.22,-113.704 L 110,-113.7 L 109.78,-113.704 L 109.561,-113.715
 L 109.341,-113.735 L 109.123,-113.761 L 108.906,-113.796 L 108.69,-113.838 L 108.476,-113.887 L 108.263,-113.944
 L 108.053,-114.008 L 107.845,-114.08 L 107.64,-114.159 L 107.438,-114.245 L 107.238,-114.338 L 107.042,-114.437
 L 106.85,-114.544 L 106.662,-114.657 L 106.477,-114.777 L 106.297,-114.903 L 106.121,-115.036 L 105.95,-115.174
 L 105.784,-115.318 L 105.624,-115.468 L 105.468,-115.624 L 105.318,-115.784 L 105.174,-115.95 L 105.036,-116.121
 L 104.903,-116.297 L 104.777,-116.477 L 104.657,-116.662 L 104.544,-116.85 L 104.437,-117.042 L 104.338,-117.238
 L 104.245,-117.438 L 104.159,-117.64 L 104.08,-117.845 L 104.008,-118.053 L 103.944,-118.263 L 103.887,-118.476
 L 103.838,-118.69 L 103.796,-118.906 L 103.761,-119.123 L 103.735,-119.341 L 103.715,-119.561 L 103.704,-119.78
 z
M 115.38,-18.05 L 115.38,-80 L 118.556,-80 L 118.556,-97.85 L 121.444,-97.85 L 121.444,-80
 L 124.62,-80 L 124.62,-18.05 z
M 133.5,-115 L 133.519,-116.099 L 133.577,-117.197 L 133.673,-118.293 L 133.807,-119.384 L 133.979,-120.47
 L 134.188,-121.549 L 134.436,-122.621 L 134.72,-123.683 L 135.042,-124.734 L 135.4,-125.774 L 135.794,-126.8
 L 136.223,-127.812 L 136.688,-128.809 L 137.187,-129.788 L 137.72,-130.75 L 138.286,-131.692 L 138.885,-132.615
 L 139.516,-133.515 L 140.178,-134.393 L 140.87,-135.248 L 141.591,-136.078 L 142.341,-136.882 L 143.118,-137.659
 L 143.922,-138.409 L 144.752,-139.13 L 145.607,-139.822 L 146.485,-140.484 L 147.385,-141.115 L 148.308,-141.714
 L 149.25,-142.28 L 150.212,-142.813 L 151.191,-143.312 L 152.188,-143.777 L 152.4,-143.867 L 152.4,-155.06
 L 153.423,-155.373 L 154.839,-155.752 L 156.268,-156.082 L 157.707,-156.362 L 159.155,-156.591 L 160.61,-156.77
 L 162.07,-156.898 L 163.534,-156.974 L 165,-157 L 166.466,-156.974 L 167.93,-156.898 L 169.39,-156.77
 L 170.845,-156.591 L 172.293,-156.362 L 173.732,-156.082 L 175.161,-155.752 L 176.577,-155.373 L 177.979,-154.944
 L 179.365,-154.467 L 180.733,-153.942 L 182.083,-153.369 L 183.412,-152.749 L 184.718,-152.084 L 186,-151.373
 L 187.257,-150.618 L 188.486,-149.82 L 189.687,-148.979 L 190.858,-148.096 L 191.997,-147.174 L 193.103,-146.212
 L 194.176,-145.212 L 195.212,-144.176 L 196.212,-143.103 L 197.174,-141.997 L 198.096,-140.858 L 198.979,-139.687
 L 199.82,-138.486 L 200.618,-137.257 L 201.373,-136 L 202.084,-134.718 L 202.749,-133.412 L 203.369,-132.083
 L 203.942,-130.733 L 204.467,-129.365 L 204.944,-127.979 L 205.373,-126.577 L 205.752,-125.161 L 206.082,-123.732
 L 206.362,-122.293 L 206.591,-120.845 L 206.77,-119.39 L 206.898,-117.93 L 206.974,-116.466 L 207,-115
 L 196.5,-115 L 196.481,-113.901 L 196.423,-112.803 L 196.327,-111.707 L 196.193,-110.616 L 196.021,-109.53
 L 195.812,-108.451 L 195.564,-107.379 L 195.28,-106.317 L 194.958,-105.266 L 194.6,-104.226 L 194.206,-103.2
 L 193.777,-102.188 L 193.312,-101.191 L 192.813,-100.212 L 192.28,-99.25 L 191.714,-98.3075 L 191.115,-97.3854
 L 190.484,-96.4848 L 189.822,-95.6067 L 189.13,-94.7522 L 188.409,-93.9224 L 187.659,-93.1183 L 186.882,-92.3408
 L 186.078,-91.5909 L 185.248,-90.8696 L 184.393,-90.1777 L 183.515,-89.516 L 182.615,-88.8853 L 181.692,-88.2865
 L 180.75,-87.7202 L 179.788,-87.1872 L 178.809,-86.688 L 177.812,-86.2233 L 176.8,-85.7937 L 175.774,-85.3997
 L 174.734,-85.0417 L 173.683,-84.7203 L 172.621,-84.4357 L 171.549,-84.1884 L 170.47,-83.9786 L 169.987,-83.9021
 L 169.987,-47.8 L 167.362,-47.8 L 167.362,-26.8 L 162.637,-26.8 L 162.637,-47.8 L 160.012,-47.8
 L 160.012,-83.9021 L 159.53,-83.9786 L 158.451,-84.1884 L 157.379,-84.4357 L 156.317,-84.7203 L 155.266,-85.0417
 L 154.226,-85.3997 L 153.2,-85.7937 L 152.188,-86.2233 L 151.191,-86.688 L 150.212,-87.1872 L 149.25,-87.7202
 L 148.308,-88.2865 L 147.385,-88.8853 L 146.485,-89.516 L 145.607,-90.1777 L 144.752,-90.8696 L 143.922,-91.5909
 L 143.118,-92.3408 L 142.341,-93.1183 L 141.591,-93.9224 L 140.87,-94.7522 L 140.178,-95.6067 L 139.516,-96.4848
 L 138.885,-97.3854 L 138.286,-98.3075 L 137.72,-99.25 L 137.187,-100.212 L 136.688,-101.191 L 136.223,-102.188
 L 135.794,-103.2 L 135.4,-104.226 L 135.042,-105.266 L 134.72,-106.317 L 134.436,-107.379 L 134.188,-108.451
 L 133.979,-109.53 L 133.807,-110.616 L 133.673,-111.707 L 133.577,-112.803 L 133.519,-113.901 z
" stroke="black" fill="lightgray" stroke-width="0.5"/>
</svg>
