<?xml version="1.0" standalone="no"?>
<!DOCTYPE svg PUBLIC "-//W3C//DTD SVG 1.1//EN" "http://www.w3.org/Graphics/SVG/1.1/DTD/svg11.dtd">
<svg width="218mm" height="186mm" viewBox="0 -186 218 186" xmlns="http://www.w3.org/2000/svg" version="1.1">
<title>OpenSCAD Model</title>
<path d="
M 0,-0 L 218,-0 L 218,-186 L 0,-186 z
M 104,-120 L 104.004,-120.209 L 104.015,-120.419 L 104.033,-120.627 L 104.058,-120.835 L 104.091,-121.042
 L 104.131,-121.247 L 104.178,-121.452 L 104.232,-121.654 L 104.294,-121.854 L 104.362,-122.052 L 104.437,-122.248
 L 104.519,-122.44 L 104.607,-122.63 L 104.702,-122.817 L 104.804,-123 L 104.912,-123.18 L 105.026,-123.355
 L 105.146,-123.527 L 105.272,-123.694 L 105.404,-123.857 L 105.541,-124.015 L 105.684,-124.168 L 105.832,-124.316
 L 105.985,-124.459 L 106.143,-124.596 L 106.306,-124.728 L 106.473,-124.854 L 106.645,-124.974 L 106.82,-125.088
 L 107,-125.196 L 107.183,-125.298 L 107.37,-125.393 L 107.56,-125.481 L 107.752,-125.563 L 107.948,-125.638
 L 108.146,-125.706 L 108.346,-125.768 L 108.548,-125.822 L 108.753,-125.869 L 108.958,-125.909 L 109.165,-125.942
 L 109.373,-125.967 L 109.581,-125.985 L 109.791,-125.996 L 110,-126 L 110.209,-125.996 L 110.419,-125.985
 L 110.627,-125.967 L 110.835,-125.942 L 111.042,-125.909 L 111.247,-125.869 L 111.452,-125.822 L 111.654,-125.768
 L 111.854,-125.706 L 112.052,-125.638 L 112.248,-125.563 L 112.44,-125.481 L 112.63,-125.393 L 112.817,-125.298
 L 113,-125.196 L 113.18,-125.088 L 113.355,-124.974 L 113.527,-124.854 L 113.694,-124.728 L 113.857,-124.596
 L 114.015,-124.459 L 114.168,-124.316 L 114.316,-124.168 L 114.459,-124.015 L 114.596,-123.857 L 114.728,-123.694
 L 114.854,-123.527 L 114.974,-123.355 L 115.088,-123.18 L 115.196,-123 L 115.298,-122.817 L 115.393,-122.63
 L 115.481,-122.44 L 115.563,-122.248 L 115.638,-122.052 L 115.706,-121.854 L 115.768,-121.654 L 115.822,-121.452
 L 115.869,-121.247 L 115.909,-121.042 L 115.942,-120.835 L 115.967,-120.627 L 115.985,-120.419 L 115.996,-120.209
 L 116,-120 L 115.996,-119.791 L 115.985,-119.581 L 115.967,-119.373 L 115.942,-119.165 L 115.909,-118.958
 L 115.869,-118.753 L 115.822,-118.548 L 115.768,-118.346 L 115.706,-118.146 L 115.638,-117.948 L 115.563,-117.752
 L 115.481,-117.56 L 115.393,-117.37 L 115.298,-117.183 L 115.196,-117 L 115.088,-116.82 L 114.974,-116.645
 L 114.854,-116.473 L 114.728,-116.306 L 114.596,-116.143 L 114.459,-115.985 L 114.316,-115.832 L 114.168,-115.684
 L 114.015,-115.541 L 113.857,-115.404 L 113.694,-115.272 L 113.527,-115.146 L 113.355,-115.026 L 113.18,-114.912
 L 113,-114.804 L 112.817,-114.702 L 112.63,-114.607 L 112.44,-114.519 L 112.248,-114.437 L 112.052,-114.362
 L 111.854,-114.294 L 111.654,-114.232 L 111.452,-114.178 L 111.247,-114.131 L 111.042,-114.091 L 110.835,-114.058
 L 110.627,-114.033 L 110.419,-114.015 L 110.209,-114.004 L 110,-114 L 109.791,-114.004 L 109.581,-114.015
 L 109.373,-114.033 L 109.165,-114.058 L 108.958,-114.091 L 108.753,-114.131 L 108.548,-114.178 L 108.346,-114.232
 L 108.146,-114.294 L 107.948,-114.362 L 107.752,-114.437 L 107.56,-114.519 L 107.37,-114.607 L 107.183,-114.702
 L 107,-114.804 L 106.82,-114.912 L 106.645,-115.026 L 106.473,-115.146 L 106.306,-115.272 L 106.143,-115.404
 L 105.985,-115.541 L 105.832,-115.684 L 105.684,-115.832 L 105.541,-115.985 L 105.404,-116.143 L 105.272,-116.306
 L 105.146,-116.473 L 105.026,-116.645 L 104.912,-116.82 L 104.804,-117 L 104.702,-117.183 L 104.607,-117.37
 L 104.519,-117.56 L 104.437,-117.752 L 104.362,-117.948 L 104.294,-118.146 L 104.232,-118.346 L 104.178,-118.548
 L 104.131,-118.753 L 104.091,-118.958 L 104.058,-119.165 L 104.033,-119.373 L 104.015,-119.581 L 104.004,-119.791
 z
M 115.6,-21 L 115.6,-80 L 118.625,-80 L 118.625,-97 L 121.375,-97 L 121.375,-80
 L 124.4,-80 L 124.4,-21 z
M 160.6,-106.75 L 160.6,-123.25 L 169.4,-123.25 L 169.4,-106.75 z
" stroke="black" fill="lightgray" stroke-width="0.5"/>
</svg>
