<?xml version="1.0" standalone="no"?>
<!DOCTYPE svg PUBLIC "-//W3C//DTD SVG 1.1//EN" "http://www.w3.org/Graphics/SVG/1.1/DTD/svg11.dtd">
<svg width="32in" height="19in" viewBox="0 -19 32 19" xmlns="http://www.w3.org/2000/svg" version="1.1">
<title>OpenSCAD Model</title>
<path d="
M 24,-18.5 L 23,-18.5 L 23,-12.5 L 24,-12.5 z
M 22.875,-18.5 L 21.875,-18.5 L 21.875,-12.5 L 22.875,-12.5 z
M 21.75,-18.5 L 18.75,-18.5 L 18.75,-9.375 L 21.75,-9.375 z
M 20.7413,-9.87506 L 20.7325,-9.87529 L 20.7238,-9.87567 L 20.7151,-9.87621 L 20.7064,-9.87689 L 20.6977,-9.87773
 L 20.6891,-9.87872 L 20.6804,-9.87985 L 20.6718,-9.88115 L 20.6632,-9.88258 L 20.6546,-9.88419 L 20.646,-9.88593
 L 20.6375,-9.8878 L 20.629,-9.88985 L 20.6206,-9.89203 L 20.6122,-9.89436 L 20.6038,-9.89684 L 20.5955,-9.89946
 L 20.5872,-9.90224 L 20.579,-9.90515 L 20.5708,-9.9082 L 20.5627,-9.91141 L 20.5546,-9.91473 L 20.5466,-9.91821
 L 20.5387,-9.92184 L 20.5308,-9.9256 L 20.523,-9.92949 L 20.5153,-9.93352 L 20.5076,-9.93768 L 20.5,-9.94199
 L 20.4925,-9.94641 L 20.485,-9.95097 L 20.4777,-9.95566 L 20.4704,-9.96048 L 20.4632,-9.96542 L 20.4561,-9.97049
 L 20.4491,-9.97568 L 20.4422,-9.98099 L 20.4353,-9.98642 L 20.4286,-9.99197 L 20.422,-9.99763 L 20.4154,-10.0034
 L 20.409,-10.0093 L 20.4027,-10.0153 L 20.3964,-10.0214 L 20.3903,-10.0277 L 20.3843,-10.034 L 20.3784,-10.0404
 L 20.3726,-10.047 L 20.367,-10.0536 L 20.3614,-10.0603 L 20.356,-10.0672 L 20.3507,-10.0741 L 20.3455,-10.0811
 L 20.3404,-10.0882 L 20.3355,-10.0954 L 20.3307,-10.1027 L 20.326,-10.11 L 20.3214,-10.1175 L 20.317,-10.125
 L 20.3127,-10.1326 L 20.3085,-10.1403 L 20.3045,-10.148 L 20.3006,-10.1558 L 20.2968,-10.1637 L 20.2932,-10.1716
 L 20.2897,-10.1796 L 20.2864,-10.1877 L 20.2832,-10.1958 L 20.2802,-10.204 L 20.2772,-10.2122 L 20.2745,-10.2205
 L 20.2718,-10.2288 L 20.2694,-10.2372 L 20.267,-10.2456 L 20.2648,-10.254 L 20.2628,-10.2625 L 20.2609,-10.271
 L 20.2592,-10.2796 L 20.2576,-10.2882 L 20.2561,-10.2968 L 20.2549,-10.3054 L 20.2537,-10.3141 L 20.2527,-10.3227
 L 20.2519,-10.3314 L 20.2512,-10.3401 L 20.2507,-10.3488 L 20.2503,-10.3575 L 20.2501,-10.3663 L 20.25,-10.375
 L 20.2501,-10.3837 L 20.2503,-10.3924 L 20.2507,-10.4012 L 20.2512,-10.4099 L 20.2519,-10.4186 L 20.2527,-10.4273
 L 20.2537,-10.4359 L 20.2549,-10.4446 L 20.2561,-10.4532 L 20.2576,-10.4618 L 20.2592,-10.4704 L 20.2609,-10.4789
 L 20.2628,-10.4875 L 20.2648,-10.496 L 20.267,-10.5044 L 20.2694,-10.5128 L 20.2718,-10.5212 L 20.2745,-10.5295
 L 20.2772,-10.5378 L 20.2802,-10.546 L 20.2832,-10.5542 L 20.2864,-10.5623 L 20.2897,-10.5704 L 20.2932,-10.5784
 L 20.2968,-10.5863 L 20.3006,-10.5942 L 20.3045,-10.602 L 20.3085,-10.6097 L 20.3127,-10.6174 L 20.317,-10.625
 L 20.3214,-10.6325 L 20.326,-10.64 L 20.3307,-10.6473 L 20.3355,-10.6546 L 20.3404,-10.6618 L 20.3455,-10.6689
 L 20.3507,-10.6759 L 20.356,-10.6828 L 20.3614,-10.6897 L 20.367,-10.6964 L 20.3726,-10.703 L 20.3784,-10.7096
 L 20.3843,-10.716 L 20.3903,-10.7223 L 20.3964,-10.7285 L 20.4027,-10.7347 L 20.409,-10.7407 L 20.4154,-10.7466
 L 20.422,-10.7523 L 20.4286,-10.758 L 20.4353,-10.7636 L 20.4422,-10.769 L 20.4491,-10.7743 L 20.4561,-10.7795
 L 20.4632,-10.7846 L 20.4704,-10.7895 L 20.4777,-10.7943 L 20.485,-10.799 L 20.4925,-10.8036 L 20.5,-10.808
 L 20.5076,-10.8123 L 20.5153,-10.8165 L 20.523,-10.8205 L 20.5308,-10.8244 L 20.5387,-10.8281 L 20.5466,-10.8318
 L 20.5546,-10.8353 L 20.5627,-10.8386 L 20.5708,-10.8418 L 20.579,-10.8448 L 20.5872,-10.8477 L 20.5955,-10.8505
 L 20.6038,-10.8531 L 20.6122,-10.8556 L 20.6206,-10.858 L 20.629,-10.8601 L 20.6375,-10.8622 L 20.646,-10.8641
 L 20.6546,-10.8658 L 20.6632,-10.8674 L 20.6718,-10.8688 L 20.6804,-10.8701 L 20.6891,-10.8713 L 20.6977,-10.8723
 L 20.7064,-10.8731 L 20.7151,-10.8738 L 20.7238,-10.8743 L 20.7325,-10.8747 L 20.7413,-10.8749 L 20.75,-10.875
 L 20.7587,-10.8749 L 20.7674,-10.8747 L 20.7762,-10.8743 L 20.7849,-10.8738 L 20.7936,-10.8731 L 20.8023,-10.8723
 L 20.8109,-10.8713 L 20.8196,-10.8701 L 20.8282,-10.8688 L 20.8368,-10.8674 L 20.8454,-10.8658 L 20.8539,-10.8641
 L 20.8625,-10.8622 L 20.871,-10.8601 L 20.8794,-10.858 L 20.8878,-10.8556 L 20.8962,-10.8531 L 20.9045,-10.8505
 L 20.9128,-10.8477 L 20.921,-10.8448 L 20.9292,-10.8418 L 20.9373,-10.8386 L 20.9454,-10.8353 L 20.9534,-10.8318
 L 20.9613,-10.8281 L 20.9692,-10.8244 L 20.977,-10.8205 L 20.9847,-10.8165 L 20.9924,-10.8123 L 21,-10.808
 L 21.0075,-10.8036 L 21.015,-10.799 L 21.0223,-10.7943 L 21.0296,-10.7895 L 21.0368,-10.7846 L 21.0439,-10.7795
 L 21.0509,-10.7743 L 21.0578,-10.769 L 21.0647,-10.7636 L 21.0714,-10.758 L 21.078,-10.7523 L 21.0846,-10.7466
 L 21.091,-10.7407 L 21.0973,-10.7347 L 21.1035,-10.7285 L 21.1097,-10.7223 L 21.1157,-10.716 L 21.1216,-10.7096
 L 21.1273,-10.703 L 21.133,-10.6964 L 21.1386,-10.6897 L 21.144,-10.6828 L 21.1493,-10.6759 L 21.1545,-10.6689
 L 21.1596,-10.6618 L 21.1645,-10.6546 L 21.1693,-10.6473 L 21.174,-10.64 L 21.1786,-10.6325 L 21.183,-10.625
 L 21.1873,-10.6174 L 21.1915,-10.6097 L 21.1955,-10.602 L 21.1994,-10.5942 L 21.2031,-10.5863 L 21.2068,-10.5784
 L 21.2103,-10.5704 L 21.2136,-10.5623 L 21.2168,-10.5542 L 21.2198,-10.546 L 21.2227,-10.5378 L 21.2255,-10.5295
 L 21.2281,-10.5212 L 21.2306,-10.5128 L 21.233,-10.5044 L 21.2351,-10.496 L 21.2372,-10.4875 L 21.2391,-10.4789
 L 21.2408,-10.4704 L 21.2424,-10.4618 L 21.2438,-10.4532 L 21.2451,-10.4446 L 21.2463,-10.4359 L 21.2473,-10.4273
 L 21.2481,-10.4186 L 21.2488,-10.4099 L 21.2493,-10.4012 L 21.2497,-10.3924 L 21.2499,-10.3837 L 21.25,-10.375
 L 21.2499,-10.3663 L 21.2497,-10.3575 L 21.2493,-10.3488 L 21.2488,-10.3401 L 21.2481,-10.3314 L 21.2473,-10.3227
 L 21.2463,-10.3141 L 21.2451,-10.3054 L 21.2438,-10.2968 L 21.2424,-10.2882 L 21.2408,-10.2796 L 21.2391,-10.271
 L 21.2372,-10.2625 L 21.2351,-10.254 L 21.233,-10.2456 L 21.2306,-10.2372 L 21.2281,-10.2288 L 21.2255,-10.2205
 L 21.2227,-10.2122 L 21.2198,-10.204 L 21.2168,-10.1958 L 21.2136,-10.1877 L 21.2103,-10.1796 L 21.2068,-10.1716
 L 21.2031,-10.1637 L 21.1994,-10.1558 L 21.1955,-10.148 L 21.1915,-10.1403 L 21.1873,-10.1326 L 21.183,-10.125
 L 21.1786,-10.1175 L 21.174,-10.11 L 21.1693,-10.1027 L 21.1645,-10.0954 L 21.1596,-10.0882 L 21.1545,-10.0811
 L 21.1493,-10.0741 L 21.144,-10.0672 L 21.1386,-10.0603 L 21.133,-10.0536 L 21.1273,-10.047 L 21.1216,-10.0404
 L 21.1157,-10.034 L 21.1097,-10.0277 L 21.1035,-10.0214 L 21.0973,-10.0153 L 21.091,-10.0093 L 21.0846,-10.0034
 L 21.078,-9.99763 L 21.0714,-9.99197 L 21.0647,-9.98642 L 21.0578,-9.98099 L 21.0509,-9.97568 L 21.0439,-9.97049
 L 21.0368,-9.96542 L 21.0296,-9.96048 L 21.0223,-9.95566 L 21.015,-9.95097 L 21.0075,-9.94641 L 21,-9.94199
 L 20.9924,-9.93768 L 20.9847,-9.93352 L 20.977,-9.92949 L 20.9692,-9.9256 L 20.9613,-9.92184 L 20.9534,-9.91821
 L 20.9454,-9.91473 L 20.9373,-9.91141 L 20.9292,-9.9082 L 20.921,-9.90515 L 20.9128,-9.90224 L 20.9045,-9.89946
 L 20.8962,-9.89684 L 20.8878,-9.89436 L 20.8794,-9.89203 L 20.871,-9.88985 L 20.8625,-9.8878 L 20.8539,-9.88593
 L 20.8454,-9.88419 L 20.8368,-9.88258 L 20.8282,-9.88115 L 20.8196,-9.87985 L 20.8109,-9.87872 L 20.8023,-9.87773
 L 20.7936,-9.87689 L 20.7849,-9.87621 L 20.7762,-9.87567 L 20.7674,-9.87529 L 20.7587,-9.87506 L 20.75,-9.875
 z
M 18.625,-17.5 L 0.125,-17.5 L 0.125,-11.375 L 18.625,-11.375 z
M 24.875,-12.375 L 21.875,-12.375 L 21.875,-0.125 L 24.875,-0.125 z
M 28,-12.25 L 25,-12.25 L 25,-6.25 L 28,-6.25 z
M 18.625,-11.25 L 0.125,-11.25 L 0.125,-0.125 L 18.625,-0.125 z
M 21.75,-9.25 L 18.75,-9.25 L 18.75,-0.125 L 21.75,-0.125 z
M 20.7413,-0.625061 L 20.7325,-0.62529 L 20.7238,-0.625671 L 20.7151,-0.626205 L 20.7064,-0.626892 L 20.6977,-0.627731
 L 20.6891,-0.628723 L 20.6804,-0.629852 L 20.6718,-0.631149 L 20.6632,-0.632584 L 20.6546,-0.634186 L 20.646,-0.635925
 L 20.6375,-0.637802 L 20.629,-0.639847 L 20.6206,-0.642029 L 20.6122,-0.644363 L 20.6038,-0.646835 L 20.5955,-0.64946
 L 20.5872,-0.652237 L 20.579,-0.655151 L 20.5708,-0.658203 L 20.5627,-0.661407 L 20.5546,-0.664734 L 20.5466,-0.668213
 L 20.5387,-0.671844 L 20.5308,-0.675598 L 20.523,-0.679489 L 20.5153,-0.683517 L 20.5076,-0.687683 L 20.5,-0.691986
 L 20.4925,-0.696411 L 20.485,-0.700974 L 20.4777,-0.705658 L 20.4704,-0.71048 L 20.4632,-0.715424 L 20.4561,-0.72049
 L 20.4491,-0.725677 L 20.4422,-0.730988 L 20.4353,-0.73642 L 20.4286,-0.741974 L 20.422,-0.747635 L 20.4154,-0.753418
 L 20.409,-0.759323 L 20.4027,-0.76532 L 20.3964,-0.771439 L 20.3903,-0.777664 L 20.3843,-0.783997 L 20.3784,-0.790421
 L 20.3726,-0.796967 L 20.367,-0.803604 L 20.3614,-0.810333 L 20.356,-0.817169 L 20.3507,-0.824081 L 20.3455,-0.8311
 L 20.3404,-0.838211 L 20.3355,-0.845398 L 20.3307,-0.852676 L 20.326,-0.860031 L 20.3214,-0.867477 L 20.317,-0.875
 L 20.3127,-0.882584 L 20.3085,-0.890259 L 20.3045,-0.897995 L 20.3006,-0.905807 L 20.2968,-0.913681 L 20.2932,-0.921631
 L 20.2897,-0.929626 L 20.2864,-0.937683 L 20.2832,-0.945801 L 20.2802,-0.953979 L 20.2772,-0.962204 L 20.2745,-0.97049
 L 20.2718,-0.978806 L 20.2694,-0.987167 L 20.267,-0.99559 L 20.2648,-1.00403 L 20.2628,-1.01251 L 20.2609,-1.02104
 L 20.2592,-1.02959 L 20.2576,-1.03816 L 20.2561,-1.04677 L 20.2549,-1.0554 L 20.2537,-1.06406 L 20.2527,-1.07272
 L 20.2519,-1.08142 L 20.2512,-1.09012 L 20.2507,-1.09883 L 20.2503,-1.10754 L 20.2501,-1.11627 L 20.25,-1.125
 L 20.2501,-1.13371 L 20.2503,-1.14244 L 20.2507,-1.15115 L 20.2512,-1.15987 L 20.2519,-1.16856 L 20.2527,-1.17726
 L 20.2537,-1.18593 L 20.2549,-1.19458 L 20.2561,-1.20322 L 20.2576,-1.21182 L 20.2592,-1.2204 L 20.2609,-1.22894
 L 20.2628,-1.23747 L 20.2648,-1.24596 L 20.267,-1.25439 L 20.2694,-1.26282 L 20.2718,-1.27118 L 20.2745,-1.2795
 L 20.2772,-1.28778 L 20.2802,-1.29601 L 20.2832,-1.30418 L 20.2864,-1.3123 L 20.2897,-1.32036 L 20.2932,-1.32835
 L 20.2968,-1.3363 L 20.3006,-1.34418 L 20.3045,-1.35199 L 20.3085,-1.35973 L 20.3127,-1.3674 L 20.317,-1.375
 L 20.3214,-1.38251 L 20.326,-1.38995 L 20.3307,-1.39731 L 20.3355,-1.40459 L 20.3404,-1.41177 L 20.3455,-1.41888
 L 20.3507,-1.4259 L 20.356,-1.43282 L 20.3614,-1.43965 L 20.367,-1.44638 L 20.3726,-1.45302 L 20.3784,-1.45956
 L 20.3843,-1.46599 L 20.3903,-1.47232 L 20.3964,-1.47855 L 20.4027,-1.48466 L 20.409,-1.49066 L 20.4154,-1.49657
 L 20.422,-1.50235 L 20.4286,-1.50801 L 20.4353,-1.51357 L 20.4422,-1.519 L 20.4491,-1.52431 L 20.4561,-1.5295
 L 20.4632,-1.53456 L 20.4704,-1.53951 L 20.4777,-1.54433 L 20.485,-1.54901 L 20.4925,-1.55357 L 20.5,-1.558
 L 20.5076,-1.5623 L 20.5153,-1.56647 L 20.523,-1.5705 L 20.5308,-1.57439 L 20.5387,-1.57814 L 20.5466,-1.58177
 L 20.5546,-1.58525 L 20.5627,-1.58858 L 20.5708,-1.59178 L 20.579,-1.59483 L 20.5872,-1.59775 L 20.5955,-1.60052
 L 20.6038,-1.60315 L 20.6122,-1.60562 L 20.6206,-1.60796 L 20.629,-1.61014 L 20.6375,-1.61218 L 20.646,-1.61406
 L 20.6546,-1.6158 L 20.6632,-1.6174 L 20.6718,-1.61884 L 20.6804,-1.62013 L 20.6891,-1.62126 L 20.6977,-1.62225
 L 20.7064,-1.62309 L 20.7151,-1.62378 L 20.7238,-1.62431 L 20.7325,-1.62469 L 20.7413,-1.62492 L 20.75,-1.625
 L 20.7587,-1.62492 L 20.7674,-1.62469 L 20.7762,-1.62431 L 20.7849,-1.62378 L 20.7936,-1.62309 L 20.8023,-1.62225
 L 20.8109,-1.62126 L 20.8196,-1.62013 L 20.8282,-1.61884 L 20.8368,-1.6174 L 20.8454,-1.6158 L 20.8539,-1.61406
 L 20.8625,-1.61218 L 20.871,-1.61014 L 20.8794,-1.60796 L 20.8878,-1.60562 L 20.8962,-1.60315 L 20.9045,-1.60052
 L 20.9128,-1.59775 L 20.921,-1.59483 L 20.9292,-1.59178 L 20.9373,-1.58858 L 20.9454,-1.58525 L 20.9534,-1.58177
 L 20.9613,-1.57814 L 20.9692,-1.57439 L 20.977,-1.5705 L 20.9847,-1.56647 L 20.9924,-1.5623 L 21,-1.558
 L 21.0075,-1.55357 L 21.015,-1.54901 L 21.0223,-1.54433 L 21.0296,-1.53951 L 21.0368,-1.53456 L 21.0439,-1.5295
 L 21.0509,-1.52431 L 21.0578,-1.519 L 21.0647,-1.51357 L 21.0714,-1.50801 L 21.078,-1.50235 L 21.0846,-1.49657
 L 21.091,-1.49066 L 21.0973,-1.48466 L 21.1035,-1.47855 L 21.1097,-1.47232 L 21.1157,-1.46599 L 21.1216,-1.45956
 L 21.1273,-1.45302 L 21.133,-1.44638 L 21.1386,-1.43965 L 21.144,-1.43282 L 21.1493,-1.4259 L 21.1545,-1.41888
 L 21.1596,-1.41177 L 21.1645,-1.40459 L 21.1693,-1.39731 L 21.174,-1.38995 L 21.1786,-1.38251 L 21.183,-1.375
 L 21.1873,-1.3674 L 21.1915,-1.35973 L 21.1955,-1.35199 L 21.1994,-1.34418 L 21.2031,-1.3363 L 21.2068,-1.32835
 L 21.2103,-1.32036 L 21.2136,-1.3123 L 21.2168,-1.30418 L 21.2198,-1.29601 L 21.2227,-1.28778 L 21.2255,-1.2795
 L 21.2281,-1.27118 L 21.2306,-1.26282 L 21.233,-1.25439 L 21.2351,-1.24596 L 21.2372,-1.23747 L 21.2391,-1.22894
 L 21.2408,-1.2204 L 21.2424,-1.21182 L 21.2438,-1.20322 L 21.2451,-1.19458 L 21.2463,-1.18593 L 21.2473,-1.17726
 L 21.2481,-1.16856 L 21.2488,-1.15987 L 21.2493,-1.15115 L 21.2497,-1.14244 L 21.2499,-1.13371 L 21.25,-1.125
 L 21.2499,-1.11627 L 21.2497,-1.10754 L 21.2493,-1.09883 L 21.2488,-1.09012 L 21.2481,-1.08142 L 21.2473,-1.07272
 L 21.2463,-1.06406 L 21.2451,-1.0554 L 21.2438,-1.04677 L 21.2424,-1.03816 L 21.2408,-1.02959 L 21.2391,-1.02104
 L 21.2372,-1.01251 L 21.2351,-1.00403 L 21.233,-0.99559 L 21.2306,-0.987167 L 21.2281,-0.978806 L 21.2255,-0.97049
 L 21.2227,-0.962204 L 21.2198,-0.953979 L 21.2168,-0.945801 L 21.2136,-0.937683 L 21.2103,-0.929626 L 21.2068,-0.921631
 L 21.2031,-0.913681 L 21.1994,-0.905807 L 21.1955,-0.897995 L 21.1915,-0.890259 L 21.1873,-0.882584 L 21.183,-0.875
 L 21.1786,-0.867477 L 21.174,-0.860031 L 21.1693,-0.852676 L 21.1645,-0.845398 L 21.1596,-0.838211 L 21.1545,-0.8311
 L 21.1493,-0.824081 L 21.144,-0.817169 L 21.1386,-0.810333 L 21.133,-0.803604 L 21.1273,-0.796967 L 21.1216,-0.790421
 L 21.1157,-0.783997 L 21.1097,-0.777664 L 21.1035,-0.771439 L 21.0973,-0.76532 L 21.091,-0.759323 L 21.0846,-0.753418
 L 21.078,-0.747635 L 21.0714,-0.741974 L 21.0647,-0.73642 L 21.0578,-0.730988 L 21.0509,-0.725677 L 21.0439,-0.72049
 L 21.0368,-0.715424 L 21.0296,-0.71048 L 21.0223,-0.705658 L 21.015,-0.700974 L 21.0075,-0.696411 L 21,-0.691986
 L 20.9924,-0.687683 L 20.9847,-0.683517 L 20.977,-0.679489 L 20.9692,-0.675598 L 20.9613,-0.671844 L 20.9534,-0.668213
 L 20.9454,-0.664734 L 20.9373,-0.661407 L 20.9292,-0.658203 L 20.921,-0.655151 L 20.9128,-0.652237 L 20.9045,-0.64946
 L 20.8962,-0.646835 L 20.8878,-0.644363 L 20.8794,-0.642029 L 20.871,-0.639847 L 20.8625,-0.637802 L 20.8539,-0.635925
 L 20.8454,-0.634186 L 20.8368,-0.632584 L 20.8282,-0.631149 L 20.8196,-0.629852 L 20.8109,-0.628723 L 20.8023,-0.627731
 L 20.7936,-0.626892 L 20.7849,-0.626205 L 20.7762,-0.625671 L 20.7674,-0.62529 L 20.7587,-0.625061 L 20.75,-0.625
 z
M 29.1424,-6.25014 L 29.1599,-6.2506 L 29.1773,-6.25136 L 29.1947,-6.25243 L 29.2121,-6.2538 L 29.2295,-6.25548
 L 29.2469,-6.25745 L 29.2642,-6.25972 L 29.2814,-6.2623 L 29.2986,-6.26518 L 29.3158,-6.26837 L 29.3329,-6.27185
 L 29.3499,-6.27562 L 29.3669,-6.27969 L 29.3838,-6.28407 L 29.4006,-6.28873 L 29.4174,-6.29369 L 29.434,-6.29893
 L 29.4506,-6.30447 L 29.467,-6.3103 L 29.4834,-6.31641 L 29.4996,-6.32281 L 29.5157,-6.32948 L 29.5317,-6.33644
 L 29.5476,-6.34369 L 29.5634,-6.3512 L 29.579,-6.35898 L 29.5945,-6.36705 L 29.6098,-6.37537 L 29.625,-6.38397
 L 29.64,-6.39282 L 29.6549,-6.40195 L 29.6696,-6.41132 L 29.6842,-6.42096 L 29.6986,-6.43085 L 29.7128,-6.44098
 L 29.7268,-6.45135 L 29.7407,-6.46198 L 29.7543,-6.47284 L 29.7678,-6.48395 L 29.7811,-6.49529 L 29.7941,-6.50685
 L 29.807,-6.51865 L 29.8197,-6.53065 L 29.8321,-6.54289 L 29.8443,-6.55533 L 29.8564,-6.56799 L 29.8681,-6.58086
 L 29.8797,-6.59393 L 29.891,-6.60721 L 29.9021,-6.62067 L 29.913,-6.63434 L 29.9236,-6.64818 L 29.934,-6.6622
 L 29.9442,-6.67642 L 29.954,-6.6908 L 29.9637,-6.70535 L 29.973,-6.72008 L 29.9822,-6.73495 L 29.991,-6.75
 L 29.9996,-6.76518 L 30.0079,-6.78052 L 30.016,-6.79601 L 30.0238,-6.81161 L 30.0313,-6.82738 L 30.0385,-6.84326
 L 30.0455,-6.85927 L 30.0522,-6.87538 L 30.0586,-6.89162 L 30.0647,-6.90797 L 30.0705,-6.92442 L 30.076,-6.94098
 L 30.0813,-6.95763 L 30.0863,-6.97435 L 30.0909,-6.99118 L 30.0953,-7.00807 L 30.0994,-7.02504 L 30.1031,-7.04208
 L 30.1066,-7.05919 L 30.1098,-7.07634 L 30.1127,-7.09355 L 30.1153,-7.11082 L 30.1175,-7.12813 L 30.1195,-7.14546
 L 30.1212,-7.16284 L 30.1226,-7.18024 L 30.1236,-7.19766 L 30.1244,-7.21509 L 30.1248,-7.23254 L 30.125,-7.25
 L 30.1248,-7.26744 L 30.1244,-7.2849 L 30.1236,-7.30232 L 30.1226,-7.31975 L 30.1212,-7.33714 L 30.1195,-7.35452
 L 30.1175,-7.37186 L 30.1153,-7.38916 L 30.1127,-7.40643 L 30.1098,-7.42365 L 30.1066,-7.4408 L 30.1031,-7.4579
 L 30.0994,-7.47495 L 30.0953,-7.49191 L 30.0909,-7.5088 L 30.0863,-7.52563 L 30.0813,-7.54236 L 30.076,-7.55901
 L 30.0705,-7.57556 L 30.0647,-7.59201 L 30.0586,-7.60837 L 30.0522,-7.6246 L 30.0455,-7.64072 L 30.0385,-7.65672
 L 30.0313,-7.67261 L 30.0238,-7.68837 L 30.016,-7.70398 L 30.0079,-7.71947 L 29.9996,-7.7348 L 29.991,-7.75
 L 29.9822,-7.76503 L 29.973,-7.77991 L 29.9637,-7.79463 L 29.954,-7.80919 L 29.9442,-7.82356 L 29.934,-7.83778
 L 29.9236,-7.85181 L 29.913,-7.86565 L 29.9021,-7.87932 L 29.891,-7.89278 L 29.8797,-7.90605 L 29.8681,-7.91913
 L 29.8564,-7.93199 L 29.8443,-7.94466 L 29.8321,-7.95709 L 29.8197,-7.96933 L 29.807,-7.98134 L 29.7941,-7.99313
 L 29.7811,-8.0047 L 29.7678,-8.01604 L 29.7543,-8.02715 L 29.7407,-8.03801 L 29.7268,-8.04863 L 29.7128,-8.05901
 L 29.6986,-8.06914 L 29.6842,-8.07903 L 29.6696,-8.08867 L 29.6549,-8.09804 L 29.64,-8.10716 L 29.625,-8.11601
 L 29.6098,-8.12462 L 29.5945,-8.13293 L 29.579,-8.14101 L 29.5634,-8.14879 L 29.5476,-8.1563 L 29.5317,-8.16354
 L 29.5157,-8.1705 L 29.4996,-8.17717 L 29.4834,-8.18358 L 29.467,-8.18968 L 29.4506,-8.19551 L 29.434,-8.20105
 L 29.4174,-8.2063 L 29.4006,-8.21126 L 29.3838,-8.21591 L 29.3669,-8.22029 L 29.3499,-8.22437 L 29.3329,-8.22813
 L 29.3158,-8.23161 L 29.2986,-8.2348 L 29.2814,-8.23769 L 29.2642,-8.24026 L 29.2469,-8.24254 L 29.2295,-8.24451
 L 29.2121,-8.24619 L 29.1947,-8.24756 L 29.1773,-8.24863 L 29.1599,-8.24939 L 29.1424,-8.24985 L 29.125,-8.25
 L 29.1075,-8.24985 L 29.0901,-8.24939 L 29.0727,-8.24863 L 29.0552,-8.24756 L 29.0378,-8.24619 L 29.0205,-8.24451
 L 29.0031,-8.24254 L 28.9858,-8.24026 L 28.9686,-8.23769 L 28.9513,-8.2348 L 28.9342,-8.23161 L 28.9171,-8.22813
 L 28.9,-8.22437 L 28.8831,-8.22029 L 28.8662,-8.21591 L 28.8493,-8.21126 L 28.8326,-8.2063 L 28.816,-8.20105
 L 28.7994,-8.19551 L 28.783,-8.18968 L 28.7666,-8.18358 L 28.7504,-8.17717 L 28.7343,-8.1705 L 28.7183,-8.16354
 L 28.7024,-8.1563 L 28.6866,-8.14879 L 28.671,-8.14101 L 28.6555,-8.13293 L 28.6402,-8.12462 L 28.625,-8.11601
 L 28.61,-8.10716 L 28.5951,-8.09804 L 28.5804,-8.08867 L 28.5658,-8.07903 L 28.5514,-8.06914 L 28.5372,-8.05901
 L 28.5232,-8.04863 L 28.5093,-8.03801 L 28.4957,-8.02715 L 28.4822,-8.01604 L 28.4689,-8.0047 L 28.4559,-7.99313
 L 28.443,-7.98134 L 28.4303,-7.96933 L 28.4179,-7.95709 L 28.4057,-7.94466 L 28.3936,-7.93199 L 28.3819,-7.91913
 L 28.3703,-7.90605 L 28.3589,-7.89278 L 28.3479,-7.87932 L 28.337,-7.86565 L 28.3264,-7.85181 L 28.316,-7.83778
 L 28.3058,-7.82356 L 28.296,-7.80919 L 28.2863,-7.79463 L 28.2769,-7.77991 L 28.2678,-7.76503 L 28.259,-7.75
 L 28.2504,-7.7348 L 28.2421,-7.71947 L 28.234,-7.70398 L 28.2262,-7.68837 L 28.2187,-7.67261 L 28.2114,-7.65672
 L 28.2045,-7.64072 L 28.1978,-7.6246 L 28.1914,-7.60837 L 28.1853,-7.59201 L 28.1795,-7.57556 L 28.1739,-7.55901
 L 28.1687,-7.54236 L 28.1637,-7.52563 L 28.1591,-7.5088 L 28.1547,-7.49191 L 28.1506,-7.47495 L 28.1469,-7.4579
 L 28.1434,-7.4408 L 28.1402,-7.42365 L 28.1373,-7.40643 L 28.1347,-7.38916 L 28.1324,-7.37186 L 28.1305,-7.35452
 L 28.1288,-7.33714 L 28.1274,-7.31975 L 28.1264,-7.30232 L 28.1256,-7.2849 L 28.1252,-7.26744 L 28.125,-7.25
 L 28.1252,-7.23254 L 28.1256,-7.21509 L 28.1264,-7.19766 L 28.1274,-7.18024 L 28.1288,-7.16284 L 28.1305,-7.14546
 L 28.1324,-7.12813 L 28.1347,-7.11082 L 28.1373,-7.09355 L 28.1402,-7.07634 L 28.1434,-7.05919 L 28.1469,-7.04208
 L 28.1506,-7.02504 L 28.1547,-7.00807 L 28.1591,-6.99118 L 28.1637,-6.97435 L 28.1687,-6.95763 L 28.1739,-6.94098
 L 28.1795,-6.92442 L 28.1853,-6.90797 L 28.1914,-6.89162 L 28.1978,-6.87538 L 28.2045,-6.85927 L 28.2114,-6.84326
 L 28.2187,-6.82738 L 28.2262,-6.81161 L 28.234,-6.79601 L 28.2421,-6.78052 L 28.2504,-6.76518 L 28.259,-6.75
 L 28.2678,-6.73495 L 28.2769,-6.72008 L 28.2863,-6.70535 L 28.296,-6.6908 L 28.3058,-6.67642 L 28.316,-6.6622
 L 28.3264,-6.64818 L 28.337,-6.63434 L 28.3479,-6.62067 L 28.3589,-6.60721 L 28.3703,-6.59393 L 28.3819,-6.58086
 L 28.3936,-6.56799 L 28.4057,-6.55533 L 28.4179,-6.54289 L 28.4303,-6.53065 L 28.443,-6.51865 L 28.4559,-6.50685
 L 28.4689,-6.49529 L 28.4822,-6.48395 L 28.4957,-6.47284 L 28.5093,-6.46198 L 28.5232,-6.45135 L 28.5372,-6.44098
 L 28.5514,-6.43085 L 28.5658,-6.42096 L 28.5804,-6.41132 L 28.5951,-6.40195 L 28.61,-6.39282 L 28.625,-6.38397
 L 28.6402,-6.37537 L 28.6555,-6.36705 L 28.671,-6.35898 L 28.6866,-6.3512 L 28.7024,-6.34369 L 28.7183,-6.33644
 L 28.7343,-6.32948 L 28.7504,-6.32281 L 28.7666,-6.31641 L 28.783,-6.3103 L 28.7994,-6.30447 L 28.816,-6.29893
 L 28.8326,-6.29369 L 28.8493,-6.28873 L 28.8662,-6.28407 L 28.8831,-6.27969 L 28.9,-6.27562 L 28.9171,-6.27185
 L 28.9342,-6.26837 L 28.9513,-6.26518 L 28.9686,-6.2623 L 28.9858,-6.25972 L 29.0031,-6.25745 L 29.0205,-6.25548
 L 29.0378,-6.2538 L 29.0552,-6.25243 L 29.0727,-6.25136 L 29.0901,-6.2506 L 29.1075,-6.25014 L 29.125,-6.25
 z
M 31.125,-6.125 L 28.125,-6.125 L 28.125,-0.125 L 31.125,-0.125 z
M 28,-6.125 L 25,-6.125 L 25,-0.125 L 28,-0.125 z
" stroke="black" fill="lightgray" stroke-width="0.5"/>
</svg>
