<?xml version="1.0" standalone="no"?>
<!DOCTYPE svg PUBLIC "-//W3C//DTD SVG 1.1//EN" "http://www.w3.org/Graphics/SVG/1.1/DTD/svg11.dtd">
<svg width="25mm" height="22mm" viewBox="0 -22 25 22" xmlns="http://www.w3.org/2000/svg" version="1.1">
<title>OpenSCAD Model</title>
<path d="
M 12.25,-21.75 L 6.25,-21.75 L 6.25,-20.75 L 12.25,-20.75 z
M 6.125,-21.75 L 0.125,-21.75 L 0.125,-20.75 L 6.125,-20.75 z
M 6.125,-20.625 L 0.125,-20.625 L 0.125,-17.625 L 6.125,-17.625 z
M 18.375,-20.625 L 12.375,-20.625 L 12.375,-17.625 L 18.375,-17.625 z
M 12.25,-20.625 L 6.25,-20.625 L 6.25,-17.625 L 12.25,-17.625 z
M 19.5174,-18.6252 L 19.5349,-18.6256 L 19.5523,-18.6264 L 19.5697,-18.6274 L 19.5871,-18.6288 L 19.6045,-18.6305
 L 19.6219,-18.6324 L 19.6392,-18.6347 L 19.6564,-18.6373 L 19.6736,-18.6402 L 19.6908,-18.6434 L 19.7079,-18.6469
 L 19.7249,-18.6506 L 19.7419,-18.6547 L 19.7588,-18.6591 L 19.7756,-18.6637 L 19.7924,-18.6687 L 19.809,-18.6739
 L 19.8256,-18.6795 L 19.842,-18.6853 L 19.8584,-18.6914 L 19.8746,-18.6978 L 19.8907,-18.7045 L 19.9067,-18.7114
 L 19.9226,-18.7187 L 19.9384,-18.7262 L 19.954,-18.734 L 19.9695,-18.7421 L 19.9848,-18.7504 L 20,-18.759
 L 20.015,-18.7678 L 20.0299,-18.7769 L 20.0446,-18.7863 L 20.0592,-18.796 L 20.0736,-18.8058 L 20.0878,-18.816
 L 20.1018,-18.8264 L 20.1157,-18.837 L 20.1293,-18.8479 L 20.1428,-18.8589 L 20.1561,-18.8703 L 20.1691,-18.8819
 L 20.182,-18.8936 L 20.1947,-18.9057 L 20.2071,-18.9179 L 20.2193,-18.9303 L 20.2314,-18.943 L 20.2431,-18.9559
 L 20.2547,-18.9689 L 20.266,-18.9822 L 20.2771,-18.9957 L 20.288,-19.0093 L 20.2986,-19.0232 L 20.309,-19.0372
 L 20.3192,-19.0514 L 20.329,-19.0658 L 20.3387,-19.0804 L 20.348,-19.0951 L 20.3572,-19.11 L 20.366,-19.125
 L 20.3746,-19.1402 L 20.3829,-19.1555 L 20.391,-19.171 L 20.3988,-19.1866 L 20.4063,-19.2024 L 20.4135,-19.2183
 L 20.4205,-19.2343 L 20.4272,-19.2504 L 20.4336,-19.2666 L 20.4397,-19.283 L 20.4455,-19.2994 L 20.451,-19.316
 L 20.4563,-19.3326 L 20.4613,-19.3493 L 20.4659,-19.3662 L 20.4703,-19.3831 L 20.4744,-19.4 L 20.4781,-19.4171
 L 20.4816,-19.4342 L 20.4848,-19.4513 L 20.4877,-19.4686 L 20.4903,-19.4858 L 20.4925,-19.5031 L 20.4945,-19.5205
 L 20.4962,-19.5378 L 20.4976,-19.5552 L 20.4986,-19.5727 L 20.4994,-19.5901 L 20.4998,-19.6075 L 20.5,-19.625
 L 20.4998,-19.6424 L 20.4994,-19.6599 L 20.4986,-19.6773 L 20.4976,-19.6947 L 20.4962,-19.7121 L 20.4945,-19.7295
 L 20.4925,-19.7469 L 20.4903,-19.7642 L 20.4877,-19.7814 L 20.4848,-19.7986 L 20.4816,-19.8158 L 20.4781,-19.8329
 L 20.4744,-19.8499 L 20.4703,-19.8669 L 20.4659,-19.8838 L 20.4613,-19.9006 L 20.4563,-19.9174 L 20.451,-19.934
 L 20.4455,-19.9506 L 20.4397,-19.967 L 20.4336,-19.9834 L 20.4272,-19.9996 L 20.4205,-20.0157 L 20.4135,-20.0317
 L 20.4063,-20.0476 L 20.3988,-20.0634 L 20.391,-20.079 L 20.3829,-20.0945 L 20.3746,-20.1098 L 20.366,-20.125
 L 20.3572,-20.14 L 20.348,-20.1549 L 20.3387,-20.1696 L 20.329,-20.1842 L 20.3192,-20.1986 L 20.309,-20.2128
 L 20.2986,-20.2268 L 20.288,-20.2407 L 20.2771,-20.2543 L 20.266,-20.2678 L 20.2547,-20.2811 L 20.2431,-20.2941
 L 20.2314,-20.307 L 20.2193,-20.3197 L 20.2071,-20.3321 L 20.1947,-20.3443 L 20.182,-20.3564 L 20.1691,-20.3681
 L 20.1561,-20.3797 L 20.1428,-20.391 L 20.1293,-20.4021 L 20.1157,-20.413 L 20.1018,-20.4236 L 20.0878,-20.434
 L 20.0736,-20.4442 L 20.0592,-20.454 L 20.0446,-20.4637 L 20.0299,-20.473 L 20.015,-20.4822 L 20,-20.491
 L 19.9848,-20.4996 L 19.9695,-20.5079 L 19.954,-20.516 L 19.9384,-20.5238 L 19.9226,-20.5313 L 19.9067,-20.5385
 L 19.8907,-20.5455 L 19.8746,-20.5522 L 19.8584,-20.5586 L 19.842,-20.5647 L 19.8256,-20.5705 L 19.809,-20.576
 L 19.7924,-20.5813 L 19.7756,-20.5863 L 19.7588,-20.5909 L 19.7419,-20.5953 L 19.7249,-20.5994 L 19.7079,-20.6031
 L 19.6908,-20.6066 L 19.6736,-20.6098 L 19.6564,-20.6127 L 19.6392,-20.6153 L 19.6219,-20.6175 L 19.6045,-20.6195
 L 19.5871,-20.6212 L 19.5697,-20.6226 L 19.5523,-20.6236 L 19.5349,-20.6244 L 19.5174,-20.6248 L 19.5,-20.625
 L 19.4825,-20.6248 L 19.4651,-20.6244 L 19.4477,-20.6236 L 19.4302,-20.6226 L 19.4128,-20.6212 L 19.3955,-20.6195
 L 19.3781,-20.6175 L 19.3608,-20.6153 L 19.3436,-20.6127 L 19.3263,-20.6098 L 19.3092,-20.6066 L 19.2921,-20.6031
 L 19.275,-20.5994 L 19.2581,-20.5953 L 19.2412,-20.5909 L 19.2243,-20.5863 L 19.2076,-20.5813 L 19.191,-20.576
 L 19.1744,-20.5705 L 19.158,-20.5647 L 19.1416,-20.5586 L 19.1254,-20.5522 L 19.1093,-20.5455 L 19.0933,-20.5385
 L 19.0774,-20.5313 L 19.0616,-20.5238 L 19.046,-20.516 L 19.0305,-20.5079 L 19.0152,-20.4996 L 19,-20.491
 L 18.985,-20.4822 L 18.9701,-20.473 L 18.9554,-20.4637 L 18.9408,-20.454 L 18.9264,-20.4442 L 18.9122,-20.434
 L 18.8982,-20.4236 L 18.8843,-20.413 L 18.8707,-20.4021 L 18.8572,-20.391 L 18.8439,-20.3797 L 18.8309,-20.3681
 L 18.818,-20.3564 L 18.8053,-20.3443 L 18.7929,-20.3321 L 18.7807,-20.3197 L 18.7686,-20.307 L 18.7569,-20.2941
 L 18.7453,-20.2811 L 18.7339,-20.2678 L 18.7229,-20.2543 L 18.712,-20.2407 L 18.7014,-20.2268 L 18.691,-20.2128
 L 18.6808,-20.1986 L 18.671,-20.1842 L 18.6613,-20.1696 L 18.6519,-20.1549 L 18.6428,-20.14 L 18.634,-20.125
 L 18.6254,-20.1098 L 18.6171,-20.0945 L 18.609,-20.079 L 18.6012,-20.0634 L 18.5937,-20.0476 L 18.5864,-20.0317
 L 18.5795,-20.0157 L 18.5728,-19.9996 L 18.5664,-19.9834 L 18.5603,-19.967 L 18.5545,-19.9506 L 18.5489,-19.934
 L 18.5437,-19.9174 L 18.5387,-19.9006 L 18.5341,-19.8838 L 18.5297,-19.8669 L 18.5256,-19.8499 L 18.5219,-19.8329
 L 18.5184,-19.8158 L 18.5152,-19.7986 L 18.5123,-19.7814 L 18.5097,-19.7642 L 18.5074,-19.7469 L 18.5055,-19.7295
 L 18.5038,-19.7121 L 18.5024,-19.6947 L 18.5014,-19.6773 L 18.5006,-19.6599 L 18.5002,-19.6424 L 18.5,-19.625
 L 18.5002,-19.6075 L 18.5006,-19.5901 L 18.5014,-19.5727 L 18.5024,-19.5552 L 18.5038,-19.5378 L 18.5055,-19.5205
 L 18.5074,-19.5031 L 18.5097,-19.4858 L 18.5123,-19.4686 L 18.5152,-19.4513 L 18.5184,-19.4342 L 18.5219,-19.4171
 L 18.5256,-19.4 L 18.5297,-19.3831 L 18.5341,-19.3662 L 18.5387,-19.3493 L 18.5437,-19.3326 L 18.5489,-19.316
 L 18.5545,-19.2994 L 18.5603,-19.283 L 18.5664,-19.2666 L 18.5728,-19.2504 L 18.5795,-19.2343 L 18.5864,-19.2183
 L 18.5937,-19.2024 L 18.6012,-19.1866 L 18.609,-19.171 L 18.6171,-19.1555 L 18.6254,-19.1402 L 18.634,-19.125
 L 18.6428,-19.11 L 18.6519,-19.0951 L 18.6613,-19.0804 L 18.671,-19.0658 L 18.6808,-19.0514 L 18.691,-19.0372
 L 18.7014,-19.0232 L 18.712,-19.0093 L 18.7229,-18.9957 L 18.7339,-18.9822 L 18.7453,-18.9689 L 18.7569,-18.9559
 L 18.7686,-18.943 L 18.7807,-18.9303 L 18.7929,-18.9179 L 18.8053,-18.9057 L 18.818,-18.8936 L 18.8309,-18.8819
 L 18.8439,-18.8703 L 18.8572,-18.8589 L 18.8707,-18.8479 L 18.8843,-18.837 L 18.8982,-18.8264 L 18.9122,-18.816
 L 18.9264,-18.8058 L 18.9408,-18.796 L 18.9554,-18.7863 L 18.9701,-18.7769 L 18.985,-18.7678 L 19,-18.759
 L 19.0152,-18.7504 L 19.0305,-18.7421 L 19.046,-18.734 L 19.0616,-18.7262 L 19.0774,-18.7187 L 19.0933,-18.7114
 L 19.1093,-18.7045 L 19.1254,-18.6978 L 19.1416,-18.6914 L 19.158,-18.6853 L 19.1744,-18.6795 L 19.191,-18.6739
 L 19.2076,-18.6687 L 19.2243,-18.6637 L 19.2412,-18.6591 L 19.2581,-18.6547 L 19.275,-18.6506 L 19.2921,-18.6469
 L 19.3092,-18.6434 L 19.3263,-18.6402 L 19.3436,-18.6373 L 19.3608,-18.6347 L 19.3781,-18.6324 L 19.3955,-18.6305
 L 19.4128,-18.6288 L 19.4302,-18.6274 L 19.4477,-18.6264 L 19.4651,-18.6256 L 19.4825,-18.6252 L 19.5,-18.625
 z
M 21.75,-18.5 L 18.75,-18.5 L 18.75,-9.375 L 21.75,-9.375 z
M 20.7413,-9.87506 L 20.7325,-9.87529 L 20.7238,-9.87567 L 20.7151,-9.87621 L 20.7064,-9.87689 L 20.6977,-9.87773
 L 20.6891,-9.87872 L 20.6804,-9.87985 L 20.6718,-9.88115 L 20.6632,-9.88258 L 20.6546,-9.88419 L 20.646,-9.88593
 L 20.6375,-9.8878 L 20.629,-9.88985 L 20.6206,-9.89203 L 20.6122,-9.89436 L 20.6038,-9.89684 L 20.5955,-9.89946
 L 20.5872,-9.90224 L 20.579,-9.90515 L 20.5708,-9.9082 L 20.5627,-9.91141 L 20.5546,-9.91473 L 20.5466,-9.91821
 L 20.5387,-9.92184 L 20.5308,-9.9256 L 20.523,-9.92949 L 20.5153,-9.93352 L 20.5076,-9.93768 L 20.5,-9.94199
 L 20.4925,-9.94641 L 20.485,-9.95097 L 20.4777,-9.95566 L 20.4704,-9.96048 L 20.4632,-9.96542 L 20.4561,-9.97049
 L 20.4491,-9.97568 L 20.4422,-9.98099 L 20.4353,-9.98642 L 20.4286,-9.99197 L 20.422,-9.99763 L 20.4154,-10.0034
 L 20.409,-10.0093 L 20.4027,-10.0153 L 20.3964,-10.0214 L 20.3903,-10.0277 L 20.3843,-10.034 L 20.3784,-10.0404
 L 20.3726,-10.047 L 20.367,-10.0536 L 20.3614,-10.0603 L 20.356,-10.0672 L 20.3507,-10.0741 L 20.3455,-10.0811
 L 20.3404,-10.0882 L 20.3355,-10.0954 L 20.3307,-10.1027 L 20.326,-10.11 L 20.3214,-10.1175 L 20.317,-10.125
 L 20.3127,-10.1326 L 20.3085,-10.1403 L 20.3045,-10.148 L 20.3006,-10.1558 L 20.2968,-10.1637 L 20.2932,-10.1716
 L 20.2897,-10.1796 L 20.2864,-10.1877 L 20.2832,-10.1958 L 20.2802,-10.204 L 20.2772,-10.2122 L 20.2745,-10.2205
 L 20.2718,-10.2288 L 20.2694,-10.2372 L 20.267,-10.2456 L 20.2648,-10.254 L 20.2628,-10.2625 L 20.2609,-10.271
 L 20.2592,-10.2796 L 20.2576,-10.2882 L 20.2561,-10.2968 L 20.2549,-10.3054 L 20.2537,-10.3141 L 20.2527,-10.3227
 L 20.2519,-10.3314 L 20.2512,-10.3401 L 20.2507,-10.3488 L 20.2503,-10.3575 L 20.2501,-10.3663 L 20.25,-10.375
 L 20.2501,-10.3837 L 20.2503,-10.3924 L 20.2507,-10.4012 L 20.2512,-10.4099 L 20.2519,-10.4186 L 20.2527,-10.4273
 L 20.2537,-10.4359 L 20.2549,-10.4446 L 20.2561,-10.4532 L 20.2576,-10.4618 L 20.2592,-10.4704 L 20.2609,-10.4789
 L 20.2628,-10.4875 L 20.2648,-10.496 L 20.267,-10.5044 L 20.2694,-10.5128 L 20.2718,-10.5212 L 20.2745,-10.5295
 L 20.2772,-10.5378 L 20.2802,-10.546 L 20.2832,-10.5542 L 20.2864,-10.5623 L 20.2897,-10.5704 L 20.2932,-10.5784
 L 20.2968,-10.5863 L 20.3006,-10.5942 L 20.3045,-10.602 L 20.3085,-10.6097 L 20.3127,-10.6174 L 20.317,-10.625
 L 20.3214,-10.6325 L 20.326,-10.64 L 20.3307,-10.6473 L 20.3355,-10.6546 L 20.3404,-10.6618 L 20.3455,-10.6689
 L 20.3507,-10.6759 L 20.356,-10.6828 L 20.3614,-10.6897 L 20.367,-10.6964 L 20.3726,-10.703 L 20.3784,-10.7096
 L 20.3843,-10.716 L 20.3903,-10.7223 L 20.3964,-10.7285 L 20.4027,-10.7347 L 20.409,-10.7407 L 20.4154,-10.7466
 L 20.422,-10.7523 L 20.4286,-10.758 L 20.4353,-10.7636 L 20.4422,-10.769 L 20.4491,-10.7743 L 20.4561,-10.7795
 L 20.4632,-10.7846 L 20.4704,-10.7895 L 20.4777,-10.7943 L 20.485,-10.799 L 20.4925,-10.8036 L 20.5,-10.808
 L 20.5076,-10.8123 L 20.5153,-10.8165 L 20.523,-10.8205 L 20.5308,-10.8244 L 20.5387,-10.8281 L 20.5466,-10.8318
 L 20.5546,-10.8353 L 20.5627,-10.8386 L 20.5708,-10.8418 L 20.579,-10.8448 L 20.5872,-10.8477 L 20.5955,-10.8505
 L 20.6038,-10.8531 L 20.6122,-10.8556 L 20.6206,-10.858 L 20.629,-10.8601 L 20.6375,-10.8622 L 20.646,-10.8641
 L 20.6546,-10.8658 L 20.6632,-10.8674 L 20.6718,-10.8688 L 20.6804,-10.8701 L 20.6891,-10.8713 L 20.6977,-10.8723
 L 20.7064,-10.8731 L 20.7151,-10.8738 L 20.7238,-10.8743 L 20.7325,-10.8747 L 20.7413,-10.8749 L 20.75,-10.875
 L 20.7587,-10.8749 L 20.7674,-10.8747 L 20.7762,-10.8743 L 20.7849,-10.8738 L 20.7936,-10.8731 L 20.8023,-10.8723
 L 20.8109,-10.8713 L 20.8196,-10.8701 L 20.8282,-10.8688 L 20.8368,-10.8674 L 20.8454,-10.8658 L 20.8539,-10.8641
 L 20.8625,-10.8622 L 20.871,-10.8601 L 20.8794,-10.858 L 20.8878,-10.8556 L 20.8962,-10.8531 L 20.9045,-10.8505
 L 20.9128,-10.8477 L 20.921,-10.8448 L 20.9292,-10.8418 L 20.9373,-10.8386 L 20.9454,-10.8353 L 20.9534,-10.8318
 L 20.9613,-10.8281 L 20.9692,-10.8244 L 20.977,-10.8205 L 20.9847,-10.8165 L 20.9924,-10.8123 L 21,-10.808
 L 21.0075,-10.8036 L 21.015,-10.799 L 21.0223,-10.7943 L 21.0296,-10.7895 L 21.0368,-10.7846 L 21.0439,-10.7795
 L 21.0509,-10.7743 L 21.0578,-10.769 L 21.0647,-10.7636 L 21.0714,-10.758 L 21.078,-10.7523 L 21.0846,-10.7466
 L 21.091,-10.7407 L 21.0973,-10.7347 L 21.1035,-10.7285 L 21.1097,-10.7223 L 21.1157,-10.716 L 21.1216,-10.7096
 L 21.1273,-10.703 L 21.133,-10.6964 L 21.1386,-10.6897 L 21.144,-10.6828 L 21.1493,-10.6759 L 21.1545,-10.6689
 L 21.1596,-10.6618 L 21.1645,-10.6546 L 21.1693,-10.6473 L 21.174,-10.64 L 21.1786,-10.6325 L 21.183,-10.625
 L 21.1873,-10.6174 L 21.1915,-10.6097 L 21.1955,-10.602 L 21.1994,-10.5942 L 21.2031,-10.5863 L 21.2068,-10.5784
 L 21.2103,-10.5704 L 21.2136,-10.5623 L 21.2168,-10.5542 L 21.2198,-10.546 L 21.2227,-10.5378 L 21.2255,-10.5295
 L 21.2281,-10.5212 L 21.2306,-10.5128 L 21.233,-10.5044 L 21.2351,-10.496 L 21.2372,-10.4875 L 21.2391,-10.4789
 L 21.2408,-10.4704 L 21.2424,-10.4618 L 21.2438,-10.4532 L 21.2451,-10.4446 L 21.2463,-10.4359 L 21.2473,-10.4273
 L 21.2481,-10.4186 L 21.2488,-10.4099 L 21.2493,-10.4012 L 21.2497,-10.3924 L 21.2499,-10.3837 L 21.25,-10.375
 L 21.2499,-10.3663 L 21.2497,-10.3575 L 21.2493,-10.3488 L 21.2488,-10.3401 L 21.2481,-10.3314 L 21.2473,-10.3227
 L 21.2463,-10.3141 L 21.2451,-10.3054 L 21.2438,-10.2968 L 21.2424,-10.2882 L 21.2408,-10.2796 L 21.2391,-10.271
 L 21.2372,-10.2625 L 21.2351,-10.254 L 21.233,-10.2456 L 21.2306,-10.2372 L 21.2281,-10.2288 L 21.2255,-10.2205
 L 21.2227,-10.2122 L 21.2198,-10.204 L 21.2168,-10.1958 L 21.2136,-10.1877 L 21.2103,-10.1796 L 21.2068,-10.1716
 L 21.2031,-10.1637 L 21.1994,-10.1558 L 21.1955,-10.148 L 21.1915,-10.1403 L 21.1873,-10.1326 L 21.183,-10.125
 L 21.1786,-10.1175 L 21.174,-10.11 L 21.1693,-10.1027 L 21.1645,-10.0954 L 21.1596,-10.0882 L 21.1545,-10.0811
 L 21.1493,-10.0741 L 21.144,-10.0672 L 21.1386,-10.0603 L 21.133,-10.0536 L 21.1273,-10.047 L 21.1216,-10.0404
 L 21.1157,-10.034 L 21.1097,-10.0277 L 21.1035,-10.0214 L 21.0973,-10.0153 L 21.091,-10.0093 L 21.0846,-10.0034
 L 21.078,-9.99763 L 21.0714,-9.99197 L 21.0647,-9.98642 L 21.0578,-9.98099 L 21.0509,-9.97568 L 21.0439,-9.97049
 L 21.0368,-9.96542 L 21.0296,-9.96048 L 21.0223,-9.95566 L 21.015,-9.95097 L 21.0075,-9.94641 L 21,-9.94199
 L 20.9924,-9.93768 L 20.9847,-9.93352 L 20.977,-9.92949 L 20.9692,-9.9256 L 20.9613,-9.92184 L 20.9534,-9.91821
 L 20.9454,-9.91473 L 20.9373,-9.91141 L 20.9292,-9.9082 L 20.921,-9.90515 L 20.9128,-9.90224 L 20.9045,-9.89946
 L 20.8962,-9.89684 L 20.8878,-9.89436 L 20.8794,-9.89203 L 20.871,-9.88985 L 20.8625,-9.8878 L 20.8539,-9.88593
 L 20.8454,-9.88419 L 20.8368,-9.88258 L 20.8282,-9.88115 L 20.8196,-9.87985 L 20.8109,-9.87872 L 20.8023,-9.87773
 L 20.7936,-9.87689 L 20.7849,-9.87621 L 20.7762,-9.87567 L 20.7674,-9.87529 L 20.7587,-9.87506 L 20.75,-9.875
 z
M 18.625,-17.5 L 0.125,-17.5 L 0.125,-11.375 L 18.625,-11.375 z
M 24.875,-12.5 L 21.875,-12.5 L 21.875,-6.375 L 24.875,-6.375 z
M 18.625,-11.25 L 0.125,-11.25 L 0.125,-0.125 L 18.625,-0.125 z
M 21.75,-9.25 L 18.75,-9.25 L 18.75,-0.125 L 21.75,-0.125 z
M 20.7413,-0.625061 L 20.7325,-0.62529 L 20.7238,-0.625671 L 20.7151,-0.626205 L 20.7064,-0.626892 L 20.6977,-0.627731
 L 20.6891,-0.628723 L 20.6804,-0.629852 L 20.6718,-0.631149 L 20.6632,-0.632584 L 20.6546,-0.634186 L 20.646,-0.635925
 L 20.6375,-0.637802 L 20.629,-0.639847 L 20.6206,-0.642029 L 20.6122,-0.644363 L 20.6038,-0.646835 L 20.5955,-0.64946
 L 20.5872,-0.652237 L 20.579,-0.655151 L 20.5708,-0.658203 L 20.5627,-0.661407 L 20.5546,-0.664734 L 20.5466,-0.668213
 L 20.5387,-0.671844 L 20.5308,-0.675598 L 20.523,-0.679489 L 20.5153,-0.683517 L 20.5076,-0.687683 L 20.5,-0.691986
 L 20.4925,-0.696411 L 20.485,-0.700974 L 20.4777,-0.705658 L 20.4704,-0.71048 L 20.4632,-0.715424 L 20.4561,-0.72049
 L 20.4491,-0.725677 L 20.4422,-0.730988 L 20.4353,-0.73642 L 20.4286,-0.741974 L 20.422,-0.747635 L 20.4154,-0.753418
 L 20.409,-0.759323 L 20.4027,-0.76532 L 20.3964,-0.771439 L 20.3903,-0.777664 L 20.3843,-0.783997 L 20.3784,-0.790421
 L 20.3726,-0.796967 L 20.367,-0.803604 L 20.3614,-0.810333 L 20.356,-0.817169 L 20.3507,-0.824081 L 20.3455,-0.8311
 L 20.3404,-0.838211 L 20.3355,-0.845398 L 20.3307,-0.852676 L 20.326,-0.860031 L 20.3214,-0.867477 L 20.317,-0.875
 L 20.3127,-0.882584 L 20.3085,-0.890259 L 20.3045,-0.897995 L 20.3006,-0.905807 L 20.2968,-0.913681 L 20.2932,-0.921631
 L 20.2897,-0.929626 L 20.2864,-0.937683 L 20.2832,-0.945801 L 20.2802,-0.953979 L 20.2772,-0.962204 L 20.2745,-0.97049
 L 20.2718,-0.978806 L 20.2694,-0.987167 L 20.267,-0.99559 L 20.2648,-1.00403 L 20.2628,-1.01251 L 20.2609,-1.02104
 L 20.2592,-1.02959 L 20.2576,-1.03816 L 20.2561,-1.04677 L 20.2549,-1.0554 L 20.2537,-1.06406 L 20.2527,-1.07272
 L 20.2519,-1.08142 L 20.2512,-1.09012 L 20.2507,-1.09883 L 20.2503,-1.10754 L 20.2501,-1.11627 L 20.25,-1.125
 L 20.2501,-1.13371 L 20.2503,-1.14244 L 20.2507,-1.15115 L 20.2512,-1.15987 L 20.2519,-1.16856 L 20.2527,-1.17726
 L 20.2537,-1.18593 L 20.2549,-1.19458 L 20.2561,-1.20322 L 20.2576,-1.21182 L 20.2592,-1.2204 L 20.2609,-1.22894
 L 20.2628,-1.23747 L 20.2648,-1.24596 L 20.267,-1.25439 L 20.2694,-1.26282 L 20.2718,-1.27118 L 20.2745,-1.2795
 L 20.2772,-1.28778 L 20.2802,-1.29601 L 20.2832,-1.30418 L 20.2864,-1.3123 L 20.2897,-1.32036 L 20.2932,-1.32835
 L 20.2968,-1.3363 L 20.3006,-1.34418 L 20.3045,-1.35199 L 20.3085,-1.35973 L 20.3127,-1.3674 L 20.317,-1.375
 L 20.3214,-1.38251 L 20.326,-1.38995 L 20.3307,-1.39731 L 20.3355,-1.40459 L 20.3404,-1.41177 L 20.3455,-1.41888
 L 20.3507,-1.4259 L 20.356,-1.43282 L 20.3614,-1.43965 L 20.367,-1.44638 L 20.3726,-1.45302 L 20.3784,-1.45956
 L 20.3843,-1.46599 L 20.3903,-1.47232 L 20.3964,-1.47855 L 20.4027,-1.48466 L 20.409,-1.49066 L 20.4154,-1.49657
 L 20.422,-1.50235 L 20.4286,-1.50801 L 20.4353,-1.51357 L 20.4422,-1.519 L 20.4491,-1.52431 L 20.4561,-1.5295
 L 20.4632,-1.53456 L 20.4704,-1.53951 L 20.4777,-1.54433 L 20.485,-1.54901 L 20.4925,-1.55357 L 20.5,-1.558
 L 20.5076,-1.5623 L 20.5153,-1.56647 L 20.523,-1.5705 L 20.5308,-1.57439 L 20.5387,-1.57814 L 20.5466,-1.58177
 L 20.5546,-1.58525 L 20.5627,-1.58858 L 20.5708,-1.59178 L 20.579,-1.59483 L 20.5872,-1.59775 L 20.5955,-1.60052
 L 20.6038,-1.60315 L 20.6122,-1.60562 L 20.6206,-1.60796 L 20.629,-1.61014 L 20.6375,-1.61218 L 20.646,-1.61406
 L 20.6546,-1.6158 L 20.6632,-1.6174 L 20.6718,-1.61884 L 20.6804,-1.62013 L 20.6891,-1.62126 L 20.6977,-1.62225
 L 20.7064,-1.62309 L 20.7151,-1.62378 L 20.7238,-1.62431 L 20.7325,-1.62469 L 20.7413,-1.62492 L 20.75,-1.625
 L 20.7587,-1.62492 L 20.7674,-1.62469 L 20.7762,-1.62431 L 20.7849,-1.62378 L 20.7936,-1.62309 L 20.8023,-1.62225
 L 20.8109,-1.62126 L 20.8196,-1.62013 L 20.8282,-1.61884 L 20.8368,-1.6174 L 20.8454,-1.6158 L 20.8539,-1.61406
 L 20.8625,-1.61218 L 20.871,-1.61014 L 20.8794,-1.60796 L 20.8878,-1.60562 L 20.8962,-1.60315 L 20.9045,-1.60052
 L 20.9128,-1.59775 L 20.921,-1.59483 L 20.9292,-1.59178 L 20.9373,-1.58858 L 20.9454,-1.58525 L 20.9534,-1.58177
 L 20.9613,-1.57814 L 20.9692,-1.57439 L 20.977,-1.5705 L 20.9847,-1.56647 L 20.9924,-1.5623 L 21,-1.558
 L 21.0075,-1.55357 L 21.015,-1.54901 L 21.0223,-1.54433 L 21.0296,-1.53951 L 21.0368,-1.53456 L 21.0439,-1.5295
 L 21.0509,-1.52431 L 21.0578,-1.519 L 21.0647,-1.51357 L 21.0714,-1.50801 L 21.078,-1.50235 L 21.0846,-1.49657
 L 21.091,-1.49066 L 21.0973,-1.48466 L 21.1035,-1.47855 L 21.1097,-1.47232 L 21.1157,-1.46599 L 21.1216,-1.45956
 L 21.1273,-1.45302 L 21.133,-1.44638 L 21.1386,-1.43965 L 21.144,-1.43282 L 21.1493,-1.4259 L 21.1545,-1.41888
 L 21.1596,-1.41177 L 21.1645,-1.40459 L 21.1693,-1.39731 L 21.174,-1.38995 L 21.1786,-1.38251 L 21.183,-1.375
 L 21.1873,-1.3674 L 21.1915,-1.35973 L 21.1955,-1.35199 L 21.1994,-1.34418 L 21.2031,-1.3363 L 21.2068,-1.32835
 L 21.2103,-1.32036 L 21.2136,-1.3123 L 21.2168,-1.30418 L 21.2198,-1.29601 L 21.2227,-1.28778 L 21.2255,-1.2795
 L 21.2281,-1.27118 L 21.2306,-1.26282 L 21.233,-1.25439 L 21.2351,-1.24596 L 21.2372,-1.23747 L 21.2391,-1.22894
 L 21.2408,-1.2204 L 21.2424,-1.21182 L 21.2438,-1.20322 L 21.2451,-1.19458 L 21.2463,-1.18593 L 21.2473,-1.17726
 L 21.2481,-1.16856 L 21.2488,-1.15987 L 21.2493,-1.15115 L 21.2497,-1.14244 L 21.2499,-1.13371 L 21.25,-1.125
 L 21.2499,-1.11627 L 21.2497,-1.10754 L 21.2493,-1.09883 L 21.2488,-1.09012 L 21.2481,-1.08142 L 21.2473,-1.07272
 L 21.2463,-1.06406 L 21.2451,-1.0554 L 21.2438,-1.04677 L 21.2424,-1.03816 L 21.2408,-1.02959 L 21.2391,-1.02104
 L 21.2372,-1.01251 L 21.2351,-1.00403 L 21.233,-0.99559 L 21.2306,-0.987167 L 21.2281,-0.978806 L 21.2255,-0.97049
 L 21.2227,-0.962204 L 21.2198,-0.953979 L 21.2168,-0.945801 L 21.2136,-0.937683 L 21.2103,-0.929626 L 21.2068,-0.921631
 L 21.2031,-0.913681 L 21.1994,-0.905807 L 21.1955,-0.897995 L 21.1915,-0.890259 L 21.1873,-0.882584 L 21.183,-0.875
 L 21.1786,-0.867477 L 21.174,-0.860031 L 21.1693,-0.852676 L 21.1645,-0.845398 L 21.1596,-0.838211 L 21.1545,-0.8311
 L 21.1493,-0.824081 L 21.144,-0.817169 L 21.1386,-0.810333 L 21.133,-0.803604 L 21.1273,-0.796967 L 21.1216,-0.790421
 L 21.1157,-0.783997 L 21.1097,-0.777664 L 21.1035,-0.771439 L 21.0973,-0.76532 L 21.091,-0.759323 L 21.0846,-0.753418
 L 21.078,-0.747635 L 21.0714,-0.741974 L 21.0647,-0.73642 L 21.0578,-0.730988 L 21.0509,-0.725677 L 21.0439,-0.72049
 L 21.0368,-0.715424 L 21.0296,-0.71048 L 21.0223,-0.705658 L 21.015,-0.700974 L 21.0075,-0.696411 L 21,-0.691986
 L 20.9924,-0.687683 L 20.9847,-0.683517 L 20.977,-0.679489 L 20.9692,-0.675598 L 20.9613,-0.671844 L 20.9534,-0.668213
 L 20.9454,-0.664734 L 20.9373,-0.661407 L 20.9292,-0.658203 L 20.921,-0.655151 L 20.9128,-0.652237 L 20.9045,-0.64946
 L 20.8962,-0.646835 L 20.8878,-0.644363 L 20.8794,-0.642029 L 20.871,-0.639847 L 20.8625,-0.637802 L 20.8539,-0.635925
 L 20.8454,-0.634186 L 20.8368,-0.632584 L 20.8282,-0.631149 L 20.8196,-0.629852 L 20.8109,-0.628723 L 20.8023,-0.627731
 L 20.7936,-0.626892 L 20.7849,-0.626205 L 20.7762,-0.625671 L 20.7674,-0.62529 L 20.7587,-0.625061 L 20.75,-0.625
 z
M 24.875,-6.25 L 21.875,-6.25 L 21.875,-0.125 L 24.875,-0.125 z
" stroke="black" fill="lightgray" stroke-width="0.5"/>
</svg>
