<?xml version="1.0" standalone="no"?>
<!DOCTYPE svg PUBLIC "-//W3C//DTD SVG 1.1//EN" "http://www.w3.org/Graphics/SVG/1.1/DTD/svg11.dtd">
<svg width="3in" height="10in" viewBox="0 -10 3 10" xmlns="http://www.w3.org/2000/svg" version="1.1">
<title>OpenSCAD Model</title>
<path d="
M 3,-9.125 L 0,-9.125 L 0,-0 L 3,-0 z
M 1.99127,-0.500061 L 1.98254,-0.50029 L 1.97383,-0.500671 L 1.96512,-0.501205 L 1.95642,-0.501892 L 1.94772,-0.502731
 L 1.93906,-0.503723 L 1.9304,-0.504852 L 1.92177,-0.506149 L 1.91316,-0.507584 L 1.90459,-0.509186 L 1.89604,-0.510925
 L 1.88751,-0.512802 L 1.87903,-0.514847 L 1.87059,-0.517029 L 1.86217,-0.519363 L 1.85381,-0.521835 L 1.84549,-0.52446
 L 1.8372,-0.527237 L 1.82898,-0.530151 L 1.8208,-0.533203 L 1.81268,-0.536407 L 1.80463,-0.539734 L 1.79663,-0.543213
 L 1.78868,-0.546844 L 1.78081,-0.550598 L 1.77299,-0.554489 L 1.76526,-0.558517 L 1.75758,-0.562683 L 1.75,-0.566986
 L 1.74248,-0.571411 L 1.73503,-0.575974 L 1.72768,-0.580658 L 1.7204,-0.58548 L 1.71321,-0.590424 L 1.7061,-0.59549
 L 1.69908,-0.600677 L 1.69217,-0.605988 L 1.68533,-0.61142 L 1.6786,-0.616974 L 1.67197,-0.622635 L 1.66542,-0.628418
 L 1.659,-0.634323 L 1.65266,-0.64032 L 1.64644,-0.646439 L 1.64032,-0.652664 L 1.63432,-0.658997 L 1.62842,-0.665421
 L 1.62263,-0.671967 L 1.61697,-0.678604 L 1.61142,-0.685333 L 1.60599,-0.692169 L 1.60068,-0.699081 L 1.59549,-0.7061
 L 1.59042,-0.713211 L 1.58548,-0.720398 L 1.58066,-0.727676 L 1.57597,-0.735031 L 1.57141,-0.742477 L 1.56699,-0.75
 L 1.56268,-0.757584 L 1.55852,-0.765259 L 1.55449,-0.772995 L 1.5506,-0.780807 L 1.54684,-0.788681 L 1.54321,-0.796631
 L 1.53973,-0.804626 L 1.53641,-0.812683 L 1.5332,-0.820801 L 1.53015,-0.828979 L 1.52724,-0.837204 L 1.52446,-0.84549
 L 1.52184,-0.853806 L 1.51936,-0.862167 L 1.51703,-0.87059 L 1.51485,-0.879028 L 1.5128,-0.887512 L 1.51093,-0.896042
 L 1.50919,-0.904587 L 1.50758,-0.913162 L 1.50615,-0.921768 L 1.50485,-0.930405 L 1.50372,-0.939056 L 1.50273,-0.947723
 L 1.50189,-0.956421 L 1.50121,-0.965118 L 1.50067,-0.973831 L 1.50029,-0.982544 L 1.50006,-0.991272 L 1.5,-1
 L 1.50006,-1.00871 L 1.50029,-1.01744 L 1.50067,-1.02615 L 1.50121,-1.03487 L 1.50189,-1.04356 L 1.50273,-1.05226
 L 1.50372,-1.06093 L 1.50485,-1.06958 L 1.50615,-1.07822 L 1.50758,-1.08682 L 1.50919,-1.0954 L 1.51093,-1.10394
 L 1.5128,-1.11247 L 1.51485,-1.12096 L 1.51703,-1.12939 L 1.51936,-1.13782 L 1.52184,-1.14618 L 1.52446,-1.1545
 L 1.52724,-1.16278 L 1.53015,-1.17101 L 1.5332,-1.17918 L 1.53641,-1.1873 L 1.53973,-1.19536 L 1.54321,-1.20335
 L 1.54684,-1.2113 L 1.5506,-1.21918 L 1.55449,-1.22699 L 1.55852,-1.23473 L 1.56268,-1.2424 L 1.56699,-1.25
 L 1.57141,-1.25751 L 1.57597,-1.26495 L 1.58066,-1.27231 L 1.58548,-1.27959 L 1.59042,-1.28677 L 1.59549,-1.29388
 L 1.60068,-1.3009 L 1.60599,-1.30782 L 1.61142,-1.31465 L 1.61697,-1.32138 L 1.62263,-1.32802 L 1.62842,-1.33456
 L 1.63432,-1.34099 L 1.64032,-1.34732 L 1.64644,-1.35355 L 1.65266,-1.35966 L 1.659,-1.36566 L 1.66542,-1.37157
 L 1.67197,-1.37735 L 1.6786,-1.38301 L 1.68533,-1.38857 L 1.69217,-1.394 L 1.69908,-1.39931 L 1.7061,-1.4045
 L 1.71321,-1.40956 L 1.7204,-1.41451 L 1.72768,-1.41933 L 1.73503,-1.42401 L 1.74248,-1.42857 L 1.75,-1.433
 L 1.75758,-1.4373 L 1.76526,-1.44147 L 1.77299,-1.4455 L 1.78081,-1.44939 L 1.78868,-1.45314 L 1.79663,-1.45677
 L 1.80463,-1.46025 L 1.81268,-1.46358 L 1.8208,-1.46678 L 1.82898,-1.46983 L 1.8372,-1.47275 L 1.84549,-1.47552
 L 1.85381,-1.47815 L 1.86217,-1.48062 L 1.87059,-1.48296 L 1.87903,-1.48514 L 1.88751,-1.48718 L 1.89604,-1.48906
 L 1.90459,-1.4908 L 1.91316,-1.4924 L 1.92177,-1.49384 L 1.9304,-1.49513 L 1.93906,-1.49626 L 1.94772,-1.49725
 L 1.95642,-1.49809 L 1.96512,-1.49878 L 1.97383,-1.49931 L 1.98254,-1.49969 L 1.99127,-1.49992 L 2,-1.5
 L 2.00871,-1.49992 L 2.01744,-1.49969 L 2.02615,-1.49931 L 2.03487,-1.49878 L 2.04356,-1.49809 L 2.05226,-1.49725
 L 2.06093,-1.49626 L 2.06958,-1.49513 L 2.07822,-1.49384 L 2.08682,-1.4924 L 2.0954,-1.4908 L 2.10394,-1.48906
 L 2.11247,-1.48718 L 2.12096,-1.48514 L 2.12939,-1.48296 L 2.13782,-1.48062 L 2.14618,-1.47815 L 2.1545,-1.47552
 L 2.16278,-1.47275 L 2.17101,-1.46983 L 2.17918,-1.46678 L 2.1873,-1.46358 L 2.19536,-1.46025 L 2.20335,-1.45677
 L 2.2113,-1.45314 L 2.21918,-1.44939 L 2.22699,-1.4455 L 2.23473,-1.44147 L 2.2424,-1.4373 L 2.25,-1.433
 L 2.25751,-1.42857 L 2.26495,-1.42401 L 2.27231,-1.41933 L 2.27959,-1.41451 L 2.28677,-1.40956 L 2.29388,-1.4045
 L 2.3009,-1.39931 L 2.30782,-1.394 L 2.31465,-1.38857 L 2.32138,-1.38301 L 2.32802,-1.37735 L 2.33456,-1.37157
 L 2.34099,-1.36566 L 2.34732,-1.35966 L 2.35355,-1.35355 L 2.35966,-1.34732 L 2.36566,-1.34099 L 2.37157,-1.33456
 L 2.37735,-1.32802 L 2.38301,-1.32138 L 2.38857,-1.31465 L 2.394,-1.30782 L 2.39931,-1.3009 L 2.4045,-1.29388
 L 2.40956,-1.28677 L 2.41451,-1.27959 L 2.41933,-1.27231 L 2.42401,-1.26495 L 2.42857,-1.25751 L 2.433,-1.25
 L 2.4373,-1.2424 L 2.44147,-1.23473 L 2.4455,-1.22699 L 2.44939,-1.21918 L 2.45314,-1.2113 L 2.45677,-1.20335
 L 2.46025,-1.19536 L 2.46358,-1.1873 L 2.46678,-1.17918 L 2.46983,-1.17101 L 2.47275,-1.16278 L 2.47552,-1.1545
 L 2.47815,-1.14618 L 2.48062,-1.13782 L 2.48296,-1.12939 L 2.48514,-1.12096 L 2.48718,-1.11247 L 2.48906,-1.10394
 L 2.4908,-1.0954 L 2.4924,-1.08682 L 2.49384,-1.07822 L 2.49513,-1.06958 L 2.49626,-1.06093 L 2.49725,-1.05226
 L 2.49809,-1.04356 L 2.49878,-1.03487 L 2.49931,-1.02615 L 2.49969,-1.01744 L 2.49992,-1.00871 L 2.5,-1
 L 2.49992,-0.991272 L 2.49969,-0.982544 L 2.49931,-0.973831 L 2.49878,-0.965118 L 2.49809,-0.956421 L 2.49725,-0.947723
 L 2.49626,-0.939056 L 2.49513,-0.930405 L 2.49384,-0.921768 L 2.4924,-0.913162 L 2.4908,-0.904587 L 2.48906,-0.896042
 L 2.48718,-0.887512 L 2.48514,-0.879028 L 2.48296,-0.87059 L 2.48062,-0.862167 L 2.47815,-0.853806 L 2.47552,-0.84549
 L 2.47275,-0.837204 L 2.46983,-0.828979 L 2.46678,-0.820801 L 2.46358,-0.812683 L 2.46025,-0.804626 L 2.45677,-0.796631
 L 2.45314,-0.788681 L 2.44939,-0.780807 L 2.4455,-0.772995 L 2.44147,-0.765259 L 2.4373,-0.757584 L 2.433,-0.75
 L 2.42857,-0.742477 L 2.42401,-0.735031 L 2.41933,-0.727676 L 2.41451,-0.720398 L 2.40956,-0.713211 L 2.4045,-0.7061
 L 2.39931,-0.699081 L 2.394,-0.692169 L 2.38857,-0.685333 L 2.38301,-0.678604 L 2.37735,-0.671967 L 2.37157,-0.665421
 L 2.36566,-0.658997 L 2.35966,-0.652664 L 2.35355,-0.646439 L 2.34732,-0.64032 L 2.34099,-0.634323 L 2.33456,-0.628418
 L 2.32802,-0.622635 L 2.32138,-0.616974 L 2.31465,-0.61142 L 2.30782,-0.605988 L 2.3009,-0.600677 L 2.29388,-0.59549
 L 2.28677,-0.590424 L 2.27959,-0.58548 L 2.27231,-0.580658 L 2.26495,-0.575974 L 2.25751,-0.571411 L 2.25,-0.566986
 L 2.2424,-0.562683 L 2.23473,-0.558517 L 2.22699,-0.554489 L 2.21918,-0.550598 L 2.2113,-0.546844 L 2.20335,-0.543213
 L 2.19536,-0.539734 L 2.1873,-0.536407 L 2.17918,-0.533203 L 2.17101,-0.530151 L 2.16278,-0.527237 L 2.1545,-0.52446
 L 2.14618,-0.521835 L 2.13782,-0.519363 L 2.12939,-0.517029 L 2.12096,-0.514847 L 2.11247,-0.512802 L 2.10394,-0.510925
 L 2.0954,-0.509186 L 2.08682,-0.507584 L 2.07822,-0.506149 L 2.06958,-0.504852 L 2.06093,-0.503723 L 2.05226,-0.502731
 L 2.04356,-0.501892 L 2.03487,-0.501205 L 2.02615,-0.500671 L 2.01744,-0.50029 L 2.00871,-0.500061 L 2,-0.5
 z
" stroke="black" fill="lightgray" stroke-width="0.5"/>
</svg>
