<?xml version="1.0" standalone="no"?>
<!DOCTYPE svg PUBLIC "-//W3C//DTD SVG 1.1//EN" "http://www.w3.org/Graphics/SVG/1.1/DTD/svg11.dtd">
<svg width="9mm" height="6mm" viewBox="0 -3 9 6" xmlns="http://www.w3.org/2000/svg" version="1.1">
<title>OpenSCAD Model</title>
<path d="
M 9,-2.34999 L 8.99995,-2.35435 L 8.99985,-2.35872 L 8.99965,-2.36308 L 8.99939,-2.36743 L 8.99904,-2.37178
 L 8.99863,-2.37613 L 8.99812,-2.38046 L 8.99756,-2.38478 L 8.99692,-2.3891 L 8.9962,-2.3934 L 8.99539,-2.39769
 L 8.99452,-2.40198 L 8.99359,-2.40623 L 8.99257,-2.41048 L 8.99147,-2.4147 L 8.99031,-2.4189 L 8.98907,-2.42308
 L 8.98776,-2.42725 L 8.98637,-2.43138 L 8.98491,-2.4355 L 8.98338,-2.43959 L 8.98178,-2.44365 L 8.98012,-2.44768
 L 8.97838,-2.45168 L 8.97656,-2.45564 L 8.97469,-2.45958 L 8.97275,-2.46349 L 8.97073,-2.46736 L 8.96864,-2.47119
 L 8.96649,-2.47499 L 8.96428,-2.47874 L 8.96201,-2.48247 L 8.95966,-2.48615 L 8.95724,-2.48979 L 8.95477,-2.49339
 L 8.95224,-2.49693 L 8.94965,-2.50044 L 8.94699,-2.50391 L 8.94427,-2.50732 L 8.9415,-2.5107 L 8.93867,-2.51401
 L 8.93578,-2.51727 L 8.93283,-2.52049 L 8.92982,-2.52365 L 8.92677,-2.52676 L 8.92366,-2.52983 L 8.92049,-2.53284
 L 8.91728,-2.53578 L 8.914,-2.53867 L 8.91069,-2.5415 L 8.90732,-2.54428 L 8.9039,-2.547 L 8.90045,-2.54965
 L 8.89694,-2.55225 L 8.89339,-2.55478 L 8.88979,-2.55725 L 8.88615,-2.55966 L 8.88248,-2.56201 L 8.87875,-2.56429
 L 8.875,-2.5665 L 8.8712,-2.56865 L 8.86736,-2.57072 L 8.86349,-2.57274 L 8.85959,-2.57469 L 8.85565,-2.57657
 L 8.85167,-2.57838 L 8.84767,-2.58012 L 8.84364,-2.58179 L 8.83958,-2.58339 L 8.83549,-2.58492 L 8.83139,-2.58636
 L 8.82724,-2.58775 L 8.82309,-2.58907 L 8.81891,-2.5903 L 8.8147,-2.59148 L 8.81047,-2.59256 L 8.80623,-2.59358
 L 8.80197,-2.59453 L 8.7977,-2.5954 L 8.79341,-2.59619 L 8.78911,-2.59691 L 8.78479,-2.59756 L 8.78046,-2.59813
 L 8.77612,-2.59862 L 8.77177,-2.59904 L 8.76743,-2.59938 L 8.76308,-2.59966 L 8.75871,-2.59984 L 8.75435,-2.59996
 L 8.75,-2.59999 L 0.25,-2.59999 L 0.245636,-2.59996 L 0.241272,-2.59984 L 0.236908,-2.59966 L 0.232559,-2.59938
 L 0.22821,-2.59904 L 0.223862,-2.59862 L 0.219528,-2.59813 L 0.215195,-2.59756 L 0.210876,-2.59691 L 0.206573,-2.59619
 L 0.202286,-2.5954 L 0.198013,-2.59453 L 0.193756,-2.59358 L 0.189514,-2.59256 L 0.185287,-2.59148 L 0.181076,-2.5903
 L 0.176895,-2.58907 L 0.172745,-2.58775 L 0.168594,-2.58636 L 0.16449,-2.58492 L 0.1604,-2.58339 L 0.156342,-2.58179
 L 0.152313,-2.58012 L 0.148315,-2.57838 L 0.144333,-2.57657 L 0.140396,-2.57469 L 0.13649,-2.57274 L 0.132629,-2.57072
 L 0.128784,-2.56865 L 0.125,-2.5665 L 0.121231,-2.56429 L 0.117508,-2.56201 L 0.113831,-2.55966 L 0.110199,-2.55725
 L 0.106598,-2.55478 L 0.103043,-2.55225 L 0.0995331,-2.54965 L 0.0960846,-2.547 L 0.0926666,-2.54428 L 0.0892944,-2.5415
 L 0.0859833,-2.53867 L 0.0827026,-2.53578 L 0.0794983,-2.53284 L 0.0763245,-2.52983 L 0.0732117,-2.52676 L 0.0701599,-2.52365
 L 0.0671539,-2.52049 L 0.064209,-2.51727 L 0.0613098,-2.51401 L 0.0584869,-2.5107 L 0.0557098,-2.50732 L 0.0529938,-2.50391
 L 0.0503387,-2.50044 L 0.0477448,-2.49693 L 0.0452118,-2.49339 L 0.0427399,-2.48979 L 0.040329,-2.48615 L 0.0379791,-2.48247
 L 0.0357056,-2.47874 L 0.033493,-2.47499 L 0.0313416,-2.47119 L 0.0292511,-2.46736 L 0.0272369,-2.46349 L 0.0252991,-2.45958
 L 0.0234222,-2.45564 L 0.0216064,-2.45168 L 0.0198669,-2.44768 L 0.0182037,-2.44365 L 0.0166016,-2.43959 L 0.0150757,-2.4355
 L 0.0136108,-2.43138 L 0.0122223,-2.42725 L 0.01091,-2.42308 L 0.00967407,-2.4189 L 0.0085144,-2.4147 L 0.00741577,-2.41048
 L 0.00639343,-2.40623 L 0.00546265,-2.40198 L 0.0045929,-2.39769 L 0.00378418,-2.3934 L 0.00306702,-2.3891 L 0.00242615,-2.38478
 L 0.00186157,-2.38046 L 0.00135803,-2.37613 L 0.000946045,-2.37178 L 0.000595093,-2.36743 L 0.000335693,-2.36308 L 0.000137329,-2.35872
 L 3.05176e-05,-2.35435 L 0,-2.34999 L 0,-0.0999908 L 9,-0.0999908 z
M 9,0.349991 L 8.99995,0.345642 L 8.99985,0.341278 L 8.99965,0.336914 L 8.99939,0.332565 L 8.99904,0.328217
 L 8.99863,0.323868 L 8.99812,0.319534 L 8.99756,0.315201 L 8.99692,0.310883 L 8.9962,0.30658 L 8.99539,0.302292
 L 8.99452,0.298019 L 8.99359,0.293762 L 8.99257,0.28952 L 8.99147,0.285294 L 8.99031,0.281082 L 8.98907,0.276901
 L 8.98776,0.272751 L 8.98637,0.2686 L 8.98491,0.264496 L 8.98338,0.260406 L 8.98178,0.256348 L 8.98012,0.252319
 L 8.97838,0.248322 L 8.97656,0.244339 L 8.97469,0.240402 L 8.97275,0.236496 L 8.97073,0.232635 L 8.96864,0.22879
 L 8.96649,0.224991 L 8.96428,0.221237 L 8.96201,0.217514 L 8.95966,0.213837 L 8.95724,0.210205 L 8.95477,0.206604
 L 8.95224,0.203049 L 8.94965,0.199539 L 8.94699,0.196091 L 8.94427,0.192673 L 8.9415,0.189301 L 8.93867,0.185989
 L 8.93578,0.182709 L 8.93283,0.179504 L 8.92982,0.176331 L 8.92677,0.173218 L 8.92366,0.170166 L 8.92049,0.16716
 L 8.91728,0.164215 L 8.914,0.161316 L 8.91069,0.158493 L 8.90732,0.155716 L 8.9039,0.153 L 8.90045,0.150345
 L 8.89694,0.147751 L 8.89339,0.145218 L 8.88979,0.142746 L 8.88615,0.140335 L 8.88248,0.137985 L 8.87875,0.135712
 L 8.875,0.133499 L 8.8712,0.131348 L 8.86736,0.129257 L 8.86349,0.127243 L 8.85959,0.125305 L 8.85565,0.123428
 L 8.85167,0.121613 L 8.84767,0.119873 L 8.84364,0.11821 L 8.83958,0.116608 L 8.83549,0.115082 L 8.83139,0.113617
 L 8.82724,0.112228 L 8.82309,0.110916 L 8.81891,0.10968 L 8.8147,0.108521 L 8.81047,0.107422 L 8.80623,0.1064
 L 8.80197,0.105469 L 8.7977,0.104599 L 8.79341,0.10379 L 8.78911,0.103073 L 8.78479,0.102432 L 8.78046,0.101868
 L 8.77612,0.101364 L 8.77177,0.100952 L 8.76743,0.100601 L 8.76308,0.100342 L 8.75871,0.100143 L 8.75435,0.100037
 L 8.75,0.0999908 L 0.25,0.0999908 L 0.245636,0.100037 L 0.241272,0.100143 L 0.236908,0.100342 L 0.232559,0.100601
 L 0.22821,0.100952 L 0.223862,0.101364 L 0.219528,0.101868 L 0.215195,0.102432 L 0.210876,0.103073 L 0.206573,0.10379
 L 0.202286,0.104599 L 0.198013,0.105469 L 0.193756,0.1064 L 0.189514,0.107422 L 0.185287,0.108521 L 0.181076,0.10968
 L 0.176895,0.110916 L 0.172745,0.112228 L 0.168594,0.113617 L 0.16449,0.115082 L 0.1604,0.116608 L 0.156342,0.11821
 L 0.152313,0.119873 L 0.148315,0.121613 L 0.144333,0.123428 L 0.140396,0.125305 L 0.13649,0.127243 L 0.132629,0.129257
 L 0.128784,0.131348 L 0.125,0.133499 L 0.121231,0.135712 L 0.117508,0.137985 L 0.113831,0.140335 L 0.110199,0.142746
 L 0.106598,0.145218 L 0.103043,0.147751 L 0.0995331,0.150345 L 0.0960846,0.153 L 0.0926666,0.155716 L 0.0892944,0.158493
 L 0.0859833,0.161316 L 0.0827026,0.164215 L 0.0794983,0.16716 L 0.0763245,0.170166 L 0.0732117,0.173218 L 0.0701599,0.176331
 L 0.0671539,0.179504 L 0.064209,0.182709 L 0.0613098,0.185989 L 0.0584869,0.189301 L 0.0557098,0.192673 L 0.0529938,0.196091
 L 0.0503387,0.199539 L 0.0477448,0.203049 L 0.0452118,0.206604 L 0.0427399,0.210205 L 0.040329,0.213837 L 0.0379791,0.217514
 L 0.0357056,0.221237 L 0.033493,0.224991 L 0.0313416,0.22879 L 0.0292511,0.232635 L 0.0272369,0.236496 L 0.0252991,0.240402
 L 0.0234222,0.244339 L 0.0216064,0.248322 L 0.0198669,0.252319 L 0.0182037,0.256348 L 0.0166016,0.260406 L 0.0150757,0.264496
 L 0.0136108,0.2686 L 0.0122223,0.272751 L 0.01091,0.276901 L 0.00967407,0.281082 L 0.0085144,0.285294 L 0.00741577,0.28952
 L 0.00639343,0.293762 L 0.00546265,0.298019 L 0.0045929,0.302292 L 0.00378418,0.30658 L 0.00306702,0.310883 L 0.00242615,0.315201
 L 0.00186157,0.319534 L 0.00135803,0.323868 L 0.000946045,0.328217 L 0.000595093,0.332565 L 0.000335693,0.336914 L 0.000137329,0.341278
 L 3.05176e-05,0.345642 L 0,0.349991 L 0,2.59999 L 9,2.59999 z
M 0.625,2.34999 L 0.625,0.349991 L 8.375,0.349991 L 8.375,2.34999 z
" stroke="black" fill="lightgray" stroke-width="0.5"/>
</svg>
