<?xml version="1.0" standalone="no"?>
<!DOCTYPE svg PUBLIC "-//W3C//DTD SVG 1.1//EN" "http://www.w3.org/Graphics/SVG/1.1/DTD/svg11.dtd">
<svg width="2in" height="4in" viewBox="0 -4 2 4" xmlns="http://www.w3.org/2000/svg" version="1.1">
<title>OpenSCAD Model</title>
<path d="
M 0,-0.125 L 0.000986099,-0.109334 L 0.00392723,-0.093914 L 0.00877857,-0.0789852 L 0.0154619,-0.0647812 L 0.0238733,-0.051527
 L 0.0338793,-0.0394325 L 0.0453224,-0.0286865 L 0.0580225,-0.0194597 L 0.0717783,-0.0118971 L 0.0863733,-0.00611877 L 0.101578,-0.00221443
 L 0.117151,-0.000247002 L 1.495,-0.000247002 L 1.495,-0.0523031 L 1.49478,-0.0558778 L 1.4941,-0.0645772 L 1.49326,-0.0732642
 L 1.49227,-0.0819341 L 1.49113,-0.0905858 L 1.48984,-0.0992166 L 1.4884,-0.107823 L 1.48681,-0.116404 L 1.48507,-0.124955
 L 1.48318,-0.133475 L 1.48115,-0.14196 L 1.47896,-0.150409 L 1.47663,-0.158818 L 1.47415,-0.167185 L 1.47153,-0.175508
 L 1.46876,-0.183784 L 1.46585,-0.19201 L 1.46279,-0.200184 L 1.45959,-0.208303 L 1.45625,-0.216365 L 1.45277,-0.224368
 L 1.44915,-0.232308 L 1.4454,-0.240185 L 1.4415,-0.247995 L 1.43747,-0.255735 L 1.43331,-0.263404 L 1.42901,-0.271
 L 1.42458,-0.278519 L 1.42002,-0.285959 L 1.41533,-0.293319 L 1.41052,-0.300596 L 1.40558,-0.307788 L 1.40051,-0.314892
 L 1.39532,-0.321907 L 1.39,-0.32883 L 1.38457,-0.33566 L 1.37902,-0.342393 L 1.37335,-0.349029 L 1.36757,-0.355565
 L 1.36168,-0.361999 L 1.35567,-0.368329 L 1.34955,-0.374553 L 1.34333,-0.38067 L 1.337,-0.386676 L 1.33057,-0.392572
 L 1.32403,-0.398355 L 1.31739,-0.404021 L 1.31066,-0.409573 L 1.30383,-0.415005 L 1.29691,-0.420318 L 1.28989,-0.425508
 L 1.28279,-0.430575 L 1.2756,-0.435518 L 1.26832,-0.440334 L 1.26096,-0.445024 L 1.25352,-0.449583 L 1.246,-0.454012
 L 1.2384,-0.458309 L 1.23074,-0.462473 L 1.22299,-0.466503 L 1.21518,-0.470396 L 1.20731,-0.474154 L 1.19937,-0.477772
 L 1.19136,-0.481252 L 1.1833,-0.484592 L 1.17518,-0.48779 L 1.16701,-0.490846 L 1.15878,-0.493759 L 1.15051,-0.496528
 L 1.14218,-0.499152 L 1.13382,-0.50163 L 1.12541,-0.503963 L 1.11696,-0.506147 L 1.10848,-0.508185 L 1.09996,-0.510074
 L 1.0914,-0.511813 L 1.08282,-0.513403 L 1.07422,-0.514844 L 1.06559,-0.516133 L 1.05693,-0.517273 L 1.04826,-0.51826
 L 1.03958,-0.519096 L 1.03088,-0.519781 L 1.02217,-0.520314 L 1.01806,-0.520494 L 0.754302,-0.520494 L 0.723155,-0.524428
 L 0.692746,-0.532236 L 0.663555,-0.543794 L 0.636044,-0.558918 L 0.610644,-0.577372 L 0.587758,-0.598864 L 0.567746,-0.623054
 L 0.550923,-0.649562 L 0.537556,-0.677969 L 0.527854,-0.707828 L 0.521972,-0.738667 L 0.52,-0.77 L 0.52,-3.77875
 L 0.519783,-3.7804 L 0.519461,-3.78255 L 0.5191,-3.78471 L 0.518703,-3.78685 L 0.518268,-3.78899 L 0.517796,-3.79112
 L 0.517286,-3.79324 L 0.51674,-3.79535 L 0.516157,-3.79745 L 0.515537,-3.79955 L 0.514881,-3.80163 L 0.51419,-3.8037
 L 0.513461,-3.80575 L 0.512697,-3.8078 L 0.511897,-3.80983 L 0.511063,-3.81184 L 0.510193,-3.81384 L 0.509288,-3.81583
 L 0.508349,-3.8178 L 0.507376,-3.81975 L 0.506368,-3.82168 L 0.505327,-3.8236 L 0.504253,-3.8255 L 0.503145,-3.82738
 L 0.502006,-3.82924 L 0.500834,-3.83108 L 0.499629,-3.8329 L 0.498393,-3.8347 L 0.497127,-3.83647 L 0.495829,-3.83823
 L 0.494501,-3.83996 L 0.493143,-3.84166 L 0.491755,-3.84335 L 0.490338,-3.84501 L 0.488893,-3.84664 L 0.487418,-3.84825
 L 0.485917,-3.84983 L 0.484387,-3.85139 L 0.482832,-3.85292 L 0.481249,-3.85442 L 0.479641,-3.85589 L 0.478006,-3.85734
 L 0.476348,-3.85875 L 0.474665,-3.86014 L 0.472957,-3.8615 L 0.471227,-3.86283 L 0.469473,-3.86413 L 0.467696,-3.86539
 L 0.465899,-3.86663 L 0.464079,-3.86783 L 0.462239,-3.86901 L 0.46038,-3.87015 L 0.4585,-3.87125 L 0.4566,-3.87233
 L 0.454683,-3.87337 L 0.452748,-3.87438 L 0.450796,-3.87535 L 0.448827,-3.87629 L 0.446841,-3.87719 L 0.444841,-3.87806
 L 0.442825,-3.8789 L 0.440796,-3.8797 L 0.438752,-3.88046 L 0.436695,-3.88119 L 0.434627,-3.88188 L 0.432546,-3.88254
 L 0.430454,-3.88316 L 0.428351,-3.88374 L 0.42624,-3.88429 L 0.424118,-3.8848 L 0.421989,-3.88527 L 0.41985,-3.8857
 L 0.417706,-3.8861 L 0.415554,-3.88646 L 0.413396,-3.88678 L 0.411233,-3.88707 L 0.409065,-3.88731 L 0.406894,-3.88752
 L 0.404719,-3.88769 L 0.403778,-3.88775 L 0.117151,-3.88775 L 0.101578,-3.88579 L 0.0863733,-3.88188 L 0.0717783,-3.8761
 L 0.0580225,-3.86854 L 0.0453224,-3.85931 L 0.0338793,-3.84857 L 0.0238733,-3.83647 L 0.0154619,-3.82322 L 0.00877857,-3.80901
 L 0.00392723,-3.79409 L 0.000986099,-3.77867 L 0,-3.763 z
M 0.173499,-0.259999 L 0.173512,-0.261509 L 0.173553,-0.263019 L 0.173618,-0.264526 L 0.17371,-0.266033 L 0.173829,-0.267538
 L 0.173973,-0.269041 L 0.174145,-0.270541 L 0.174341,-0.272038 L 0.174564,-0.273531 L 0.174813,-0.27502 L 0.175089,-0.276505
 L 0.175389,-0.277984 L 0.175716,-0.279458 L 0.176069,-0.280926 L 0.176447,-0.282388 L 0.17685,-0.283842 L 0.177279,-0.28529
 L 0.177733,-0.28673 L 0.178212,-0.288161 L 0.178716,-0.289584 L 0.179245,-0.290998 L 0.179798,-0.292403 L 0.180376,-0.293797
 L 0.180978,-0.295182 L 0.181603,-0.296556 L 0.182254,-0.297918 L 0.182927,-0.29927 L 0.183624,-0.300609 L 0.184345,-0.301935
 L 0.185088,-0.303249 L 0.185855,-0.30455 L 0.186644,-0.305838 L 0.187454,-0.307111 L 0.188288,-0.30837 L 0.189143,-0.309614
 L 0.19002,-0.310843 L 0.190918,-0.312057 L 0.191836,-0.313254 L 0.192777,-0.314436 L 0.193737,-0.3156 L 0.194717,-0.316749
 L 0.195718,-0.31788 L 0.196737,-0.318993 L 0.197777,-0.320087 L 0.198834,-0.321164 L 0.199911,-0.322223 L 0.201007,-0.323261
 L 0.20212,-0.324282 L 0.203251,-0.325282 L 0.204398,-0.326262 L 0.205564,-0.327223 L 0.206745,-0.328162 L 0.207943,-0.329082
 L 0.209156,-0.32998 L 0.210385,-0.330856 L 0.211629,-0.331711 L 0.212889,-0.332544 L 0.214162,-0.333356 L 0.215448,-0.334145
 L 0.216749,-0.33491 L 0.218063,-0.335654 L 0.21939,-0.336374 L 0.220729,-0.337071 L 0.22208,-0.337746 L 0.223443,-0.338395
 L 0.224817,-0.339021 L 0.226201,-0.339623 L 0.227596,-0.340201 L 0.229001,-0.340755 L 0.230414,-0.341283 L 0.231838,-0.341787
 L 0.23327,-0.342266 L 0.23471,-0.34272 L 0.236156,-0.343148 L 0.237612,-0.343552 L 0.239074,-0.34393 L 0.240541,-0.344282
 L 0.242015,-0.344609 L 0.243495,-0.344911 L 0.244979,-0.345185 L 0.246468,-0.345434 L 0.247961,-0.345657 L 0.249457,-0.345855
 L 0.250957,-0.346025 L 0.25246,-0.34617 L 0.253965,-0.346289 L 0.255472,-0.346381 L 0.256981,-0.346447 L 0.25849,-0.346486
 L 0.259999,-0.346499 L 0.261509,-0.346486 L 0.263019,-0.346447 L 0.264526,-0.346381 L 0.266033,-0.346289 L 0.267538,-0.34617
 L 0.269041,-0.346025 L 0.270541,-0.345855 L 0.272038,-0.345657 L 0.273531,-0.345434 L 0.27502,-0.345185 L 0.276505,-0.344911
 L 0.277984,-0.344609 L 0.279458,-0.344282 L 0.280926,-0.34393 L 0.282388,-0.343552 L 0.283842,-0.343148 L 0.28529,-0.34272
 L 0.28673,-0.342266 L 0.288161,-0.341787 L 0.289584,-0.341283 L 0.290998,-0.340755 L 0.292403,-0.340201 L 0.293797,-0.339623
 L 0.295182,-0.339021 L 0.296556,-0.338395 L 0.297918,-0.337746 L 0.29927,-0.337071 L 0.300609,-0.336374 L 0.301935,-0.335654
 L 0.303249,-0.33491 L 0.30455,-0.334145 L 0.305838,-0.333356 L 0.307111,-0.332544 L 0.30837,-0.331711 L 0.309614,-0.330856
 L 0.310843,-0.32998 L 0.312057,-0.329082 L 0.313254,-0.328162 L 0.314436,-0.327223 L 0.3156,-0.326262 L 0.316749,-0.325282
 L 0.31788,-0.324282 L 0.318993,-0.323261 L 0.320087,-0.322223 L 0.321164,-0.321164 L 0.322223,-0.320087 L 0.323261,-0.318993
 L 0.324282,-0.31788 L 0.325282,-0.316749 L 0.326262,-0.3156 L 0.327223,-0.314436 L 0.328162,-0.313254 L 0.329082,-0.312057
 L 0.32998,-0.310843 L 0.330856,-0.309614 L 0.331711,-0.30837 L 0.332544,-0.307111 L 0.333356,-0.305838 L 0.334145,-0.30455
 L 0.33491,-0.303249 L 0.335654,-0.301935 L 0.336374,-0.300609 L 0.337071,-0.29927 L 0.337746,-0.297918 L 0.338395,-0.296556
 L 0.339021,-0.295182 L 0.339623,-0.293797 L 0.340201,-0.292403 L 0.340755,-0.290998 L 0.341283,-0.289584 L 0.341787,-0.288161
 L 0.342266,-0.28673 L 0.34272,-0.28529 L 0.343148,-0.283842 L 0.343552,-0.282388 L 0.34393,-0.280926 L 0.344282,-0.279458
 L 0.344609,-0.277984 L 0.344911,-0.276505 L 0.345185,-0.27502 L 0.345434,-0.273531 L 0.345657,-0.272038 L 0.345855,-0.270541
 L 0.346025,-0.269041 L 0.34617,-0.267538 L 0.346289,-0.266033 L 0.346381,-0.264526 L 0.346447,-0.263019 L 0.346486,-0.261509
 L 0.346499,-0.259999 L 0.346486,-0.25849 L 0.346447,-0.256981 L 0.346381,-0.255472 L 0.346289,-0.253965 L 0.34617,-0.25246
 L 0.346025,-0.250957 L 0.345855,-0.249457 L 0.345657,-0.247961 L 0.345434,-0.246468 L 0.345185,-0.244979 L 0.344911,-0.243495
 L 0.344609,-0.242015 L 0.344282,-0.240541 L 0.34393,-0.239074 L 0.343552,-0.237612 L 0.343148,-0.236156 L 0.34272,-0.23471
 L 0.342266,-0.23327 L 0.341787,-0.231838 L 0.341283,-0.230414 L 0.340755,-0.229001 L 0.340201,-0.227596 L 0.339623,-0.226201
 L 0.339021,-0.224817 L 0.338395,-0.223443 L 0.337746,-0.22208 L 0.337071,-0.220729 L 0.336374,-0.21939 L 0.335654,-0.218063
 L 0.33491,-0.216749 L 0.334145,-0.215448 L 0.333356,-0.214162 L 0.332544,-0.212889 L 0.331711,-0.211629 L 0.330856,-0.210385
 L 0.32998,-0.209156 L 0.329082,-0.207943 L 0.328162,-0.206745 L 0.327223,-0.205564 L 0.326262,-0.204398 L 0.325282,-0.203251
 L 0.324282,-0.20212 L 0.323261,-0.201007 L 0.322223,-0.199911 L 0.321164,-0.198834 L 0.320087,-0.197777 L 0.318993,-0.196737
 L 0.31788,-0.195718 L 0.316749,-0.194717 L 0.3156,-0.193737 L 0.314436,-0.192777 L 0.313254,-0.191836 L 0.312057,-0.190918
 L 0.310843,-0.19002 L 0.309614,-0.189143 L 0.30837,-0.188288 L 0.307111,-0.187454 L 0.305838,-0.186644 L 0.30455,-0.185855
 L 0.303249,-0.185088 L 0.301935,-0.184345 L 0.300609,-0.183624 L 0.29927,-0.182927 L 0.297918,-0.182254 L 0.296556,-0.181603
 L 0.295182,-0.180978 L 0.293797,-0.180376 L 0.292403,-0.179798 L 0.290998,-0.179245 L 0.289584,-0.178716 L 0.288161,-0.178212
 L 0.28673,-0.177733 L 0.28529,-0.177279 L 0.283842,-0.17685 L 0.282388,-0.176447 L 0.280926,-0.176069 L 0.279458,-0.175716
 L 0.277984,-0.175389 L 0.276505,-0.175089 L 0.27502,-0.174813 L 0.273531,-0.174564 L 0.272038,-0.174341 L 0.270541,-0.174145
 L 0.269041,-0.173973 L 0.267538,-0.173829 L 0.266033,-0.17371 L 0.264526,-0.173618 L 0.263019,-0.173553 L 0.261509,-0.173512
 L 0.259999,-0.173499 L 0.25849,-0.173512 L 0.256981,-0.173553 L 0.255472,-0.173618 L 0.253965,-0.17371 L 0.25246,-0.173829
 L 0.250957,-0.173973 L 0.249457,-0.174145 L 0.247961,-0.174341 L 0.246468,-0.174564 L 0.244979,-0.174813 L 0.243495,-0.175089
 L 0.242015,-0.175389 L 0.240541,-0.175716 L 0.239074,-0.176069 L 0.237612,-0.176447 L 0.236156,-0.17685 L 0.23471,-0.177279
 L 0.23327,-0.177733 L 0.231838,-0.178212 L 0.230414,-0.178716 L 0.229001,-0.179245 L 0.227596,-0.179798 L 0.226201,-0.180376
 L 0.224817,-0.180978 L 0.223443,-0.181603 L 0.22208,-0.182254 L 0.220729,-0.182927 L 0.21939,-0.183624 L 0.218063,-0.184345
 L 0.216749,-0.185088 L 0.215448,-0.185855 L 0.214162,-0.186644 L 0.212889,-0.187454 L 0.211629,-0.188288 L 0.210385,-0.189143
 L 0.209156,-0.19002 L 0.207943,-0.190918 L 0.206745,-0.191836 L 0.205564,-0.192777 L 0.204398,-0.193737 L 0.203251,-0.194717
 L 0.20212,-0.195718 L 0.201007,-0.196737 L 0.199911,-0.197777 L 0.198834,-0.198834 L 0.197777,-0.199911 L 0.196737,-0.201007
 L 0.195718,-0.20212 L 0.194717,-0.203251 L 0.193737,-0.204398 L 0.192777,-0.205564 L 0.191836,-0.206745 L 0.190918,-0.207943
 L 0.19002,-0.209156 L 0.189143,-0.210385 L 0.188288,-0.211629 L 0.187454,-0.212889 L 0.186644,-0.214162 L 0.185855,-0.215448
 L 0.185088,-0.216749 L 0.184345,-0.218063 L 0.183624,-0.21939 L 0.182927,-0.220729 L 0.182254,-0.22208 L 0.181603,-0.223443
 L 0.180978,-0.224817 L 0.180376,-0.226201 L 0.179798,-0.227596 L 0.179245,-0.229001 L 0.178716,-0.230414 L 0.178212,-0.231838
 L 0.177733,-0.23327 L 0.177279,-0.23471 L 0.17685,-0.236156 L 0.176447,-0.237612 L 0.176069,-0.239074 L 0.175716,-0.240541
 L 0.175389,-0.242015 L 0.175089,-0.243495 L 0.174813,-0.244979 L 0.174564,-0.246468 L 0.174341,-0.247961 L 0.174145,-0.249457
 L 0.173973,-0.250957 L 0.173829,-0.25246 L 0.17371,-0.253965 L 0.173618,-0.255472 L 0.173553,-0.256981 L 0.173512,-0.25849
 z
M 0.173499,-1.944 L 0.173512,-1.94551 L 0.173553,-1.94702 L 0.173618,-1.94853 L 0.17371,-1.95003 L 0.173829,-1.95154
 L 0.173973,-1.95304 L 0.174145,-1.95454 L 0.174341,-1.95604 L 0.174564,-1.95753 L 0.174813,-1.95902 L 0.175089,-1.9605
 L 0.175389,-1.96198 L 0.175716,-1.96346 L 0.176069,-1.96493 L 0.176447,-1.96639 L 0.17685,-1.96784 L 0.177279,-1.96929
 L 0.177733,-1.97073 L 0.178212,-1.97216 L 0.178716,-1.97358 L 0.179245,-1.975 L 0.179798,-1.9764 L 0.180376,-1.9778
 L 0.180978,-1.97918 L 0.181603,-1.98056 L 0.182254,-1.98192 L 0.182927,-1.98327 L 0.183624,-1.98461 L 0.184345,-1.98594
 L 0.185088,-1.98725 L 0.185855,-1.98855 L 0.186644,-1.98984 L 0.187454,-1.99111 L 0.188288,-1.99237 L 0.189143,-1.99361
 L 0.19002,-1.99484 L 0.190918,-1.99606 L 0.191836,-1.99725 L 0.192777,-1.99844 L 0.193737,-1.9996 L 0.194717,-2.00075
 L 0.195718,-2.00188 L 0.196737,-2.00299 L 0.197777,-2.00409 L 0.198834,-2.00516 L 0.199911,-2.00622 L 0.201007,-2.00726
 L 0.20212,-2.00828 L 0.203251,-2.00928 L 0.204398,-2.01026 L 0.205564,-2.01122 L 0.206745,-2.01216 L 0.207943,-2.01308
 L 0.209156,-2.01398 L 0.210385,-2.01486 L 0.211629,-2.01571 L 0.212889,-2.01654 L 0.214162,-2.01736 L 0.215448,-2.01814
 L 0.216749,-2.01891 L 0.218063,-2.01965 L 0.21939,-2.02037 L 0.220729,-2.02107 L 0.22208,-2.02175 L 0.223443,-2.0224
 L 0.224817,-2.02302 L 0.226201,-2.02362 L 0.227596,-2.0242 L 0.229001,-2.02475 L 0.230414,-2.02528 L 0.231838,-2.02579
 L 0.23327,-2.02627 L 0.23471,-2.02672 L 0.236156,-2.02715 L 0.237612,-2.02755 L 0.239074,-2.02793 L 0.240541,-2.02828
 L 0.242015,-2.02861 L 0.243495,-2.02891 L 0.244979,-2.02919 L 0.246468,-2.02943 L 0.247961,-2.02966 L 0.249457,-2.02985
 L 0.250957,-2.03003 L 0.25246,-2.03017 L 0.253965,-2.03029 L 0.255472,-2.03038 L 0.256981,-2.03045 L 0.25849,-2.03049
 L 0.259999,-2.0305 L 0.261509,-2.03049 L 0.263019,-2.03045 L 0.264526,-2.03038 L 0.266033,-2.03029 L 0.267538,-2.03017
 L 0.269041,-2.03003 L 0.270541,-2.02985 L 0.272038,-2.02966 L 0.273531,-2.02943 L 0.27502,-2.02919 L 0.276505,-2.02891
 L 0.277984,-2.02861 L 0.279458,-2.02828 L 0.280926,-2.02793 L 0.282388,-2.02755 L 0.283842,-2.02715 L 0.28529,-2.02672
 L 0.28673,-2.02627 L 0.288161,-2.02579 L 0.289584,-2.02528 L 0.290998,-2.02475 L 0.292403,-2.0242 L 0.293797,-2.02362
 L 0.295182,-2.02302 L 0.296556,-2.0224 L 0.297918,-2.02175 L 0.29927,-2.02107 L 0.300609,-2.02037 L 0.301935,-2.01965
 L 0.303249,-2.01891 L 0.30455,-2.01814 L 0.305838,-2.01736 L 0.307111,-2.01654 L 0.30837,-2.01571 L 0.309614,-2.01486
 L 0.310843,-2.01398 L 0.312057,-2.01308 L 0.313254,-2.01216 L 0.314436,-2.01122 L 0.3156,-2.01026 L 0.316749,-2.00928
 L 0.31788,-2.00828 L 0.318993,-2.00726 L 0.320087,-2.00622 L 0.321164,-2.00516 L 0.322223,-2.00409 L 0.323261,-2.00299
 L 0.324282,-2.00188 L 0.325282,-2.00075 L 0.326262,-1.9996 L 0.327223,-1.99844 L 0.328162,-1.99725 L 0.329082,-1.99606
 L 0.32998,-1.99484 L 0.330856,-1.99361 L 0.331711,-1.99237 L 0.332544,-1.99111 L 0.333356,-1.98984 L 0.334145,-1.98855
 L 0.33491,-1.98725 L 0.335654,-1.98594 L 0.336374,-1.98461 L 0.337071,-1.98327 L 0.337746,-1.98192 L 0.338395,-1.98056
 L 0.339021,-1.97918 L 0.339623,-1.9778 L 0.340201,-1.9764 L 0.340755,-1.975 L 0.341283,-1.97358 L 0.341787,-1.97216
 L 0.342266,-1.97073 L 0.34272,-1.96929 L 0.343148,-1.96784 L 0.343552,-1.96639 L 0.34393,-1.96493 L 0.344282,-1.96346
 L 0.344609,-1.96198 L 0.344911,-1.9605 L 0.345185,-1.95902 L 0.345434,-1.95753 L 0.345657,-1.95604 L 0.345855,-1.95454
 L 0.346025,-1.95304 L 0.34617,-1.95154 L 0.346289,-1.95003 L 0.346381,-1.94853 L 0.346447,-1.94702 L 0.346486,-1.94551
 L 0.346499,-1.944 L 0.346486,-1.94249 L 0.346447,-1.94098 L 0.346381,-1.93947 L 0.346289,-1.93797 L 0.34617,-1.93646
 L 0.346025,-1.93496 L 0.345855,-1.93346 L 0.345657,-1.93196 L 0.345434,-1.93047 L 0.345185,-1.92898 L 0.344911,-1.9275
 L 0.344609,-1.92601 L 0.344282,-1.92454 L 0.34393,-1.92307 L 0.343552,-1.92161 L 0.343148,-1.92016 L 0.34272,-1.91871
 L 0.342266,-1.91727 L 0.341787,-1.91584 L 0.341283,-1.91441 L 0.340755,-1.913 L 0.340201,-1.9116 L 0.339623,-1.9102
 L 0.339021,-1.90882 L 0.338395,-1.90744 L 0.337746,-1.90608 L 0.337071,-1.90473 L 0.336374,-1.90339 L 0.335654,-1.90206
 L 0.33491,-1.90075 L 0.334145,-1.89945 L 0.333356,-1.89816 L 0.332544,-1.89689 L 0.331711,-1.89563 L 0.330856,-1.89439
 L 0.32998,-1.89316 L 0.329082,-1.89194 L 0.328162,-1.89075 L 0.327223,-1.88956 L 0.326262,-1.8884 L 0.325282,-1.88725
 L 0.324282,-1.88612 L 0.323261,-1.88501 L 0.322223,-1.88391 L 0.321164,-1.88283 L 0.320087,-1.88178 L 0.318993,-1.88074
 L 0.31788,-1.87972 L 0.316749,-1.87872 L 0.3156,-1.87774 L 0.314436,-1.87678 L 0.313254,-1.87584 L 0.312057,-1.87492
 L 0.310843,-1.87402 L 0.309614,-1.87314 L 0.30837,-1.87229 L 0.307111,-1.87145 L 0.305838,-1.87064 L 0.30455,-1.86985
 L 0.303249,-1.86909 L 0.301935,-1.86835 L 0.300609,-1.86762 L 0.29927,-1.86693 L 0.297918,-1.86625 L 0.296556,-1.8656
 L 0.295182,-1.86498 L 0.293797,-1.86438 L 0.292403,-1.8638 L 0.290998,-1.86325 L 0.289584,-1.86272 L 0.288161,-1.86221
 L 0.28673,-1.86173 L 0.28529,-1.86128 L 0.283842,-1.86085 L 0.282388,-1.86045 L 0.280926,-1.86007 L 0.279458,-1.85972
 L 0.277984,-1.85939 L 0.276505,-1.85909 L 0.27502,-1.85881 L 0.273531,-1.85856 L 0.272038,-1.85834 L 0.270541,-1.85814
 L 0.269041,-1.85797 L 0.267538,-1.85783 L 0.266033,-1.85771 L 0.264526,-1.85762 L 0.263019,-1.85755 L 0.261509,-1.85751
 L 0.259999,-1.8575 L 0.25849,-1.85751 L 0.256981,-1.85755 L 0.255472,-1.85762 L 0.253965,-1.85771 L 0.25246,-1.85783
 L 0.250957,-1.85797 L 0.249457,-1.85814 L 0.247961,-1.85834 L 0.246468,-1.85856 L 0.244979,-1.85881 L 0.243495,-1.85909
 L 0.242015,-1.85939 L 0.240541,-1.85972 L 0.239074,-1.86007 L 0.237612,-1.86045 L 0.236156,-1.86085 L 0.23471,-1.86128
 L 0.23327,-1.86173 L 0.231838,-1.86221 L 0.230414,-1.86272 L 0.229001,-1.86325 L 0.227596,-1.8638 L 0.226201,-1.86438
 L 0.224817,-1.86498 L 0.223443,-1.8656 L 0.22208,-1.86625 L 0.220729,-1.86693 L 0.21939,-1.86762 L 0.218063,-1.86835
 L 0.216749,-1.86909 L 0.215448,-1.86985 L 0.214162,-1.87064 L 0.212889,-1.87145 L 0.211629,-1.87229 L 0.210385,-1.87314
 L 0.209156,-1.87402 L 0.207943,-1.87492 L 0.206745,-1.87584 L 0.205564,-1.87678 L 0.204398,-1.87774 L 0.203251,-1.87872
 L 0.20212,-1.87972 L 0.201007,-1.88074 L 0.199911,-1.88178 L 0.198834,-1.88283 L 0.197777,-1.88391 L 0.196737,-1.88501
 L 0.195718,-1.88612 L 0.194717,-1.88725 L 0.193737,-1.8884 L 0.192777,-1.88956 L 0.191836,-1.89075 L 0.190918,-1.89194
 L 0.19002,-1.89316 L 0.189143,-1.89439 L 0.188288,-1.89563 L 0.187454,-1.89689 L 0.186644,-1.89816 L 0.185855,-1.89945
 L 0.185088,-1.90075 L 0.184345,-1.90206 L 0.183624,-1.90339 L 0.182927,-1.90473 L 0.182254,-1.90608 L 0.181603,-1.90744
 L 0.180978,-1.90882 L 0.180376,-1.9102 L 0.179798,-1.9116 L 0.179245,-1.913 L 0.178716,-1.91441 L 0.178212,-1.91584
 L 0.177733,-1.91727 L 0.177279,-1.91871 L 0.17685,-1.92016 L 0.176447,-1.92161 L 0.176069,-1.92307 L 0.175716,-1.92454
 L 0.175389,-1.92601 L 0.175089,-1.9275 L 0.174813,-1.92898 L 0.174564,-1.93047 L 0.174341,-1.93196 L 0.174145,-1.93346
 L 0.173973,-1.93496 L 0.173829,-1.93646 L 0.17371,-1.93797 L 0.173618,-1.93947 L 0.173553,-1.94098 L 0.173512,-1.94249
 z
M 0.173499,-3.26 L 0.173512,-3.26151 L 0.173553,-3.26302 L 0.173618,-3.26453 L 0.17371,-3.26603 L 0.173829,-3.26754
 L 0.173973,-3.26904 L 0.174145,-3.27054 L 0.174341,-3.27204 L 0.174564,-3.27353 L 0.174813,-3.27502 L 0.175089,-3.2765
 L 0.175389,-3.27798 L 0.175716,-3.27946 L 0.176069,-3.28093 L 0.176447,-3.28239 L 0.17685,-3.28384 L 0.177279,-3.28529
 L 0.177733,-3.28673 L 0.178212,-3.28816 L 0.178716,-3.28958 L 0.179245,-3.291 L 0.179798,-3.2924 L 0.180376,-3.2938
 L 0.180978,-3.29518 L 0.181603,-3.29656 L 0.182254,-3.29792 L 0.182927,-3.29927 L 0.183624,-3.30061 L 0.184345,-3.30194
 L 0.185088,-3.30325 L 0.185855,-3.30455 L 0.186644,-3.30584 L 0.187454,-3.30711 L 0.188288,-3.30837 L 0.189143,-3.30961
 L 0.19002,-3.31084 L 0.190918,-3.31206 L 0.191836,-3.31325 L 0.192777,-3.31444 L 0.193737,-3.3156 L 0.194717,-3.31675
 L 0.195718,-3.31788 L 0.196737,-3.31899 L 0.197777,-3.32009 L 0.198834,-3.32116 L 0.199911,-3.32222 L 0.201007,-3.32326
 L 0.20212,-3.32428 L 0.203251,-3.32528 L 0.204398,-3.32626 L 0.205564,-3.32722 L 0.206745,-3.32816 L 0.207943,-3.32908
 L 0.209156,-3.32998 L 0.210385,-3.33086 L 0.211629,-3.33171 L 0.212889,-3.33254 L 0.214162,-3.33336 L 0.215448,-3.33414
 L 0.216749,-3.33491 L 0.218063,-3.33565 L 0.21939,-3.33637 L 0.220729,-3.33707 L 0.22208,-3.33775 L 0.223443,-3.3384
 L 0.224817,-3.33902 L 0.226201,-3.33962 L 0.227596,-3.3402 L 0.229001,-3.34075 L 0.230414,-3.34128 L 0.231838,-3.34179
 L 0.23327,-3.34227 L 0.23471,-3.34272 L 0.236156,-3.34315 L 0.237612,-3.34355 L 0.239074,-3.34393 L 0.240541,-3.34428
 L 0.242015,-3.34461 L 0.243495,-3.34491 L 0.244979,-3.34519 L 0.246468,-3.34543 L 0.247961,-3.34566 L 0.249457,-3.34585
 L 0.250957,-3.34603 L 0.25246,-3.34617 L 0.253965,-3.34629 L 0.255472,-3.34638 L 0.256981,-3.34645 L 0.25849,-3.34649
 L 0.259999,-3.3465 L 0.261509,-3.34649 L 0.263019,-3.34645 L 0.264526,-3.34638 L 0.266033,-3.34629 L 0.267538,-3.34617
 L 0.269041,-3.34603 L 0.270541,-3.34585 L 0.272038,-3.34566 L 0.273531,-3.34543 L 0.27502,-3.34519 L 0.276505,-3.34491
 L 0.277984,-3.34461 L 0.279458,-3.34428 L 0.280926,-3.34393 L 0.282388,-3.34355 L 0.283842,-3.34315 L 0.28529,-3.34272
 L 0.28673,-3.34227 L 0.288161,-3.34179 L 0.289584,-3.34128 L 0.290998,-3.34075 L 0.292403,-3.3402 L 0.293797,-3.33962
 L 0.295182,-3.33902 L 0.296556,-3.3384 L 0.297918,-3.33775 L 0.29927,-3.33707 L 0.300609,-3.33637 L 0.301935,-3.33565
 L 0.303249,-3.33491 L 0.30455,-3.33414 L 0.305838,-3.33336 L 0.307111,-3.33254 L 0.30837,-3.33171 L 0.309614,-3.33086
 L 0.310843,-3.32998 L 0.312057,-3.32908 L 0.313254,-3.32816 L 0.314436,-3.32722 L 0.3156,-3.32626 L 0.316749,-3.32528
 L 0.31788,-3.32428 L 0.318993,-3.32326 L 0.320087,-3.32222 L 0.321164,-3.32116 L 0.322223,-3.32009 L 0.323261,-3.31899
 L 0.324282,-3.31788 L 0.325282,-3.31675 L 0.326262,-3.3156 L 0.327223,-3.31444 L 0.328162,-3.31325 L 0.329082,-3.31206
 L 0.32998,-3.31084 L 0.330856,-3.30961 L 0.331711,-3.30837 L 0.332544,-3.30711 L 0.333356,-3.30584 L 0.334145,-3.30455
 L 0.33491,-3.30325 L 0.335654,-3.30194 L 0.336374,-3.30061 L 0.337071,-3.29927 L 0.337746,-3.29792 L 0.338395,-3.29656
 L 0.339021,-3.29518 L 0.339623,-3.2938 L 0.340201,-3.2924 L 0.340755,-3.291 L 0.341283,-3.28958 L 0.341787,-3.28816
 L 0.342266,-3.28673 L 0.34272,-3.28529 L 0.343148,-3.28384 L 0.343552,-3.28239 L 0.34393,-3.28093 L 0.344282,-3.27946
 L 0.344609,-3.27798 L 0.344911,-3.2765 L 0.345185,-3.27502 L 0.345434,-3.27353 L 0.345657,-3.27204 L 0.345855,-3.27054
 L 0.346025,-3.26904 L 0.34617,-3.26754 L 0.346289,-3.26603 L 0.346381,-3.26453 L 0.346447,-3.26302 L 0.346486,-3.26151
 L 0.346499,-3.26 L 0.346486,-3.25849 L 0.346447,-3.25698 L 0.346381,-3.25547 L 0.346289,-3.25397 L 0.34617,-3.25246
 L 0.346025,-3.25096 L 0.345855,-3.24946 L 0.345657,-3.24796 L 0.345434,-3.24647 L 0.345185,-3.24498 L 0.344911,-3.24349
 L 0.344609,-3.24201 L 0.344282,-3.24054 L 0.34393,-3.23907 L 0.343552,-3.23761 L 0.343148,-3.23616 L 0.34272,-3.23471
 L 0.342266,-3.23327 L 0.341787,-3.23184 L 0.341283,-3.23041 L 0.340755,-3.229 L 0.340201,-3.2276 L 0.339623,-3.2262
 L 0.339021,-3.22482 L 0.338395,-3.22344 L 0.337746,-3.22208 L 0.337071,-3.22073 L 0.336374,-3.21939 L 0.335654,-3.21806
 L 0.33491,-3.21675 L 0.334145,-3.21545 L 0.333356,-3.21416 L 0.332544,-3.21289 L 0.331711,-3.21163 L 0.330856,-3.21039
 L 0.32998,-3.20916 L 0.329082,-3.20794 L 0.328162,-3.20675 L 0.327223,-3.20556 L 0.326262,-3.2044 L 0.325282,-3.20325
 L 0.324282,-3.20212 L 0.323261,-3.20101 L 0.322223,-3.19991 L 0.321164,-3.19883 L 0.320087,-3.19778 L 0.318993,-3.19674
 L 0.31788,-3.19572 L 0.316749,-3.19472 L 0.3156,-3.19374 L 0.314436,-3.19278 L 0.313254,-3.19184 L 0.312057,-3.19092
 L 0.310843,-3.19002 L 0.309614,-3.18914 L 0.30837,-3.18829 L 0.307111,-3.18745 L 0.305838,-3.18664 L 0.30455,-3.18585
 L 0.303249,-3.18509 L 0.301935,-3.18435 L 0.300609,-3.18362 L 0.29927,-3.18293 L 0.297918,-3.18225 L 0.296556,-3.1816
 L 0.295182,-3.18098 L 0.293797,-3.18038 L 0.292403,-3.1798 L 0.290998,-3.17924 L 0.289584,-3.17872 L 0.288161,-3.17821
 L 0.28673,-3.17773 L 0.28529,-3.17728 L 0.283842,-3.17685 L 0.282388,-3.17645 L 0.280926,-3.17607 L 0.279458,-3.17572
 L 0.277984,-3.17539 L 0.276505,-3.17509 L 0.27502,-3.17481 L 0.273531,-3.17456 L 0.272038,-3.17434 L 0.270541,-3.17414
 L 0.269041,-3.17397 L 0.267538,-3.17383 L 0.266033,-3.17371 L 0.264526,-3.17362 L 0.263019,-3.17355 L 0.261509,-3.17351
 L 0.259999,-3.1735 L 0.25849,-3.17351 L 0.256981,-3.17355 L 0.255472,-3.17362 L 0.253965,-3.17371 L 0.25246,-3.17383
 L 0.250957,-3.17397 L 0.249457,-3.17414 L 0.247961,-3.17434 L 0.246468,-3.17456 L 0.244979,-3.17481 L 0.243495,-3.17509
 L 0.242015,-3.17539 L 0.240541,-3.17572 L 0.239074,-3.17607 L 0.237612,-3.17645 L 0.236156,-3.17685 L 0.23471,-3.17728
 L 0.23327,-3.17773 L 0.231838,-3.17821 L 0.230414,-3.17872 L 0.229001,-3.17924 L 0.227596,-3.1798 L 0.226201,-3.18038
 L 0.224817,-3.18098 L 0.223443,-3.1816 L 0.22208,-3.18225 L 0.220729,-3.18293 L 0.21939,-3.18362 L 0.218063,-3.18435
 L 0.216749,-3.18509 L 0.215448,-3.18585 L 0.214162,-3.18664 L 0.212889,-3.18745 L 0.211629,-3.18829 L 0.210385,-3.18914
 L 0.209156,-3.19002 L 0.207943,-3.19092 L 0.206745,-3.19184 L 0.205564,-3.19278 L 0.204398,-3.19374 L 0.203251,-3.19472
 L 0.20212,-3.19572 L 0.201007,-3.19674 L 0.199911,-3.19778 L 0.198834,-3.19883 L 0.197777,-3.19991 L 0.196737,-3.20101
 L 0.195718,-3.20212 L 0.194717,-3.20325 L 0.193737,-3.2044 L 0.192777,-3.20556 L 0.191836,-3.20675 L 0.190918,-3.20794
 L 0.19002,-3.20916 L 0.189143,-3.21039 L 0.188288,-3.21163 L 0.187454,-3.21289 L 0.186644,-3.21416 L 0.185855,-3.21545
 L 0.185088,-3.21675 L 0.184345,-3.21806 L 0.183624,-3.21939 L 0.182927,-3.22073 L 0.182254,-3.22208 L 0.181603,-3.22344
 L 0.180978,-3.22482 L 0.180376,-3.2262 L 0.179798,-3.2276 L 0.179245,-3.229 L 0.178716,-3.23041 L 0.178212,-3.23184
 L 0.177733,-3.23327 L 0.177279,-3.23471 L 0.17685,-3.23616 L 0.176447,-3.23761 L 0.176069,-3.23907 L 0.175716,-3.24054
 L 0.175389,-3.24201 L 0.175089,-3.24349 L 0.174813,-3.24498 L 0.174564,-3.24647 L 0.174341,-3.24796 L 0.174145,-3.24946
 L 0.173973,-3.25096 L 0.173829,-3.25246 L 0.17371,-3.25397 L 0.173618,-3.25547 L 0.173553,-3.25698 L 0.173512,-3.25849
 z
" stroke="black" fill="lightgray" stroke-width="0.001"/>
</svg>
