<?xml version="1.0" standalone="no"?>
<!DOCTYPE svg PUBLIC "-//W3C//DTD SVG 1.1//EN" "http://www.w3.org/Graphics/SVG/1.1/DTD/svg11.dtd">
<svg width="4in" height="4in" viewBox="0 -4 4 4" xmlns="http://www.w3.org/2000/svg" version="1.1">
<title>OpenSCAD Model</title>
<path d="
M 0,-0.125 L 0.000986099,-0.109334 L 0.00392723,-0.093914 L 0.00877857,-0.0789852 L 0.0154619,-0.0647812 L 0.0238733,-0.051527
 L 0.0338793,-0.0394325 L 0.0453224,-0.0286865 L 0.0580225,-0.0194597 L 0.0717783,-0.0118971 L 0.0863733,-0.00611877 L 0.101578,-0.00221443
 L 0.117151,-0.000247002 L 3.12285,-0.000247002 L 3.13842,-0.00221443 L 3.15363,-0.00611877 L 3.16822,-0.0118971 L 3.18198,-0.0194597
 L 3.19468,-0.0286865 L 3.20612,-0.0394325 L 3.21613,-0.051527 L 3.22454,-0.0647812 L 3.23122,-0.0789852 L 3.23607,-0.093914
 L 3.23901,-0.109334 L 3.24,-0.125 L 3.24,-3.395 L 3.23901,-3.41067 L 3.23607,-3.42609 L 3.23122,-3.44101
 L 3.22454,-3.45522 L 3.21613,-3.46847 L 3.20612,-3.48057 L 3.19468,-3.49131 L 3.18198,-3.50054 L 3.16822,-3.5081
 L 3.15363,-3.51388 L 3.13842,-3.51779 L 3.12285,-3.51975 L 1.92372,-3.51975 L 1.92278,-3.51969 L 1.92061,-3.51952
 L 1.91843,-3.51931 L 1.91627,-3.51907 L 1.9141,-3.51878 L 1.91194,-3.51846 L 1.90979,-3.5181 L 1.90765,-3.5177
 L 1.90551,-3.51727 L 1.90338,-3.5168 L 1.90126,-3.51629 L 1.89915,-3.51574 L 1.89704,-3.51516 L 1.89495,-3.51454
 L 1.89287,-3.51388 L 1.8908,-3.51319 L 1.88875,-3.51246 L 1.8867,-3.5117 L 1.88467,-3.5109 L 1.88266,-3.51006
 L 1.88066,-3.50919 L 1.87867,-3.50829 L 1.8767,-3.50735 L 1.87475,-3.50638 L 1.87282,-3.50537 L 1.8709,-3.50433
 L 1.869,-3.50325 L 1.86712,-3.50215 L 1.86526,-3.50101 L 1.86342,-3.49983 L 1.8616,-3.49863 L 1.8598,-3.49739
 L 1.85803,-3.49613 L 1.85627,-3.49483 L 1.85454,-3.4935 L 1.85283,-3.49214 L 1.85115,-3.49075 L 1.84949,-3.48934
 L 1.84786,-3.48789 L 1.84625,-3.48642 L 1.84467,-3.48492 L 1.84311,-3.48339 L 1.84158,-3.48183 L 1.84008,-3.48025
 L 1.83861,-3.47864 L 1.83716,-3.47701 L 1.83574,-3.47535 L 1.83436,-3.47366 L 1.833,-3.47196 L 1.83167,-3.47023
 L 1.83037,-3.46847 L 1.82911,-3.4667 L 1.82787,-3.4649 L 1.82667,-3.46308 L 1.82549,-3.46124 L 1.82435,-3.45938
 L 1.82325,-3.4575 L 1.82217,-3.4556 L 1.82113,-3.45368 L 1.82012,-3.45175 L 1.81915,-3.4498 L 1.81821,-3.44783
 L 1.81731,-3.44584 L 1.81644,-3.44384 L 1.8156,-3.44183 L 1.8148,-3.4398 L 1.81404,-3.43775 L 1.81331,-3.4357
 L 1.81262,-3.43363 L 1.81196,-3.43155 L 1.81134,-3.42945 L 1.81076,-3.42735 L 1.81021,-3.42524 L 1.8097,-3.42312
 L 1.80923,-3.42099 L 1.8088,-3.41885 L 1.8084,-3.41671 L 1.80804,-3.41455 L 1.80772,-3.4124 L 1.8075,-3.41076
 L 1.8075,-2.245 L 1.80651,-2.22933 L 1.80357,-2.21391 L 1.79872,-2.19899 L 1.79204,-2.18478 L 1.78363,-2.17153
 L 1.77362,-2.15943 L 1.76218,-2.14869 L 1.74948,-2.13946 L 1.73572,-2.1319 L 1.72113,-2.12612 L 1.70592,-2.12221
 L 1.69035,-2.12025 L 1.54965,-2.12025 L 1.53408,-2.12221 L 1.51887,-2.12612 L 1.50428,-2.1319 L 1.49052,-2.13946
 L 1.47782,-2.14869 L 1.46638,-2.15943 L 1.45637,-2.17153 L 1.44796,-2.18478 L 1.44128,-2.19899 L 1.43643,-2.21391
 L 1.43349,-2.22933 L 1.4325,-2.245 L 1.4325,-3.41075 L 1.43228,-3.4124 L 1.43196,-3.41455 L 1.4316,-3.41671
 L 1.4312,-3.41885 L 1.43077,-3.42099 L 1.4303,-3.42312 L 1.42979,-3.42524 L 1.42924,-3.42735 L 1.42866,-3.42945
 L 1.42804,-3.43155 L 1.42738,-3.43363 L 1.42669,-3.4357 L 1.42596,-3.43775 L 1.4252,-3.4398 L 1.4244,-3.44183
 L 1.42356,-3.44384 L 1.42269,-3.44584 L 1.42179,-3.44783 L 1.42085,-3.4498 L 1.41988,-3.45175 L 1.41887,-3.45368
 L 1.41783,-3.4556 L 1.41675,-3.4575 L 1.41565,-3.45938 L 1.41451,-3.46124 L 1.41333,-3.46308 L 1.41213,-3.4649
 L 1.41089,-3.4667 L 1.40963,-3.46847 L 1.40833,-3.47023 L 1.407,-3.47196 L 1.40564,-3.47366 L 1.40425,-3.47535
 L 1.40284,-3.47701 L 1.40139,-3.47864 L 1.39992,-3.48025 L 1.39842,-3.48183 L 1.39689,-3.48339 L 1.39533,-3.48492
 L 1.39375,-3.48642 L 1.39214,-3.48789 L 1.39051,-3.48934 L 1.38885,-3.49075 L 1.38716,-3.49214 L 1.38546,-3.4935
 L 1.38373,-3.49483 L 1.38197,-3.49613 L 1.3802,-3.49739 L 1.3784,-3.49863 L 1.37658,-3.49983 L 1.37474,-3.50101
 L 1.37288,-3.50215 L 1.371,-3.50325 L 1.3691,-3.50433 L 1.36718,-3.50537 L 1.36525,-3.50638 L 1.3633,-3.50735
 L 1.36133,-3.50829 L 1.35934,-3.50919 L 1.35734,-3.51006 L 1.35533,-3.5109 L 1.3533,-3.5117 L 1.35125,-3.51246
 L 1.3492,-3.51319 L 1.34713,-3.51388 L 1.34505,-3.51454 L 1.34295,-3.51516 L 1.34085,-3.51574 L 1.33874,-3.51629
 L 1.33662,-3.5168 L 1.33449,-3.51727 L 1.33235,-3.5177 L 1.33021,-3.5181 L 1.32805,-3.51846 L 1.3259,-3.51878
 L 1.32373,-3.51907 L 1.32157,-3.51931 L 1.31939,-3.51952 L 1.31722,-3.51969 L 1.31628,-3.51975 L 0.117151,-3.51975
 L 0.101578,-3.51779 L 0.0863733,-3.51388 L 0.0717783,-3.5081 L 0.0580225,-3.50054 L 0.0453224,-3.49131 L 0.0338793,-3.48057
 L 0.0238733,-3.46847 L 0.0154619,-3.45522 L 0.00877857,-3.44101 L 0.00392723,-3.42609 L 0.000986099,-3.41067 L 0,-3.395
 z
M 0.173499,-0.259999 L 0.173512,-0.261509 L 0.173553,-0.263019 L 0.173618,-0.264526 L 0.17371,-0.266033 L 0.173829,-0.267538
 L 0.173973,-0.269041 L 0.174145,-0.270541 L 0.174341,-0.272038 L 0.174564,-0.273531 L 0.174813,-0.27502 L 0.175089,-0.276505
 L 0.175389,-0.277984 L 0.175716,-0.279458 L 0.176069,-0.280926 L 0.176447,-0.282388 L 0.17685,-0.283842 L 0.177279,-0.28529
 L 0.177733,-0.28673 L 0.178212,-0.288161 L 0.178716,-0.289584 L 0.179245,-0.290998 L 0.179798,-0.292403 L 0.180376,-0.293797
 L 0.180978,-0.295182 L 0.181603,-0.296556 L 0.182254,-0.297918 L 0.182927,-0.29927 L 0.183624,-0.300609 L 0.184345,-0.301935
 L 0.185088,-0.303249 L 0.185855,-0.30455 L 0.186644,-0.305838 L 0.187454,-0.307111 L 0.188288,-0.30837 L 0.189143,-0.309614
 L 0.19002,-0.310843 L 0.190918,-0.312057 L 0.191836,-0.313254 L 0.192777,-0.314436 L 0.193737,-0.3156 L 0.194717,-0.316749
 L 0.195718,-0.31788 L 0.196737,-0.318993 L 0.197777,-0.320087 L 0.198834,-0.321164 L 0.199911,-0.322223 L 0.201007,-0.323261
 L 0.20212,-0.324282 L 0.203251,-0.325282 L 0.204398,-0.326262 L 0.205564,-0.327223 L 0.206745,-0.328162 L 0.207943,-0.329082
 L 0.209156,-0.32998 L 0.210385,-0.330856 L 0.211629,-0.331711 L 0.212889,-0.332544 L 0.214162,-0.333356 L 0.215448,-0.334145
 L 0.216749,-0.33491 L 0.218063,-0.335654 L 0.21939,-0.336374 L 0.220729,-0.337071 L 0.22208,-0.337746 L 0.223443,-0.338395
 L 0.224817,-0.339021 L 0.226201,-0.339623 L 0.227596,-0.340201 L 0.229001,-0.340755 L 0.230414,-0.341283 L 0.231838,-0.341787
 L 0.23327,-0.342266 L 0.23471,-0.34272 L 0.236156,-0.343148 L 0.237612,-0.343552 L 0.239074,-0.34393 L 0.240541,-0.344282
 L 0.242015,-0.344609 L 0.243495,-0.344911 L 0.244979,-0.345185 L 0.246468,-0.345434 L 0.247961,-0.345657 L 0.249457,-0.345855
 L 0.250957,-0.346025 L 0.25246,-0.34617 L 0.253965,-0.346289 L 0.255472,-0.346381 L 0.256981,-0.346447 L 0.25849,-0.346486
 L 0.259999,-0.346499 L 0.261509,-0.346486 L 0.263019,-0.346447 L 0.264526,-0.346381 L 0.266033,-0.346289 L 0.267538,-0.34617
 L 0.269041,-0.346025 L 0.270541,-0.345855 L 0.272038,-0.345657 L 0.273531,-0.345434 L 0.27502,-0.345185 L 0.276505,-0.344911
 L 0.277984,-0.344609 L 0.279458,-0.344282 L 0.280926,-0.34393 L 0.282388,-0.343552 L 0.283842,-0.343148 L 0.28529,-0.34272
 L 0.28673,-0.342266 L 0.288161,-0.341787 L 0.289584,-0.341283 L 0.290998,-0.340755 L 0.292403,-0.340201 L 0.293797,-0.339623
 L 0.295182,-0.339021 L 0.296556,-0.338395 L 0.297918,-0.337746 L 0.29927,-0.337071 L 0.300609,-0.336374 L 0.301935,-0.335654
 L 0.303249,-0.33491 L 0.30455,-0.334145 L 0.305838,-0.333356 L 0.307111,-0.332544 L 0.30837,-0.331711 L 0.309614,-0.330856
 L 0.310843,-0.32998 L 0.312057,-0.329082 L 0.313254,-0.328162 L 0.314436,-0.327223 L 0.3156,-0.326262 L 0.316749,-0.325282
 L 0.31788,-0.324282 L 0.318993,-0.323261 L 0.320087,-0.322223 L 0.321164,-0.321164 L 0.322223,-0.320087 L 0.323261,-0.318993
 L 0.324282,-0.31788 L 0.325282,-0.316749 L 0.326262,-0.3156 L 0.327223,-0.314436 L 0.328162,-0.313254 L 0.329082,-0.312057
 L 0.32998,-0.310843 L 0.330856,-0.309614 L 0.331711,-0.30837 L 0.332544,-0.307111 L 0.333356,-0.305838 L 0.334145,-0.30455
 L 0.33491,-0.303249 L 0.335654,-0.301935 L 0.336374,-0.300609 L 0.337071,-0.29927 L 0.337746,-0.297918 L 0.338395,-0.296556
 L 0.339021,-0.295182 L 0.339623,-0.293797 L 0.340201,-0.292403 L 0.340755,-0.290998 L 0.341283,-0.289584 L 0.341787,-0.288161
 L 0.342266,-0.28673 L 0.34272,-0.28529 L 0.343148,-0.283842 L 0.343552,-0.282388 L 0.34393,-0.280926 L 0.344282,-0.279458
 L 0.344609,-0.277984 L 0.344911,-0.276505 L 0.345185,-0.27502 L 0.345434,-0.273531 L 0.345657,-0.272038 L 0.345855,-0.270541
 L 0.346025,-0.269041 L 0.34617,-0.267538 L 0.346289,-0.266033 L 0.346381,-0.264526 L 0.346447,-0.263019 L 0.346486,-0.261509
 L 0.346499,-0.259999 L 0.346486,-0.25849 L 0.346447,-0.256981 L 0.346381,-0.255472 L 0.346289,-0.253965 L 0.34617,-0.25246
 L 0.346025,-0.250957 L 0.345855,-0.249457 L 0.345657,-0.247961 L 0.345434,-0.246468 L 0.345185,-0.244979 L 0.344911,-0.243495
 L 0.344609,-0.242015 L 0.344282,-0.240541 L 0.34393,-0.239074 L 0.343552,-0.237612 L 0.343148,-0.236156 L 0.34272,-0.23471
 L 0.342266,-0.23327 L 0.341787,-0.231838 L 0.341283,-0.230414 L 0.340755,-0.229001 L 0.340201,-0.227596 L 0.339623,-0.226201
 L 0.339021,-0.224817 L 0.338395,-0.223443 L 0.337746,-0.22208 L 0.337071,-0.220729 L 0.336374,-0.21939 L 0.335654,-0.218063
 L 0.33491,-0.216749 L 0.334145,-0.215448 L 0.333356,-0.214162 L 0.332544,-0.212889 L 0.331711,-0.211629 L 0.330856,-0.210385
 L 0.32998,-0.209156 L 0.329082,-0.207943 L 0.328162,-0.206745 L 0.327223,-0.205564 L 0.326262,-0.204398 L 0.325282,-0.203251
 L 0.324282,-0.20212 L 0.323261,-0.201007 L 0.322223,-0.199911 L 0.321164,-0.198834 L 0.320087,-0.197777 L 0.318993,-0.196737
 L 0.31788,-0.195718 L 0.316749,-0.194717 L 0.3156,-0.193737 L 0.314436,-0.192777 L 0.313254,-0.191836 L 0.312057,-0.190918
 L 0.310843,-0.19002 L 0.309614,-0.189143 L 0.30837,-0.188288 L 0.307111,-0.187454 L 0.305838,-0.186644 L 0.30455,-0.185855
 L 0.303249,-0.185088 L 0.301935,-0.184345 L 0.300609,-0.183624 L 0.29927,-0.182927 L 0.297918,-0.182254 L 0.296556,-0.181603
 L 0.295182,-0.180978 L 0.293797,-0.180376 L 0.292403,-0.179798 L 0.290998,-0.179245 L 0.289584,-0.178716 L 0.288161,-0.178212
 L 0.28673,-0.177733 L 0.28529,-0.177279 L 0.283842,-0.17685 L 0.282388,-0.176447 L 0.280926,-0.176069 L 0.279458,-0.175716
 L 0.277984,-0.175389 L 0.276505,-0.175089 L 0.27502,-0.174813 L 0.273531,-0.174564 L 0.272038,-0.174341 L 0.270541,-0.174145
 L 0.269041,-0.173973 L 0.267538,-0.173829 L 0.266033,-0.17371 L 0.264526,-0.173618 L 0.263019,-0.173553 L 0.261509,-0.173512
 L 0.259999,-0.173499 L 0.25849,-0.173512 L 0.256981,-0.173553 L 0.255472,-0.173618 L 0.253965,-0.17371 L 0.25246,-0.173829
 L 0.250957,-0.173973 L 0.249457,-0.174145 L 0.247961,-0.174341 L 0.246468,-0.174564 L 0.244979,-0.174813 L 0.243495,-0.175089
 L 0.242015,-0.175389 L 0.240541,-0.175716 L 0.239074,-0.176069 L 0.237612,-0.176447 L 0.236156,-0.17685 L 0.23471,-0.177279
 L 0.23327,-0.177733 L 0.231838,-0.178212 L 0.230414,-0.178716 L 0.229001,-0.179245 L 0.227596,-0.179798 L 0.226201,-0.180376
 L 0.224817,-0.180978 L 0.223443,-0.181603 L 0.22208,-0.182254 L 0.220729,-0.182927 L 0.21939,-0.183624 L 0.218063,-0.184345
 L 0.216749,-0.185088 L 0.215448,-0.185855 L 0.214162,-0.186644 L 0.212889,-0.187454 L 0.211629,-0.188288 L 0.210385,-0.189143
 L 0.209156,-0.19002 L 0.207943,-0.190918 L 0.206745,-0.191836 L 0.205564,-0.192777 L 0.204398,-0.193737 L 0.203251,-0.194717
 L 0.20212,-0.195718 L 0.201007,-0.196737 L 0.199911,-0.197777 L 0.198834,-0.198834 L 0.197777,-0.199911 L 0.196737,-0.201007
 L 0.195718,-0.20212 L 0.194717,-0.203251 L 0.193737,-0.204398 L 0.192777,-0.205564 L 0.191836,-0.206745 L 0.190918,-0.207943
 L 0.19002,-0.209156 L 0.189143,-0.210385 L 0.188288,-0.211629 L 0.187454,-0.212889 L 0.186644,-0.214162 L 0.185855,-0.215448
 L 0.185088,-0.216749 L 0.184345,-0.218063 L 0.183624,-0.21939 L 0.182927,-0.220729 L 0.182254,-0.22208 L 0.181603,-0.223443
 L 0.180978,-0.224817 L 0.180376,-0.226201 L 0.179798,-0.227596 L 0.179245,-0.229001 L 0.178716,-0.230414 L 0.178212,-0.231838
 L 0.177733,-0.23327 L 0.177279,-0.23471 L 0.17685,-0.236156 L 0.176447,-0.237612 L 0.176069,-0.239074 L 0.175716,-0.240541
 L 0.175389,-0.242015 L 0.175089,-0.243495 L 0.174813,-0.244979 L 0.174564,-0.246468 L 0.174341,-0.247961 L 0.174145,-0.249457
 L 0.173973,-0.250957 L 0.173829,-0.25246 L 0.17371,-0.253965 L 0.173618,-0.255472 L 0.173553,-0.256981 L 0.173512,-0.25849
 z
M 0.173499,-1.944 L 0.173512,-1.94551 L 0.173553,-1.94702 L 0.173618,-1.94853 L 0.17371,-1.95003 L 0.173829,-1.95154
 L 0.173973,-1.95304 L 0.174145,-1.95454 L 0.174341,-1.95604 L 0.174564,-1.95753 L 0.174813,-1.95902 L 0.175089,-1.9605
 L 0.175389,-1.96198 L 0.175716,-1.96346 L 0.176069,-1.96493 L 0.176447,-1.96639 L 0.17685,-1.96784 L 0.177279,-1.96929
 L 0.177733,-1.97073 L 0.178212,-1.97216 L 0.178716,-1.97358 L 0.179245,-1.975 L 0.179798,-1.9764 L 0.180376,-1.9778
 L 0.180978,-1.97918 L 0.181603,-1.98056 L 0.182254,-1.98192 L 0.182927,-1.98327 L 0.183624,-1.98461 L 0.184345,-1.98594
 L 0.185088,-1.98725 L 0.185855,-1.98855 L 0.186644,-1.98984 L 0.187454,-1.99111 L 0.188288,-1.99237 L 0.189143,-1.99361
 L 0.19002,-1.99484 L 0.190918,-1.99606 L 0.191836,-1.99725 L 0.192777,-1.99844 L 0.193737,-1.9996 L 0.194717,-2.00075
 L 0.195718,-2.00188 L 0.196737,-2.00299 L 0.197777,-2.00409 L 0.198834,-2.00516 L 0.199911,-2.00622 L 0.201007,-2.00726
 L 0.20212,-2.00828 L 0.203251,-2.00928 L 0.204398,-2.01026 L 0.205564,-2.01122 L 0.206745,-2.01216 L 0.207943,-2.01308
 L 0.209156,-2.01398 L 0.210385,-2.01486 L 0.211629,-2.01571 L 0.212889,-2.01654 L 0.214162,-2.01736 L 0.215448,-2.01814
 L 0.216749,-2.01891 L 0.218063,-2.01965 L 0.21939,-2.02037 L 0.220729,-2.02107 L 0.22208,-2.02175 L 0.223443,-2.0224
 L 0.224817,-2.02302 L 0.226201,-2.02362 L 0.227596,-2.0242 L 0.229001,-2.02475 L 0.230414,-2.02528 L 0.231838,-2.02579
 L 0.23327,-2.02627 L 0.23471,-2.02672 L 0.236156,-2.02715 L 0.237612,-2.02755 L 0.239074,-2.02793 L 0.240541,-2.02828
 L 0.242015,-2.02861 L 0.243495,-2.02891 L 0.244979,-2.02919 L 0.246468,-2.02943 L 0.247961,-2.02966 L 0.249457,-2.02985
 L 0.250957,-2.03003 L 0.25246,-2.03017 L 0.253965,-2.03029 L 0.255472,-2.03038 L 0.256981,-2.03045 L 0.25849,-2.03049
 L 0.259999,-2.0305 L 0.261509,-2.03049 L 0.263019,-2.03045 L 0.264526,-2.03038 L 0.266033,-2.03029 L 0.267538,-2.03017
 L 0.269041,-2.03003 L 0.270541,-2.02985 L 0.272038,-2.02966 L 0.273531,-2.02943 L 0.27502,-2.02919 L 0.276505,-2.02891
 L 0.277984,-2.02861 L 0.279458,-2.02828 L 0.280926,-2.02793 L 0.282388,-2.02755 L 0.283842,-2.02715 L 0.28529,-2.02672
 L 0.28673,-2.02627 L 0.288161,-2.02579 L 0.289584,-2.02528 L 0.290998,-2.02475 L 0.292403,-2.0242 L 0.293797,-2.02362
 L 0.295182,-2.02302 L 0.296556,-2.0224 L 0.297918,-2.02175 L 0.29927,-2.02107 L 0.300609,-2.02037 L 0.301935,-2.01965
 L 0.303249,-2.01891 L 0.30455,-2.01814 L 0.305838,-2.01736 L 0.307111,-2.01654 L 0.30837,-2.01571 L 0.309614,-2.01486
 L 0.310843,-2.01398 L 0.312057,-2.01308 L 0.313254,-2.01216 L 0.314436,-2.01122 L 0.3156,-2.01026 L 0.316749,-2.00928
 L 0.31788,-2.00828 L 0.318993,-2.00726 L 0.320087,-2.00622 L 0.321164,-2.00516 L 0.322223,-2.00409 L 0.323261,-2.00299
 L 0.324282,-2.00188 L 0.325282,-2.00075 L 0.326262,-1.9996 L 0.327223,-1.99844 L 0.328162,-1.99725 L 0.329082,-1.99606
 L 0.32998,-1.99484 L 0.330856,-1.99361 L 0.331711,-1.99237 L 0.332544,-1.99111 L 0.333356,-1.98984 L 0.334145,-1.98855
 L 0.33491,-1.98725 L 0.335654,-1.98594 L 0.336374,-1.98461 L 0.337071,-1.98327 L 0.337746,-1.98192 L 0.338395,-1.98056
 L 0.339021,-1.97918 L 0.339623,-1.9778 L 0.340201,-1.9764 L 0.340755,-1.975 L 0.341283,-1.97358 L 0.341787,-1.97216
 L 0.342266,-1.97073 L 0.34272,-1.96929 L 0.343148,-1.96784 L 0.343552,-1.96639 L 0.34393,-1.96493 L 0.344282,-1.96346
 L 0.344609,-1.96198 L 0.344911,-1.9605 L 0.345185,-1.95902 L 0.345434,-1.95753 L 0.345657,-1.95604 L 0.345855,-1.95454
 L 0.346025,-1.95304 L 0.34617,-1.95154 L 0.346289,-1.95003 L 0.346381,-1.94853 L 0.346447,-1.94702 L 0.346486,-1.94551
 L 0.346499,-1.944 L 0.346486,-1.94249 L 0.346447,-1.94098 L 0.346381,-1.93947 L 0.346289,-1.93797 L 0.34617,-1.93646
 L 0.346025,-1.93496 L 0.345855,-1.93346 L 0.345657,-1.93196 L 0.345434,-1.93047 L 0.345185,-1.92898 L 0.344911,-1.9275
 L 0.344609,-1.92601 L 0.344282,-1.92454 L 0.34393,-1.92307 L 0.343552,-1.92161 L 0.343148,-1.92016 L 0.34272,-1.91871
 L 0.342266,-1.91727 L 0.341787,-1.91584 L 0.341283,-1.91441 L 0.340755,-1.913 L 0.340201,-1.9116 L 0.339623,-1.9102
 L 0.339021,-1.90882 L 0.338395,-1.90744 L 0.337746,-1.90608 L 0.337071,-1.90473 L 0.336374,-1.90339 L 0.335654,-1.90206
 L 0.33491,-1.90075 L 0.334145,-1.89945 L 0.333356,-1.89816 L 0.332544,-1.89689 L 0.331711,-1.89563 L 0.330856,-1.89439
 L 0.32998,-1.89316 L 0.329082,-1.89194 L 0.328162,-1.89075 L 0.327223,-1.88956 L 0.326262,-1.8884 L 0.325282,-1.88725
 L 0.324282,-1.88612 L 0.323261,-1.88501 L 0.322223,-1.88391 L 0.321164,-1.88283 L 0.320087,-1.88178 L 0.318993,-1.88074
 L 0.31788,-1.87972 L 0.316749,-1.87872 L 0.3156,-1.87774 L 0.314436,-1.87678 L 0.313254,-1.87584 L 0.312057,-1.87492
 L 0.310843,-1.87402 L 0.309614,-1.87314 L 0.30837,-1.87229 L 0.307111,-1.87145 L 0.305838,-1.87064 L 0.30455,-1.86985
 L 0.303249,-1.86909 L 0.301935,-1.86835 L 0.300609,-1.86762 L 0.29927,-1.86693 L 0.297918,-1.86625 L 0.296556,-1.8656
 L 0.295182,-1.86498 L 0.293797,-1.86438 L 0.292403,-1.8638 L 0.290998,-1.86325 L 0.289584,-1.86272 L 0.288161,-1.86221
 L 0.28673,-1.86173 L 0.28529,-1.86128 L 0.283842,-1.86085 L 0.282388,-1.86045 L 0.280926,-1.86007 L 0.279458,-1.85972
 L 0.277984,-1.85939 L 0.276505,-1.85909 L 0.27502,-1.85881 L 0.273531,-1.85856 L 0.272038,-1.85834 L 0.270541,-1.85814
 L 0.269041,-1.85797 L 0.267538,-1.85783 L 0.266033,-1.85771 L 0.264526,-1.85762 L 0.263019,-1.85755 L 0.261509,-1.85751
 L 0.259999,-1.8575 L 0.25849,-1.85751 L 0.256981,-1.85755 L 0.255472,-1.85762 L 0.253965,-1.85771 L 0.25246,-1.85783
 L 0.250957,-1.85797 L 0.249457,-1.85814 L 0.247961,-1.85834 L 0.246468,-1.85856 L 0.244979,-1.85881 L 0.243495,-1.85909
 L 0.242015,-1.85939 L 0.240541,-1.85972 L 0.239074,-1.86007 L 0.237612,-1.86045 L 0.236156,-1.86085 L 0.23471,-1.86128
 L 0.23327,-1.86173 L 0.231838,-1.86221 L 0.230414,-1.86272 L 0.229001,-1.86325 L 0.227596,-1.8638 L 0.226201,-1.86438
 L 0.224817,-1.86498 L 0.223443,-1.8656 L 0.22208,-1.86625 L 0.220729,-1.86693 L 0.21939,-1.86762 L 0.218063,-1.86835
 L 0.216749,-1.86909 L 0.215448,-1.86985 L 0.214162,-1.87064 L 0.212889,-1.87145 L 0.211629,-1.87229 L 0.210385,-1.87314
 L 0.209156,-1.87402 L 0.207943,-1.87492 L 0.206745,-1.87584 L 0.205564,-1.87678 L 0.204398,-1.87774 L 0.203251,-1.87872
 L 0.20212,-1.87972 L 0.201007,-1.88074 L 0.199911,-1.88178 L 0.198834,-1.88283 L 0.197777,-1.88391 L 0.196737,-1.88501
 L 0.195718,-1.88612 L 0.194717,-1.88725 L 0.193737,-1.8884 L 0.192777,-1.88956 L 0.191836,-1.89075 L 0.190918,-1.89194
 L 0.19002,-1.89316 L 0.189143,-1.89439 L 0.188288,-1.89563 L 0.187454,-1.89689 L 0.186644,-1.89816 L 0.185855,-1.89945
 L 0.185088,-1.90075 L 0.184345,-1.90206 L 0.183624,-1.90339 L 0.182927,-1.90473 L 0.182254,-1.90608 L 0.181603,-1.90744
 L 0.180978,-1.90882 L 0.180376,-1.9102 L 0.179798,-1.9116 L 0.179245,-1.913 L 0.178716,-1.91441 L 0.178212,-1.91584
 L 0.177733,-1.91727 L 0.177279,-1.91871 L 0.17685,-1.92016 L 0.176447,-1.92161 L 0.176069,-1.92307 L 0.175716,-1.92454
 L 0.175389,-1.92601 L 0.175089,-1.9275 L 0.174813,-1.92898 L 0.174564,-1.93047 L 0.174341,-1.93196 L 0.174145,-1.93346
 L 0.173973,-1.93496 L 0.173829,-1.93646 L 0.17371,-1.93797 L 0.173618,-1.93947 L 0.173553,-1.94098 L 0.173512,-1.94249
 z
M 0.173499,-3.26 L 0.173512,-3.26151 L 0.173553,-3.26302 L 0.173618,-3.26453 L 0.17371,-3.26603 L 0.173829,-3.26754
 L 0.173973,-3.26904 L 0.174145,-3.27054 L 0.174341,-3.27204 L 0.174564,-3.27353 L 0.174813,-3.27502 L 0.175089,-3.2765
 L 0.175389,-3.27798 L 0.175716,-3.27946 L 0.176069,-3.28093 L 0.176447,-3.28239 L 0.17685,-3.28384 L 0.177279,-3.28529
 L 0.177733,-3.28673 L 0.178212,-3.28816 L 0.178716,-3.28958 L 0.179245,-3.291 L 0.179798,-3.2924 L 0.180376,-3.2938
 L 0.180978,-3.29518 L 0.181603,-3.29656 L 0.182254,-3.29792 L 0.182927,-3.29927 L 0.183624,-3.30061 L 0.184345,-3.30194
 L 0.185088,-3.30325 L 0.185855,-3.30455 L 0.186644,-3.30584 L 0.187454,-3.30711 L 0.188288,-3.30837 L 0.189143,-3.30961
 L 0.19002,-3.31084 L 0.190918,-3.31206 L 0.191836,-3.31325 L 0.192777,-3.31444 L 0.193737,-3.3156 L 0.194717,-3.31675
 L 0.195718,-3.31788 L 0.196737,-3.31899 L 0.197777,-3.32009 L 0.198834,-3.32116 L 0.199911,-3.32222 L 0.201007,-3.32326
 L 0.20212,-3.32428 L 0.203251,-3.32528 L 0.204398,-3.32626 L 0.205564,-3.32722 L 0.206745,-3.32816 L 0.207943,-3.32908
 L 0.209156,-3.32998 L 0.210385,-3.33086 L 0.211629,-3.33171 L 0.212889,-3.33254 L 0.214162,-3.33336 L 0.215448,-3.33414
 L 0.216749,-3.33491 L 0.218063,-3.33565 L 0.21939,-3.33637 L 0.220729,-3.33707 L 0.22208,-3.33775 L 0.223443,-3.3384
 L 0.224817,-3.33902 L 0.226201,-3.33962 L 0.227596,-3.3402 L 0.229001,-3.34075 L 0.230414,-3.34128 L 0.231838,-3.34179
 L 0.23327,-3.34227 L 0.23471,-3.34272 L 0.236156,-3.34315 L 0.237612,-3.34355 L 0.239074,-3.34393 L 0.240541,-3.34428
 L 0.242015,-3.34461 L 0.243495,-3.34491 L 0.244979,-3.34519 L 0.246468,-3.34543 L 0.247961,-3.34566 L 0.249457,-3.34585
 L 0.250957,-3.34603 L 0.25246,-3.34617 L 0.253965,-3.34629 L 0.255472,-3.34638 L 0.256981,-3.34645 L 0.25849,-3.34649
 L 0.259999,-3.3465 L 0.261509,-3.34649 L 0.263019,-3.34645 L 0.264526,-3.34638 L 0.266033,-3.34629 L 0.267538,-3.34617
 L 0.269041,-3.34603 L 0.270541,-3.34585 L 0.272038,-3.34566 L 0.273531,-3.34543 L 0.27502,-3.34519 L 0.276505,-3.34491
 L 0.277984,-3.34461 L 0.279458,-3.34428 L 0.280926,-3.34393 L 0.282388,-3.34355 L 0.283842,-3.34315 L 0.28529,-3.34272
 L 0.28673,-3.34227 L 0.288161,-3.34179 L 0.289584,-3.34128 L 0.290998,-3.34075 L 0.292403,-3.3402 L 0.293797,-3.33962
 L 0.295182,-3.33902 L 0.296556,-3.3384 L 0.297918,-3.33775 L 0.29927,-3.33707 L 0.300609,-3.33637 L 0.301935,-3.33565
 L 0.303249,-3.33491 L 0.30455,-3.33414 L 0.305838,-3.33336 L 0.307111,-3.33254 L 0.30837,-3.33171 L 0.309614,-3.33086
 L 0.310843,-3.32998 L 0.312057,-3.32908 L 0.313254,-3.32816 L 0.314436,-3.32722 L 0.3156,-3.32626 L 0.316749,-3.32528
 L 0.31788,-3.32428 L 0.318993,-3.32326 L 0.320087,-3.32222 L 0.321164,-3.32116 L 0.322223,-3.32009 L 0.323261,-3.31899
 L 0.324282,-3.31788 L 0.325282,-3.31675 L 0.326262,-3.3156 L 0.327223,-3.31444 L 0.328162,-3.31325 L 0.329082,-3.31206
 L 0.32998,-3.31084 L 0.330856,-3.30961 L 0.331711,-3.30837 L 0.332544,-3.30711 L 0.333356,-3.30584 L 0.334145,-3.30455
 L 0.33491,-3.30325 L 0.335654,-3.30194 L 0.336374,-3.30061 L 0.337071,-3.29927 L 0.337746,-3.29792 L 0.338395,-3.29656
 L 0.339021,-3.29518 L 0.339623,-3.2938 L 0.340201,-3.2924 L 0.340755,-3.291 L 0.341283,-3.28958 L 0.341787,-3.28816
 L 0.342266,-3.28673 L 0.34272,-3.28529 L 0.343148,-3.28384 L 0.343552,-3.28239 L 0.34393,-3.28093 L 0.344282,-3.27946
 L 0.344609,-3.27798 L 0.344911,-3.2765 L 0.345185,-3.27502 L 0.345434,-3.27353 L 0.345657,-3.27204 L 0.345855,-3.27054
 L 0.346025,-3.26904 L 0.34617,-3.26754 L 0.346289,-3.26603 L 0.346381,-3.26453 L 0.346447,-3.26302 L 0.346486,-3.26151
 L 0.346499,-3.26 L 0.346486,-3.25849 L 0.346447,-3.25698 L 0.346381,-3.25547 L 0.346289,-3.25397 L 0.34617,-3.25246
 L 0.346025,-3.25096 L 0.345855,-3.24946 L 0.345657,-3.24796 L 0.345434,-3.24647 L 0.345185,-3.24498 L 0.344911,-3.24349
 L 0.344609,-3.24201 L 0.344282,-3.24054 L 0.34393,-3.23907 L 0.343552,-3.23761 L 0.343148,-3.23616 L 0.34272,-3.23471
 L 0.342266,-3.23327 L 0.341787,-3.23184 L 0.341283,-3.23041 L 0.340755,-3.229 L 0.340201,-3.2276 L 0.339623,-3.2262
 L 0.339021,-3.22482 L 0.338395,-3.22344 L 0.337746,-3.22208 L 0.337071,-3.22073 L 0.336374,-3.21939 L 0.335654,-3.21806
 L 0.33491,-3.21675 L 0.334145,-3.21545 L 0.333356,-3.21416 L 0.332544,-3.21289 L 0.331711,-3.21163 L 0.330856,-3.21039
 L 0.32998,-3.20916 L 0.329082,-3.20794 L 0.328162,-3.20675 L 0.327223,-3.20556 L 0.326262,-3.2044 L 0.325282,-3.20325
 L 0.324282,-3.20212 L 0.323261,-3.20101 L 0.322223,-3.19991 L 0.321164,-3.19883 L 0.320087,-3.19778 L 0.318993,-3.19674
 L 0.31788,-3.19572 L 0.316749,-3.19472 L 0.3156,-3.19374 L 0.314436,-3.19278 L 0.313254,-3.19184 L 0.312057,-3.19092
 L 0.310843,-3.19002 L 0.309614,-3.18914 L 0.30837,-3.18829 L 0.307111,-3.18745 L 0.305838,-3.18664 L 0.30455,-3.18585
 L 0.303249,-3.18509 L 0.301935,-3.18435 L 0.300609,-3.18362 L 0.29927,-3.18293 L 0.297918,-3.18225 L 0.296556,-3.1816
 L 0.295182,-3.18098 L 0.293797,-3.18038 L 0.292403,-3.1798 L 0.290998,-3.17924 L 0.289584,-3.17872 L 0.288161,-3.17821
 L 0.28673,-3.17773 L 0.28529,-3.17728 L 0.283842,-3.17685 L 0.282388,-3.17645 L 0.280926,-3.17607 L 0.279458,-3.17572
 L 0.277984,-3.17539 L 0.276505,-3.17509 L 0.27502,-3.17481 L 0.273531,-3.17456 L 0.272038,-3.17434 L 0.270541,-3.17414
 L 0.269041,-3.17397 L 0.267538,-3.17383 L 0.266033,-3.17371 L 0.264526,-3.17362 L 0.263019,-3.17355 L 0.261509,-3.17351
 L 0.259999,-3.1735 L 0.25849,-3.17351 L 0.256981,-3.17355 L 0.255472,-3.17362 L 0.253965,-3.17371 L 0.25246,-3.17383
 L 0.250957,-3.17397 L 0.249457,-3.17414 L 0.247961,-3.17434 L 0.246468,-3.17456 L 0.244979,-3.17481 L 0.243495,-3.17509
 L 0.242015,-3.17539 L 0.240541,-3.17572 L 0.239074,-3.17607 L 0.237612,-3.17645 L 0.236156,-3.17685 L 0.23471,-3.17728
 L 0.23327,-3.17773 L 0.231838,-3.17821 L 0.230414,-3.17872 L 0.229001,-3.17924 L 0.227596,-3.1798 L 0.226201,-3.18038
 L 0.224817,-3.18098 L 0.223443,-3.1816 L 0.22208,-3.18225 L 0.220729,-3.18293 L 0.21939,-3.18362 L 0.218063,-3.18435
 L 0.216749,-3.18509 L 0.215448,-3.18585 L 0.214162,-3.18664 L 0.212889,-3.18745 L 0.211629,-3.18829 L 0.210385,-3.18914
 L 0.209156,-3.19002 L 0.207943,-3.19092 L 0.206745,-3.19184 L 0.205564,-3.19278 L 0.204398,-3.19374 L 0.203251,-3.19472
 L 0.20212,-3.19572 L 0.201007,-3.19674 L 0.199911,-3.19778 L 0.198834,-3.19883 L 0.197777,-3.19991 L 0.196737,-3.20101
 L 0.195718,-3.20212 L 0.194717,-3.20325 L 0.193737,-3.2044 L 0.192777,-3.20556 L 0.191836,-3.20675 L 0.190918,-3.20794
 L 0.19002,-3.20916 L 0.189143,-3.21039 L 0.188288,-3.21163 L 0.187454,-3.21289 L 0.186644,-3.21416 L 0.185855,-3.21545
 L 0.185088,-3.21675 L 0.184345,-3.21806 L 0.183624,-3.21939 L 0.182927,-3.22073 L 0.182254,-3.22208 L 0.181603,-3.22344
 L 0.180978,-3.22482 L 0.180376,-3.2262 L 0.179798,-3.2276 L 0.179245,-3.229 L 0.178716,-3.23041 L 0.178212,-3.23184
 L 0.177733,-3.23327 L 0.177279,-3.23471 L 0.17685,-3.23616 L 0.176447,-3.23761 L 0.176069,-3.23907 L 0.175716,-3.24054
 L 0.175389,-3.24201 L 0.175089,-3.24349 L 0.174813,-3.24498 L 0.174564,-3.24647 L 0.174341,-3.24796 L 0.174145,-3.24946
 L 0.173973,-3.25096 L 0.173829,-3.25246 L 0.17371,-3.25397 L 0.173618,-3.25547 L 0.173553,-3.25698 L 0.173512,-3.25849
 z
M 2.8935,-0.259999 L 2.89351,-0.261509 L 2.89355,-0.263019 L 2.89362,-0.264526 L 2.89371,-0.266033 L 2.89383,-0.267538
 L 2.89397,-0.269041 L 2.89414,-0.270541 L 2.89434,-0.272038 L 2.89456,-0.273531 L 2.89481,-0.27502 L 2.89509,-0.276505
 L 2.89539,-0.277984 L 2.89572,-0.279458 L 2.89607,-0.280926 L 2.89645,-0.282388 L 2.89685,-0.283842 L 2.89728,-0.28529
 L 2.89773,-0.28673 L 2.89821,-0.288161 L 2.89872,-0.289584 L 2.89925,-0.290998 L 2.8998,-0.292403 L 2.90038,-0.293797
 L 2.90098,-0.295182 L 2.9016,-0.296556 L 2.90225,-0.297918 L 2.90293,-0.29927 L 2.90362,-0.300609 L 2.90434,-0.301935
 L 2.90509,-0.303249 L 2.90585,-0.30455 L 2.90664,-0.305838 L 2.90745,-0.307111 L 2.90829,-0.30837 L 2.90914,-0.309614
 L 2.91002,-0.310843 L 2.91092,-0.312057 L 2.91184,-0.313254 L 2.91278,-0.314436 L 2.91374,-0.3156 L 2.91472,-0.316749
 L 2.91572,-0.31788 L 2.91674,-0.318993 L 2.91778,-0.320087 L 2.91883,-0.321164 L 2.91991,-0.322223 L 2.92101,-0.323261
 L 2.92212,-0.324282 L 2.92325,-0.325282 L 2.9244,-0.326262 L 2.92556,-0.327223 L 2.92674,-0.328162 L 2.92794,-0.329082
 L 2.92916,-0.32998 L 2.93039,-0.330856 L 2.93163,-0.331711 L 2.93289,-0.332544 L 2.93416,-0.333356 L 2.93545,-0.334145
 L 2.93675,-0.33491 L 2.93806,-0.335654 L 2.93939,-0.336374 L 2.94073,-0.337071 L 2.94208,-0.337746 L 2.94344,-0.338395
 L 2.94482,-0.339021 L 2.9462,-0.339623 L 2.9476,-0.340201 L 2.949,-0.340755 L 2.95041,-0.341283 L 2.95184,-0.341787
 L 2.95327,-0.342266 L 2.95471,-0.34272 L 2.95616,-0.343148 L 2.95761,-0.343552 L 2.95907,-0.34393 L 2.96054,-0.344282
 L 2.96202,-0.344609 L 2.96349,-0.344911 L 2.96498,-0.345185 L 2.96647,-0.345434 L 2.96796,-0.345657 L 2.96946,-0.345855
 L 2.97096,-0.346025 L 2.97246,-0.34617 L 2.97397,-0.346289 L 2.97547,-0.346381 L 2.97698,-0.346447 L 2.97849,-0.346486
 L 2.98,-0.346499 L 2.98151,-0.346486 L 2.98302,-0.346447 L 2.98453,-0.346381 L 2.98603,-0.346289 L 2.98754,-0.34617
 L 2.98904,-0.346025 L 2.99054,-0.345855 L 2.99204,-0.345657 L 2.99353,-0.345434 L 2.99502,-0.345185 L 2.9965,-0.344911
 L 2.99798,-0.344609 L 2.99946,-0.344282 L 3.00093,-0.34393 L 3.00239,-0.343552 L 3.00384,-0.343148 L 3.00529,-0.34272
 L 3.00673,-0.342266 L 3.00816,-0.341787 L 3.00958,-0.341283 L 3.011,-0.340755 L 3.0124,-0.340201 L 3.0138,-0.339623
 L 3.01518,-0.339021 L 3.01656,-0.338395 L 3.01792,-0.337746 L 3.01927,-0.337071 L 3.02061,-0.336374 L 3.02194,-0.335654
 L 3.02325,-0.33491 L 3.02455,-0.334145 L 3.02584,-0.333356 L 3.02711,-0.332544 L 3.02837,-0.331711 L 3.02961,-0.330856
 L 3.03084,-0.32998 L 3.03206,-0.329082 L 3.03325,-0.328162 L 3.03444,-0.327223 L 3.0356,-0.326262 L 3.03675,-0.325282
 L 3.03788,-0.324282 L 3.03899,-0.323261 L 3.04009,-0.322223 L 3.04116,-0.321164 L 3.04222,-0.320087 L 3.04326,-0.318993
 L 3.04428,-0.31788 L 3.04528,-0.316749 L 3.04626,-0.3156 L 3.04722,-0.314436 L 3.04816,-0.313254 L 3.04908,-0.312057
 L 3.04998,-0.310843 L 3.05086,-0.309614 L 3.05171,-0.30837 L 3.05254,-0.307111 L 3.05336,-0.305838 L 3.05414,-0.30455
 L 3.05491,-0.303249 L 3.05565,-0.301935 L 3.05637,-0.300609 L 3.05707,-0.29927 L 3.05774,-0.297918 L 3.0584,-0.296556
 L 3.05902,-0.295182 L 3.05962,-0.293797 L 3.0602,-0.292403 L 3.06075,-0.290998 L 3.06128,-0.289584 L 3.06179,-0.288161
 L 3.06227,-0.28673 L 3.06272,-0.28529 L 3.06315,-0.283842 L 3.06355,-0.282388 L 3.06393,-0.280926 L 3.06428,-0.279458
 L 3.06461,-0.277984 L 3.06491,-0.276505 L 3.06519,-0.27502 L 3.06543,-0.273531 L 3.06566,-0.272038 L 3.06586,-0.270541
 L 3.06603,-0.269041 L 3.06617,-0.267538 L 3.06629,-0.266033 L 3.06638,-0.264526 L 3.06645,-0.263019 L 3.06649,-0.261509
 L 3.0665,-0.259999 L 3.06649,-0.25849 L 3.06645,-0.256981 L 3.06638,-0.255472 L 3.06629,-0.253965 L 3.06617,-0.25246
 L 3.06603,-0.250957 L 3.06586,-0.249457 L 3.06566,-0.247961 L 3.06543,-0.246468 L 3.06519,-0.244979 L 3.06491,-0.243495
 L 3.06461,-0.242015 L 3.06428,-0.240541 L 3.06393,-0.239074 L 3.06355,-0.237612 L 3.06315,-0.236156 L 3.06272,-0.23471
 L 3.06227,-0.23327 L 3.06179,-0.231838 L 3.06128,-0.230414 L 3.06075,-0.229001 L 3.0602,-0.227596 L 3.05962,-0.226201
 L 3.05902,-0.224817 L 3.0584,-0.223443 L 3.05774,-0.22208 L 3.05707,-0.220729 L 3.05637,-0.21939 L 3.05565,-0.218063
 L 3.05491,-0.216749 L 3.05414,-0.215448 L 3.05336,-0.214162 L 3.05254,-0.212889 L 3.05171,-0.211629 L 3.05086,-0.210385
 L 3.04998,-0.209156 L 3.04908,-0.207943 L 3.04816,-0.206745 L 3.04722,-0.205564 L 3.04626,-0.204398 L 3.04528,-0.203251
 L 3.04428,-0.20212 L 3.04326,-0.201007 L 3.04222,-0.199911 L 3.04116,-0.198834 L 3.04009,-0.197777 L 3.03899,-0.196737
 L 3.03788,-0.195718 L 3.03675,-0.194717 L 3.0356,-0.193737 L 3.03444,-0.192777 L 3.03325,-0.191836 L 3.03206,-0.190918
 L 3.03084,-0.19002 L 3.02961,-0.189143 L 3.02837,-0.188288 L 3.02711,-0.187454 L 3.02584,-0.186644 L 3.02455,-0.185855
 L 3.02325,-0.185088 L 3.02194,-0.184345 L 3.02061,-0.183624 L 3.01927,-0.182927 L 3.01792,-0.182254 L 3.01656,-0.181603
 L 3.01518,-0.180978 L 3.0138,-0.180376 L 3.0124,-0.179798 L 3.011,-0.179245 L 3.00958,-0.178716 L 3.00816,-0.178212
 L 3.00673,-0.177733 L 3.00529,-0.177279 L 3.00384,-0.17685 L 3.00239,-0.176447 L 3.00093,-0.176069 L 2.99946,-0.175716
 L 2.99798,-0.175389 L 2.9965,-0.175089 L 2.99502,-0.174813 L 2.99353,-0.174564 L 2.99204,-0.174341 L 2.99054,-0.174145
 L 2.98904,-0.173973 L 2.98754,-0.173829 L 2.98603,-0.17371 L 2.98453,-0.173618 L 2.98302,-0.173553 L 2.98151,-0.173512
 L 2.98,-0.173499 L 2.97849,-0.173512 L 2.97698,-0.173553 L 2.97547,-0.173618 L 2.97397,-0.17371 L 2.97246,-0.173829
 L 2.97096,-0.173973 L 2.96946,-0.174145 L 2.96796,-0.174341 L 2.96647,-0.174564 L 2.96498,-0.174813 L 2.96349,-0.175089
 L 2.96202,-0.175389 L 2.96054,-0.175716 L 2.95907,-0.176069 L 2.95761,-0.176447 L 2.95616,-0.17685 L 2.95471,-0.177279
 L 2.95327,-0.177733 L 2.95184,-0.178212 L 2.95041,-0.178716 L 2.949,-0.179245 L 2.9476,-0.179798 L 2.9462,-0.180376
 L 2.94482,-0.180978 L 2.94344,-0.181603 L 2.94208,-0.182254 L 2.94073,-0.182927 L 2.93939,-0.183624 L 2.93806,-0.184345
 L 2.93675,-0.185088 L 2.93545,-0.185855 L 2.93416,-0.186644 L 2.93289,-0.187454 L 2.93163,-0.188288 L 2.93039,-0.189143
 L 2.92916,-0.19002 L 2.92794,-0.190918 L 2.92674,-0.191836 L 2.92556,-0.192777 L 2.9244,-0.193737 L 2.92325,-0.194717
 L 2.92212,-0.195718 L 2.92101,-0.196737 L 2.91991,-0.197777 L 2.91883,-0.198834 L 2.91778,-0.199911 L 2.91674,-0.201007
 L 2.91572,-0.20212 L 2.91472,-0.203251 L 2.91374,-0.204398 L 2.91278,-0.205564 L 2.91184,-0.206745 L 2.91092,-0.207943
 L 2.91002,-0.209156 L 2.90914,-0.210385 L 2.90829,-0.211629 L 2.90745,-0.212889 L 2.90664,-0.214162 L 2.90585,-0.215448
 L 2.90509,-0.216749 L 2.90434,-0.218063 L 2.90362,-0.21939 L 2.90293,-0.220729 L 2.90225,-0.22208 L 2.9016,-0.223443
 L 2.90098,-0.224817 L 2.90038,-0.226201 L 2.8998,-0.227596 L 2.89925,-0.229001 L 2.89872,-0.230414 L 2.89821,-0.231838
 L 2.89773,-0.23327 L 2.89728,-0.23471 L 2.89685,-0.236156 L 2.89645,-0.237612 L 2.89607,-0.239074 L 2.89572,-0.240541
 L 2.89539,-0.242015 L 2.89509,-0.243495 L 2.89481,-0.244979 L 2.89456,-0.246468 L 2.89434,-0.247961 L 2.89414,-0.249457
 L 2.89397,-0.250957 L 2.89383,-0.25246 L 2.89371,-0.253965 L 2.89362,-0.255472 L 2.89355,-0.256981 L 2.89351,-0.25849
 z
M 2.8935,-1.944 L 2.89351,-1.94551 L 2.89355,-1.94702 L 2.89362,-1.94853 L 2.89371,-1.95003 L 2.89383,-1.95154
 L 2.89397,-1.95304 L 2.89414,-1.95454 L 2.89434,-1.95604 L 2.89456,-1.95753 L 2.89481,-1.95902 L 2.89509,-1.9605
 L 2.89539,-1.96198 L 2.89572,-1.96346 L 2.89607,-1.96493 L 2.89645,-1.96639 L 2.89685,-1.96784 L 2.89728,-1.96929
 L 2.89773,-1.97073 L 2.89821,-1.97216 L 2.89872,-1.97358 L 2.89925,-1.975 L 2.8998,-1.9764 L 2.90038,-1.9778
 L 2.90098,-1.97918 L 2.9016,-1.98056 L 2.90225,-1.98192 L 2.90293,-1.98327 L 2.90362,-1.98461 L 2.90434,-1.98594
 L 2.90509,-1.98725 L 2.90585,-1.98855 L 2.90664,-1.98984 L 2.90745,-1.99111 L 2.90829,-1.99237 L 2.90914,-1.99361
 L 2.91002,-1.99484 L 2.91092,-1.99606 L 2.91184,-1.99725 L 2.91278,-1.99844 L 2.91374,-1.9996 L 2.91472,-2.00075
 L 2.91572,-2.00188 L 2.91674,-2.00299 L 2.91778,-2.00409 L 2.91883,-2.00516 L 2.91991,-2.00622 L 2.92101,-2.00726
 L 2.92212,-2.00828 L 2.92325,-2.00928 L 2.9244,-2.01026 L 2.92556,-2.01122 L 2.92674,-2.01216 L 2.92794,-2.01308
 L 2.92916,-2.01398 L 2.93039,-2.01486 L 2.93163,-2.01571 L 2.93289,-2.01654 L 2.93416,-2.01736 L 2.93545,-2.01814
 L 2.93675,-2.01891 L 2.93806,-2.01965 L 2.93939,-2.02037 L 2.94073,-2.02107 L 2.94208,-2.02175 L 2.94344,-2.0224
 L 2.94482,-2.02302 L 2.9462,-2.02362 L 2.9476,-2.0242 L 2.949,-2.02475 L 2.95041,-2.02528 L 2.95184,-2.02579
 L 2.95327,-2.02627 L 2.95471,-2.02672 L 2.95616,-2.02715 L 2.95761,-2.02755 L 2.95907,-2.02793 L 2.96054,-2.02828
 L 2.96202,-2.02861 L 2.96349,-2.02891 L 2.96498,-2.02919 L 2.96647,-2.02943 L 2.96796,-2.02966 L 2.96946,-2.02985
 L 2.97096,-2.03003 L 2.97246,-2.03017 L 2.97397,-2.03029 L 2.97547,-2.03038 L 2.97698,-2.03045 L 2.97849,-2.03049
 L 2.98,-2.0305 L 2.98151,-2.03049 L 2.98302,-2.03045 L 2.98453,-2.03038 L 2.98603,-2.03029 L 2.98754,-2.03017
 L 2.98904,-2.03003 L 2.99054,-2.02985 L 2.99204,-2.02966 L 2.99353,-2.02943 L 2.99502,-2.02919 L 2.9965,-2.02891
 L 2.99798,-2.02861 L 2.99946,-2.02828 L 3.00093,-2.02793 L 3.00239,-2.02755 L 3.00384,-2.02715 L 3.00529,-2.02672
 L 3.00673,-2.02627 L 3.00816,-2.02579 L 3.00958,-2.02528 L 3.011,-2.02475 L 3.0124,-2.0242 L 3.0138,-2.02362
 L 3.01518,-2.02302 L 3.01656,-2.0224 L 3.01792,-2.02175 L 3.01927,-2.02107 L 3.02061,-2.02037 L 3.02194,-2.01965
 L 3.02325,-2.01891 L 3.02455,-2.01814 L 3.02584,-2.01736 L 3.02711,-2.01654 L 3.02837,-2.01571 L 3.02961,-2.01486
 L 3.03084,-2.01398 L 3.03206,-2.01308 L 3.03325,-2.01216 L 3.03444,-2.01122 L 3.0356,-2.01026 L 3.03675,-2.00928
 L 3.03788,-2.00828 L 3.03899,-2.00726 L 3.04009,-2.00622 L 3.04116,-2.00516 L 3.04222,-2.00409 L 3.04326,-2.00299
 L 3.04428,-2.00188 L 3.04528,-2.00075 L 3.04626,-1.9996 L 3.04722,-1.99844 L 3.04816,-1.99725 L 3.04908,-1.99606
 L 3.04998,-1.99484 L 3.05086,-1.99361 L 3.05171,-1.99237 L 3.05254,-1.99111 L 3.05336,-1.98984 L 3.05414,-1.98855
 L 3.05491,-1.98725 L 3.05565,-1.98594 L 3.05637,-1.98461 L 3.05707,-1.98327 L 3.05774,-1.98192 L 3.0584,-1.98056
 L 3.05902,-1.97918 L 3.05962,-1.9778 L 3.0602,-1.9764 L 3.06075,-1.975 L 3.06128,-1.97358 L 3.06179,-1.97216
 L 3.06227,-1.97073 L 3.06272,-1.96929 L 3.06315,-1.96784 L 3.06355,-1.96639 L 3.06393,-1.96493 L 3.06428,-1.96346
 L 3.06461,-1.96198 L 3.06491,-1.9605 L 3.06519,-1.95902 L 3.06543,-1.95753 L 3.06566,-1.95604 L 3.06586,-1.95454
 L 3.06603,-1.95304 L 3.06617,-1.95154 L 3.06629,-1.95003 L 3.06638,-1.94853 L 3.06645,-1.94702 L 3.06649,-1.94551
 L 3.0665,-1.944 L 3.06649,-1.94249 L 3.06645,-1.94098 L 3.06638,-1.93947 L 3.06629,-1.93797 L 3.06617,-1.93646
 L 3.06603,-1.93496 L 3.06586,-1.93346 L 3.06566,-1.93196 L 3.06543,-1.93047 L 3.06519,-1.92898 L 3.06491,-1.9275
 L 3.06461,-1.92601 L 3.06428,-1.92454 L 3.06393,-1.92307 L 3.06355,-1.92161 L 3.06315,-1.92016 L 3.06272,-1.91871
 L 3.06227,-1.91727 L 3.06179,-1.91584 L 3.06128,-1.91441 L 3.06075,-1.913 L 3.0602,-1.9116 L 3.05962,-1.9102
 L 3.05902,-1.90882 L 3.0584,-1.90744 L 3.05774,-1.90608 L 3.05707,-1.90473 L 3.05637,-1.90339 L 3.05565,-1.90206
 L 3.05491,-1.90075 L 3.05414,-1.89945 L 3.05336,-1.89816 L 3.05254,-1.89689 L 3.05171,-1.89563 L 3.05086,-1.89439
 L 3.04998,-1.89316 L 3.04908,-1.89194 L 3.04816,-1.89075 L 3.04722,-1.88956 L 3.04626,-1.8884 L 3.04528,-1.88725
 L 3.04428,-1.88612 L 3.04326,-1.88501 L 3.04222,-1.88391 L 3.04116,-1.88283 L 3.04009,-1.88178 L 3.03899,-1.88074
 L 3.03788,-1.87972 L 3.03675,-1.87872 L 3.0356,-1.87774 L 3.03444,-1.87678 L 3.03325,-1.87584 L 3.03206,-1.87492
 L 3.03084,-1.87402 L 3.02961,-1.87314 L 3.02837,-1.87229 L 3.02711,-1.87145 L 3.02584,-1.87064 L 3.02455,-1.86985
 L 3.02325,-1.86909 L 3.02194,-1.86835 L 3.02061,-1.86762 L 3.01927,-1.86693 L 3.01792,-1.86625 L 3.01656,-1.8656
 L 3.01518,-1.86498 L 3.0138,-1.86438 L 3.0124,-1.8638 L 3.011,-1.86325 L 3.00958,-1.86272 L 3.00816,-1.86221
 L 3.00673,-1.86173 L 3.00529,-1.86128 L 3.00384,-1.86085 L 3.00239,-1.86045 L 3.00093,-1.86007 L 2.99946,-1.85972
 L 2.99798,-1.85939 L 2.9965,-1.85909 L 2.99502,-1.85881 L 2.99353,-1.85856 L 2.99204,-1.85834 L 2.99054,-1.85814
 L 2.98904,-1.85797 L 2.98754,-1.85783 L 2.98603,-1.85771 L 2.98453,-1.85762 L 2.98302,-1.85755 L 2.98151,-1.85751
 L 2.98,-1.8575 L 2.97849,-1.85751 L 2.97698,-1.85755 L 2.97547,-1.85762 L 2.97397,-1.85771 L 2.97246,-1.85783
 L 2.97096,-1.85797 L 2.96946,-1.85814 L 2.96796,-1.85834 L 2.96647,-1.85856 L 2.96498,-1.85881 L 2.96349,-1.85909
 L 2.96202,-1.85939 L 2.96054,-1.85972 L 2.95907,-1.86007 L 2.95761,-1.86045 L 2.95616,-1.86085 L 2.95471,-1.86128
 L 2.95327,-1.86173 L 2.95184,-1.86221 L 2.95041,-1.86272 L 2.949,-1.86325 L 2.9476,-1.8638 L 2.9462,-1.86438
 L 2.94482,-1.86498 L 2.94344,-1.8656 L 2.94208,-1.86625 L 2.94073,-1.86693 L 2.93939,-1.86762 L 2.93806,-1.86835
 L 2.93675,-1.86909 L 2.93545,-1.86985 L 2.93416,-1.87064 L 2.93289,-1.87145 L 2.93163,-1.87229 L 2.93039,-1.87314
 L 2.92916,-1.87402 L 2.92794,-1.87492 L 2.92674,-1.87584 L 2.92556,-1.87678 L 2.9244,-1.87774 L 2.92325,-1.87872
 L 2.92212,-1.87972 L 2.92101,-1.88074 L 2.91991,-1.88178 L 2.91883,-1.88283 L 2.91778,-1.88391 L 2.91674,-1.88501
 L 2.91572,-1.88612 L 2.91472,-1.88725 L 2.91374,-1.8884 L 2.91278,-1.88956 L 2.91184,-1.89075 L 2.91092,-1.89194
 L 2.91002,-1.89316 L 2.90914,-1.89439 L 2.90829,-1.89563 L 2.90745,-1.89689 L 2.90664,-1.89816 L 2.90585,-1.89945
 L 2.90509,-1.90075 L 2.90434,-1.90206 L 2.90362,-1.90339 L 2.90293,-1.90473 L 2.90225,-1.90608 L 2.9016,-1.90744
 L 2.90098,-1.90882 L 2.90038,-1.9102 L 2.8998,-1.9116 L 2.89925,-1.913 L 2.89872,-1.91441 L 2.89821,-1.91584
 L 2.89773,-1.91727 L 2.89728,-1.91871 L 2.89685,-1.92016 L 2.89645,-1.92161 L 2.89607,-1.92307 L 2.89572,-1.92454
 L 2.89539,-1.92601 L 2.89509,-1.9275 L 2.89481,-1.92898 L 2.89456,-1.93047 L 2.89434,-1.93196 L 2.89414,-1.93346
 L 2.89397,-1.93496 L 2.89383,-1.93646 L 2.89371,-1.93797 L 2.89362,-1.93947 L 2.89355,-1.94098 L 2.89351,-1.94249
 z
M 2.8935,-3.26 L 2.89351,-3.26151 L 2.89355,-3.26302 L 2.89362,-3.26453 L 2.89371,-3.26603 L 2.89383,-3.26754
 L 2.89397,-3.26904 L 2.89414,-3.27054 L 2.89434,-3.27204 L 2.89456,-3.27353 L 2.89481,-3.27502 L 2.89509,-3.2765
 L 2.89539,-3.27798 L 2.89572,-3.27946 L 2.89607,-3.28093 L 2.89645,-3.28239 L 2.89685,-3.28384 L 2.89728,-3.28529
 L 2.89773,-3.28673 L 2.89821,-3.28816 L 2.89872,-3.28958 L 2.89925,-3.291 L 2.8998,-3.2924 L 2.90038,-3.2938
 L 2.90098,-3.29518 L 2.9016,-3.29656 L 2.90225,-3.29792 L 2.90293,-3.29927 L 2.90362,-3.30061 L 2.90434,-3.30194
 L 2.90509,-3.30325 L 2.90585,-3.30455 L 2.90664,-3.30584 L 2.90745,-3.30711 L 2.90829,-3.30837 L 2.90914,-3.30961
 L 2.91002,-3.31084 L 2.91092,-3.31206 L 2.91184,-3.31325 L 2.91278,-3.31444 L 2.91374,-3.3156 L 2.91472,-3.31675
 L 2.91572,-3.31788 L 2.91674,-3.31899 L 2.91778,-3.32009 L 2.91883,-3.32116 L 2.91991,-3.32222 L 2.92101,-3.32326
 L 2.92212,-3.32428 L 2.92325,-3.32528 L 2.9244,-3.32626 L 2.92556,-3.32722 L 2.92674,-3.32816 L 2.92794,-3.32908
 L 2.92916,-3.32998 L 2.93039,-3.33086 L 2.93163,-3.33171 L 2.93289,-3.33254 L 2.93416,-3.33336 L 2.93545,-3.33414
 L 2.93675,-3.33491 L 2.93806,-3.33565 L 2.93939,-3.33637 L 2.94073,-3.33707 L 2.94208,-3.33775 L 2.94344,-3.3384
 L 2.94482,-3.33902 L 2.9462,-3.33962 L 2.9476,-3.3402 L 2.949,-3.34075 L 2.95041,-3.34128 L 2.95184,-3.34179
 L 2.95327,-3.34227 L 2.95471,-3.34272 L 2.95616,-3.34315 L 2.95761,-3.34355 L 2.95907,-3.34393 L 2.96054,-3.34428
 L 2.96202,-3.34461 L 2.96349,-3.34491 L 2.96498,-3.34519 L 2.96647,-3.34543 L 2.96796,-3.34566 L 2.96946,-3.34585
 L 2.97096,-3.34603 L 2.97246,-3.34617 L 2.97397,-3.34629 L 2.97547,-3.34638 L 2.97698,-3.34645 L 2.97849,-3.34649
 L 2.98,-3.3465 L 2.98151,-3.34649 L 2.98302,-3.34645 L 2.98453,-3.34638 L 2.98603,-3.34629 L 2.98754,-3.34617
 L 2.98904,-3.34603 L 2.99054,-3.34585 L 2.99204,-3.34566 L 2.99353,-3.34543 L 2.99502,-3.34519 L 2.9965,-3.34491
 L 2.99798,-3.34461 L 2.99946,-3.34428 L 3.00093,-3.34393 L 3.00239,-3.34355 L 3.00384,-3.34315 L 3.00529,-3.34272
 L 3.00673,-3.34227 L 3.00816,-3.34179 L 3.00958,-3.34128 L 3.011,-3.34075 L 3.0124,-3.3402 L 3.0138,-3.33962
 L 3.01518,-3.33902 L 3.01656,-3.3384 L 3.01792,-3.33775 L 3.01927,-3.33707 L 3.02061,-3.33637 L 3.02194,-3.33565
 L 3.02325,-3.33491 L 3.02455,-3.33414 L 3.02584,-3.33336 L 3.02711,-3.33254 L 3.02837,-3.33171 L 3.02961,-3.33086
 L 3.03084,-3.32998 L 3.03206,-3.32908 L 3.03325,-3.32816 L 3.03444,-3.32722 L 3.0356,-3.32626 L 3.03675,-3.32528
 L 3.03788,-3.32428 L 3.03899,-3.32326 L 3.04009,-3.32222 L 3.04116,-3.32116 L 3.04222,-3.32009 L 3.04326,-3.31899
 L 3.04428,-3.31788 L 3.04528,-3.31675 L 3.04626,-3.3156 L 3.04722,-3.31444 L 3.04816,-3.31325 L 3.04908,-3.31206
 L 3.04998,-3.31084 L 3.05086,-3.30961 L 3.05171,-3.30837 L 3.05254,-3.30711 L 3.05336,-3.30584 L 3.05414,-3.30455
 L 3.05491,-3.30325 L 3.05565,-3.30194 L 3.05637,-3.30061 L 3.05707,-3.29927 L 3.05774,-3.29792 L 3.0584,-3.29656
 L 3.05902,-3.29518 L 3.05962,-3.2938 L 3.0602,-3.2924 L 3.06075,-3.291 L 3.06128,-3.28958 L 3.06179,-3.28816
 L 3.06227,-3.28673 L 3.06272,-3.28529 L 3.06315,-3.28384 L 3.06355,-3.28239 L 3.06393,-3.28093 L 3.06428,-3.27946
 L 3.06461,-3.27798 L 3.06491,-3.2765 L 3.06519,-3.27502 L 3.06543,-3.27353 L 3.06566,-3.27204 L 3.06586,-3.27054
 L 3.06603,-3.26904 L 3.06617,-3.26754 L 3.06629,-3.26603 L 3.06638,-3.26453 L 3.06645,-3.26302 L 3.06649,-3.26151
 L 3.0665,-3.26 L 3.06649,-3.25849 L 3.06645,-3.25698 L 3.06638,-3.25547 L 3.06629,-3.25397 L 3.06617,-3.25246
 L 3.06603,-3.25096 L 3.06586,-3.24946 L 3.06566,-3.24796 L 3.06543,-3.24647 L 3.06519,-3.24498 L 3.06491,-3.24349
 L 3.06461,-3.24201 L 3.06428,-3.24054 L 3.06393,-3.23907 L 3.06355,-3.23761 L 3.06315,-3.23616 L 3.06272,-3.23471
 L 3.06227,-3.23327 L 3.06179,-3.23184 L 3.06128,-3.23041 L 3.06075,-3.229 L 3.0602,-3.2276 L 3.05962,-3.2262
 L 3.05902,-3.22482 L 3.0584,-3.22344 L 3.05774,-3.22208 L 3.05707,-3.22073 L 3.05637,-3.21939 L 3.05565,-3.21806
 L 3.05491,-3.21675 L 3.05414,-3.21545 L 3.05336,-3.21416 L 3.05254,-3.21289 L 3.05171,-3.21163 L 3.05086,-3.21039
 L 3.04998,-3.20916 L 3.04908,-3.20794 L 3.04816,-3.20675 L 3.04722,-3.20556 L 3.04626,-3.2044 L 3.04528,-3.20325
 L 3.04428,-3.20212 L 3.04326,-3.20101 L 3.04222,-3.19991 L 3.04116,-3.19883 L 3.04009,-3.19778 L 3.03899,-3.19674
 L 3.03788,-3.19572 L 3.03675,-3.19472 L 3.0356,-3.19374 L 3.03444,-3.19278 L 3.03325,-3.19184 L 3.03206,-3.19092
 L 3.03084,-3.19002 L 3.02961,-3.18914 L 3.02837,-3.18829 L 3.02711,-3.18745 L 3.02584,-3.18664 L 3.02455,-3.18585
 L 3.02325,-3.18509 L 3.02194,-3.18435 L 3.02061,-3.18362 L 3.01927,-3.18293 L 3.01792,-3.18225 L 3.01656,-3.1816
 L 3.01518,-3.18098 L 3.0138,-3.18038 L 3.0124,-3.1798 L 3.011,-3.17924 L 3.00958,-3.17872 L 3.00816,-3.17821
 L 3.00673,-3.17773 L 3.00529,-3.17728 L 3.00384,-3.17685 L 3.00239,-3.17645 L 3.00093,-3.17607 L 2.99946,-3.17572
 L 2.99798,-3.17539 L 2.9965,-3.17509 L 2.99502,-3.17481 L 2.99353,-3.17456 L 2.99204,-3.17434 L 2.99054,-3.17414
 L 2.98904,-3.17397 L 2.98754,-3.17383 L 2.98603,-3.17371 L 2.98453,-3.17362 L 2.98302,-3.17355 L 2.98151,-3.17351
 L 2.98,-3.1735 L 2.97849,-3.17351 L 2.97698,-3.17355 L 2.97547,-3.17362 L 2.97397,-3.17371 L 2.97246,-3.17383
 L 2.97096,-3.17397 L 2.96946,-3.17414 L 2.96796,-3.17434 L 2.96647,-3.17456 L 2.96498,-3.17481 L 2.96349,-3.17509
 L 2.96202,-3.17539 L 2.96054,-3.17572 L 2.95907,-3.17607 L 2.95761,-3.17645 L 2.95616,-3.17685 L 2.95471,-3.17728
 L 2.95327,-3.17773 L 2.95184,-3.17821 L 2.95041,-3.17872 L 2.949,-3.17924 L 2.9476,-3.1798 L 2.9462,-3.18038
 L 2.94482,-3.18098 L 2.94344,-3.1816 L 2.94208,-3.18225 L 2.94073,-3.18293 L 2.93939,-3.18362 L 2.93806,-3.18435
 L 2.93675,-3.18509 L 2.93545,-3.18585 L 2.93416,-3.18664 L 2.93289,-3.18745 L 2.93163,-3.18829 L 2.93039,-3.18914
 L 2.92916,-3.19002 L 2.92794,-3.19092 L 2.92674,-3.19184 L 2.92556,-3.19278 L 2.9244,-3.19374 L 2.92325,-3.19472
 L 2.92212,-3.19572 L 2.92101,-3.19674 L 2.91991,-3.19778 L 2.91883,-3.19883 L 2.91778,-3.19991 L 2.91674,-3.20101
 L 2.91572,-3.20212 L 2.91472,-3.20325 L 2.91374,-3.2044 L 2.91278,-3.20556 L 2.91184,-3.20675 L 2.91092,-3.20794
 L 2.91002,-3.20916 L 2.90914,-3.21039 L 2.90829,-3.21163 L 2.90745,-3.21289 L 2.90664,-3.21416 L 2.90585,-3.21545
 L 2.90509,-3.21675 L 2.90434,-3.21806 L 2.90362,-3.21939 L 2.90293,-3.22073 L 2.90225,-3.22208 L 2.9016,-3.22344
 L 2.90098,-3.22482 L 2.90038,-3.2262 L 2.8998,-3.2276 L 2.89925,-3.229 L 2.89872,-3.23041 L 2.89821,-3.23184
 L 2.89773,-3.23327 L 2.89728,-3.23471 L 2.89685,-3.23616 L 2.89645,-3.23761 L 2.89607,-3.23907 L 2.89572,-3.24054
 L 2.89539,-3.24201 L 2.89509,-3.24349 L 2.89481,-3.24498 L 2.89456,-3.24647 L 2.89434,-3.24796 L 2.89414,-3.24946
 L 2.89397,-3.25096 L 2.89383,-3.25246 L 2.89371,-3.25397 L 2.89362,-3.25547 L 2.89355,-3.25698 L 2.89351,-3.25849
 z
" stroke="black" fill="lightgray" stroke-width="0.001"/>
</svg>
